<?xml version="1.0" encoding="utf-8"?>
<!-- Generator: Adobe Illustrator 21.1.0, SVG Export Plug-In . SVG Version: 6.00 Build 0)  -->
<svg version="1.1" id="Layer_1" xmlns="http://www.w3.org/2000/svg" xmlns:xlink="http://www.w3.org/1999/xlink" x="0px" y="0px"
	 viewBox="0 0 300 60" style="enable-background:new 0 0 300 60;" xml:space="preserve">
<g>
	<path id="path78" d="M30,54.4c-6.4,0-12.1-2.7-16.2-7l-4.9,2.9C14,56.2,21.6,60,30,60c8.4,0,15.9-3.7,21-9.6l-4.9-2.9
		C42,51.8,36.3,54.4,30,54.4"/>
	<path id="path82" d="M30,50.4c4.8,0,9.2-1.9,12.5-4.9l-5.1-2.9c-2.1,1.5-4.6,2.4-7.4,2.4c-2.8,0-5.4-0.9-7.5-2.4l-5.1,2.9
		C20.7,48.5,25.1,50.4,30,50.4"/>
	<path id="path86" d="M33.6,4.5V0h-7.3v4.5C12.7,6.2,2.1,17.9,2.1,32.1c0,3.1,0.5,6.1,1.5,9l4.9-2.9c-0.6-1.9-0.9-4-0.9-6.1
		c0-11.1,8.1-20.3,18.7-22v4.1c-8.4,1.7-14.6,9.1-14.6,17.9c0,1.4,0.2,2.7,0.4,4l5.1-2.9c0-0.4-0.1-0.7-0.1-1.1
		c0-7.1,5.7-12.8,12.8-12.8c7.1,0,12.8,5.7,12.8,12.8c0,0.4,0,0.8-0.1,1.2l5.1,2.9c0.3-1.3,0.5-2.7,0.5-4.2
		c0-8.9-6.3-16.2-14.7-17.9v-4.1c10.6,1.7,18.7,10.9,18.7,22c0,2.2-0.3,4.3-0.9,6.3l4.9,2.9c1-2.9,1.5-5.9,1.5-9.1
		C57.9,17.9,47.3,6.2,33.6,4.5"/>
	<path id="path90" d="M17.5,34.9L0.4,44.9L4,51.2l17.1-9.9C19.4,39.6,18.1,37.4,17.5,34.9"/>
	<path id="path94" d="M42.5,34.9l17.2,9.9l-3.6,6.3l-17.1-9.9C40.7,39.6,41.9,37.4,42.5,34.9"/>
	<path id="path158" d="M171.9,11.5c0-0.4-0.4-0.9-1-0.9h-36.6c-0.5,0-1,0.3-1,0.9V19c0.1,0.5,0.5,0.8,1,0.9h12l0,28.6
		c0.1,0.5,0.4,0.8,0.9,0.8h10.7c0.5,0,0.9-0.4,1-1l0-28.5h12c0.6,0,1-0.4,1-1"/>
	<path id="path162" d="M103.4,11.5c0-0.4-0.4-0.9-1-0.9H65.8c-0.5,0-1,0.3-1,0.9V19c0.1,0.5,0.5,0.8,1,0.9h12l0,28.6
		c0.1,0.5,0.4,0.8,0.9,0.8h10.7c0.5,0,0.9-0.4,1-1l0-28.5h12c0.6,0,1-0.4,1-1"/>
	<path id="path166" d="M201.1,40.4h-13.5V10.7h-11.2c-0.4,0-0.9,0.3-1,1l0,30.2c0,3.7,3.2,7.3,7.2,7.4h23.5c4-0.1,7.2-3.4,7.1-7.4
		V11.6c-0.1-0.4-0.5-0.9-1-0.8h-11.1L201.1,40.4"/>
	<path id="path170" d="M257.4,11.5c0-0.4-0.3-0.9-1-0.9h-10.2V34l-13.1-23.4h-13.2c-0.6,0-1,0.6-1,1v36.8c0,0.6,0.4,0.9,1,1l10.2,0
		V23.9l14.3,25.5l12,0c0.6-0.1,1-0.4,1-1"/>
	<path id="path174" d="M299.4,26.1c0-0.7-0.5-1-1-1h-17.8v8.6h6.7c0.9-0.1,1.3,0.6,1.2,1.2v5.6l-14,0l0-20.7l24.3,0l0-7.3
		c-0.2-1.7-1.5-1.9-2-1.9l-27.3,0c-3.9,0-7.2,3.3-7.2,7.2v24.4c0,3.9,3.2,7.2,7.2,7.2h22.7c3.9,0,7.2-3.2,7.2-7.2"/>
	<path id="path178" d="M113.7,35.7l4.6-14.3l4.6,14.3C122.9,35.7,113.7,35.7,113.7,35.7z M139.5,48.2L125,11
		c-0.2-0.3-0.4-0.6-0.9-0.6l-11.7,0c-0.4,0-0.8,0.2-1,0.7L97,48.2c-0.2,0.9,0.4,1.3,0.9,1.3h11.3l1.8-5.5h14.6l1.8,5.5h11.2
		C139,49.5,139.8,49.1,139.5,48.2"/>
</g>
</svg>
