<?xml version="1.0" encoding="utf-8"?>
<!-- Generator: Adobe Illustrator 21.1.0, SVG Export Plug-In . SVG Version: 6.00 Build 0)  -->
<svg version="1.1"
	 id="Layer_1" xmlns:cc="http://creativecommons.org/ns#" xmlns:dc="http://purl.org/dc/elements/1.1/" xmlns:rdf="http://www.w3.org/1999/02/22-rdf-syntax-ns#"
	 xmlns="http://www.w3.org/2000/svg" xmlns:xlink="http://www.w3.org/1999/xlink" x="0px" y="0px" viewBox="0 0 200 200.2"
	 style="enable-background:new 0 0 200 200.2;" xml:space="preserve">
<g>
	<path d="M101.2,85.1c-8.3,0-14.9,6.7-14.9,15s6.7,15,14.9,15c8.3,0,14.9-6.7,14.9-15S109.4,85.1,101.2,85.1z"/>
	<path d="M100,0C44.6,0,0,44.7,0,100.1c0,55.4,44.6,100.1,100,100.1c55.5,0,100-44.7,100-100.1C200,44.7,155.5,0,100,0z M65.8,130.8
		H49.3V124c0,0-4.2,7.5-14.9,7.5c-17.4,0-31.4-14-31.4-31.4c0-17.4,14-31.4,31.4-31.4v0c17.4,0,31.4,14,31.4,31.4V130.8z
		 M101.2,131.5c-17.4,0-31.4-14-31.4-31.4v-53l16.5,0v29.2c0,0,4.2-7.6,14.9-7.6c17.4,0,31.3,14,31.3,31.4
		C132.5,117.5,118.5,131.5,101.2,131.5z M166.5,131.5c-17.4,0-31.4-14-31.4-31.4c0-17.4,14-31.4,31.4-31.4l0,0
		c15,0,27.5,10.5,30.6,24.5h-17.3c-2.5-4.8-7.5-8.1-13.3-8.1c-8.3,0-14.9,6.7-14.9,15s6.6,15,14.9,15c5.8,0,10.8-3.3,13.3-8.1h17.3
		C194,121.1,181.5,131.5,166.5,131.5z"/>
	<path d="M34.4,85.1c-8.3,0-14.9,6.7-14.9,15s6.6,15,14.9,15s14.9-6.7,14.9-15S42.7,85.1,34.4,85.1z"/>
</g>
</svg>
