<?xml version="1.0" encoding="utf-8"?>
<!-- Generator: Adobe Illustrator 21.1.0, SVG Export Plug-In . SVG Version: 6.00 Build 0)  -->
<svg version="1.1"
	 id="svg3151" inkscape:version="0.48.5 r10040" sodipodi:docname="Acdc_logo_band.svg" xmlns:cc="http://creativecommons.org/ns#" xmlns:dc="http://purl.org/dc/elements/1.1/" xmlns:inkscape="http://www.inkscape.org/namespaces/inkscape" xmlns:rdf="http://www.w3.org/1999/02/22-rdf-syntax-ns#" xmlns:sodipodi="http://sodipodi.sourceforge.net/DTD/sodipodi-0.dtd" xmlns:svg="http://www.w3.org/2000/svg"
	 xmlns="http://www.w3.org/2000/svg" xmlns:xlink="http://www.w3.org/1999/xlink" x="0px" y="0px" viewBox="0 0 390.2 166.7"
	 style="enable-background:new 0 0 390.2 166.7;" xml:space="preserve">
<sodipodi:namedview  bordercolor="#666666" borderopacity="1" gridtolerance="10" guidetolerance="10" id="namedview3165" inkscape:current-layer="svg3151" inkscape:cx="398.36704" inkscape:cy="90.827932" inkscape:pageopacity="0" inkscape:pageshadow="2" inkscape:window-height="705" inkscape:window-maximized="1" inkscape:window-width="1366" inkscape:window-x="-8" inkscape:window-y="-8" inkscape:zoom="1.2231111" objecttolerance="10" pagecolor="#ffffff" showgrid="false">
	</sodipodi:namedview>
<path id="path3117" inkscape:connector-curvature="0" sodipodi:nodetypes="cccccccccccc" d="M90.6,126.3l0-85.4l35.1-32.5l36.8,34.4
	l-20.1,19.4l-24.7-22.5l0.2,78.4l4.4,4.1l19.7-17.8l19.5,17.5L124.3,157L90.6,126.3z"/>
<path id="path3119" inkscape:connector-curvature="0" d="M0,135c3.4-3.1,6.7-6.3,10.1-9.4c0.1-27.4,0.2-54.8,0.3-82.3
	c12.4-11.5,24.9-23,37.3-34.4c11.6,10.7,23.2,21.3,34.7,32c0.2,28.4,0.3,56.8,0.5,85.2c3.3,2.7,6.7,5.4,10,8.1
	c-7.7,7.7-15.5,15.5-23.2,23.2c-7.9-7.5-15.7-14.9-23.6-22.4c3.2-3.2,6.4-6.4,9.6-9.6c0-5.6,0.1-11.2,0.1-16.9
	c-6.1,0.1-12.2,0.3-18.3,0.4c-0.1,5.4-0.1,10.8-0.2,16.1c3.2,3.3,6.5,6.6,9.7,9.9c-7.7,7.4-15.4,14.9-23.1,22.3
	C15.9,149.9,7.9,142.4,0,135L0,135z M55.8,55.1c-6.2-5.6-12.5-11.3-18.7-16.9c0,14.6,0.1,29.3,0.1,43.9c6.2,0,12.5,0,18.7,0.1
	C55.9,73.1,55.8,64.1,55.8,55.1L55.8,55.1z"/>
<path id="path3123" inkscape:connector-curvature="0" sodipodi:nodetypes="cccccccccccccccc" d="M247.7,156.5L227.6,137l10.7-9.8
	l-0.2-88.8l-10-9.8l19.7-19.3l33.7-0.1l28.8,27.3l-0.2,93.2l-28.9,26.8L247.7,156.5z M283.5,115l-0.2-63.5L264.7,34l0.4,98.2
	L283.5,115z"/>
<path id="path3125" inkscape:connector-curvature="0" sodipodi:nodetypes="ccccccccccccc" d="M334.8,143.5l-16.2-16.8V40.1
	l34.1-31.7l37.5,34.4l-20.3,18.7l-24.7-22.6l0.1,79.1l4.4,4l20-18.5l19.8,18.3l-39.7,36.6L334.8,143.5z"/>
<path id="path3121" inkscape:connector-curvature="0" sodipodi:nodetypes="cccccccc" d="M159.2,166.7l23.9-64.7l-21.9-0.7l29.6-63.1
	l29.6,0.1l-14.5,38.4l22.9-0.2L159.2,166.7z"/>
</svg>
