<?xml version="1.0" encoding="utf-8"?>
<!-- Generator: Adobe Illustrator 21.1.0, SVG Export Plug-In . SVG Version: 6.00 Build 0)  -->
<svg version="1.1"
	 id="Layer_1" inkscape:version="0.48.1 " sodipodi:docname="AJAX.svg" xmlns:cc="http://creativecommons.org/ns#" xmlns:dc="http://purl.org/dc/elements/1.1/" xmlns:inkscape="http://www.inkscape.org/namespaces/inkscape" xmlns:rdf="http://www.w3.org/1999/02/22-rdf-syntax-ns#" xmlns:sodipodi="http://sodipodi.sourceforge.net/DTD/sodipodi-0.dtd" xmlns:svg="http://www.w3.org/2000/svg"
	 xmlns="http://www.w3.org/2000/svg" xmlns:xlink="http://www.w3.org/1999/xlink" x="0px" y="0px" viewBox="0 0 45 35.3"
	 style="enable-background:new 0 0 45 35.3;" xml:space="preserve">
<defs>
	
	
		<inkscape:perspective  id="perspective43" inkscape:persp3d-origin="350.78601 : 41.179334 : 1" inkscape:vp_x="0 : 61.769001 : 1" inkscape:vp_y="0 : 1000 : 0" inkscape:vp_z="701.57202 : 61.769001 : 1" sodipodi:type="inkscape:persp3d">
		</inkscape:perspective>
</defs>
<sodipodi:namedview  bordercolor="#666666" borderopacity="1" fit-margin-bottom="0" fit-margin-left="0" fit-margin-right="0" fit-margin-top="0" gridtolerance="10" guidetolerance="10" id="namedview37" inkscape:current-layer="g3" inkscape:cx="221.55216" inkscape:cy="40.667323" inkscape:pageopacity="0" inkscape:pageshadow="2" inkscape:window-height="1004" inkscape:window-maximized="1" inkscape:window-width="1280" inkscape:window-x="-8" inkscape:window-y="-8" inkscape:zoom="2.4203458" objecttolerance="10" pagecolor="#ffffff" showgrid="false">
	</sodipodi:namedview>
<path id="path9" inkscape:connector-curvature="0" d="M31.1,10.7c0.7,0,1.2,0.2,1.6,0.4c0.8,0.4,1.8,0.8,3,1.4c0,0,1.9-1.4,2-1.4
	c0.7-0.4,1.3-0.1,1.5,0.3c0.7,1.4,2,4.2,2.7,6.7c0.1,0.3,0,0.8-0.5,0.9c-0.3,0.1-0.8,0.2-1.3,0.2c-0.7,0.1-0.7,0.7-0.7,1
	c0,0.4,0,3.3,0,4.2c0,0.6-0.4,2.5-2.7,2.5c-0.2,0-5.2,0-5.1,0c-1.9,0-3.5-1.6-3.5-3.4c0-1.1,0-9.2,0-10.1
	C28.1,11.8,29.7,10.7,31.1,10.7L31.1,10.7z"/>
<path id="path11" inkscape:connector-curvature="0" d="M22.9,27H6.2v1.9h19.6c0,0,0.7-1.6,0.7-3.5c0-0.1,0-12.6,0-12.6
	c0-1,0.4-2.7,2.4-3.1c0.1,0,0.1,0,0.2,0C35,8.3,40.9,9.5,44.3,11c0.6,0.3,0.7-0.2,0.7-0.4c0.1-2.8-2.1-6.1-6-6.3
	c-3.2-0.1-5,1.1-5.7,1.4c0,0-0.1,0-0.2-0.1c-0.6-0.6-1.9-1.5-3.3-1.9c-0.2,0-0.2-0.4,0-0.4c3-0.3,5.7,0,6.8,0.2
	c0.3,0,0.4-0.1,0.3-0.3c-0.1-0.2-0.1-0.3-0.3-0.5c-0.3-0.6-1-1.2-1.9-1.5C32.5,0.6,28.4,0,24.7,0c-4.1,0-8.4,0.8-9.5,1
	c-0.3,0.1-0.6,0.2-0.7,0.2c-0.3,0.1-0.4,0.3-0.2,0.5c0.1,0.1,0.3,0.3,0.4,0.4c0.1,0.2,0.2,0.4-0.1,0.7L7.1,9.5h5.2h0.1
	c0.3,0,0.7,0.3,0.7,0.7c0,0.3-0.3,0.7-0.6,0.7l0,0H5.6l-2.1,1.9h8.8l0,0c0.3,0,0.6,0.4,0.6,0.7s-0.3,0.7-0.6,0.7h-0.1H2.1L0,16h17.8
	h0.1c0.3,0,0.6,0.4,0.6,0.7c0,0.4-0.3,0.7-0.6,0.7l0,0H0v1.9h17.7h0.1c0.4,0,0.6,0.4,0.6,0.7c0,0.3-0.3,0.6-0.7,0.6l0,0H0v1.9h23.2
	h0.1c0.4,0,0.6,0.3,0.6,0.7c0,0.3-0.3,0.7-0.6,0.7l0,0H6.2v1.9h16.7h0.3c0.3,0,0.6,0.4,0.6,0.7c0,0.3-0.3,0.7-0.6,0.7L22.9,27
	L22.9,27z"/>
<path id="path13" inkscape:connector-curvature="0" d="M12.5,33.4v1.9c0,0,2.5,0,3.9,0c3.5,0,5.8-1.9,5.8-1.9H12.5L12.5,33.4z"/>
<path id="path15" inkscape:connector-curvature="0" d="M12.5,30.2v1.9h11.3c0.5-0.5,1.2-1.5,1.4-1.9L12.5,30.2L12.5,30.2z"/>
</svg>
