<?xml version="1.0" encoding="utf-8"?>
<!-- Generator: Adobe Illustrator 21.1.0, SVG Export Plug-In . SVG Version: 6.00 Build 0)  -->
<svg version="1.1" id="Layer_1" xmlns="http://www.w3.org/2000/svg" xmlns:xlink="http://www.w3.org/1999/xlink" x="0px" y="0px"
	 viewBox="0 0 298.1 298" style="enable-background:new 0 0 298.1 298;" xml:space="preserve">
<path d="M142.9,274.6C76.3,271.4,23.3,216.4,23.3,149c0-69.5,56.3-125.8,125.8-125.8c69.4,0,125.7,56.3,125.7,125.8
	c0,58.9-40.5,108.4-95.2,122l-0.1,23.9c67.7-14,118.6-74,118.6-145.9c0-82.3-66.7-149-149-149S0,66.7,0,149s66.7,149,149,149
	c2,0,4.1,0,6.1-0.1v-99.5l46.3,28.6v-15.2l29.9,4.2l-18.9-25l13.4-4.9l-24.4-14.6c-5.5-3-4.3-8.5,0-10.4l40.8-26.8l-13.4-4.9
	l15.8-25.6l-29.2,6.1l0.6-15.2l-33.5,21.9c-6.1,3.7-11,2.4-11-9.1V58.3l-12.2,9.1l-10.4-26.2l-10.4,26.2l-12.2-9.1v49.3
	c0,11.6-4.9,12.8-11,9.1L82.1,94.8l0.6,15.2l-29.2-6.1l15.8,25.6l-13.4,4.9l40.8,26.8c4.3,1.8,5.5,7.3,0,10.4l-24.4,14.6l13.4,4.9
	l-18.9,25l29.8-4.3V227l46.3-28.6V274.6"/>
</svg>
