<?xml version="1.0" encoding="utf-8"?>
<!-- Generator: Adobe Illustrator 21.1.0, SVG Export Plug-In . SVG Version: 6.00 Build 0)  -->
<svg version="1.1" id="Layer_1" xmlns="http://www.w3.org/2000/svg" xmlns:xlink="http://www.w3.org/1999/xlink" x="0px" y="0px"
	 viewBox="0 0 268.3 154.5" style="enable-background:new 0 0 268.3 154.5;" xml:space="preserve">
<title>alpha</title>
<path d="M0,42.4h57.5l0.1-0.1l0-0.1l0-42.3h37.7v42.4h48.7l0.3-0.3v-42L181.6,0v42l0.4,0.4h86.2v69.8H124.1v42.2H86.5l0,0l0-0.1
	l0-42.1H0V61.2h37.9L37.8,93H29v-23H8.9v33.3h48.7V51.1H0V42.4L0,42.4z M230.8,93.1v-23h-20.3v33.3h49.1V51.1H173V8.9h-20.1v94.5
	H173l0-42l0-0.1l0,0h8.6v42.1h20.2V61.2h37.6v31.8H230.8L230.8,93.1z M144.2,103.4V51.1H95.3v42.2h-8.9V8.9H66.5l0.1,94.6h28.7v42.4
	h20.2v-42.4H144.2L144.2,103.4z"/>
<polygon points="115.5,61.2 124,61.2 124,93.3 115.5,93.3 115.5,61.2 "/>
</svg>
