<?xml version="1.0" encoding="utf-8"?>
<!-- Generator: Adobe Illustrator 21.1.0, SVG Export Plug-In . SVG Version: 6.00 Build 0)  -->
<svg version="1.1" id="Layer_1" xmlns="http://www.w3.org/2000/svg" xmlns:xlink="http://www.w3.org/1999/xlink" x="0px" y="0px"
	 viewBox="0 0 156.6 46.8" style="enable-background:new 0 0 156.6 46.8;" xml:space="preserve">
<path d="M15.8,37.2c-1.5,0-2.7-0.5-3.5-1.5c-0.8-1-1.1-2.4-0.7-3.9c0.9-3.2,4.3-5.7,7.8-5.7h8.3l-3,11H15.8z M39.6,4.2
	C37.2,1.3,33.4,0,30.7,0h-15l-2.6,9.5h14.2l1.4,0.1c0,0,1.3,0.2,2,1.1c0.6,0.8,0.7,2,0.2,3.6l-0.7,2.5h-8.9
	c-7.7,0-18.4,5.5-20.8,14.4c-1.2,4.4-0.1,8.3,2.2,11.1c2.3,2.8,6.6,4.4,11.3,4.4h8.3h0h10.5l4.9-18.4l3.6-13.5
	C42.7,9.5,41.2,6.1,39.6,4.2"/>
<path d="M142.8,0c-4.1,0-7.8,1.2-10.9,3.5c-3.1,2.3-4.8,5.1-5.8,8.9c-2.2,8.3,4.3,12.2,9.5,15.1c3.7,2,7,3.8,6.3,6.4
	c-0.5,1.9-1.3,3.5-5.9,3.5h-14l-2.5,9.5h15.5c4.2,0,8-0.9,11.1-3.2c3.1-2.4,4.9-5.7,5.9-9.8c1-3.9,0.3-7.5-2.1-10.3
	c-2.1-2.3-5.1-3.9-7.7-5.3c-3.4-1.8-6.5-3.5-6-5.6c0.3-1.3,1.6-3,4.3-3h13.7l2.6-9.5H142.8z"/>
<path d="M61.4,0c-4.1,0-7.8,1.2-10.9,3.5c-3.1,2.3-4.8,5.1-5.8,8.9c-2.2,8.3,4.3,12.2,9.5,15.1c3.7,2,7,3.8,6.3,6.4
	c-0.5,1.9-1.3,3.5-5.9,3.5h-14l-2.6,9.5h15.5c4.2,0,8-0.9,11.1-3.2c3.1-2.4,4.9-5.7,5.9-9.8c1-3.9,0.3-7.5-2.1-10.3
	c-2.1-2.3-5.1-3.9-7.7-5.3c-3.4-1.8-6.5-3.5-6-5.6c0.3-1.3,1.6-3,4.3-3h13.6L75.2,0H61.4z"/>
<polygon points="82.6,0 70.4,46.7 80.7,46.7 92.9,0 "/>
<path d="M120.3,0c-18.1,0.1-27.6,12.1-30.6,23.4c-3.6,13.3,3.5,23.4,16.5,23.4h8.7l2.5-9.5h-8.7c-4.9,0-11.5-3.8-8.8-13.9
	c2.1-8,9.9-13.9,18.5-13.9h5.5l2.6-9.5L120.3,0L120.3,0z"/>
</svg>
