<?xml version="1.0" encoding="utf-8"?>
<!-- Generator: Adobe Illustrator 21.1.0, SVG Export Plug-In . SVG Version: 6.00 Build 0)  -->
<svg version="1.1" id="Layer_1" xmlns="http://www.w3.org/2000/svg" xmlns:xlink="http://www.w3.org/1999/xlink" x="0px" y="0px"
	 viewBox="0 0 137.4 28.8" style="enable-background:new 0 0 137.4 28.8;" xml:space="preserve">
<g id="g10" transform="matrix(1.3333333,0,0,-1.3333333,0,234.94667)">
	<g id="g12" transform="scale(0.1)">
		<path id="path14" d="M217.1,1718.6h17.2v43.4H217l0,0l0,0c-38.4,0-69.6-31.1-69.6-69.6c0-23.2,11.4-43.8,28.9-56.4
			c12.3-9.2,15.4-16.1,15.5-21.8c0-13.4-10.1-22.1-23-23.7v-43.6c37,1.6,66.5,32.1,66.5,69.5c0,10.5-2.4,20.7-6.5,29.5
			c-9.1,16-21.9,21.5-27.7,25.8c-6.2,4.8-10.1,12.2-10.1,20.7C190.9,1706.9,202.6,1718.6,217.1,1718.6
			C217,1718.6,217.1,1718.6,217.1,1718.6L217.1,1718.6"/>
		<path id="path16" d="M162.2,1547v43.6c-13,1.5-23.1,10.3-23.1,23.7c0,0.4,0,0.8,0,1.3v77.4l0,0c-0.3,38.2-31.3,69.1-69.6,69.1l0,0
			h-23v-43.5h23l0,0c0,0,0,0,0.1,0c14.4,0,26.2-11.7,26.2-26.1c0-0.5,0-1.3,0-1.5v-9.2c-8.1,3.3-16.9,5.1-26.2,5.1
			c-38.4,0-69.6-31.1-69.6-69.6c0-38.4,31.1-69.6,69.6-69.6l0,0h23.2v43.4H70l0,0c-0.1,0-0.2,0-0.3,0l0,0
			c-14.4,0-26.1,11.7-26.1,26.1s11.7,26.1,26.1,26.1c14.4,0,26.1-11.7,26.1-26.1c0-0.5,0-1,0-1.4h0.1v-0.4l0,0
			C96.3,1578.6,125.6,1548.6,162.2,1547"/>
		<path id="path18" d="M240.9,1718.5h43.6v43.6h-43.6V1718.5z M240.9,1547.4h43.6v164.5h-43.6V1547.4"/>
		<path id="path20" d="M410.7,1591h-12.4l0,0c-35.2,0-63.7,28.5-63.7,63.7s28.5,63.7,63.7,63.7v43.6c-59.3,0-107.3-48.1-107.3-107.3
			c0-59.3,48-107.3,107.3-107.3h12.5L410.7,1591"/>
		<path id="path22" d="M465.6,1718.6h17.2v43.4h-17.3l0,0l0,0c-38.4,0-69.6-31.1-69.6-69.6c0-23.2,11.4-43.8,28.9-56.4
			c12.3-9.2,15.4-16.1,15.5-21.8c0-13.4-10.1-22.1-23-23.7v-43.1c37,1.6,66.5,31.7,66.5,69c0,10.5-2.4,20.7-6.5,29.5
			c-9.1,16-21.9,21.5-27.7,25.8c-6.2,4.8-10.1,12.2-10.1,20.7C439.4,1706.9,451.1,1718.6,465.6,1718.6L465.6,1718.6L465.6,1718.6"/>
		<path id="path24" d="M489.4,1762v-43.6h34.2v-171.1h43.6v171.1h34.2v43.6H489.4"/>
		<path id="path26" d="M607.9,1718.5h43.6v43.6h-43.6V1718.5z M607.9,1547.4h43.6v164.5h-43.6V1547.4"/>
		<path id="path28" d="M777.8,1547.4v129.4h-43.5v-77.7c-19.4,10.9-32.6,31.7-32.6,55.6c0,35.2,28.5,63.7,63.7,63.7h9.3v43.6h-9.3
			l0,0c-59.3,0-107.3-48-107.3-107.3s48-107.3,107.3-107.3L777.8,1547.4"/>
		<path id="path30" d="M889.3,1762c-58.1-1.3-104.9-48.8-104.9-107.3s46.7-106,104.9-107.3v43.6c-26.5,1-48.8,18.2-57.5,41.9h57.5
			v43.6h-57.5c8.6,23.7,31,40.9,57.5,41.9V1762"/>
		<path id="path32" d="M980.3,1697.6c0-11.6-9.4-21-21-21h-19.9v41.9h19.9l0,0C970.9,1718.5,980.3,1709.1,980.3,1697.6
			 M982.4,1637.5c24.2,9.3,41.3,32.7,41.3,60.2c0,35.6-28.8,64.4-64.4,64.4l0,0h-63.5v-214.6h43.6v82.4
			c9.5-43.9,45.9-77.8,91.2-83.6v44.2C1006.9,1595.7,988.2,1614,982.4,1637.5"/>
	</g>
</g>
</svg>
