<?xml version="1.0" encoding="utf-8"?>
<!-- Generator: Adobe Illustrator 21.1.0, SVG Export Plug-In . SVG Version: 6.00 Build 0)  -->
<svg version="1.1"
	 id="Layer_1" xmlns:cc="http://creativecommons.org/ns#" xmlns:dc="http://purl.org/dc/elements/1.1/" xmlns:inkscape="http://www.inkscape.org/namespaces/inkscape" xmlns:rdf="http://www.w3.org/1999/02/22-rdf-syntax-ns#" xmlns:sodipodi="http://sodipodi.sourceforge.net/DTD/sodipodi-0.dtd" xmlns:svg="http://www.w3.org/2000/svg"
	 xmlns="http://www.w3.org/2000/svg" xmlns:xlink="http://www.w3.org/1999/xlink" x="0px" y="0px" viewBox="0 0 381.4 381"
	 style="enable-background:new 0 0 381.4 381;" xml:space="preserve">
<path id="path37-4" d="M379.5,161.2c2.3,9.9,1.9,24,1.5,24c0,0-84.2,0.8-96-0.4l-94.1-8.8H55.6C33.1,176,0,179.9,0,179.9
	c0-12.2,1.9-17.1,1.9-17.1s30.5,5.3,49.9,6.5c30.5,1.9,145.1,0,145.1,0s71.3-6.9,116.2-8L379.5,161.2"/>
<path id="path39-0" d="M371.4,128.8c0,0,5,14.9,6.5,24.8c0,0-62.9,1.1-86.5,0c-23.2-1.1-99.8-10.3-99.8-9.9c0,0-123.8,0-131.8-0.4
	c-7.6,0-55.2,4.6-55.2,4.6l4.2-15.2c0,0,25.1,3.8,48.8,4.2c26.3,0.4,144.8,0,144.8,0s53.3-6.5,87.6-8
	C321.5,127.3,371.4,128.8,371.4,128.8"/>
<path id="path41-9" d="M269.7,63.6c24.8-1.1,63.6,0,63.6,0S343.3,74.3,352,88c0,0-63.2,0-77-0.4c-17.5-0.4-89.5-8.4-89.5-8.4H72.8
	l-39.6,2.3l8.8-11.8c0,0,41.9,3.4,90.3,3.4h0.4c26.3,0,59.8-1.1,59.8-1.1S239.3,65.2,269.7,63.6"/>
<path id="path43-4" d="M184,203.1c0,0,70.1-9.1,98.3-10.3c19-0.8,99,0,99,0c0,0,0.4,8-2.3,24H275.8l-97.5-8l-121.5,0.4L1.5,213
	c-1.5-9.1-1.1-19.4-1.1-19.4s42.3,9.5,56,9.5L184,203.1"/>
<path id="path45-8" d="M194.3,24.4c-22.1-2.7-34.3-9.1-96.8-0.8c0.4,0,34.7-23.6,95.2-23.6c54.1,0,92.6,25.2,92.6,25.2
	S207.6,26.3,194.3,24.4"/>
<path id="path47-8" d="M95.6,354.7h190.9C228.6,388.6,158.1,390.9,95.6,354.7"/>
<path id="path49-2" d="M297.9,347.1H83.4c-17.1-10.3-29.3-24.4-29.3-24.4h273.2C327.3,322.7,315.5,334.9,297.9,347.1"/>
<path id="path51-4" d="M352.4,290.3c-7.2,13-17.9,24.8-18.3,24.8c0.4-0.4-286.9,0.4-287.3,0c-9.9-11.4-17.1-24.4-18.3-24.8V290
	c5.7,0.4,323.4,0.8,323.8,0V290.3"/>
<path id="path53-5" d="M368.8,257.6c0,0-5.3,14.8-11.8,25.1c0,0-85.3,0-100.6-0.4c-24.8,0.4-120.4-3.8-150.5-3.1l-82.7,1.9
	c-6.1-11.8-11.1-25.5-11.1-25.5s72.8,6.1,102.1,6.1h0.4c43.8,0,127.2-4.2,127.2-4.2L368.8,257.6"/>
<path id="path55-5" d="M371.1,250.7c-6.1,0-109.7-0.4-132.6-1.5c-63.6-5-109.3-7.2-119.2-7.2c-20.2,0.4-110.1,6.9-110.1,6.9
	c-4.9-16-5.3-22.5-5.3-22.5c71.6,7.6,100.2,9.5,115.1,9.1c55.2-0.4,117.3-8,141.3-10.3c14.5-1.5,117.7,0,117.7,0
	C375.3,239.7,371.1,250.3,371.1,250.7"/>
<path id="path57-1" d="M297.9,32.4c0,0,14.8,7.6,29.3,24.4c0,0-64.4-0.4-77.7-1.5c-11-1.1-79.2-7.6-79.2-7.6s-55.6-0.4-68.2-0.4
	c-13.7,0-42.3,3.8-42.3,3.8l15.6-13.3c0,0,23.2,4.2,51.8,3.4c11.8-0.4,37-0.4,47.6-1.5c10.7-1.1,50.3-7.2,62.1-7.2
	C251.1,32,297.9,32.4,297.9,32.4"/>
<path id="path59-7" d="M197.7,105.2c0,0,69.7-7.3,85.3-8c21.7-1.1,73.9-0.8,73.9-0.8s7.2,11.8,11.4,24.4c0,0-68.6,0.8-78.9,0
	l-96.4-8.8l-130.3-0.4l-48,4.2l6.1-12.9c0,0,27.4,1.5,52.2,2.7L197.7,105.2"/>
</svg>
