<?xml version="1.0" encoding="utf-8"?>
<!-- Generator: Adobe Illustrator 21.1.0, SVG Export Plug-In . SVG Version: 6.00 Build 0)  -->
<svg version="1.1" id="Layer_1" xmlns="http://www.w3.org/2000/svg" xmlns:xlink="http://www.w3.org/1999/xlink" x="0px" y="0px"
	 viewBox="0 0 591.1 151.7" style="enable-background:new 0 0 591.1 151.7;" xml:space="preserve">
<path id="A" d="M48.2,147.4H0L85,19.8L68,0h56.7l99.2,147.4h-51l-14.2-22.7H62.4L48.2,147.4z M141.7,96.4l-31.2-51l-31.2,51H141.7z"
	/>
<path id="U" d="M311.8,99.2V41.1h43.9v65.2c-0.1,36.8-35.6,45.4-69.4,45.4S217,137,216.9,106.3V41.1h43.9v58.1
	c0,15.6,8.1,24.1,25.5,24.1C303.7,123.3,311.8,115.9,311.8,99.2z"/>
<path d="M513.1,45.4L477.6,0h-52.4l39.7,42.5c-7.1-2.8-12.8-4.3-22.7-4.3c-42.5,0-76.5,21.3-76.5,55.3c0,36.9,35.4,58.1,85,58.1
	c43.9,0,83.9-17,83.6-58.1C534.2,75.2,525.2,60.9,513.1,45.4z M450.7,123.3c-22.7,0-41.1-13-41.1-29.1c0-16,18.4-29.1,41.1-29.1
	s41.1,13,41.1,29.1C491.8,110.3,473.4,123.3,450.7,123.3z"/>
<rect id="I" x="545.7" y="41.1" width="45.4" height="106.3"/>
</svg>
