<?xml version="1.0" encoding="utf-8"?>
<!-- Generator: Adobe Illustrator 21.1.0, SVG Export Plug-In . SVG Version: 6.00 Build 0)  -->
<svg version="1.1" id="Layer_1" xmlns="http://www.w3.org/2000/svg" xmlns:xlink="http://www.w3.org/1999/xlink" x="0px" y="0px"
	 viewBox="0 0 193 67" style="enable-background:new 0 0 193 67;" xml:space="preserve">
<path d="M193,32.4C192.4,14.8,178.2,0.6,160.6,0l-2.1,0l-0.1,0c-7.5,0.3-14.4,3-19.9,7.4C133,3,126.1,0.3,118.6,0l-2.1,0l-0.1,0
	c-7.5,0.3-14.4,3-19.9,7.4C91,3,84.1,0.3,76.6,0l-2.1,0l-0.1,0C66.8,0.3,60,3,54.5,7.4C49,3,42.1,0.3,34.6,0l-2.1,0l-0.1,0
	C13.9,0.6-0.6,16.1,0,34.6c0.6,18.5,16.1,33,34.6,32.4c7.5-0.3,14.4-3,19.9-7.4c6,4.9,13.8,7.7,22.1,7.4c7.5-0.3,14.4-3,19.9-7.4
	c6,4.9,13.8,7.7,22.1,7.4c7.5-0.3,14.4-3,19.9-7.4c5.8,4.6,13.1,7.4,21,7.4c0.4,0,0.8,0,1.1,0C179.1,66.3,193.6,50.8,193,32.4z
	 M34.4,60C19.8,60.4,7.5,49,7,34.4C6.5,19.8,18,7.5,32.6,7h1.9c5.6,0.2,10.8,2.2,15.1,5.4c-4.9,6.1-7.8,13.8-7.5,22.2
	c0.3,7.6,3,14.5,7.5,20C45.3,57.8,40.1,59.8,34.4,60z M54.5,49.6c-3.3-4.2-5.3-9.5-5.5-15.3c-0.2-6.4,1.9-12.3,5.5-17
	c3.3,4.3,5.3,9.5,5.5,15.3C60.2,39,58.1,44.9,54.5,49.6z M76.4,60c-6.3,0.2-12.2-1.8-16.9-5.4c4.9-6.1,7.8-13.8,7.5-22.2
	c-0.3-7.6-3-14.5-7.5-20c4.2-3.2,9.4-5.2,15.1-5.4h1.9c5.6,0.2,10.8,2.2,15.1,5.4c-4.9,6.1-7.8,13.8-7.5,22.2c0.3,7.6,3,14.5,7.5,20
	C87.3,57.8,82.1,59.8,76.4,60z M96.5,49.6c-3.3-4.2-5.3-9.5-5.5-15.3c-0.2-6.4,1.9-12.3,5.5-17c3.3,4.3,5.3,9.5,5.5,15.3
	C102.2,39,100.1,44.9,96.5,49.6z M118.4,60c-6.3,0.2-12.2-1.8-16.9-5.4c4.9-6.1,7.8-13.8,7.5-22.2c-0.3-7.6-3-14.5-7.5-20
	c4.2-3.2,9.4-5.2,15.1-5.4h1.9c5.6,0.2,10.8,2.2,15.1,5.4c-4.9,6.1-7.8,13.8-7.5,22.2c0.3,7.6,3,14.5,7.5,20
	C129.3,57.8,124.1,59.8,118.4,60z M138.5,49.6c-3.3-4.2-5.3-9.5-5.5-15.3c-0.2-6.4,1.9-12.3,5.5-17c3.3,4.3,5.3,9.5,5.5,15.3
	C144.2,39,142.1,44.9,138.5,49.6z M160.4,60c-6.3,0.2-12.2-1.8-16.9-5.4c4.9-6.1,7.8-13.8,7.5-22.2c-0.3-7.6-3-14.5-7.5-20
	c4.2-3.2,9.4-5.2,15.1-5.4h1.9c13.9,0.5,25.1,11.7,25.5,25.6C186.5,47.2,175,59.5,160.4,60z"/>
</svg>
