<?xml version="1.0" encoding="utf-8"?>
<!-- Generator: Adobe Illustrator 21.1.0, SVG Export Plug-In . SVG Version: 6.00 Build 0)  -->
<svg version="1.1"
	 id="svg2" inkscape:output_extension="org.inkscape.output.svg.inkscape" inkscape:version="0.46" sodipodi:docname="BOC.svg" sodipodi:version="0.32" xmlns:cc="http://creativecommons.org/ns#" xmlns:dc="http://purl.org/dc/elements/1.1/" xmlns:inkscape="http://www.inkscape.org/namespaces/inkscape" xmlns:rdf="http://www.w3.org/1999/02/22-rdf-syntax-ns#" xmlns:sodipodi="http://sodipodi.sourceforge.net/DTD/sodipodi-0.dtd" xmlns:svg="http://www.w3.org/2000/svg"
	 xmlns="http://www.w3.org/2000/svg" xmlns:xlink="http://www.w3.org/1999/xlink" x="0px" y="0px" viewBox="0 0 197.3 197.3"
	 style="enable-background:new 0 0 197.3 197.3;" xml:space="preserve">
<defs>
	
	
		<inkscape:perspective  id="perspective10" inkscape:persp3d-origin="372.04724 : 350.78739 : 1" inkscape:vp_x="0 : 526.18109 : 1" inkscape:vp_y="0 : 1000 : 0" inkscape:vp_z="744.09448 : 526.18109 : 1" sodipodi:type="inkscape:persp3d">
		</inkscape:perspective>
	
		<inkscape:perspective  id="perspective2410" inkscape:persp3d-origin="372.04724 : 350.78739 : 1" inkscape:vp_x="0 : 526.18109 : 1" inkscape:vp_y="0 : 1000 : 0" inkscape:vp_z="744.09448 : 526.18109 : 1" sodipodi:type="inkscape:persp3d">
		</inkscape:perspective>
</defs>
<sodipodi:namedview  bordercolor="#666666" borderopacity="1.0" gridtolerance="10000" guidetolerance="10" id="base" inkscape:current-layer="layer1" inkscape:cx="282.85714" inkscape:cy="76.549764" inkscape:document-units="px" inkscape:pageopacity="0.0" inkscape:pageshadow="2" inkscape:window-height="712" inkscape:window-width="1024" inkscape:window-x="-4" inkscape:window-y="-4" inkscape:zoom="0.3440678" objecttolerance="10" pagecolor="#ffffff" showgrid="false">
	</sodipodi:namedview>
<path d="M98.7,0C44.2,0,0,44.2,0,98.7c0,54.5,44.2,98.7,98.7,98.7c54.5,0,98.7-44.2,98.7-98.7C197.3,44.2,153.2,0,98.7,0z
	 M21.2,98.7c0-38.8,28.6-70.9,65.8-76.5v36.2l-16.1,0.1c-12.1,0-19.5,8.9-19.5,21v38c0,12.1,9.9,21.5,22.1,21.5l13.5,0l0.1,36.4
	C49.8,169.7,21.2,137.5,21.2,98.7z M74.8,117.7c0,0-1.1-0.1-1.6-1c-0.5-0.9-0.4-1.4-0.4-1.4V82.3c0,0-0.1-1.2,0.6-1.9
	c0.6-0.7,1.7-0.7,1.7-0.7h46.6c0,0,0.7-0.1,1.6,0.4c0.7,0.4,1.2,1.9,1.2,1.9v33.8c0,0-0.4,0.9-0.8,1.3c-0.4,0.3-1.1,0.6-1.1,0.6
	l-12.3,0L74.8,117.7z M110,175.3l-0.1-36.7h14.5c12.1,0,21-9.1,21-21.2v-38c0-12.1-9.7-21-21.8-21l-13.8,0l0-36.5
	c37.4,5.5,66.2,37.7,66.2,76.6C176.1,137.6,147.4,169.9,110,175.3z"/>
</svg>
