<?xml version="1.0" encoding="utf-8"?>
<!-- Generator: Adobe Illustrator 21.1.0, SVG Export Plug-In . SVG Version: 6.00 Build 0)  -->
<svg version="1.1" id="レイヤー_1" xmlns="http://www.w3.org/2000/svg" xmlns:xlink="http://www.w3.org/1999/xlink" x="0px"
	 y="0px" viewBox="0 0 161.6 115.6" style="enable-background:new 0 0 161.6 115.6;" xml:space="preserve">
<path id="path88" d="M104.8,57.8c0,13.1-10.7,23.9-24.1,23.9c-13.1,0-23.6-10.7-23.6-23.9c0-13.4,10.5-24.1,23.6-24.1
	C94.1,33.7,104.8,44.4,104.8,57.8z M80.7,109.8c-28.4,0-51.8-23.4-51.8-52.1c0-28.9,23.4-52.3,51.8-52.3c28.9,0,52.1,23.4,52.1,52.3
	C132.7,86.4,109.6,109.8,80.7,109.8z M104.3,0c-8.4,0-16.2,1.7-23.6,4.8C73.8,1.7,65.7,0,57.5,0C25.5,0,0,25.6,0,57.8
	c0,31.8,25.6,57.8,57.5,57.8c8.1,0,16.2-1.9,23.2-5c7.4,3.1,15.3,5,23.6,5c31.8,0,57.3-26,57.3-57.8C161.6,25.6,136.1,0,104.3,0"/>
</svg>
