<?xml version="1.0" encoding="utf-8"?>
<!-- Generator: Adobe Illustrator 21.1.0, SVG Export Plug-In . SVG Version: 6.00 Build 0)  -->
<svg version="1.1"
	 id="Layer_1" xmlns:cc="http://creativecommons.org/ns#" xmlns:dc="http://purl.org/dc/elements/1.1/" xmlns:inkscape="http://www.inkscape.org/namespaces/inkscape" xmlns:rdf="http://www.w3.org/1999/02/22-rdf-syntax-ns#" xmlns:sodipodi="http://sodipodi.sourceforge.net/DTD/sodipodi-0.dtd" xmlns:svg="http://www.w3.org/2000/svg"
	 xmlns="http://www.w3.org/2000/svg" xmlns:xlink="http://www.w3.org/1999/xlink" x="0px" y="0px" viewBox="0 0 266.6 226.9"
	 style="enable-background:new 0 0 266.6 226.9;" xml:space="preserve">
<path id="path7" d="M182.4,0H0v162l0,0c0,45.5,21.9,64.9,64,64.9l0,0h53.5l0,0c34.1,0,54.7-26.2,54.7-64.9c0-19.3-5.5-39.1-16-50.7
	l0,0L155,110l21.1,0.4l0,0c20.2,0.9,25.3,1.7,29.9,2.6l0,0l-11.8-21.5h-37.1l0,0c9.3-15.9,11.8-22.8,11.8-37
	c0-19.8-5.9-33.1-19.8-47.3l0,0L147.8,6l0,0c40.9,0.4,60.9,15.9,60.9,61.4l0,0v134.9l0,0c0,11.2-5.3,21.1-6.9,24.5l0,0h64.9V94.5
	l0,0C266.6,26.2,245.9,0,182.4,0L182.4,0L182.4,0L182.4,0z M85.9,220c-19.4,0-29.1-14.2-29.1-41.7l0,0V49.4l0,0
	c0-29.6,6.3-43.8,28.2-43.8c19.4,0,31.2,14.6,31.2,41.2c0,29.6-10.1,45.1-25.3,45.1c-5.9,0-9.7-1.3-19.8-8.2l0,0v36.1L72,119l0,0
	c5.1-3.9,12.6-6,18.5-6c17.7,0,26.5,18.9,26.5,53.7C117,202.8,108.6,220,85.9,220L85.9,220L85.9,220L85.9,220L85.9,220z"/>
</svg>
