<svg id="Layer_1" data-name="Layer 1" xmlns="http://www.w3.org/2000/svg" viewBox="0 0 473.34 167.82"><title>beringer</title><path d="M472.68,59.64c-1.05-13.83-11.07-23.57-24.6-25.74-12.46-2-24.66,4.53-30.46,16.19C415.22,54.9,415,60,415.07,65.2c.08,12.33.31,41.7.31,41.7s-21.51.26-30,.23c-7,0-8-1.12-8.06-8.29q-.21-16.25-.23-32.5c0-2.36-.28-5.87,2.78-5.87,3.29,0,3,3.39,3.07,5.75q.08,4.52.12,9v25.83h26.31s.26-28.11-.29-40.75c-.5-11.62-8.58-21.54-19.67-25.23a28.68,28.68,0,0,0-31.33,8.42c-5.72,6.58-7.16,14.33-7,22.78,0,.53,0,8.67,0,8.67h-5.82s-.09-9.82-.19-12.82c-.69-19.42-20.52-32.83-38.8-26.25C294.11,40.33,286.91,51,287,64.55c0,12.48.2,42.91.2,42.91h-5.47s-.13-25-.27-34c-.06-4-.15-8-.3-12-.68-18.43-19.29-31.21-36.95-25.67-12.59,3.95-20.42,14.12-20.86,27.48h0v.47c0,.18,0,.35,0,.53q0,4.64,0,9.28v33.87h-5.51V35.21H190.87s0,5.44,0,7.93c0,8.86,0,32.62,0,32.62h-4.95s0-4.24,0-4.29c-.28-4.48-.13-9-.86-13.44-2.28-13.75-15.54-24-29.52-23.2-14.63.85-26.58,12.11-27.36,26.25-.46,8.48-.3,17-.36,25.48,0,7,0,21.59,0,21.59s-21.52.24-30.84.2c-4.4,0-5.86-1.6-5.92-6.18-.14-11.83-.18-23.66-.24-35.5a8.32,8.32,0,0,1,.33-3.19,2.29,2.29,0,0,1,2.26-1.56,2.26,2.26,0,0,1,2.35,1.51,11.29,11.29,0,0,1,.46,4.16c.08,5,.11,10,.12,15,0,6.62,0,20.09,0,20.09h25.9s-.2-28-.2-40.19c0-11.91-6.91-20.54-17.57-25-19.4-8.1-40,5.92-40,26.89,0,.46,0,11.35,0,11.35H59.15c0-10-.08-39.78-.08-39.78H32.34s.32,46,.44,66.3c0,2.38.7,5.88-2.86,5.81s-2.67-3.57-2.68-5.93C27.07,70.32,26.8.84,26.8.84H.16S-.2,70.09.16,103.45c.24,21.85,19.49,35.91,38.46,29.93,12.37-3.9,19.23-12.58,20.32-25.65.1-1.22.24-5,.24-5h5.36s.06,1.84.45,4.8a34.23,34.23,0,0,0,2.63,10.08C73,129.07,82.35,134.52,94.8,134.57c18.15.07,59.31-.18,59.31-.18s0-46.57-.06-66.56a13.88,13.88,0,0,1,.16-4,2.48,2.48,0,0,1,4.72-.06c.49,1.14.26,2.62.27,3.95q.1,14.5.18,29c0,1.79,0,6,0,6h31.49V133.4h58.92s.1-44.47,0-64.46c0-1.67-.22-3.91.18-5.22.35-1.15.9-2.28,2.53-2.28a2.78,2.78,0,0,1,2.52,2.65c.07.76.1,1.63.11,2.46.17,20.66.52,66.48.52,66.48h57.55s.09-46.61-.08-65.44a16.5,16.5,0,0,1,.4-4.94,2.5,2.5,0,0,1,4.75.1,22.94,22.94,0,0,1,.4,5.45c.15,25.43.44,99.61.44,99.61H346s-.21-42.17-.31-60.33c0-1.17,0-4.72,0-4.72h5.45c0,1.05.19,2.43.29,3.26,2.09,16.92,13.09,27.09,30.07,27.16,14.75.06,60.14-.34,60.14-.34s-.29-51.55-.42-65.66a15.78,15.78,0,0,1,.27-4.95c.32-1,.79-1.92,2.27-1.92a2.35,2.35,0,0,1,2.44,2.06,14.73,14.73,0,0,1,.21,4c.12,9.66.22,19.33.36,29v5.14h26.56V87.37C473.35,78.11,473.37,68.85,472.68,59.64Z"/><path d="M217.79,0V29.14H190.86V0Z"/></svg>