<?xml version="1.0" encoding="utf-8"?>
<!-- Generator: Adobe Illustrator 21.1.0, SVG Export Plug-In . SVG Version: 6.00 Build 0)  -->
<svg version="1.1" id="Layer_1" xmlns="http://www.w3.org/2000/svg" xmlns:xlink="http://www.w3.org/1999/xlink" x="0px" y="0px"
	 viewBox="0 0 2406 1666" style="enable-background:new 0 0 2406 1666;" xml:space="preserve">
<path id="d" d="M612,0C274,0,0,274,0,612s274,612,612,612h1182c94,0,170-76,170-170s-76-170-170-170H612c-150,0-272-122-272-272
	s122-272,272-272h1770V0H612"/>
<path id="d_1_" d="M1794,1666c338,0,612-274,612-612s-274-612-612-612H612c-94,0-170,76-170,170s76,170,170,170h1182
	c150,0,272,122,272,272s-122,272-272,272H24v340H1794"/>
</svg>
