<?xml version="1.0" encoding="utf-8"?>
<!-- Generator: Adobe Illustrator 21.1.0, SVG Export Plug-In . SVG Version: 6.00 Build 0)  -->
<svg version="1.1" id="Layer_1" xmlns="http://www.w3.org/2000/svg" xmlns:xlink="http://www.w3.org/1999/xlink" x="0px" y="0px"
	 viewBox="0 0 90.5 90.5" style="enable-background:new 0 0 90.5 90.5;" xml:space="preserve">
<g>
	<path d="M53.7,58.7c-2.3-0.7-4.5-1.8-7.1-2.1c-1.9,2.6-3,4.9-5.4,7.1c-1,0.9-2.7,2.2-3.8,3C43.4,66.3,50.6,62.7,53.7,58.7z"/>
	<path d="M73.3,63.9c-1.5-0.2-5.6-1.2-6.5-1.2c-0.5,0-2.9,3-3.6,3.6c-2,1.7-4.2,3.6-6.5,4.9c-3.5,2-7.3,4-11.4,5.3
		c-12.4,3.8-27.5,1.5-33.8-6.6c-2.7-3.5-4.1-9.1-1.7-14.3c0.1-0.2,0.4-0.6,0.5-0.9c0.2-0.3,0.5-0.7,0.7-1c5.7-8,18.8-8.8,31.1-6.8
		c1.5-2.5,2.3-5.5,3.4-8.5c2-5.6,4.7-10.7,8.6-14.5c1.3-1.2,3.1-2.8,5-3.3c2.2-0.6,4.7-0.2,4.7,1.1c-2.5,1.8-4.5,3.2-6,6.5
		c-2,4.5,1.8,1,3.4,0c2.4-1.5,6.2-6.4,3.4-10.4c-3.1-4.3-12.8-3-14.8,1.7c-0.8,2,0.6,2.7,1.4,3.2l0.4,0.3c0,0-0.2,0.7-0.3,1.1
		c-1.3,4-6.5,10-11.4,6.2c-1.1-0.9-2.1-2.3-2.4-3.9c-0.5-3.2,0.9-5.4,1.8-7.2c4.8-9.4,21.4-14.6,31.9-6.5c6.5,4.9,4.6,15-1,19.6
		c-2.1,1.6-4.7,2.7-7.1,3.9c5,3.6,9.9,8.1,8,17.2c0,0.1-0.7,2.9-0.7,2.9c4.9,2.4,11.2,3.2,18,2.7c1.4-4.3,2.1-8.9,2.1-13.7
		C90.5,20.3,70.2,0,45.3,0C20.3,0,0,20.3,0,45.3c0,25,20.3,45.3,45.3,45.3c18.3,0,34.1-10.9,41.2-26.6
		C82.1,64.7,77.6,64.4,73.3,63.9z"/>
	<path d="M53.6,39.7c-1.3,2.1-1.8,4.9-3.1,7.7c-1,2.2-0.1,1.8,1.8,2.5c2,0.7,4.7,1.5,6.8,2C62.5,46,60.2,40.6,53.6,39.7z"/>
	<path d="M33.8,54.7c-2.4,0.1-4.6,0.6-6.1,1.7c-0.7,0.5-1.9,1.6-2.2,2.4c-0.6,1.4-0.3,2.9,0.5,3.7c4.9,5.4,11.5-3.4,12.2-7.7
		C36.9,54.7,34.9,54.6,33.8,54.7z"/>
</g>
</svg>
