<?xml version="1.0" encoding="utf-8"?>
<!-- Generator: Adobe Illustrator 21.1.0, SVG Export Plug-In . SVG Version: 6.00 Build 0)  -->
<svg version="1.1" id="Layer_1" xmlns="http://www.w3.org/2000/svg" xmlns:xlink="http://www.w3.org/1999/xlink" x="0px" y="0px"
	 viewBox="0 0 1439.2 420.2" style="enable-background:new 0 0 1439.2 420.2;" xml:space="preserve">
<path d="M227.1,192.9l-67.5-76.8c0,0-14,18.1-22.1,23.3c-20.1,13.2-53.7,18.9-81.6,38.7C34.3,193.5,0,230.4,0,288.2
	s50.9,124.7,127,124.7c57.7,0,143.6-47.9,143.6-108.1c0-18.5-4.8-33.7-15.3-40.5c-14.1-9.2-53.3-9.3-58.9,12.3
	c0,0,11.7,11.1,11.7,29.5c0,18.4-20.9,44.8-63.2,44.8c-42.3,0-67.5-34.4-67.5-70c0-81.1,89-92.8,113.5-92.8
	C214.2,188,227.1,192.9,227.1,192.9L227.1,192.9z"/>
<g>
	<path d="M576.3,259.9c0,0-10.4-52.8-19-125.3c-8.6-72.5-3.7-116.1-3.7-116.1s-52.8,0.6-120.3,18.4
		c-67.5,17.8-130.1,38.7-130.1,38.7l25.2,57.8c0,0,29.1-18,64.1-33c-9.2,33.1-19.8,91.1-53.1,130.7c-23.9,28.4-44.8,26.4-44.8,26.4
		l13.5,78c0,0,20.9-1.9,54.6-28.3s46.6-63.3,55.8-82.9c0.4-0.9,0.8-1.9,1.2-2.9l66.5-7.4c2.7,33.4-1.4,65-1.4,65
		C510.6,264.8,576.3,259.9,576.3,259.9z M435.3,163c2.1-9.7,4.3-19.4,6.6-28.5l0,0c8-31.3,36.2-46.7,36.2-46.7
		c-1,17.9,0.6,43,2.7,67.7L435.3,163z"/>
	<polygon points="484.8,279 484.8,279 484.8,279 	"/>
</g>
<path d="M625.4,249.5c0,0,3.1-71.9,2.5-94.6c-0.6-22.7-3.7-128.4-22.7-147.5c0,0,70-8.6,116.6-6.1c0,0-4.9,11.7,6.8,29.5
	C740.1,48.5,769,84.8,769,84.8s31.3-44.2,35.6-50.4c4.3-6.1,9.8-24,6.1-30.7c0,0,22.7-3.7,39.3-3.7c16.6,0,65.7,8.6,76.7,7.4
	c0,0-13.5,17.2-15.3,46.7c-1.9,29.5-4.9,132.7-2.5,157.3c2.5,24.6,7.4,40.5,7.4,40.5s-71.3-8.1-93.9-4.9c0,0,6.7-21.5,9.8-49.2
	c3.1-27.7-0.6-84.2,0-94.6c0,0-64.4,78-71.8,89.7c0,0-62-76.2-81-90.3c0,0,2.5,59.6,3.1,70c0.6,10.4,6.1,52.8,16,71.9
	C698.4,244.5,634.6,247.6,625.4,249.5L625.4,249.5z"/>
<path d="M1090.6,87.9c64.4,0,90.8,63.3,90.8,63.3l61.4-46.7c-62.6-19.7-97-72.5-163.3-72.5c-75.5,0-132,55.3-132,137
	c0,34.4,31.3,130.9,160.2,130.9c41.1,0,65.1-11.1,65.1-11.1l-14.7-55.9c0,0-22.1,14.7-47.9,14.7c-66.3,0-92.7-57.1-86.5-76.8
	c0.2-0.5,0.4-2.8,0.7-6.2l76,27.1c17.2,6.1,24.6,14.1,24.6,14.1l16.6-60.2c0,0-14.1,1.9-28.2-3.1c-10.7-3.7-54.9-17.4-75.4-23.8
	C1047.4,102.1,1063.3,87.9,1090.6,87.9L1090.6,87.9z"/>
<path d="M1287,110.6c0,0-0.6,10.5-7.4,29.5c-6.7,19-52.4,122.4-63.8,143.8c-17.2,31.9-29.5,47.3-29.5,47.3s97.3,52,144.8,75
	c73.7,35.6,108-4.3,108-34.4c0-30.1-37.4-38.7-42.9-35c0,0,2.4,32.6-28.2,20.9c-30.7-11.7-82.2-38.1-82.2-38.1
	s49.1-105.1,57.1-124.1c8-19,20.7-34.9,27.6-38.1C1370.4,157.3,1350.8,137.6,1287,110.6L1287,110.6z"/>
</svg>
