<?xml version="1.0" encoding="utf-8"?>
<!-- Generator: Adobe Illustrator 21.1.0, SVG Export Plug-In . SVG Version: 6.00 Build 0)  -->
<svg version="1.1" id="Layer_1" xmlns="http://www.w3.org/2000/svg" xmlns:xlink="http://www.w3.org/1999/xlink" x="0px" y="0px"
	 viewBox="0 0 581.1 223.1" style="enable-background:new 0 0 581.1 223.1;" xml:space="preserve">
<path d="M45.9,0H163l-39.7,54.5c-6.5-4.1-9.1-8.7-17.5-11.1C68.4,32.5,36,65.9,35.2,101.8c-1.3,50.6,53.3,88.4,99.5,67.2
	c4.4-1.9,18.4-14.8,22.1-12.4c4.6,2.9-8.6,11.8-10.2,12.9c-14.1,10.8-30.2,17.8-48.1,18.9c-67.6,4.1-113.7-63.3-94-126.2
	C12.2,38.1,26.7,16.2,45.9,0L45.9,0z"/>
<path d="M303.2,80.3l-7.3,17.9c-6-3.5-12.4-6-19.4-4.3c-5.2,1.3-5.4,7.3-1.6,10.5c9.5,7.8,26.7,6.3,25.7,24
	c-0.5,9-7.9,18.7-17.5,18.7h-48.7c-5.1,0-10.3-2.1-14.1-5.2c-4-3.2-6.8-7.9-6.8-13V43.8c0-2.1-1.1-3.5-3-4.3c-2.1-0.8-6-1.1-6-4.1
	c0-1.3,0.6-2.1,1.9-2.1h29.2v95.7c0,3.5,1.7,6.7,5.6,7c3.8,0.5,7-3,5.2-6.8c-0.3-0.8-1.9-2.1-1.4-3c0.6-1.4,4.4-4.1,6-2.7
	c3.8,3.2,4.6,7.5,9.2,10.3c5.9,3.5,15.2,3.2,17.6-4.3c3.3-10.2-9.5-14.1-16.2-17.5c-8.3-4.1-12.5-12.7-8.6-21.8
	c3.2-6.8,9.1-10,16.2-10L303.2,80.3L303.2,80.3L303.2,80.3z"/>
<path d="M188,79.2c-6,1.4-8.7,5.7-13.7,8.4c-1.1-2.9-3.3-5.6-5.9-7c-5.4-3-12.2-1.9-17,1.4c-1.6,0.9-5.7,3.5-4.8,6
	c1.1,2.5,5.4,0.3,7.1,0.2c2.4-0.3,2.9,1.9,2.9,3.7V113c-5.7,5.2-13,14.6-21.4,15.2c-2.7,0.3-5.4-0.6-5.4-3.8l0.2-36
	c0-0.8,0-1.4,0.8-1.8c3-1,7.9-0.8,7.5-5.4c-0.2-1.4-1.4-1.9-2.5-1.9l-20-0.2c-2.4,0-3,2.4-3.7,4.3c-2.1,5.2-8.7-1.9-11.3-2.9
	c-18.6-6.4-36,4.6-40.2,23.8c-4.4,19.7,5.1,40.8,26.8,43c8.6,0.9,12.7-3.7,19.5-7.9c3-1.9,3.7,2.5,4.9,4.4
	c4.1,6.8,12.1,3.8,18.1,0.6c9.7-5.2,19.7-14,26.7-22.4v24.9h27.6c1.7,0,2.2-1.9,1.9-3.5c-0.6-2.7-3.3-2.7-5.7-3.5
	c-1.6-0.5-2.1-1.6-2.1-3.2V98.8c0-2.2,1.1-4.8,3.2-5.9c1.8-1,6.4-1.6,5.4,1.9c-1,3.3-3.8,4.3-2.2,8.4c3.8,10.2,18.6,6,21.6-2.9
	C210.7,88.1,201,75.9,188,79.2z M106,126.7c-4.9,6.7-15.6,5.4-20.5-0.5c-7.5-8.7-7.1-23,2.7-30c7.1-5.2,18.3-1.8,19.8,7.3h0
	C108.9,108,109.2,122.6,106,126.7z"/>
<path d="M471.2,48.3c3.7,0,5.7-3,6.2-6.2c0.5-4.4,3.2-4.1,6.3-6.5c2.4-1.8,1.6-4.6-0.3-6.3c-1.6-1.6-6.7-3.5-6.5-6.3
	c0.2-3,5.4-1.4,6.7-0.6c2.4,1.3,4.4,2.2,7.1,1.4c1.9-0.5,1.1-5.7,1.6-7.5c1.1-2.9,4.3-4.6,5.1-7.6c0.8-2.7-1-6-3.7-6.3
	c-4.1-0.5-7.5,0.2-11.4-1.3c-2.7-0.8-6.2-1.3-7,2.4c-0.5,3.3,1.1,8.4-3.7,8.7c-2.1,0.2-4.1-0.8-4.3-3c-0.3-3.7,0.6-9.5-4.9-8.6
	c-4,0.5-6.8,1.8-11.1,1.6c-3.3,0-5.7,0.5-6.3,4.3c-0.5,3.3,2.4,5.7,4.1,8.1c2.1,2.7,0.6,5.6,1.6,8.3c0.5,1.6,3.8,1.4,5.1,1
	c2.9-1,5.4-4.1,8.7-2.1c2.1,1.3-0.2,3.7-1.4,4.6c-2.1,1.3-5.4,2.9-5.9,5.7c-0.5,2.5,1.6,3.8,3.7,4.6c3.3,1.4,3.8,3.7,4.4,7
	C465.6,46.2,468.6,48.3,471.2,48.3L471.2,48.3z"/>
<path d="M500.1,61.9c-0.8-0.6-10.5-8.6-8.4-1.3c1,3.2,5.2,4.1,6.7,7.1c1.9,4,1.3,11.1-4.4,11.1c-5.1,0-7.3-7.5-13-6.2
	c-5.4,1.1-7.1,4.9-7.3,9.8c-0.2,1.1-0.6,8.6-3.8,5.2c-3.5-3.7-2.4-8.7-8.6-10.5c-11.4-2.9-17.5,12.2-26.8,12.2
	c-1.8-3.3-3.3-5.9-6.8-7.8c-15.2-8.4-36.5,0.2-43,15.9c-2.1,5.2-3.3,10.6-4.3,16.2c-4.4-1-9.4-3.5-13.7-5.1
	c-0.8-0.3-1.1-1.3-1.4-2.1V80.3h-22.5v18.3c0,2.7,1,3.2,3,5.1c2.1,1.9,4.3,3.5,6.5,5.1v19c0,2.7-0.6,4.9-3.2,6.7
	c-3.3,2.2-10.2,2.2-13.7,0c-2.4-1.4-3-3.7-3-6.2V33.3h-27.9c-1.3,0-1.9,0.8-1.9,2.1c-0.3,3,2.4,3.5,4.8,4.1c1.8,0.6,2.7,2.1,2.7,4
	v85.2c0,5.2,2.4,11,6.7,14.1c7.6,5.7,26.3,6.4,35.4,3.3c6.7-2.2,13.5-8.1,13.5-15.9l-0.3-13.3c3,0.9,6,2.1,8.9,3.2
	c2.6,0.9,5.2,1.9,7.6,3.2c2.7,15.6,14.9,24.5,30.3,25.3c9.8,0.3,26.7-6.2,29.4-16.7c0.8-2.4-0.5-4.6-3-3.6
	c-8.4,3.2-10.2,12.7-23.7,8.3c-4.9-1.6-11.4-7.3-11.4-13c9.4-1.9,17.8-4.4,24.9-11.1c3.5-3,8.7-9.2,7.3-14.3
	c3.5-2.2,7.5-5.6,11.4-6.5c3.2-0.6,7.1,0.6,7.1,4.3v51.3h27.6c1.8,0,2.2-2.5,1.9-3.8c-0.8-2.5-4.1-2.7-6.3-2.9
	c-1.3-0.2-2.1-1.9-2.1-3l0.2-39.7c-0.2-3.5,4-6.7,7.1-4.3c9.5,6.8,16.3,6.2,22.1-5.7C509.1,78.6,507.2,68.9,500.1,61.9z
	 M412.5,111.9c-1.4,0.8-8.3,4.8-10.3,3c-2.9-2.5-0.3-11.4,0.9-14.1c2.9-6.5,14.3-15.2,18.7-5.9C425,102.1,418,108.6,412.5,111.9z"/>
<path d="M581.1,80.2h-26c-2.1,0-2.4,2.7-3.7,4c-1.9,2.1-6.8-3.7-8.4-4.3c-19.1-7.6-36.5,6.8-40.8,24.9c-4.6,18.3,4.9,44,27.6,42.1
	c8.4-0.8,13-6,18.7-7.3c2.2-0.5,2.4,2.1,2.4,3.6v18.9c0,4.3-2.5,8.1-6.3,10.2c-6.7,3.8-19.1,2.5-23.5-4.4c-1.7-3-3.5-6.3-3.5-10l0,0
	v0h-7.8c-0.2,6.4-5.1,12.4-9.4,16.3c-28.4,27-79.9,20.5-113.8,10.3c-43.3-12.9-86.8-29.1-132.6-28.6c-39.1,0.3-80,14.3-111.6,37.2
	l56.7,30c14.8-16.8,52.4-25.9,73.4-28.4c23.3-2.9,45.7,3.2,68.6,7.6c39.1,7.6,80.8,17.8,120.2,5.9c23-7,40.6-20.3,52.7-40.8
	c1.4,4.6,4.4,8.7,7.9,12.1c11.8,10.5,29.8,9.7,42.1,0.8c6.4-4.6,8.3-12.2,8.3-19.7l0.2-70.7c0-1.9,1.9-2.9,3.3-3.5
	c1.6-0.6,3.5-0.5,4.4-1.9C581.2,83,581.1,81.8,581.1,80.2z M543.3,129.6c-10.8,5.2-21.1-3.8-21.9-14.4c-0.6-9.2,2.7-20.3,12.7-22.9
	c7.3-1.9,15.7,2.7,16.7,10.3v0C552,111.3,552.6,125,543.3,129.6z"/>
</svg>
