<?xml version="1.0" encoding="utf-8"?>
<!-- Generator: Adobe Illustrator 21.1.0, SVG Export Plug-In . SVG Version: 6.00 Build 0)  -->
<svg version="1.1" id="Layer_1" xmlns="http://www.w3.org/2000/svg" xmlns:xlink="http://www.w3.org/1999/xlink" x="0px" y="0px"
	 viewBox="0 0 379.6 237" style="enable-background:new 0 0 379.6 237;" xml:space="preserve">
<path d="M161.9,12.1c7.9-7.6,18.6-12.3,29.5-12.1c9.9,0,20.1,2,28.6,7.2c10.2,6.1,17.3,16.9,19.2,28.6c-6.7-1.2-14.2-1.5-19.8,2.9
	c-8,5.9-9.5,16.8-9.5,26.1c-0.6,10.2,3.2,20.8,10.7,27.8c11.1,10.1,28.5,11.5,41.7,5c9.5-4.4,16.3-13.3,19.8-23
	c3.5-9.1,3.4-19,2.6-28.6c-1.6-11.3-4.7-22.8-11.3-32.3c-1.2-2.1-3.7-4.1-3-6.8c2.1-0.1,3.2,2,4.6,3.2c28.4,28.5,57,57,85.5,85.5
	c5.8,6.2,12.4,11.6,17.6,18.4c3,4.2,0.3,9.4-3,12.5c-30.1,30.2-60.3,60.4-90.4,90.6c-4.9,4.6-9.2,9.8-14.4,14
	c-0.5-0.1-1.4-0.2-1.9-0.3l-0.3-0.9c4.7-7.7,9.9-15.1,12.8-23.7c4.6-11.6,6-24.5,3.7-36.8c-1.8-8-5.2-15.9-11-21.8
	c-12.2-12.5-33.2-16.3-48.3-6.9c-8.5,4.9-13.6,14.1-15.3,23.6c-1.2,9.2-0.9,19.1,3.5,27.4c3.3,6,10,9.7,16.8,10
	c2.9,0.1,5.9-0.4,8.8-0.6c-3.3,14.2-13.5,27.1-27.2,32.4c-13.7,5.6-30.3,4.8-42.8-3.4c-12.7-7.9-20.9-21.1-26.4-34.6
	c-7.9-19.4-11-40.4-12.6-61.1c-1.5-27,0.8-54.4,8.4-80.5C143.5,38.6,150.1,23.3,161.9,12.1z"/>
<path d="M104.8,10c0.9-0.8,1.7-1.9,2.9-2.2c0.6,1.4-0.8,2.6-1.3,3.9c-4.2,7.1-9,13.8-12.9,21c-10.6,18.7-17,39.7-19.4,61
	c-1.9,16.4-2.4,33.2,0,49.6c4.2,28.5,14.8,56.1,30.9,79.9c0.7,1,1.3,2.1,1.4,3.3c-1-0.1-1.9-0.5-2.5-1.3
	c-32.6-32.7-65.5-65.2-98.2-97.8c-2.3-2.6-5.5-5.1-5.8-8.8c-0.2-4.7,3.8-7.8,6.7-10.9C39.4,75.3,72.2,42.8,104.8,10z"/>
</svg>
