<?xml version="1.0" encoding="utf-8"?>
<!-- Generator: Adobe Illustrator 21.1.0, SVG Export Plug-In . SVG Version: 6.00 Build 0)  -->
<svg version="1.1" id="Layer_1" xmlns="http://www.w3.org/2000/svg" xmlns:xlink="http://www.w3.org/1999/xlink" x="0px" y="0px"
	 viewBox="0 0 21.1 21.3" style="enable-background:new 0 0 21.1 21.3;" xml:space="preserve">
<path d="M10.5,0C4.7,0,0,4.8,0,10.6c0,5.9,4.7,10.7,10.5,10.7c5.9,0,10.5-4.8,10.5-10.7C21.1,4.8,16.5,0,10.5,0z M10.5,4.5
	c4.8,0,8.3,3,9.8,6.1c-1.5,3.1-5,6.2-9.8,6.2c-4.8,0-8.3-3.1-9.8-6.2C2.2,7.6,5.7,4.5,10.5,4.5L10.5,4.5z M10.5,5
	c-3.1,0-5.7,2.5-5.7,5.6c0,3.2,2.5,5.7,5.7,5.7s5.6-2.5,5.6-5.7C16.2,7.5,13.7,5,10.5,5z"/>
</svg>
