<?xml version="1.0" encoding="utf-8"?>
<!-- Generator: Adobe Illustrator 21.1.0, SVG Export Plug-In . SVG Version: 6.00 Build 0)  -->
<svg version="1.1"
	 id="svg2" inkscape:output_extension="org.inkscape.output.svg.inkscape" inkscape:version="0.46" sodipodi:docname="Chanel logo.svg" sodipodi:version="0.32" xmlns:cc="http://creativecommons.org/ns#" xmlns:dc="http://purl.org/dc/elements/1.1/" xmlns:inkscape="http://www.inkscape.org/namespaces/inkscape" xmlns:rdf="http://www.w3.org/1999/02/22-rdf-syntax-ns#" xmlns:sodipodi="http://sodipodi.sourceforge.net/DTD/sodipodi-0.dtd" xmlns:svg="http://www.w3.org/2000/svg"
	 xmlns="http://www.w3.org/2000/svg" xmlns:xlink="http://www.w3.org/1999/xlink" x="0px" y="0px" viewBox="0 0 94.8 69.6"
	 style="enable-background:new 0 0 94.8 69.6;" xml:space="preserve">
<style type="text/css">
	.st0{fill:#161413;}
</style>
<defs>
	
	
		<inkscape:perspective  id="perspective41" inkscape:persp3d-origin="121.25 : 80.833333 : 1" inkscape:vp_x="0 : 121.25 : 1" inkscape:vp_y="0 : 1000 : 0" inkscape:vp_z="242.5 : 121.25 : 1" sodipodi:type="inkscape:persp3d">
		</inkscape:perspective>
</defs>
<sodipodi:namedview  bordercolor="#666666" borderopacity="1.0" gridtolerance="10.0" guidetolerance="10.0" id="base" inkscape:current-layer="svg2" inkscape:cx="-0.40702423" inkscape:cy="9.9095772" inkscape:pageopacity="0.0" inkscape:pageshadow="2" inkscape:window-height="667" inkscape:window-width="640" inkscape:window-x="611" inkscape:window-y="368" inkscape:zoom="10.777182" objecttolerance="10.0" pagecolor="#ffffff" showgrid="false">
	</sodipodi:namedview>
<path class="st0" d="M84.8,47c0,0.1-0.1,0.1-0.1,0.2C80.4,54,72.9,58.5,64.4,58.5c-2.7,0-5.4-0.5-7.7-1.3c5.2-6,8.4-13.9,8.4-22.5
	c0-8.6-3.1-16.4-8.3-22.5c2.4-0.8,5-1.2,7.6-1.2c8.4,0,16.2,4.5,20.5,11.8c0,0,0,0.1,0,0.1l9.9-5.1c0-0.1-0.1-0.2-0.1-0.2
	C88.7,7.1,77.3,0,64.4,0c-6.2,0-12.1,1.7-17,4.6C42.5,1.7,36.6,0,30.4,0C17.5,0,6.2,7.1,0.1,17.6c0,0.1-0.1,0.1-0.1,0.2l9.9,5.1
	c0,0,0-0.1,0-0.1C14.2,15.5,22,11,30.4,11c2.7,0,5.3,0.4,7.6,1.2c-5.2,6.1-8.3,13.9-8.3,22.5c0,8.6,3.2,16.5,8.4,22.5
	c-2.4,0.8-5,1.3-7.7,1.3c-8.5,0-16-4.5-20.2-11.3c0-0.1-0.1-0.1-0.1-0.2l-4.9,2.5l-4.9,2.5c0,0,0,0,0,0.1s0,0,0,0.1
	c6.1,10.3,17.3,17.3,30.1,17.3c6.3,0,12.1-1.7,17-4.5c4.9,2.8,10.8,4.5,17,4.5c12.8,0,24-7,30.1-17.3c0,0,0,0,0-0.1s0,0,0-0.1
	l-4.9-2.5L84.8,47z M47.4,51.3c-4-4.3-6.6-10.1-6.6-16.5c0-6.3,2.5-12,6.6-16.3c4.2,4.3,6.6,10,6.6,16.3C54,41.2,51.4,47,47.4,51.3z
	"/>
</svg>
