<?xml version="1.0" encoding="utf-8"?>
<!-- Generator: Adobe Illustrator 21.1.0, SVG Export Plug-In . SVG Version: 6.00 Build 0)  -->
<svg version="1.1"
	 id="svg3004" xmlns:cc="http://creativecommons.org/ns#" xmlns:dc="http://purl.org/dc/elements/1.1/" xmlns:rdf="http://www.w3.org/1999/02/22-rdf-syntax-ns#" xmlns:svg="http://www.w3.org/2000/svg"
	 xmlns="http://www.w3.org/2000/svg" xmlns:xlink="http://www.w3.org/1999/xlink" x="0px" y="0px" viewBox="0 0 71.1 75.7"
	 style="enable-background:new 0 0 71.1 75.7;" xml:space="preserve">
<path d="M9.9,30.3l4.7,3.8l19.2-16.2c1.8-1.4,4-2.1,6.4-2.1c2.4,0,4.7,0.9,6.5,2.3l24.3,19.8v4.5L49.6,24.9C47.9,23.6,46,23,43.9,23
	c-2.1,0-4.2,0.8-5.8,2l-0.3,0.1l-0.1,0.1c-2,1.8-12,10.1-17,14.2h0.1c1,1.6,3.6,1.9,6,0.5c0,0,0,0,0.1,0c5.4-4.7,10.3-8.8,10.8-9.3
	c1.5-1.3,3.4-2.1,5.4-2.1c2,0,3.8,0.8,5.2,1.9L63.9,43l4.5,3.8l2.6,2.1l-0.5,0.1l0.5,0.5c0,0-20.5,17.5-25.7,21.9
	c-2.5,2.6-6.2,4.3-10.2,4.3c-3.6,0-7.2-1.4-9.7-3.8L0,51.2v-6.4l25.4,20.6c1.8,1.3,3.8,2,6.2,2s4.7-0.9,6.4-2.3
	c1-0.9,16.4-14,23.3-19.8l-4.5-3.8L37.4,58c-1.9,1.3-4,2-6.4,2c-2.5,0-4.8-0.8-6.7-2.3L0,38v-4.5l21.6,17.5c1.5,1.1,3.4,1.9,5.5,1.9
	c2.3,0,4.3-0.8,5.8-2l0.3-0.3l0.1-0.1c2.1-1.8,12-9.9,17-14.2h-0.1v-0.1l-1.3-0.9c-1.3-0.6-3-0.4-4.7,0.5c-0.1,0-0.1,0.1-0.1,0
	c-5.4,4.7-10.4,8.8-10.9,9.3c-1.4,1.4-3.4,2.1-5.4,2.1c-1.9,0-3.6-0.6-5.2-1.8L7.3,32.6l-0.1,0.1l-4.4-3.6l-1.3-1.4L0,26.4h0.3
	L0,26.2c0,0,20.5-17.5,25.7-21.9C28.3,1.6,31.8,0,35.9,0c3.8,0,7.2,1.5,9.7,3.8l25.5,20.9v6.4L45.7,10.3c-1.8-1.3-3.8-2-6-2
	c-2.5,0-4.8,0.9-6.5,2.3C32.1,11.4,16.9,24.5,9.9,30.3"/>
</svg>
