<?xml version="1.0" encoding="utf-8"?>
<!-- Generator: Adobe Illustrator 21.1.0, SVG Export Plug-In . SVG Version: 6.00 Build 0)  -->
<svg version="1.1"
	 id="svg3503" inkscape:version="0.91 r13725" sodipodi:docname="china construction bank.svg" xmlns:cc="http://creativecommons.org/ns#" xmlns:dc="http://purl.org/dc/elements/1.1/" xmlns:inkscape="http://www.inkscape.org/namespaces/inkscape" xmlns:rdf="http://www.w3.org/1999/02/22-rdf-syntax-ns#" xmlns:sodipodi="http://sodipodi.sourceforge.net/DTD/sodipodi-0.dtd" xmlns:svg="http://www.w3.org/2000/svg"
	 xmlns="http://www.w3.org/2000/svg" xmlns:xlink="http://www.w3.org/1999/xlink" x="0px" y="0px" viewBox="0 0 37.2 38.9"
	 style="enable-background:new 0 0 37.2 38.9;" xml:space="preserve">
<path id="path298" inkscape:connector-curvature="0" d="M32.7,15.2L21.6,4.1c-2.3-2.3-5.1-2.2-6.1-2C6.7,3.5,0,11.1,0,20.3
	c0,10.2,8.3,18.6,18.5,18.6c10,0,18.1-8,18.5-17.9c0-0.1,0-0.5-0.3-0.6c-0.3-0.2-0.9-0.1-0.9-0.1h-7.2c0,0-0.7,0-0.9,0.1
	c-0.1,0.1-0.3,0.2-0.3,0.2l-8.7,8.7c-0.1,0.1-0.4,0.1-0.5,0l-8.8-8.8c-0.1-0.1-0.1-0.4,0-0.5l8.8-8.8c0.1-0.1,0.4-0.1,0.5,0l8.1,8.1
	c0,0,0.4,0.4,0.8,0.5c0.4,0.1,0.9-0.3,0.9-0.3L32.7,15.2"/>
<path id="path300" inkscape:connector-curvature="0" d="M36.8,9.5l-6-6c-6.7-6.5-14.4-2-14.4-2s3.3-1.8,7.5,2.7l9.9,10l2.9-2.9
	c0,0,0.4-0.4,0.4-0.8C37.2,10,36.8,9.5,36.8,9.5"/>
</svg>
