<?xml version="1.0" encoding="utf-8"?>
<!-- Generator: Adobe Illustrator 21.1.0, SVG Export Plug-In . SVG Version: 6.00 Build 0)  -->
<svg version="1.1"
	 id="svg2" inkscape:version="0.48.1 r9760" sodipodi:docname="China Unicom.svg" xmlns:cc="http://creativecommons.org/ns#" xmlns:dc="http://purl.org/dc/elements/1.1/" xmlns:inkscape="http://www.inkscape.org/namespaces/inkscape" xmlns:rdf="http://www.w3.org/1999/02/22-rdf-syntax-ns#" xmlns:sodipodi="http://sodipodi.sourceforge.net/DTD/sodipodi-0.dtd" xmlns:svg="http://www.w3.org/2000/svg"
	 xmlns="http://www.w3.org/2000/svg" xmlns:xlink="http://www.w3.org/1999/xlink" x="0px" y="0px" viewBox="0 0 85.5 64.5"
	 style="enable-background:new 0 0 85.5 64.5;" xml:space="preserve">
<sodipodi:namedview  bordercolor="#666666" borderopacity="1.0" fit-margin-bottom="0" fit-margin-left="0" fit-margin-right="10" fit-margin-top="10" id="base" inkscape:current-layer="layer1" inkscape:cx="160.25416" inkscape:cy="31.448829" inkscape:document-units="px" inkscape:pageopacity="0.0" inkscape:pageshadow="2" inkscape:window-height="712" inkscape:window-maximized="1" inkscape:window-width="1366" inkscape:window-x="0" inkscape:window-y="26" inkscape:zoom="2.8" pagecolor="#ffffff" showgrid="false">
	</sodipodi:namedview>
<path id="path4265" inkscape:connector-curvature="0" d="M56.1,56.1c-1.5,1.5-3.9,1.5-5.4,0c-1.4-1.4-2.7-2.7-2.7-2.7l4.1-4.1
	L47,44.2l-4.1,4.1l-4.1-4.1l-5.1,5.1l4.1,4.1c0,0-1.3,1.3-2.7,2.7c-1.5,1.5-3.9,1.5-5.4,0s-1.5-3.9,0-5.4
	c1.6-1.6,13.2-13.3,13.2-13.3s11.8,11.8,13.3,13.3C57.6,52.2,57.6,54.6,56.1,56.1L56.1,56.1z M29.5,13.8c-1.5-1.5-1.5-3.9,0-5.4
	s3.9-1.5,5.4,0c1.4,1.4,2.7,2.7,2.7,2.7l-4.1,4.1l5.1,5.1l4.1-4.1l4.1,4.1l5.1-5.1L48,11.1c0,0,1.3-1.3,2.7-2.7
	c1.5-1.5,3.9-1.5,5.4,0s1.5,3.9,0,5.4c-1.6,1.6-13.3,13.3-13.3,13.3S31.1,15.4,29.5,13.8L29.5,13.8z M48,32.2
	c0,0,12.1-12.1,13.3-13.3c4.3-4.3,4.3-11.4,0-15.7s-11.4-4.3-15.7,0C43.8,5,42.8,6,42.8,6s-1-1-2.7-2.7C35.8-1,28.7-1,24.4,3.3
	C20,7.6,20,14.6,24.4,19c1.2,1.2,13.3,13.3,13.3,13.3s-12.1,12-13.3,13.2c-4.3,4.3-4.3,11.4,0,15.7s11.4,4.3,15.7,0
	c1.7-1.7,2.7-2.7,2.7-2.7s1,1,2.7,2.7c4.3,4.3,11.4,4.3,15.7,0s4.3-11.4,0-15.7C60,44.3,48,32.2,48,32.2z M77.1,35
	c-1.5,1.5-3.9,1.5-5.4,0c-1.2-1.2-2.7-2.7-2.7-2.7s1.5-1.5,2.7-2.7c1.5-1.5,3.9-1.5,5.4,0c0.7,0.7,1.1,1.7,1.1,2.7
	S77.8,34.2,77.1,35z M82.3,24.4c-4.3-4.3-11.4-4.3-15.7,0c-1.2,1.2-2.7,2.7-2.7,2.7L59.7,23l-5.1,5.1l4.1,4.1l-4.1,4.1l5.1,5.1
	l4.1-4.1c0,0,1.5,1.5,2.7,2.7c4.3,4.3,11.4,4.3,15.7,0c2.2-2.2,3.3-5,3.3-7.9C85.5,29.4,84.4,26.6,82.3,24.4L82.3,24.4z M13.8,35
	c-1.5,1.5-3.9,1.5-5.4,0c-0.7-0.7-1.1-1.7-1.1-2.7s0.4-2,1.1-2.7c1.5-1.5,3.9-1.5,5.4,0c1.2,1.2,2.7,2.7,2.7,2.7S15,33.7,13.8,35z
	 M25.8,41.5l5.1-5.1l-4.1-4.1l4.1-4.1L25.8,23l-4.1,4.1c0,0-1.5-1.5-2.7-2.7C14.6,20,7.6,20,3.3,24.4c-2.2,2.2-3.3,5-3.3,7.9
	c0,2.8,1.1,5.7,3.3,7.9c4.3,4.3,11.4,4.3,15.7,0c1.2-1.2,2.7-2.7,2.7-2.7L25.8,41.5"/>
</svg>
