<?xml version="1.0" encoding="utf-8"?>
<!-- Generator: Adobe Illustrator 21.1.0, SVG Export Plug-In . SVG Version: 6.00 Build 0)  -->
<svg version="1.1" id="svg2728" xmlns:svg="http://www.w3.org/2000/svg"
	 xmlns="http://www.w3.org/2000/svg" xmlns:xlink="http://www.w3.org/1999/xlink" x="0px" y="0px" viewBox="0 0 466.8 467.4"
	 style="enable-background:new 0 0 466.8 467.4;" xml:space="preserve">
<path d="M293.6,129.4v330.1c15.1-4,29.6-9.5,43.4-16.3V65.8C311.7,75.8,293.6,100.6,293.6,129.4"/>
<path d="M428.5,280.5c-2,5.1-9.8,6.1-12.4,0.2c-6.5-14.6-10.2-30.8-10.2-47.9c0-17.2,3.7-33.5,10.4-48.2l0,0
	c1.1-1.9,3.2-3.1,5.6-3.1c2.6,0,4.8,1.5,5.9,3.6c0,0,0,0,0.1-0.1c5.9,16.5,20.8,28.6,38.8,30.4c-5.7-73.9-46-138.2-104.6-176.9
	v390.3C420.9,390,461.3,325.3,466.8,251C449.2,253,434.6,264.6,428.5,280.5"/>
<path d="M327.9,42.5C327.8,42.5,327.8,42.4,327.9,42.5c4.4-1.9,7.6-6.3,7.6-11.4c0-4.6-2.6-8.6-6.4-10.7C300,7.3,267.7,0,233.8,0
	c-33.1,0-64.6,6.9-93.1,19.4c0.1,0,0.1,0,0,0c-4,1.8-6.8,5.8-7.1,10.4v1.3c0.3,4.8,3.3,8.9,7.5,10.6c0,0,0,0,0,0.1
	C176.6,55,202,89.2,202,129.4v335.8c10.4,1.4,21,2.2,31.7,2.2c11.9,0,23.5-0.9,34.9-2.6V129.4C268.6,89.9,293.2,56.1,327.9,42.5"/>
<path d="M0,233.7c0,82.8,43.4,155.7,108.5,197.2V251.1c-17.7,1.8-32.4,13.5-38.6,29.4c-2,5.1-9.8,6.1-12.4,0.2
	c-6.5-14.6-10.2-30.8-10.2-47.9c0-17.2,3.7-33.5,10.4-48.2l0,0c1.1-1.9,3.2-3.1,5.6-3.1c2.6,0,4.8,1.5,5.9,3.6c0,0,0,0,0.1-0.1
	c6,16.6,21.1,28.8,39.3,30.5v-179C43.4,78,0,150.9,0,233.7"/>
<path d="M133.6,65.8v379c13.8,6.6,28.3,11.8,43.4,15.6v-331C176.9,100.6,158.9,75.8,133.6,65.8"/>
</svg>
