<?xml version="1.0" encoding="utf-8"?>
<!-- Generator: Adobe Illustrator 21.1.0, SVG Export Plug-In . SVG Version: 6.00 Build 0)  -->
<svg version="1.1"
	 id="svg8258" xmlns:cc="http://creativecommons.org/ns#" xmlns:dc="http://purl.org/dc/elements/1.1/" xmlns:rdf="http://www.w3.org/1999/02/22-rdf-syntax-ns#"
	 xmlns="http://www.w3.org/2000/svg" xmlns:xlink="http://www.w3.org/1999/xlink" x="0px" y="0px" viewBox="0 0 400 150"
	 style="enable-background:new 0 0 400 150;" xml:space="preserve">
<g id="layer4">
	<path id="path9021" d="M40,0C17.9,0,0,17.9,0,40v70c0,22.1,17.9,40,40,40h140c22.1,0,40-17.9,40-40V78.7V40c0-5.5,4.5-10,10-10
		c2.8,0,5.5,1.2,7.4,3.3l0,0l25.9,28.8l67,74.6l0,0c7.6,8.4,18.4,13.3,29.7,13.3c22.1,0,40-17.9,40-40V0h-30v71.3V110
		c0,5.5-4.5,10-10,10c-2.8,0-5.5-1.2-7.4-3.3l0,0L259.7,13.3C252.1,4.8,241.3,0,230,0c-22.1,0-40,17.9-40,40l0,0v31.3V110
		c0,5.5-4.5,10-10,10h-38.7H78.7H40c-5.5,0-10-4.5-10-10V40c0-5.5,4.5-10,10-10h38.7H160V0L40,0L40,0z M259.7,13.3L259.7,13.3
		L259.7,13.3L259.7,13.3L259.7,13.3z"/>
</g>
</svg>
