<?xml version="1.0" encoding="utf-8"?>
<!-- Generator: Adobe Illustrator 21.1.0, SVG Export Plug-In . SVG Version: 6.00 Build 0)  -->
<svg version="1.1" id="Layer_1" xmlns:svg="http://www.w3.org/2000/svg"
	 xmlns="http://www.w3.org/2000/svg" xmlns:xlink="http://www.w3.org/1999/xlink" x="0px" y="0px" viewBox="0 0 200 95.6"
	 style="enable-background:new 0 0 200 95.6;" xml:space="preserve">
<g transform="matrix(1.2470709,0,0,-1.2470709,-28.601861,1011.2423)">
	<g transform="translate(-216,-15084)">
		<path d="M305,15894.5c-6.6-0.5-12.2-6-12.2-13.9v-37.3c0-1.3-1-2.5-2.5-2.5h-11.6c-25.2,0-23,32.2-1.5,32.2h12.9v9.4h-13.4
			c-8.5,0-14.9-3.2-19.2-8s-6.4-11.2-6.4-17.6c0-6.4,2.1-12.8,6.5-17.5c4.4-4.8,11-8,20.1-8h22c1.5,0,2.6,1.2,2.6,2.7v45.5
			c0,2.3,1.3,4.2,3,4.7s3.7-0.1,4.9-1.8l0,0c6.2-10.2,31.1-50,31.1-50.1c0.7-1,1.5-1.1,2.1-1c0.6,0.2,1.2,0.8,1.2,2.4v45.8
			c0,2.3,1.3,4.2,3,4.7s3.7-0.1,4.9-1.8v0h0.1c6.2-10.2,31.1-50,31.1-50.1c0.7-1,1.5-1.2,2.1-1s1.2,0.8,1.2,2.4v60.5h-9.4v-35.3
			c0,0-5.6,9.6-15.2,26.1c-9.4,16.2-27.2,9.5-27.2-4.5v-21.7c0,0-5.5,9.6-15.1,26.1C315.9,15892.1,310.2,15894.8,305,15894.5
			L305,15894.5z M278.4,15894.2c-52.4,0-51.9-74.7,0.7-74.8h20.6c8.9,0,14.5,5.2,14.5,14.9v18.9c0,0,11.6-19.1,16.1-26.6
			c7.7-12.7,26.3-10.2,26.3,5.7v20.9c0,0,11.5-19.1,16-26.6c7.7-12.7,26.4-10.2,26.3,5.7v61.8h-9.4v-60.5c0-2.3-1.2-4-2.9-4.6
			c-1.7-0.5-3.6,0.1-4.8,1.8h0v0.1c0,0-24.8,39.7-31.1,50c0,0,0,0,0,0c0,0,0,0,0,0c-0.6,0.9-1.5,1.1-2.2,0.8
			c-0.7-0.2-1.4-0.8-1.4-2.4v-45.8c0-2.3-1.2-4.1-2.8-4.7c-1.7-0.6-3.6,0.2-4.7,1.8v0h0c0,0-24.8,39.8-31.1,50.1
			c-0.7,0.9-1.5,1.2-2.2,1s-1.4-0.8-1.4-2.4v0v-45.5c0-2.8-2.3-5.1-5-5.1h-22c-9.6,0-17,3.5-21.8,8.7c-4.8,5.2-7.2,12.2-7.2,19.1
			c0,6.9,2.4,13.9,7.1,19.2s11.8,8.7,20.9,8.7h13.4v9.5L278.4,15894.2L278.4,15894.2z"/>
	</g>
</g>
</svg>
