<?xml version="1.0" encoding="utf-8"?>
<!-- Generator: Adobe Illustrator 21.1.0, SVG Export Plug-In . SVG Version: 6.00 Build 0)  -->
<svg version="1.1" id="Layer_1" xmlns="http://www.w3.org/2000/svg" xmlns:xlink="http://www.w3.org/1999/xlink" x="0px" y="0px"
	 viewBox="0 0 1082.4 379.6" style="enable-background:new 0 0 1082.4 379.6;" xml:space="preserve">
<title>coors-logo-color</title>
<path d="M1082.4,292.5h-5c-10.2,0-23.9,6.2-37.8,16.9c2-9.5,3-19.3,3-29c0-20-5.3-45.7-9.9-68.3l-0.7-3.4
	c-3.7-17.9-7.2-34.8-7.2-46.1c0-15.9,3.7-27.7,12.5-39.5l0.2-0.3l-14.7-9.5h-0.2c-35.9,23.9-72.3,70.2-100,107.9
	c-49.9,67.8-77.7,100-100.9,100c-7.6,0-12.1-4.9-12.1-13.1c0-11.7,10.4-30.2,21.4-49.7c12.4-22,25.2-44.7,25.2-61.4
	s-13.2-31.4-24.8-43.1s-19.6-20.7-19.6-31.3c0.1-2.9,0.5-5.7,1.3-8.5l0.4-1.8v-0.2l-14.9-8.9l-0.2,0.3
	c-20.7,43.1-49.9,76.5-78.2,89.5c-3.4-37.8-24.2-57.8-60.3-57.8s-69.9,23.1-90.6,42.3c-22.2,16.6-49.4,26.9-71,26.9h-3.1
	c0.1-2.4,0.1-5.5,0.1-7.3c0-38.2-23.3-61.9-60.7-61.9c-55.7,0-113.7,48.8-144.5,121.5c-38.1,41.5-81.1,63.5-124.3,63.5
	c-22.9,0-39.6-7.8-49.7-23c-7.6-11.5-11.4-27.3-11.4-47c0-41.3,13.9-84.8,40.1-125.7c13-1.7,30.3-5.7,47.6-11
	c-2.9,5.9-7.4,16.9-7.4,28c0,30.5,21.4,49.4,55.7,49.4c29.4,0,56.9-12.6,77.7-35.4s31.1-50.5,31.1-78.9c0-22.8-7.1-41.8-20.4-55
	S293.7,0,266.7,0C203.6,0,135,38.2,83.2,102c-22.4-5.7-34.8-18.4-34.8-35.9c0-14.3,10.1-23.5,25.6-23.5h3.1L76.6,42
	c-8-9.2-19.7-14.4-31.9-14.3c-29.5,0-42.6,19.9-42.6,39.6c0,21.3,17.1,47.1,65.2,55.6c-32.8,47.7-51.5,100.3-51.5,144.3
	c0,71.4,39,112.4,107.1,112.4c76.2,0,131.7-49,158.4-78.8c-0.3,2.9-0.5,5.8-0.4,8.7c0,34.9,20.5,70.1,66.4,70.1
	c73.2,0,129.4-79.1,145.2-153.7h0.9c13.5,0,31-3.6,45-9.3c-19.3,29.7-31.6,66.6-31.6,94.3c0,19.2,5.6,35.8,16,47.9
	c11.9,13.6,29,20.8,49.6,20.8c46.1,0,79.4-30.2,99.2-55.5c23.2-29.6,41-70.5,47.6-109.4c24.9-8.9,51.2-31,70.7-59.1
	c0.9,1.3,1.7,2.6,2.5,3.9c1.2,2,2.5,4,3.9,5.9c6.5,8.5,11.9,16.2,11.9,24.3c0,12.4-13.2,30.3-28.5,51.1
	c-20.4,27.7-43.4,59.1-44.3,89c-0.4,14.4,4.1,27.2,12.6,36s20.6,13.6,34.4,13.6c58,0,97.2-56.9,131.7-107.1l0.6-0.9l11.9-17.1
	l10.2-14.8l0.6-0.8l4.2-6.1c16.9-24.6,38-55.1,56.6-74.7c-3.2,15-4.7,39.4-5,57.5c-0.4,26.1-0.9,53.2-8.1,75.7
	c-4.2,13.4-13.3,29.5-32.5,29.5c-5.3,0-9.7-1.7-13-4.9s-5.9-9.6-5.8-16s3.3-15.6,6.4-20.7l0.4-0.6h-0.7
	c-20.4,3.6-42.2,24.9-42.2,51.1c0,29.8,22.8,49.8,56.6,49.8c16.5,0,31.4-3.7,44.3-11c12.9-7.3,23.5-18.1,30.5-31.1
	c9.8-7.6,22.7-12,36.2-12.3c1.9-0.1,3.7,0,5.6,0.3h0.3l11.7-33.1L1082.4,292.5z M600.9,322c-18.1,0-28.9-13.6-28.9-36.3
	s10.6-55.3,27.2-80.2c18.7-28.1,42-44.2,64.1-44.2c2.7,0,5.3,0.5,7.8,1.4c-4.7,6.4-7.2,14.1-7.2,22c0,15.3,9.8,27.9,25,32.3
	c-9.4,43.8-42.9,105.2-88,105.2 M375,322.6c-25.4,0-28.2-25.7-28.2-36.7c0-47.9,41.5-124.3,90.7-124.3c2.9,0,5.8,0.4,8.6,1.2
	c-5,6.7-7.7,14.8-7.7,23.2c0,18.5,12.4,30.1,24,34.8c-8.9,41.1-42.7,101.6-87.5,101.6 M257.3,145.2c-16.1,0-26.6-10.8-26.6-27.4
	c0-22.6,17.4-41.1,20.9-44.6l1.2-1.2l-1.6,0.7c-29.7,12.8-67.5,24.8-90.5,28.7c24.6-33.5,67.9-72.2,109.9-72.2
	c28.8,0,47.4,18.1,47.4,46C318,112.5,289.6,145.2,257.3,145.2"/>
</svg>
