<?xml version="1.0" encoding="utf-8"?>
<!-- Generator: Adobe Illustrator 21.1.0, SVG Export Plug-In . SVG Version: 6.00 Build 0)  -->
<svg version="1.1" id="Layer_1" xmlns="http://www.w3.org/2000/svg" xmlns:xlink="http://www.w3.org/1999/xlink" x="0px" y="0px"
	 viewBox="0 0 143.2 74.2" style="enable-background:new 0 0 143.2 74.2;" xml:space="preserve">
<path d="M16.7,74.2h109.8V65H16.7V74.2L16.7,74.2z M24.7,72.9c-1.7,0-3-1.4-3-3s1.3-3,3-3s3,1.4,3,3C27.7,71.6,26.4,72.9,24.7,72.9
	L24.7,72.9z M47.9,72.9c-1.7,0-3-1.4-3-3s1.4-3,3-3s3,1.4,3,3C50.9,71.6,49.6,72.9,47.9,72.9L47.9,72.9z M71.5,72.9
	c-1.7,0-3-1.4-3-3s1.4-3,3-3c1.7,0,3,1.4,3,3C74.5,71.6,73.1,72.9,71.5,72.9L71.5,72.9z M94.7,72.9c-1.7,0-3-1.4-3-3s1.3-3,3-3
	s3,1.4,3,3C97.7,71.6,96.3,72.9,94.7,72.9L94.7,72.9z M118.4,72.9c-1.7,0-3-1.4-3-3s1.4-3,3-3c1.7,0,3,1.4,3,3
	C121.4,71.6,120,72.9,118.4,72.9L118.4,72.9z"/>
<path d="M16.7,63.9h110c0,0,0-3,0-6.1h-110L16.7,63.9L16.7,63.9z"/>
<path d="M16.7,56.7h110c0-0.7,0-1.4,0-2.1c-0.1-3.9,3.1-6.1,4.9-6.7c1.8-0.6,5.4-3.2,5.4-3.2c9.3-7.4,5.4-13.8,5.4-13.8
	s-3.2,7.1-13.9,6c0,0-0.8,4.4-5.8,5.5c0,0,2.6,2.8,1.8,5.9c0,0-0.1,3-4.4,2.4c0,0-2-1.8,0.9-4.8l-4.1-3.3l-4,3.1c0,0,2.7,1.4,1.3,5
	c0,0-1.5,1.3-2,1.4c-0.6,0.1-5.8-2.3-0.2-8l-6.2-5.3l-6.4,5.3c0,0,5.1,5.1,0.9,7.8c0,0-4.5,3.1-5-2.4c0,0-0.6-1.7,1.7-2.6l-6.2-4
	l-5.9,4.2c0,0,1.8,1.3,1.7,2.4c-0.1,1.1,0.4,3-3.5,3.5c0,0-4.2-0.4-3-4.7c1.2-4.4,5.5-4.9,7-5.3c0,0-4-6.8-15.3-8.8h-0.1
	c-11.3,2-15.3,8.8-15.3,8.8c1.5,0.4,5.8,0.9,7,5.3c1.2,4.3-3,4.7-3,4.7c-3.9-0.5-3.4-2.4-3.5-3.5s1.7-2.4,1.7-2.4l-5.9-4.2l-6.2,4
	c2.2,0.9,1.7,2.6,1.7,2.6c-0.5,5.4-5,2.4-5,2.4c-4.2-2.7,0.9-7.8,0.9-7.8l-6.4-5.3l-6.2,5.3c5.5,5.8,0.3,8.1-0.2,8
	c-0.6-0.1-2-1.4-2-1.4c-1.4-3.5,1.3-5,1.3-5l-4-3.1l-4.1,3.3c3,3.1,0.9,4.8,0.9,4.8c-4.5,0.6-4.6-2.4-4.6-2.4
	c-0.8-3.1,1.8-5.9,1.8-5.9c-5-1.1-5.9-5.5-5.9-5.5C4,38,0.8,30.9,0.8,30.9s-3.9,6.4,5.5,13.8c0,0,3.6,2.6,5.4,3.2
	c1.8,0.6,5,2.8,4.9,6.7L16.7,56.7L16.7,56.7z"/>
<path d="M126.8,57.8v-1.1h-0.1c0,0.4,0,0.7,0,1.1H126.8L126.8,57.8z"/>
<path d="M71.7,31.6c4.1,0,7.8,1.3,10.1,3.3l0.2,0.2c1.4,1.4,2.2,1.3,4,1.3c2,0,3.6-1.6,3.6-3.7c0-2,0-3.7-2.8-6.3L85.3,25l2.4-2.1
	c11.4,4.9,12.8,12.4,12.8,12.4h7.6c0-2.5-3.8-9.4-3.8-9.4c14.6,3.6,19.3,12.7,19.3,12.7c4.5-8,12.3-6.5,12.3-6.5l1.3-3.9
	c0,0-4.8-0.2-8.5,0.7c0,0,2.1-2.5-3.2-3.2c0,0,0.5-3.6-6.3-3.6c0,0,0.3-2.4-4-3.9c-4.3-1.6-5.7,0-5.7,0s-0.9-2.5-4.7-3.3
	s-5.1,0.8-5.1,0.8s-0.8-2.5-6.3-3.2c-5.5-0.6-6.5,1.1-6.5,1.1s-0.9-1.9-3.5-2.1c-2.5-0.2-3.6,1.3-3.6,1.3s-1.6-2.2-3.6-0.5
	c0,0-2.1,0.3-2.8-1.4c0,0,0.3-1.7,1.7-2.1c1.4-0.3,2.5-0.3,2.5-0.3s-0.1-2.7-4.1-3.6c0,0,1.5-2.4-1.8-4.9h-0.3
	c-3.3,2.5-1.8,4.9-1.8,4.9c-3.9,1-4.1,3.6-4.1,3.6s1.1,0,2.5,0.3s1.7,2.1,1.7,2.1c-0.8,1.7-2.8,1.4-2.8,1.4
	c-2.1-1.7-3.6,0.5-3.6,0.5s-1.1-1.4-3.6-1.3c-2.5,0.2-3.5,2.1-3.5,2.1s-0.9-1.7-6.5-1.1c-5.5,0.6-6.3,3.2-6.3,3.2s-1.3-1.6-5.1-0.8
	s-4.7,3.3-4.7,3.3s-1.4-1.6-5.7,0c-4.3,1.6-3.9,3.9-3.9,3.9c-6.8,0-6.3,3.6-6.3,3.6c-5.2,0.6-3.1,3.2-3.1,3.2
	C11,28,6.1,28.2,6.1,28.2l1.3,3.9c0,0,7.8-1.5,12.3,6.5c0,0,4.7-9.1,19.3-12.7c0,0-3.8,6.9-3.8,9.4h7.6c0,0,1.4-7.6,12.8-12.4L58,25
	l-1.5,1.4c-2.8,2.6-2.8,4.2-2.8,6.3c0,2,1.6,3.7,3.6,3.7c1.8,0,2.5,0.1,4-1.3l0.2-0.2c2.4-2.1,6-3.3,10.1-3.3L71.7,31.6L71.7,31.6z"
	/>
</svg>
