<?xml version="1.0" encoding="utf-8"?>
<!-- Generator: Adobe Illustrator 21.1.0, SVG Export Plug-In . SVG Version: 6.00 Build 0)  -->
<svg version="1.1" id="Layer_1" xmlns="http://www.w3.org/2000/svg" xmlns:xlink="http://www.w3.org/1999/xlink" x="0px" y="0px"
	 viewBox="0 0 342.4 178.2" style="enable-background:new 0 0 342.4 178.2;" xml:space="preserve">
<path d="M100.9,84.2c0,0-14.7-0.5-20.6-13.7c0,0-13.7,15.4-35.1,20.8l1.4,3.8v49l-4,4c0,0-16.1-11.9-17.5-26.1s1.4-25.1,17.3-38.9
	c0,0,4.7-4.5,12.8-7.3v-1.7C29.6,74.2,0,97.4,0,124.5c0,26.8,20.3,42.6,47.2,42.6c0,0,17.1,0.2,29.7-6.8v6.7c0,0.5-1,0.4-1,0.4
	c-3.7,0-6.6,2.4-6.6,5.4s3,5.4,6.6,5.4c3.7,0,6.6-2.4,6.6-5.4v-15.1c0,0,3.6-2.7,4.8-3.7c1.2-0.9,0.2-2.8-1.2-2.4
	c-1.4,0.5-3.6,1.4-3.6,1.4V90.3C82.5,90.3,94.8,91.5,100.9,84.2L100.9,84.2z M76.8,154.5c-21.3,2.4-27-2.4-27-2.4l17.5-14.9V86.1
	c0-2.4,9.5,3.5,9.5,3.5V154.5L76.8,154.5z"/>
<path d="M128.2,139.1c0,0,0-30.1,0-31.3c0-1.2,2.4-3.8,2.4-3.8c-8.8-0.9-22.7-7.8-22.7-7.8c-7.8,6.6-20.4,7.3-20.4,7.3
	c-0.2,1.4,1.9,4,1.9,4v30.8c0,0-0.9,0.9-3.1,3.8c-2.1,2.8-1,2.8-1,2.8c17.5,1.9,24.6,9.2,24.6,9.2c7.8-8.8,21.1-10.7,21.1-10.7
	C128.9,142.7,128.2,139.1,128.2,139.1L128.2,139.1z M114,141.5c-9.5-1.9-11.4-4-11.4-4v-32c0-0.7,11.4,4,11.4,4V141.5L114,141.5z"/>
<path d="M219.1,139.1c0,0,0-30.1,0-31.3c0-1.2,2.4-3.8,2.4-3.8c-8.8-0.9-22.7-7.8-22.7-7.8c-7.8,6.6-20.4,7.3-20.4,7.3
	c-0.2,1.4,1.9,4,1.9,4v30.8c0,0-0.9,0.9-3.1,3.8c-2.1,2.8-1,2.8-1,2.8c17.5,1.9,24.6,9.2,24.6,9.2c7.8-8.8,21.1-10.7,21.1-10.7
	C219.9,142.7,219.1,139.1,219.1,139.1L219.1,139.1z M204.9,141.5c-9.5-1.9-11.4-4-11.4-4v-32c0-0.7,11.4,4,11.4,4V141.5L204.9,141.5
	z"/>
<path d="M276.1,142C276.1,142,276,142,276.1,142C276,142,275.5,142.8,276.1,142L276.1,142z"/>
<path d="M321.2,141.3c-3.3-0.5-4.7-4.5-4.7-4.5s0-28.9,0-30.1s0-6.2,0-6.2c-10.2-3.3-20.1-6.9-20.1-6.9c-9.5,5.7-19.7,8.8-19.7,8.8
	c-0.2,1.4,1.9,4,1.9,4v32.2c0,0,0.7-0.9-1.4,1.9c-0.5,0.7-0.9,1.2-1.1,1.4c10.2,1.2,21.4,12.3,21.4,12.3l8.2-8.8l9.2,8.8l10.9-12.3
	L321.2,141.3L321.2,141.3z M302.3,140.3c-4.3-3.3-10.2-6.2-10.2-6.2v-31c-2.9-1.8,10.2,4,10.2,4V140.3L302.3,140.3z"/>
<path d="M133.5,104.6l12-9.2c0,0,7.6,4.5,8.8,6.4c0,0,1.2,1,10.9-5.4l1.7-1.2c0,0,6.2,5.7,11.4,7.1c0,0-1.2,10.4-19.7,5.4
	c0,0-4-0.7-4,1.2c0,1.9,0,33.4,0,33.4h5.2c0,0-8.1,4.7-10.9,9c-2.8,4.2-2.6,3.1-2.6,3.1s-0.9-5.2-11.1-11.1l-0.2-0.7h4.7v-31.8
	C139.6,110.7,137.5,104.8,133.5,104.6L133.5,104.6z"/>
<path d="M269.8,103.1c-5-2-13.3-8.5-13.3-8.5l-1.6,1.2c-9.7,6.4-12.6,6.6-12.6,6.6c-1.2-1.9-9-6.4-9-6.4l-10.7,8.1
	c4,0.2,5.7,6.9,5.7,6.9v31.7h-4.7l0.2,0.7c10.2,5.9,11.4,10.9,11.4,10.9s-0.5,1.4,2.4-2.8c2.9-4.3,10.9-9,10.9-9h-5.2
	c0,0,0-31.5,0-33.4l6.2-4.7l4.7,4v33.9h-2.8c0,0,10.6,10,11,12.1c0,0,9.8-11.4,11-11.4h-4.7v-35.3
	C268.7,107.6,271,103.6,269.8,103.1L269.8,103.1z"/>
<path d="M115.9,74.9h109.8v-9.2H115.9V74.9L115.9,74.9z M123.9,73.6c-1.7,0-3-1.4-3-3s1.3-3,3-3s3,1.4,3,3
	C126.9,72.3,125.6,73.6,123.9,73.6L123.9,73.6z M147.1,73.6c-1.7,0-3-1.4-3-3s1.4-3,3-3s3,1.4,3,3C150.1,72.3,148.8,73.6,147.1,73.6
	L147.1,73.6z M170.7,73.6c-1.7,0-3-1.4-3-3s1.4-3,3-3c1.7,0,3,1.4,3,3C173.7,72.3,172.3,73.6,170.7,73.6L170.7,73.6z M193.9,73.6
	c-1.7,0-3-1.4-3-3s1.3-3,3-3s3,1.4,3,3C196.9,72.3,195.5,73.6,193.9,73.6L193.9,73.6z M217.6,73.6c-1.7,0-3-1.4-3-3s1.4-3,3-3
	c1.7,0,3,1.4,3,3C220.6,72.3,219.2,73.6,217.6,73.6L217.6,73.6z"/>
<path d="M115.9,64.6h110c0,0,0-3,0-6.1h-110L115.9,64.6L115.9,64.6z"/>
<path d="M115.9,57.4h110c0-0.7,0-1.4,0-2.1c-0.1-3.9,3.1-6.1,4.9-6.7c1.8-0.6,5.4-3.2,5.4-3.2c9.3-7.4,5.4-13.8,5.4-13.8
	s-3.2,7.1-13.9,6c0,0-0.8,4.4-5.8,5.5c0,0,2.6,2.8,1.8,5.9c0,0-0.1,3-4.4,2.4c0,0-2-1.8,0.9-4.8l-4.1-3.3l-4,3.1c0,0,2.7,1.4,1.3,5
	c0,0-1.5,1.3-2,1.4c-0.6,0.1-5.8-2.3-0.2-8l-6.2-5.3l-6.4,5.3c0,0,5.1,5.1,0.9,7.8c0,0-4.5,3.1-5-2.4c0,0-0.6-1.7,1.7-2.6l-6.2-4
	l-5.9,4.2c0,0,1.8,1.3,1.7,2.4c-0.1,1.1,0.4,3-3.5,3.5c0,0-4.2-0.4-3-4.7c1.2-4.4,5.5-4.9,7-5.3c0,0-4-6.8-15.3-8.8h-0.1
	c-11.3,2-15.3,8.8-15.3,8.8c1.5,0.4,5.8,0.9,7,5.3c1.2,4.3-3,4.7-3,4.7c-3.9-0.5-3.4-2.4-3.5-3.5s1.7-2.4,1.7-2.4l-5.9-4.2l-6.2,4
	c2.2,0.9,1.7,2.6,1.7,2.6c-0.5,5.4-5,2.4-5,2.4c-4.2-2.7,0.9-7.8,0.9-7.8l-6.4-5.3l-6.2,5.3c5.5,5.8,0.3,8.1-0.2,8
	c-0.6-0.1-2-1.4-2-1.4c-1.4-3.5,1.3-5,1.3-5l-4-3.1l-4.1,3.3c3,3.1,0.9,4.8,0.9,4.8C118.1,52,118,49,118,49
	c-0.8-3.1,1.8-5.9,1.8-5.9c-5-1.1-5.9-5.5-5.9-5.5c-10.7,1.1-13.9-6-13.9-6s-3.9,6.4,5.5,13.8c0,0,3.6,2.6,5.4,3.2
	c1.8,0.6,5,2.8,4.9,6.7L115.9,57.4L115.9,57.4z"/>
<path d="M226,58.5v-1.1h-0.1c0,0.4,0,0.7,0,1.1H226L226,58.5z"/>
<path d="M170.9,32.3c4.1,0,7.8,1.3,10.1,3.3l0.2,0.2c1.4,1.4,2.2,1.3,4,1.3c2,0,3.6-1.6,3.6-3.7c0-2,0-3.7-2.8-6.3l-1.5-1.4l2.4-2.1
	c11.4,4.9,12.8,12.4,12.8,12.4h7.6c0-2.5-3.8-9.4-3.8-9.4c14.6,3.6,19.3,12.7,19.3,12.7c4.5-8,12.3-6.5,12.3-6.5l1.3-3.9
	c0,0-4.8-0.2-8.5,0.7c0,0,2.1-2.5-3.2-3.2c0,0,0.5-3.6-6.3-3.6c0,0,0.3-2.4-4-3.9c-4.3-1.6-5.7,0-5.7,0s-0.9-2.5-4.7-3.3
	s-5.1,0.8-5.1,0.8s-0.8-2.5-6.3-3.2c-5.5-0.6-6.5,1.1-6.5,1.1s-0.9-1.9-3.5-2.1c-2.5-0.2-3.6,1.3-3.6,1.3s-1.6-2.2-3.6-0.5
	c0,0-2.1,0.3-2.8-1.4c0,0,0.3-1.7,1.7-2.1c1.4-0.3,2.5-0.3,2.5-0.3s-0.1-2.7-4.1-3.6c0,0,1.5-2.4-1.8-4.9h-0.3
	c-3.3,2.5-1.8,4.9-1.8,4.9c-3.9,1-4.1,3.6-4.1,3.6s1.1,0,2.5,0.3s1.7,2.1,1.7,2.1c-0.8,1.7-2.8,1.4-2.8,1.4
	c-2.1-1.7-3.6,0.5-3.6,0.5s-1.1-1.4-3.6-1.3c-2.5,0.2-3.5,2.1-3.5,2.1s-0.9-1.7-6.5-1.1c-5.5,0.6-6.3,3.2-6.3,3.2s-1.3-1.6-5.1-0.8
	s-4.7,3.3-4.7,3.3s-1.4-1.6-5.7,0s-3.9,3.9-3.9,3.9c-6.8,0-6.3,3.6-6.3,3.6c-5.2,0.6-3.1,3.2-3.1,3.2c-3.6-0.9-8.5-0.7-8.5-0.7
	l1.3,3.9c0,0,7.8-1.5,12.3,6.5c0,0,4.7-9.1,19.3-12.7c0,0-3.8,6.9-3.8,9.4h7.6c0,0,1.4-7.6,12.8-12.4l2.4,2.1l-1.5,1.4
	c-2.8,2.6-2.8,4.2-2.8,6.3c0,2,1.6,3.7,3.6,3.7c1.8,0,2.5,0.1,4-1.3l0.2-0.2c2.4-2.1,6-3.3,10.1-3.3L170.9,32.3L170.9,32.3z"/>
</svg>
