<?xml version="1.0" encoding="utf-8"?>
<!-- Generator: Adobe Illustrator 21.1.0, SVG Export Plug-In . SVG Version: 6.00 Build 0)  -->
<svg version="1.1"
	 id="svg2" inkscape:version="0.47 r22583" sodipodi:docname="delhi metro.svg" xmlns:cc="http://creativecommons.org/ns#" xmlns:dc="http://purl.org/dc/elements/1.1/" xmlns:inkscape="http://www.inkscape.org/namespaces/inkscape" xmlns:rdf="http://www.w3.org/1999/02/22-rdf-syntax-ns#" xmlns:sodipodi="http://sodipodi.sourceforge.net/DTD/sodipodi-0.dtd" xmlns:svg="http://www.w3.org/2000/svg"
	 xmlns="http://www.w3.org/2000/svg" xmlns:xlink="http://www.w3.org/1999/xlink" x="0px" y="0px" viewBox="0 0 348.5 348.4"
	 style="enable-background:new 0 0 348.5 348.4;" xml:space="preserve">
<defs>
	
	
		<inkscape:perspective  id="perspective14" inkscape:persp3d-origin="138.75 : 92.5 : 1" inkscape:vp_x="0 : 138.75 : 1" inkscape:vp_y="0 : 1000 : 0" inkscape:vp_z="277.5 : 138.75 : 1" sodipodi:type="inkscape:persp3d">
		</inkscape:perspective>
</defs>
<sodipodi:namedview  bordercolor="#666666" borderopacity="1" gridtolerance="10" guidetolerance="10" id="namedview8" inkscape:current-layer="svg2" inkscape:cx="131.31527" inkscape:cy="189.73005" inkscape:pageopacity="0" inkscape:pageshadow="2" inkscape:window-height="722" inkscape:window-maximized="1" inkscape:window-width="1280" inkscape:window-x="-8" inkscape:window-y="20" inkscape:zoom="1.2027186" objecttolerance="10" pagecolor="#ffffff" showgrid="false">
	</sodipodi:namedview>
<g id="_x23_ffffffff" transform="translate(-1.7875267,59.08325)">
</g>
<g id="_x23_c0282cff" transform="matrix(1.2803064,0,0,1.2803064,-2.2885818,-2.4923649)">
	<path id="path6" d="M128.7,2.3c27.2-1.9,54.9,4.6,78.3,18.5c29.1,17.1,51.5,45.3,61.1,77.6c9.1,29.8,7.6,62.8-4.4,91.6
		c-12.8,31.3-37.8,57.4-68.5,71.5c-27.8,13.1-60.2,16.1-90,8.7c-30.2-7.3-57.4-25.4-76.1-50.2C11,196,1.2,165.8,1.8,135.8
		c0.4-34.7,14.8-68.9,39.3-93.5C64.2,18.9,95.9,4.4,128.7,2.3 M99.4,33.2c-25.6,9.3-47.3,28.4-60.2,52.4c65.8,0,131.5,0,197.2,0
		c-12.4-23.6-33.7-42.4-58.7-51.9C152.9,24.1,124.5,23.9,99.4,33.2 M30.6,107.1c-5.5,18.6-5.9,38.6-1.2,57.4
		c19.9-0.2,39.9,0.4,59.7-0.3c20.4-18.9,40.7-37.9,60.8-57.1C110.2,107.2,70.4,107.2,30.6,107.1 M177.4,108.6
		c-19.7,18.7-39.6,37.2-59.4,55.9c42.9-0.1,85.8,0.1,128.7-0.1c4.2-18.8,3.9-38.6-1.3-57.2c-20.7-0.2-41.5,0-62.2-0.1
		C181.2,107.2,178.8,106.8,177.4,108.6 M37,186c14.3,29.9,42.2,52.9,74.6,60.6c21.8,5.2,45.1,3.9,66-4.1
		c26.6-10,49.1-30.7,61.2-56.4C171.5,186.1,104.2,186.1,37,186L37,186z"/>
</g>
</svg>
