<?xml version="1.0" encoding="utf-8"?>
<!-- Generator: Adobe Illustrator 21.1.0, SVG Export Plug-In . SVG Version: 6.00 Build 0)  -->
<svg version="1.1"
	 id="svg3495" inkscape:version="0.91 r13725" sodipodi:docname="dmc.svg" xmlns:cc="http://creativecommons.org/ns#" xmlns:dc="http://purl.org/dc/elements/1.1/" xmlns:inkscape="http://www.inkscape.org/namespaces/inkscape" xmlns:rdf="http://www.w3.org/1999/02/22-rdf-syntax-ns#" xmlns:sodipodi="http://sodipodi.sourceforge.net/DTD/sodipodi-0.dtd" xmlns:svg="http://www.w3.org/2000/svg"
	 xmlns="http://www.w3.org/2000/svg" xmlns:xlink="http://www.w3.org/1999/xlink" x="0px" y="0px" viewBox="0 0 285.5 57.1"
	 style="enable-background:new 0 0 285.5 57.1;" xml:space="preserve">
<sodipodi:namedview  bordercolor="#666666" borderopacity="1.0" id="base" inkscape:current-layer="layer1" inkscape:cx="375" inkscape:cy="520" inkscape:document-units="px" inkscape:pageopacity="0.0" inkscape:pageshadow="2" inkscape:window-height="719" inkscape:window-maximized="1" inkscape:window-width="1366" inkscape:window-x="0" inkscape:window-y="25" inkscape:zoom="0.35" pagecolor="#ffffff" showgrid="false" units="px">
	</sodipodi:namedview>
<path d="M0.7,56.4C0,55.7,0,55.6,0,43.7c0-10.2,0.1-12,0.5-12.6c0.5-0.6,0.9-0.6,29.3-0.8l28.9-0.2l0.6-0.7c0.8-1,0.7-1.5-0.2-2.4
	l-0.8-0.8H29.9H1.3l-0.7-0.7C0,25,0,24.9,0,13.2V1.3l0.7-0.7L1.4,0l36.9,0c40.4,0,38.8-0.1,42.6,1.8c4.8,2.4,8.7,7.1,9.8,11.7
	c0.2,0.8,0.3,6.8,0.3,15.2c0,13.5,0,13.9-0.7,15.8c-1,2.9-2.6,5.3-4.9,7.5c-2.4,2.3-5,3.7-8.2,4.5c-2.3,0.6-3.5,0.6-39.2,0.6H1.3
	L0.7,56.4L0.7,56.4z"/>
<path d="M94.1,56.5l-0.7-0.6V35.1V14.3l0.8-2.1c1.2-3.1,2.7-5.3,4.8-7.3c2.3-2.2,6.1-4.1,9-4.6c1.4-0.2,12.4-0.3,36.3-0.2l34.3,0.1
	l2.1,0.8c4.7,1.8,8.3,4.9,10.3,8.9c1.9,3.8,2,4.1,2,26l0,19.7l-0.8,0.8l-0.8,0.8h-13.8h-13.8l-0.7-0.7c-0.7-0.7-0.7-0.8-0.7-14.4
	c0-13.4,0-13.7-0.6-14.5c-0.8-1-2.1-1.1-3-0.2L158,28v13.9v13.9l-0.7,0.7c-0.7,0.7-0.8,0.7-14.8,0.7h-14l-0.7-0.7
	c-0.7-0.7-0.7-0.9-0.7-14.6L127,27.9l-0.7-0.6c-0.9-0.8-2-0.7-2.8,0c-0.6,0.6-0.6,1-0.6,14.4c0,13.5,0,13.8-0.6,14.6l-0.6,0.8h-13.4
	C95.5,57.1,94.8,57.1,94.1,56.5L94.1,56.5z"/>
<path d="M210.2,56.9c-5.3-0.9-10.7-4.7-13-9.2c-2.1-3.9-2.1-4.2-2.1-19.4V14.8l0.8-2.4c1.4-4.5,4.9-8.4,9.3-10.5
	c4-1.9,2.3-1.8,42.4-1.8l36.6,0l0.7,0.7c0.7,0.7,0.7,0.8,0.7,12.5v11.8l-0.7,0.7l-0.7,0.7h-27.8c-17.1,0-28.1,0.1-28.6,0.3
	c-1.4,0.5-1.4,2.7,0,3.3c0.6,0.3,8.3,0.4,28.6,0.4h27.9l0.7,0.7c0.7,0.7,0.7,0.8,0.7,12.6v11.9l-0.8,0.8l-0.8,0.8l-36.5,0
	C227.4,57,210.6,56.9,210.2,56.9L210.2,56.9z"/>
</svg>
