<?xml version="1.0" encoding="utf-8"?>
<!-- Generator: Adobe Illustrator 21.1.0, SVG Export Plug-In . SVG Version: 6.00 Build 0)  -->
<svg version="1.1" id="Layer_1" xmlns="http://www.w3.org/2000/svg" xmlns:xlink="http://www.w3.org/1999/xlink" x="0px" y="0px"
	 viewBox="0 0 2262.1 455.9" style="enable-background:new 0 0 2262.1 455.9;" xml:space="preserve">
<path d="M1690.4,0c-40.1,0-76.6,15.5-103,41c-26.4,25.5-42.9,60.2-42.9,99.4v176c0,37.4,16.4,73,42.9,98.5c26.4,24.6,62.9,41,103,41
	h553.4c9.1,0,18.2-9.1,18.2-18.2V258.9c0-8.2-9.1-17.3-18.2-17.3h-433.1c-4.5,0-9.1-1.8-11.8-4.6c-2.7-2.7-4.6-6.4-4.6-10
	c0-4.6,1.8-8.2,4.6-10.9s7.3-4.6,11.8-4.6h433.1c9.1,0,18.2-8.2,18.2-17.3V17.3c0-9.1-9.1-17.3-18.2-17.3H1690.4z"/>
<path d="M474.1,227c0-4.6-1.8-8.2-4.6-10.9c-3.7-2.7-7.3-4.6-11.9-4.6H17.3c-8.2,0-17.3-8.2-17.3-17.3V17.3C0,8.2,9.1,0,17.3,0
	h559.8c39.2,0,75.7,15.5,102.1,41c27.4,25.5,43.8,60.2,43.8,98.5v176.9c0,37.4-17.3,73-43.8,98.5c-26.4,24.6-62.9,41-102.1,41H17.3
	c-8.2,0-17.3-9.1-17.3-18.2V258.9c0-8.2,9.1-17.3,17.3-17.3h440.4c4.6,0,8.2-1.8,11.9-4.6C472.3,234.3,474.1,230.7,474.1,227z"/>
<path d="M1252.8,227.9v209.7c0,9.1-9.1,18.2-17.3,18.2h-211.5c-8.2,0-17.3-9.1-17.3-18.2V227.9c0-3.6-1.8-7.3-4.6-10
	c-2.7-2.7-7.3-4.6-11.9-4.6c-4.6,0-9.1,1.8-11.9,4.6c-2.7,2.7-4.6,6.4-4.6,10v209.7c0,9.1-8.2,18.2-17.3,18.2H756.8
	c-9.1,0-17.3-9.1-17.3-18.2V140.4c0-39.2,16.4-73.8,42.9-99.4c26.4-25.5,62-41,102.1-41h498.8c39.2,0,75.7,15.5,102.1,41
	c26.4,25.5,42.8,60.2,42.8,98.5v298.1c0,9.1-8.2,18.2-17.3,18.2h-207.9c-9.1,0-17.3-9.1-17.3-18.2V227.9c0-3.6-1.8-7.3-4.6-10
	c-2.7-2.7-7.3-4.6-11.8-4.6c-4.6,0-9.1,1.8-11.9,4.6C1254.6,220.7,1252.8,224.3,1252.8,227.9L1252.8,227.9z"/>
</svg>
