<?xml version="1.0" encoding="utf-8"?>
<!-- Generator: Adobe Illustrator 21.1.0, SVG Export Plug-In . SVG Version: 6.00 Build 0)  -->
<svg version="1.1" id="Layer_1" xmlns="http://www.w3.org/2000/svg" xmlns:xlink="http://www.w3.org/1999/xlink" x="0px" y="0px"
	 viewBox="0 0 595 440.7" style="enable-background:new 0 0 595 440.7;" xml:space="preserve">
<style type="text/css">
	.st0{fill:#FFFFFF;}
</style>
<title>Detroit Red Wings logo</title>
<path d="M545.6,134.4c25.1-21.4,49.3-55.8,49.3-95.3c0.1-3-2.4-5.5-5.4-5.6c-1.7,0-3.4,0.8-4.4,2.1c-25.8,35.2-50,48.6-64.8,53.6
	c24.5-18.5,48.4-48.7,54.6-82.9c0.5-3-1.6-5.9-4.6-6.3c-1.7-0.3-3.5,0.3-4.8,1.5c-29.9,29.9-71,61.8-181.7,61.8
	c-26.6,0-57.2-0.8-77-0.8c-89.8,0-122.8,55.6-130.2,71c-7.4-1.1-14.8-1.7-22.3-1.7C69.1,131.9,0,201.1,0,286.2
	c0,85.2,69.1,154.4,154.3,154.4c62.6,0,118-37.1,142.2-94.6c1.7,0.3,3.4,0.4,5,0.5c19.6,0,23.6-5.6,23.6-10.6c0-2.5-2.5-5.6-3.8-7.4
	c28.7-0.2,37.2-1.6,49.6-5.9c2-0.6,3.3-2.4,3.2-4.4c0-4.2-8.8-11.3-15-16.7c40.1-0.7,69.7-7.9,69.7-17.3c0-1.8-0.2-4.1-10.9-12.5
	c22.7-6.2,62.5-21.5,62.5-31.4c0-3.8-3.4-6.1-7.3-8.9c35.3-13.3,64.9-36.7,64.9-45.1c0-6.7-10-7.3-14.9-7.7
	c17.5-11.3,42-30.5,42-38.8C565.2,131.4,551.8,134.8,545.6,134.4z"/>
<path class="st0" d="M535.3,136.6c28.2-21,54.8-57.4,54.8-97.4c0-0.4-0.2-0.7-0.6-0.8c-0.2,0-0.4,0-0.6,0.2
	C545.5,97.8,506,97.2,506,97.2c-1.7,0-2-2.4-0.7-3.4c28.1-16.6,58.1-50.5,64.8-88.3c0.1-0.5-0.6-1.1-1.1-0.6
	c-31.9,31.9-75.7,63.2-185.2,63.2c-34.9,0-53.3-0.7-77-0.7c-94.7,0-123.8,63-127.3,71.3C98.1,124.8,20.7,179.6,6.8,261
	s40.8,158.8,122.3,172.7c69.8,11.9,138.5-26.7,164.4-92.7c2.7,0.5,5.3,0.8,8,0.8c15.2,0,19-3.5,19-5.9c0-1.6-9.8-12.2-4.9-12.2
	c33.7,0,41.3-1.2,53.8-5.5c-6-9.2-27.5-21.4-16.4-21.4c53.6,0,71.2-10.3,71.2-12.5c0-2.6-17-14.9-17-14.9
	c24.6-4.1,68.6-23.9,68.6-29c0-3.1-12.5-8.3-10.4-11.2c39-13,68.2-38.3,68.2-42.8c0-3.7-22.9-3.4-22.9-3.4v-2.4
	c19.8-10.3,50-35.3,50-40.7C560.5,136.5,532.1,142.3,535.3,136.6z"/>
<path d="M85.8,241.9l21.7,22.1c4.1-8.6,10.4-15.9,18.4-21.1l-24.7-18.5c-5.9,5.2-11.1,11.1-15.4,17.6V241.9z M73.6,275.1l31.4-4.6
	c0.1-0.5,0.4-1,0.5-1.6l-22.2-22.7c-5.1,8.9-8.4,18.7-9.7,28.9L73.6,275.1z M72.7,286.2c0,5.8,0.6,11.5,1.8,17.2l31,0.2
	c-2-5.6-3-11.5-3-17.4c0-3.5,0.4-7.1,1.1-10.6L73,280.1C72.8,282.1,72.7,284.2,72.7,286.2L72.7,286.2z M194.3,215.2
	c-8.9-5-18.7-8.3-28.8-9.7l4.6,31.4c0.5,0.1,1.1,0.2,1.6,0.5L194.3,215.2z M218.5,336.5c-8.9-4.5-17.4-9.9-25.2-16.1
	c-3.1,3.5-6.7,6.6-10.7,9.1l24.8,18.5C211.5,344.5,215.2,340.7,218.5,336.5z M164.9,235.6l-4.4-30.6c-2-0.2-4.1-0.3-6.1-0.2
	c-5.8,0-11.5,0.6-17.2,1.8l-0.2,30.8c5.6-1.9,11.5-2.9,17.4-3C157.9,234.4,161.4,234.8,164.9,235.6z M130.6,240.3
	c0.5-0.3,0.9-0.5,1.4-0.7l0.4-31.8c-9.9,2.7-19.1,7.3-27.2,13.6L130.6,240.3z M199.6,224.8c0-2.2,0-4.2-0.1-6.4
	c-0.3-0.2-0.5-0.4-0.8-0.6l-22.1,21.6c6.4,3.1,12.2,7.5,16.9,12.8C196.8,243.3,199.6,233.3,199.6,224.8L199.6,224.8z M143.8,337
	l4.4,30.6c2,0.1,4.1,0.2,6.1,0.2c5.7,0,11.4-0.6,17-1.8l0.4-31c-5.6,2-11.5,3-17.4,3C150.8,338.1,147.2,337.7,143.8,337L143.8,337z
	 M109.4,274.8c-2.4,9.6-1.8,19.6,1.9,28.8l1.7,0.1l10.3-13.9c-0.1-1-0.1-1.9-0.2-2.9L111,274.6L109.4,274.8z M117,273.7l6.7,6.7
	c0.5-2.8,1.4-5.6,2.6-8.2L117,273.7z M131.9,264.7l0.1-17.3l-1.4-1.1c-8.5,5.1-15.1,12.7-19,21.8l1.2,1.2l17-2.5
	C130.6,266.2,131.2,265.3,131.9,264.7L131.9,264.7z M132.7,308.8l-17.3-0.1l-1,1.3c5.1,8.4,12.7,15.1,21.7,19l1.3-1.2l-2.5-17
	C134.2,310.1,133.4,309.4,132.7,308.8L132.7,308.8z M128.5,303.9c-1.6-2.4-2.9-5-3.8-7.7l-5.6,7.6L128.5,303.9z M176.6,333
	l-0.4,31.8c9.8-2.8,19.1-7.4,27.2-13.6l-25.4-19C177.6,332.5,177.1,332.8,176.6,333L176.6,333z M141.8,323.5l6.7-6.7
	c-2.8-0.5-5.6-1.4-8.2-2.6L141.8,323.5z M171.7,327.5l-13.8-10.3c-1,0.1-2,0.2-3,0.2l-12.2,12.1l0.2,1.7c3.7,1,7.6,1.4,11.4,1.4
	c6,0,11.9-1.1,17.4-3.4L171.7,327.5z M108.4,310.1c-0.4-0.6-0.6-1.1-0.8-1.6l-31.7-0.2c2.7,9.9,7.4,19.1,13.6,27.2L108.4,310.1z
	 M136.7,260.5c2.4-1.7,4.9-3,7.7-3.8l-7.6-5.6L136.7,260.5z M179.9,305.4l-1.2,0.1c-0.6,0.8-1.2,1.6-1.9,2.3l-0.1,17.3l1.3,1
	c4.2-2.4,8-5.6,11.2-9.2C184.6,312.7,181.2,308.8,179.9,305.4L179.9,305.4z M138.6,335.7c-0.5-0.2-1.1-0.4-1.6-0.6l-22.7,22.3
	c8.9,5,18.7,8.2,28.8,9.6L138.6,335.7z M180,268.7c1.3,1.8,2.3,3.6,3.1,5.6c0.7-1.3,1.7-3.2,2.9-5.6H180z M110,354.7l22.1-21.7
	c-8.6-4-15.9-10.4-21.1-18.4l-18.5,24.7C97.6,345.3,103.5,350.4,110,354.7z M171.8,312c-2.4,1.6-4.9,2.9-7.6,3.8l7.6,5.6V312z
	 M166.8,249l-6.7,6.6c2.8,0.6,5.6,1.5,8.2,2.8L166.8,249z M136.9,244.9l13.8,10.3c1-0.1,2-0.1,3-0.1L166,243l-0.2-1.7
	c-9.6-2.4-19.6-1.8-28.8,1.9V244.9z M191,258c-4.9-6.3-11.4-11.3-18.7-14.5l-1.2,1.2l2.5,17.2c0.8,0.6,1.6,1.2,2.3,1.9l12.5,0.1
	C189.2,262,190.2,260.1,191,258L191,258z"/>
<path d="M171.1,286.2c0,9.3-7.5,16.8-16.8,16.8s-16.8-7.5-16.8-16.8c0-9.3,7.5-16.8,16.8-16.8l0,0
	C163.6,269.5,171.1,277,171.1,286.2z"/>
<path d="M154.3,185.4c-55.7,0-100.9,45.1-100.9,100.8s45.1,100.9,100.8,100.9c32.7,0,63.4-15.9,82.3-42.6c-3.8-1.4-7.7-3-11.5-4.8
	c-29.6,39-85.2,46.7-124.2,17.1s-46.7-85.2-17.1-124.2c27.1-35.8,76.7-45.6,115.4-23c-0.2-4.6-0.1-9.1,0.2-13.7
	C185.4,189,170,185.4,154.3,185.4z"/>
<path d="M323.4,90.9h76.2c97.4,0,140-34.8,156.8-65.6c1-1.8-0.2-2.3-2-0.6c-21.2,19.1-52.8,52.3-182,52.3h-54.5
	c-85.7,0-118,38.6-126.4,64.3c4.3,1.1,8.5,2.4,12.6,4C219.4,117.7,248.4,90.9,323.4,90.9z M29.5,233.3c3.2,2.6,0.6,7.2,2.9,10.4
	C56,176.4,129.7,140.9,197,164.5c3.1,1.1,6.1,2.3,9,3.6c1.2-2.8,2.5-5.6,4.1-8.6c-70.2-30.7-152.1,1.3-182.8,71.5
	c-0.5,1.2-1,2.4-1.5,3.6C27,235.2,28.2,232.1,29.5,233.3L29.5,233.3z M266.4,348.4c-6.5,1.6-14.9,0.6-23.9-2
	c-33.1,48.7-99.5,61.3-148.2,28.2c-29.2-19.9-46.7-52.9-46.7-88.2c0-1.9,0-3.8,0.1-5.6c-3.2,4.9-2.3,13.2-8.2,13.2
	c-4.7,0-2-6.4-5.5-6.4c-2,0-2.4,3-4.9,3c-0.4,0-0.6-0.1-0.8-0.1c-0.6,0-0.8,1.2-1.9,1.2c-1.3,0-2.3-1.7-3.4-1.7
	c-1.2,0-1.7,2.4-3.2,2.4c-1.7,0-3.2-2.8-4-4.1c1.1,76.5,64,137.6,140.5,136.5C212,424,261.8,390,282.7,338.4
	c-10.5-3.3-20.6-7.5-30.4-12.6C253.2,335.1,266.4,348.4,266.4,348.4L266.4,348.4z"/>
<path d="M321.7,110.5c-76.3,0-120.2,52.4-115.2,102.5c3.7,37.3-17.2,67.6-17.2,67.6s29.2-13.2,29.2-66.2c0-50.4,50-87,92.3-87
	c40.8,0,88.1,0.2,111.6,0.2c124.4,0,154.6-57.5,158.9-68.8c0.7-1.7-0.4-1.3-0.7-0.5c-26,35-62.4,55.1-161.2,55.1
	c-63.5,0-83.5-2.9-97.8-2.9L321.7,110.5z"/>
<path d="M217.3,260.2c5.6,3,33.4-1,47.8-10c-14.8-12.6-38.5-17-38.5-17C223.3,242.1,219.8,251.1,217.3,260.2z M330.7,150.4
	c-1.7-6.6-9.7-7.9-15.2-11c-2.2-1.3-4.7-0.7-7.2,0.4c-5.4,2.4-12.5-1.6-18,2.4c-1.7,1.2-2.5,3.4-4.6,3.8c-2.6,0.6-5.2,1-7.8,1.2
	c-1,0.1-2.8,0.7-2.6,1.8c0.6,4.7-3.7,5.6-7.2,6.8c-3.4,1.2-2.2,5.6-2.3,8.9C288.1,164.9,311.2,161.8,330.7,150.4z M258,169.9
	c-1.1,0.1-1.8,1.8-2.6,3c-1.9,2.8-8,2.2-8,5.3c0.1,5.6-6.2,6.7-7.3,10.8c-0.7,3.2-2.5,5.6-2.8,9.1c22.8,0.1,46.3-1.3,66.6-13
	C309.1,182.8,276,167.3,258,169.9z M228.6,222.4c0.4,2.9-0.4,7.6,0.2,7.6c21.6,2.3,43.5-1.4,63.2-10.6c5.6-2.4-21.6-16.6-44.2-16.6
	c-4.3,0-8.6,1-12.4,3.1c-1.3,0.7-2.3,3.7-3.8,5.9c-1.1,1.7,1.1,4.2,0.2,5.3C230.3,219.1,228.2,220.3,228.6,222.4z M350,154.1
	c-20.5,0-22.6,5.8-22.6,5.8c-0.7,0.8-0.4,2.8-1.8,3.2c-4.7,1.8-10-2-13.9,3.2c-2.5,3.1-8.4-0.7-12.2,1.4c-0.8,0.5,0,2.8,0.6,3
	c1.8,0.8,4.8,0.6,6,1.4c1.2,1,1,2.4,2.2,3.2c1.3,1,3.8,1.4,5,3c0.8,1.2,1.2,3.6,2.4,3.6c31,1.8,62.6,1.8,92-9.6
	C411,167.3,379,154.1,350,154.1L350,154.1z"/>
<path d="M532,109.5c-0.8,0.5-0.6,3.5-2.4,4.3c-3,1.4-6.6,1.4-9.8,2.4c-1.2,0.4-1.2,2-2.3,2.8c-1.7,1.1-4.1,0.1-5.3,1.1
	c-7.9,5.8-17.4,3.2-26.2,4.7c0.1,6.6-10.3,2.5-14.6,5.4c-4.7,3.2-4,2.3-11,2.4c-2,0-1,3.2-2.6,3.2c-5.6,0.1-12.7-1.7-16.9-0.5
	c-0.7,0.2-1,3.7-2.4,4.1c-3,0.8-6.2,1.2-9.1,2.2c-2.3,0.7,0.6,4.9-2.3,5.9c-5.2,1.6-10.8,0.4-15.8,3.4c-2,1.1-5,0-7.6,0.5
	c-2.3,0.5-3.1,2.8-1.3,3.8c1.7,0.8,4.4,0.6,6,1.4c3.8,1.9,6.8,4.6,10.9,4.8c66.2,4.1,151.8-43,165.2-100c0.5-2.3-0.6-1.8-1.1-0.6
	C569,94.9,532,109.5,532,109.5z M547.4,146.2c-0.6-0.2-7.9-1.6-12-0.6c-0.8,0.2-1.4,1.6-2.3,1.8c-5.2,0.8-8.9,3.4-14.3,3.5
	c-1.7,0.2-3.4,0.7-4.9,1.4c-2,1-4.7-1.3-6.2,0.4c-1,1.1,0.7,3.8-1,4.7c-4.7,2.2-10.2-1.8-14.8,1.2c-1.3,0.8,1.4,3.7-0.2,4.3
	c-6.6,2-18-8.2-22.2,2.4c-0.7,1.7-2.8,1-4.1,0.6c-1.2-0.4-3-1-3.7-0.2c-4.1,3.2-6.4,4.6-12,2.9c-1.4-0.4-1.6,4-4.3,3.2
	c-3.1-0.7-6.2-3.1-9.1-1.8c-1.3,0.6-0.4,4.2-2.3,4.3c-7.9,0.8-16.1-0.4-23.4,2.9c-1.7,0.8-1.9,4.1-4.4,4.4c-5.5,1-11,0.4-16.2,2
	c-0.8,0.2-0.7,2.6,0.6,2.9c3.2,0.5,7.1,0,9.6,1.4c3.1,1.9,5.2,7.2,8.2,7.3c62.6,1.2,107.9-21.2,139-47.2
	C548.6,147,548,146.7,547.4,146.2L547.4,146.2z M496.8,192.1c-2.5,0.8-6-1.6-8.2,0c-3.2,2.4-7.1,1.9-10.3,1.6
	c-1.6-0.1-4.1-0.7-5.5,0.4c-0.8,0.7,0.5,1.9,1.3,2.6c-8.4,2.9-17.6,0.2-25.6,3.4c-0.6,0.4-1,3.2-2.4,3.5c-7.3,1.4-14-1.3-21.2,0
	c-1.8,0.2-1.1,4.2-2.9,4.2c-6.4,0.2-12.9,0-19.3-0.5c-7.7-0.4-14.8,2.5-22,4.7c-2.2,0.7-2.9,4.1-5.2,4.4c-6.2,1-12.6-0.1-18.4,2.8
	c-0.4,0.1-0.4,2,0,2.3c7,4,15,6.7,19.8,13.1c48.8-0.5,101.3-6.8,141.8-40.2c0.8-0.6-4-1.6-6.6-2.3c-2.5-0.5-4.6-0.5-7.6-1.6
	C502,189.6,499.4,191.2,496.8,192.1z M451.6,237.3c-4.1,1.9-8.8-0.2-13.2,0.8c-1.1,0.2-0.2,1.9-1.4,2.2c-4.3,0.6-8.9-0.6-13,1.1
	c-3.1,1.2-7.1-0.2-10.6-0.1c-1.3,0-1.3,1.8-1.6,3.2c-0.4,1.1-1.5,1.8-2.6,1.8c-4.3-1.3-8.5-1.7-12.8-2.4c-11.2-1.6-22.2-5.2-32.6-2
	c-3.4,1.1-7.9,1.9-10.4,4.6c-1.1,1.1-2,3.1-3.5,3.6c-6.4,2.3-13.3,2.8-19.7,5c-1.9,0.6-5.5,3.4-4.2,3.7c13.4,3.6,27.2,5.5,41,5.6
	c41.3,0,72.7-10.1,95.8-22.7C461.3,240,454.6,235.8,451.6,237.3L451.6,237.3z M397.2,277.1c-3.1,0.8-5.4-1.3-8-0.4
	c-0.5,0.2-1,1.2-1.4,1.2c-4.8,0-7.9-5-12.8-4.7c-1.2,0.1-1.2,2.2-2.2,2.4c-3,0.7-5.6-2.9-8.4-1.6c-1.6,0.8-3.4,0.9-5,0.4
	c-2.4-0.7-4.2-2.9-6.5-3.2c-2-0.4-4.1,1.7-6.4,1.1c-5.8-1.8-10.2-7.2-16.3-5.9c-3.1,0.6-5.6-1.4-7.8-0.1c-2.3,1.3-3,3-5.3,4.3
	c-1.6,1-5.3,0.8-7,1.8c-1.2,0.8-1.6,2.8-3,3.4c-2.6,1.1-5.8,0.4-8.4,1.7c-0.2,0.2-0.5,1.7,0.6,1.9c23.5,7.9,61.6,16.7,107,4.9
	c1.3-0.5,1.7-1.2,0.5-2.5C404.3,278.9,400.9,276,397.2,277.1L397.2,277.1z M339.1,303.6c-1.1-0.1-2.9,1.4-4,1.2
	c-3.1-0.5-5.5-3.4-9.4-5.3c-1.6-0.8-2.3,2.9-3.5,2.8c-6.2-0.4-15.2-7-20.9-10.3c-1-0.6-6.8,0.6-7.9,0.8c-3.5,0.7-8-5.5-10.9-6.8
	c-2-1.1-5-2-7.1-0.6c-2.8,2-6,1-9,1c-1.2-0.1-2.3,2.4-3.6,2.9c-4.2,1.3-8.8-1.6-12.7,0.5c-0.3,0.3-0.5,0.7-0.6,1.2
	c0.2,2.5,3,2.9,4.9,4.1c28.8,18.2,73.3,24.1,98,18.6c0.6-0.1-0.2-2.3-1.9-3.6s-4.2-1.8-5.3-2.5C342.7,305.7,341.4,304,339.1,303.6
	L339.1,303.6z M302,326.3c-2.5-0.7-4.7-2.2-7.1-3.1c-1.4-0.6-2.8,1.7-4.3,0.7c-3.1-1.9-5.9-4.6-8.4-6.5c-1.9-1.7-5.9-5.6-7.6-4.8
	c-0.7,0.4-1.7,4-3.2,2.8c-4-2.9-6.5-6-10.1-9.2c-1.7-1.4-3.2,3.4-5.4,2.3c-4.8-2.3-6.8-7.6-10.6-11.3c-4.3-4.3-8.5-9.5-14.5-11
	c-1.1-0.2-0.5,1.2-1.4,1.9c-4.6,3.6-9.6-2.5-14-4.6c-4.1-1.9-7.7-4.9-12.4-5.3c-1,0-0.8,1.4-0.5,1.9c26.2,31,62.5,54.2,102.5,53.3
	c1,0,2.9,0.1,1.3-1.8C305,330,303.6,326.7,302,326.3L302,326.3z M246.8,332.5c-0.8-1.7-3.1-0.7-4.8-1.8c-1.2-0.6-1.7-3-2.9-4
	c-0.8-0.7-2.9,0.8-4.1,0.2c-1.6-0.8-2.6-2.9-3.8-4.2c-1.4-1.4-2.6-3.1-4-4.6c-1.1-1.4-2.5-2.7-4.1-3.6c-0.8-0.5-2.5,0.6-3.5,0.4
	c-1.9-0.6-3-3.7-4.4-5c-0.8-0.7-2.2-0.8-2.9-1.6c-0.8-0.7-1-2-1.8-3c-1.1-1.2-2.6-1.6-3.8-2.5c-1.6-1.3-2.6-4.6-4-6.4
	c-1.2-1.8-2.9-2-4.1-3.6c-1.4-1.9-2.3-5.3-4.1-7.3c-1.8-1.9-6.2,1.2-7.6,4c-2.3,4.4-2.2,10.1,1.2,13.9
	c16.8,18.7,38.6,34.3,63.6,38.4C250,339.3,248,334.6,246.8,332.5L246.8,332.5z M416.8,137.9c0.8-0.6,0.1-3.4-0.6-3.5
	c-3.4-0.5-7.2-1.9-10.9,1.4c-1.2,1.1-3.6-1.3-5.3-0.2c-1.4,0.8-2.8,3.1-4.1,3.7c-3.6,1.6-7.1-2.2-11-1.7c-1.1,0.1-0.8,2.6-1.9,2.9
	c-3.5,0.8-6.4-2.9-8.3-1.6c-3,1.8-5.4,4.2-8.9,2.6s-7.9-4.7-10.3-2.8c-4,3.6-8.9-1.6-12.5-0.2c-3,1.2-11,3.1-5.5,6.4
	C354.6,155.3,390.4,153.3,416.8,137.9L416.8,137.9z M380.4,202.8c2.5-1.7,5.6-1.8,7.1-4.1c3.4-4.3-28.3-11.3-41.3-11.3
	c-12.7,0-36.4,3.1-40.3,4.6c-1.7,0.7-1.8,4.1-3.7,4.4c-3.8,0.4-7.6,0.8-11.4,1.2c-1.2,0.1-1,2-0.5,2.4c2.1,1.6,3.6,3.8,4.2,6.4
	c0.1,0.2,2.8,0,3.2,0.5c2.5,2.2,4.3,5.2,7.3,5.9c15,3.6,29.5,4.7,44.9,1.1c1.7-0.4,2.9-1.7,4.3-1.9c5.4-0.7,11-1,15.1-4.9
	C372.4,204.1,377,205,380.4,202.8L380.4,202.8z M345.7,241.8c6.1-3.1,13.3-3.4,17.8-9.4c-27.1-14.3-58.7-12.7-62.5-10.6
	c-1.1,0.6-2.2,2.5-3.4,3.4c-1.8,1.2-3.6,0.6-4.8,1.8c-0.7,0.7,0.1,2.8-0.5,3.5c-0.6,1-2.2,1.1-3.1,1.6c-1,0.6-2.9-0.2-4.4,0.4
	c-1.4,0.6-1.6,2-2.5,2.5c-3.7,1.8-8.9-0.2-11.4-0.2c-1.3,0-1,2-0.6,2.4c1.7,1.7,6.4,2.2,6.1,4.6c0,0.5-1.1,2-1.8,2.2
	c2.5,5.3,25.6,12.4,56,2.3C335.6,244.6,340.9,244.3,345.7,241.8L345.7,241.8z M213.1,265.5c-2.6,1.4-5.8,5.5-3.4,7.2
	c4.4,2.9,11.8,9.6,45.2,9.6c32.8,0,45.2-10.1,51.4-16.3c0-4.1-28.7-12.4-32.6-10.1c-0.9,0.4-1.4,1.3-1.4,2.3
	c-1.3,0.5-5.3,0.6-6.2,1.2c-2.3,1.7-1.8,4.3-2.4,4.4c-5.2,1.3-11.4-1.9-16.3,0.4c-1.2,0.6-1.2,4.2-2.9,4.3
	c-3.5,0.2-7.3-1.9-10.7-0.8c-1.2,0.3-2.4,0.7-3.5,1.2c-1.7-0.8-3.5-1.4-5.3-1.7c-1.7-0.5-3.5,0.7-5.6,0.4
	C217.3,267.1,215,264.4,213.1,265.5L213.1,265.5z"/>
</svg>
