<?xml version="1.0" encoding="utf-8"?>
<!-- Generator: Adobe Illustrator 21.1.0, SVG Export Plug-In . SVG Version: 6.00 Build 0)  -->
<svg version="1.1" id="Layer_1" xmlns="http://www.w3.org/2000/svg" xmlns:xlink="http://www.w3.org/1999/xlink" x="0px" y="0px"
	 viewBox="0 0 603.6 174.8" style="enable-background:new 0 0 603.6 174.8;" xml:space="preserve">
<style type="text/css">
	.st0{fill:#FFFFFF;}
</style>
<path d="M280.6,92.1h14.9v15.7c0,19.3-6.3,41.1-20.5,54.3c-15.9,14.9-36.8,14.2-49.1,4.1c-12.4-10.1-16.3-29.6,1.6-52.7
	C239.2,98.5,261.6,92.1,280.6,92.1L280.6,92.1z"/>
<path d="M280.6,86.6h14.9V70.9c0-19.4-6.3-41.2-20.5-54.4c-15.9-14.8-36.8-14.2-49.1-4.1c-12.4,10.1-16.3,29.7,1.6,52.7
	C239.2,80.2,261.6,86.6,280.6,86.6z"/>
<path d="M316.6,92.1h-14.8v15.7c0,19.3,6.2,41.1,20.3,54.3c16,14.9,36.8,14.2,49.2,4.1c12.4-10.1,16.3-29.6-1.6-52.7
	C358.1,98.5,335.7,92.1,316.6,92.1L316.6,92.1z"/>
<path d="M316.6,86.6h-14.8V70.9c0-19.4,6.2-41.2,20.3-54.4c16-14.9,36.8-14.2,49.2-4.1c12.4,10.1,16.3,29.7-1.6,52.7
	C358.1,80.2,335.7,86.6,316.6,86.6L316.6,86.6z"/>
<path d="M82.1,173.5c51.6,0,69.6-42.2,69.6-84.4S133.7,4.7,82.1,4.7H0v168.9L82.1,173.5z"/>
<rect x="388" y="4.6" width="47.2" height="168.9"/>
<rect x="159.1" y="4.6" width="47.2" height="168.9"/>
<path d="M523.3,0c-64.4,0-80.2,39.3-80.2,87.4c0,48.1,16.9,87.3,80.2,87.3c51.6,0,72.3-26,78.3-61.7h-47.1
	c-2.9,13.2-10.4,21.8-30.3,21.8c-24.9,0-30.5-13.7-31.7-32.4H603c0.4-4.9,0.6-9.9,0.6-15C603.6,39.3,587.8,0,523.3,0z M492.5,69.1
	c1.4-18.2,7-31,31.6-31c24.6,0,30.3,12.8,31.7,31H492.5z"/>
<path class="st0" d="M47.2,47.1h28.8c24.8,0,28.6,21.2,28.7,42.4c0,21.2-12.2,42.4-28.7,42.4H47.2V47.1z"/>
</svg>
