<?xml version="1.0" encoding="utf-8"?>
<!-- Generator: Adobe Illustrator 21.1.0, SVG Export Plug-In . SVG Version: 6.00 Build 0)  -->
<svg version="1.1" id="Layer_1" xmlns="http://www.w3.org/2000/svg" xmlns:xlink="http://www.w3.org/1999/xlink" x="0px" y="0px"
	 viewBox="0 0 625 412" style="enable-background:new 0 0 625 412;" xml:space="preserve">
<style type="text/css">
	.st0{fill:#FFFFFF;}
</style>
<path d="M63.5,194.4c3.3,4.1,11.4,12.1,4.8,18.4c-7,6.5-30.8,21.4-42.8,21.1c-12.6,0.3-27.6-15.9-25.1-30.6
	c2-8.6,12.6-20.5,17.7-25.8c5.1-5.7,64.2-66.1,99.9-87c9.7-5.8,31.8-10.5,38.1-7.5c6.4,2.9,16.2,11.9,16.3,32.6
	c-0.1,14.1-0.1,28.1,0,42.2c-0.1,5.5,2.1,10.6,9.5,4.8c4-3.1,13.4-3.5,19.7-2.7c6.4,0.9,10.2,5.6,4.8,9.5
	c-5.6,3.7-28.1,22.9-36,30.6c0.7,46.2-23.1,172.4-27.2,186.9c-3.2,12.9-12.1,19-23.1,23.1c-11.1,3.5-30.2,4.4-27.2-11.5
	c3-15.5,31.9-128.9,35.4-162.5c0.8-3.4-1.8-4.7-4.8-1.4c-3,3.4-17.8,16.6-30.6,17.7c-12.8,1.5-21.9-7.6-23.8-10.2
	c-0.8-1.5-1.7-4.9,2.1-6.8c3.9-1.5,42.6-24.4,67.3-45.6c1.2-15.8,3.2-55.4,3.4-67.3c0.8-8.8-6.4-3.8-10.2-0.7
	c-3.9,2.8-54,44.9-69.3,62.5C58.7,187.8,60.4,192.5,63.5,194.4L63.5,194.4z"/>
<path d="M615.4,59.8c-8.2,6.5-45.2,38.8-53.7,44.9c-8.5,6.7-19.3,16.7-25.8,11.6c-4.5-3.8-2.6-15.9,0-22.4
	c2.5-6.2,9.3-24.1,11.5-29.2c2.8-5.1-0.2-13.1-4.8-14.3c-4.8-0.5-11.5,1.2-14.3,6.1c-1.7,2.5-5.8,3.1-5.5-1.3
	c0.1-4.9,1-17.4-6.1-23.1c-7.4-6.2-17.2-3-23.8,6.8c-7.8,11.7-12.1,32.5,0.7,35.4c3,0.9,4.9,3.7,2.7,8.2c-2.5,4.5-21,44-29.2,56.4
	c-7.9,12.2-14.7,17.3-18.4,14.3c-3.1-2.9,0.9-18.2,21.1-38.1c2.7-2.1,3.3-6,1.4-8.8c-1.4-2.8-8.6-3.4-13.6-1.3
	c-5.2,2.7-8,4.3-10.9,6.8c-3.5,1.8-5.5,1.8-6.8,0c-1.3-2-3-6.3,13.6-16.3c2.9-1.8,5.5-2.7,10.9-2.1c5.6,0.2,7.4-2.2,8.8-4.1
	c1.5-1.9,5.7-7.6,7.5-10.9c1.2-3.1,0-6.1-4.8-6.8c-5-0.2-21-0.2-40.8,15.6c-9.9,7.6-16.1,18.6-15,24.5c0.5,6.5,1.2,12.6,14.3,13.6
	c4.3,0.1,4.1,4.6,2,6.8c-1.7,2.9-6.2,6.9-8.8,12.2c-1.4,4.4-10.5,17.7-14.3,23.8c-4.3,7.4-12,8.7-11.5-2.1
	c0.6-5.4,0.9-17.9,0.7-23.1c3.1-10.6,26.5-110,28.5-125.1c1.8-8.3-2.9-17.2-7.5-17.7c-4.8-0.4-24.7,9.8-31.3,51
	c-7,41.3-9.2,51-8.8,61.9c-16.9-1.1-30.1,10-36,27.9c-6,17.8-11.9,39.1-15.6,50.3c-3.9,11.7-7.3,18.5-11.5,17.7
	c-4.2-0.9-2.1-18.7-0.7-27.9c2-8.7,4.5-23.1,6.1-31.9c1.8-9-2.5-10.7-6.1-10.2c-4,0.3-26.1,11.4-32.6,38.8c-1.1,6.2-7.9,9.2-6.8,1.4
	c0.6-8.4,1-13.9-5.5-13.6c-3.4-0.3-11.8,4.4-17,17c-5,12-17.3,37.1-25.8,53c-8.5,16.4-18.3,27-23.1,22.4c-5.4-3.9,7-25.2,10.9-30.6
	c5-3.5,14.4-10.8,11.6-15.6c-2.3-5.3-15.9-3.2-20.4,0.7c-4,4.2-9.9,6.8-12.2,4.1c-2.8-2.4,3.1-10.9,8.1-16.3
	c5.2-5.6,9.9-11.6,17.7-8.2l0,0c2.8,1.7,8.8-0.4,11.6-4.1c3.1-4,9.9-10.8,8.8-14.3c-0.6-3.4-6.1-6.3-15-5.4
	c-9,0.8-24.7,2.1-46.2,32.6c-6.1,11.9-2.7,25.1,6.1,25.1c4.8,0,8.6,5.5,5.4,10.2c-3.6,4.6-15.1,24.2-3.4,37.4
	c12.1,13.1,31.6,3,40.1-10.2c8.5-13.2,20.8-35.7,24.5-41.5c1.9-4,4.9-1.9,4.1,1.4c-0.1,2.7,2.2,17.2,4.8,22.4
	c3,6.6,10.2,6.8,12.2-0.7c2.7-7.1,15-42.2,21.1-48.9c1.8-1.8,3.5-1.1,2.7,1.4c-0.1,3-1.1,19.4,3.4,26.5c4.4,7.8,11,14.3,20.4,6.1
	c9.2-8.8,12-18.6,14.3-23.8c1-2.4,4-3,4.8-0.7c2.1,9.7,29.7,22.9,40.8-16.3c0.4-3.7,4.7-5,6.1-1.4c1.1,4.1,4.9,8.7,11.5,8.1
	c6.1-0.3,20.1-10.5,25.8-25.2c1.5-3.2,5.4-1.9,7.5,0c2.1,1.5,10.2,6.6,17.7,3.4c7.8-2.8,19.7-12.5,29.9-31.3
	c10.2-18.6,25.5-50.1,29.2-59.1c2.2-5.8,6.5-3.7,5.5,0.7c-2,5.9-10.9,40,3.4,51.7c14.6,11.7,38.4-8.5,45.5-15
	c7.3-7.1,46-41.1,55.7-51C628,65.1,623.3,53.6,615.4,59.8z M380.2,165.2c-3.3,8.2-11.8,25.2-18.4,22.4c-7-2.3-4.5-18.5-1.4-27.9
	c2.8-9.3,14.3-24.6,21.1-22.4l0,0C387.1,141.5,383.7,157.2,380.2,165.2z"/>
<path class="st0" d="M585.5,23.8c3.2,0.3,5.9,0.1,6.1-3.4c-0.2-3.1-2.9-3.6-5.5-3.4h-4.8v6.8H585.5L585.5,23.8z"/>
</svg>
