<?xml version="1.0" encoding="utf-8"?>
<!-- Generator: Adobe Illustrator 21.1.0, SVG Export Plug-In . SVG Version: 6.00 Build 0)  -->
<svg version="1.1" id="Layer_1" xmlns="http://www.w3.org/2000/svg" xmlns:xlink="http://www.w3.org/1999/xlink" x="0px" y="0px"
	 viewBox="0 0 286.8 108" style="enable-background:new 0 0 286.8 108;" xml:space="preserve">
<g>
	<path d="M228.2,56.9c1.5-0.1,5.2,0.4,13.2,0.7c8.3,0.3,10-6.1,9.7-10.1c-8.5,1.8-10.5,2.3-17.9,2.3c-7.7,0-17.2,2.2-17.4,8.9
		c-0.2,6.7,8.6,8.2,13.2,9.5c1.3,0.3,1.8,1.3,0.9,2c-2,1.6-6.4,3.6-6.9,7.3c-0.7,5.2,4,9.3,10,9.2c8-0.2,16.9-3.6,25.4-13.8
		c2.4-2.9,5.1-7.8,6.8-9.9c0.4-0.8,1.6-1.1,2.1-1.1c1.5,0.3,3.7,1.5,3.4,3.1c-0.4,2.5-7.3,10.4-2.7,15.1c2.8,2.9,9.9,5,15.5,0.9
		c5.3-3.8,3.4-7.3,1.3-7.6c-1.5-0.2-5.7,5.1-9,1.3c-2.8-3.1,3.9-9.5,5.2-11.8c1.9-3.3-5.5-5.8-8.7-9.9c-2-2.7,3.2-11-3.3-13.2
		c-2.2-0.7-8.8,3.3-6.4,14.8c-3,11.3-26,31.2-29.1,23.2c-0.7-2,1.2-5.2,6.5-6.3c8.7-1.8,8-7.2,3.9-7.7c-6.5-0.8-8.3-0.8-16.1-2.7
		C224.5,60.9,224.6,56.9,228.2,56.9"/>
	<path d="M102.5,69.4c-2.1,2.1-4.5,5-4.8,7.4c-0.7,5.1,1.9,9.7,8.4,9.5c7-0.1,9.3-5.2,21-12.3c3.3-2,7.3-5.4,9-5.6
		c0.6,0,1.6,0.2,1.5,1.4c-1,4.7-2.1,7.8-0.9,11.8c0.9,2.8,4.6,4.6,7.3,2.5c4.5-3.4,4.5-5.3,10.3-12.9c1-1.3,4.5-7,6.1-6.3
		c1.3,0.6,1,2.5,0.7,4c-1.2,7.1-4.3,18.4,9.8,16.6c3.3-0.4,6-2.7,3.5-5.1c-1.5-1.4-3.2-0.4-5.2-0.8c-4.5-1,6.7-21.6,1.3-25.5
		c-7.5-5.4-14.4,4.1-19.7,11.1c-2.1,2.7-3.6,1.5-4.9-2.3c-1.5-4.3-10.4-1.1-15.5,1.5c-8.2,4.2-23.3,18.3-24.7,11.3
		c-0.2-1.2,1.7-3.9,5.4-5.3c4.3-1.6,9.2-3,9.2-5.5c0-2-1.2-3.4-2.5-3.3c-6,0.3-13,1.9-21-0.3c-1.8,0-2.6-4.6,2.8-4
		c1.4,0.2,4.6,0.4,16.7,0.6c8.5,0.2,8.7-6.2,7.6-9.6c-7.1,2.1-10.7,1.9-18.2,1.9c-7.9,0-18.5,1.1-18,8.7c0.4,6.4,9.3,8.1,14,8.7
		C103,67.5,103.4,68.8,102.5,69.4"/>
	<path d="M76.7,53.1c0.7-2.7,2.3-3.3,4.3-3.7c3.1-1,7.4-2.3,10-2.8c6.7-1.6,8.6-1.3,9.4-5.9c0.6-3.2-0.8-4.8-0.8-4.8
		s-14.5,4.5-17.4,5.4c-2.5,1.1-2.1-1.6-2.1-1.6s-0.4,1.7,1.2-5.2c4.8-20.9,2-26.5-1.8-29.7C70-3.1,35,13.3,10,33
		C1.7,40.3-3.1,42,2.3,47.8c4.8,4.8,8,1.2,8,1.2c4.6-3.6,14.5-13.7,21-18.6c9.3-6.9,22.1-16.8,33.4-19.4c9-2.3,11.7,0.4,10.5,9.5
		c-0.7,7.9-6.8,25.6-6.8,25.6s-9.3,4.1-12.1,5.2c-2.2,0.8-4.5,0.2-4.7,5.2c-0.1,5.3,3.1,3.3,5.3,2.5c1.7-0.6,5.6-2.5,7.1-3.1
		c1.1-0.8,2.3-0.1,1.7,1.4c-1.1,3.5-3,9.2-6.8,17.4c-4.7,11.2-13.2,26.6-14.2,30.4c0.1,2.5,2.9,2.9,6.6,2.9c3.4-0.3,4.9-2.6,4.9-2.6
		s4.4-9.4,11.1-25.9C72.1,67.5,75.3,57.6,76.7,53.1"/>
	<path d="M196.8,57.5c-5.2-1.5-9.8,4.7-11.2,10.2c-1.2,5-0.6,11.8,4,12.7c3.7,0.7,7.9-2.5,9-8.4c0.3-1.6,1-6.6,1.2-7.9
		c1.2-8,2.2-11.5,2.2-11.5c4.4-16.8,14.8-49.3,17.7-51.2c3-2,11.1-2.3,8.6,4.5c-4,10.6-8.6,19.9-12.7,33
		c-4.9,15.3-14.4,39.8-5.9,40.9c4,0.5,5.5-3.1,7.9-1.3c3.6,2.8-0.3,8-7.3,8.7c-9.6,0.3-9.4-5.3-13.7-2.9
		c-13.7,7.8-22.1-3.1-19.4-16.7c2.3-11.6,11.3-19.9,21.3-14.8c0,0,2.6,1.3,2.3,3.4C200.6,57.7,199.3,58.1,196.8,57.5"/>
</g>
</svg>
