<?xml version="1.0" encoding="utf-8"?>
<!-- Generator: Adobe Illustrator 21.1.0, SVG Export Plug-In . SVG Version: 6.00 Build 0)  -->
<svg version="1.1"
	 id="svg10744" xmlns:cc="http://creativecommons.org/ns#" xmlns:dc="http://purl.org/dc/elements/1.1/" xmlns:rdf="http://www.w3.org/1999/02/22-rdf-syntax-ns#" xmlns:svg="http://www.w3.org/2000/svg"
	 xmlns="http://www.w3.org/2000/svg" xmlns:xlink="http://www.w3.org/1999/xlink" x="0px" y="0px" viewBox="0 0 392 129.1"
	 style="enable-background:new 0 0 392 129.1;" xml:space="preserve">
<g id="layer1" transform="translate(-616.987334775513,-471.686357104762)">
	<g id="g10104" transform="matrix(7.42297714404812,0,0,-7.42297714404812,747.140831338593,587.550622665567)">
		<path id="path10106" d="M-0.5,0.5l-0.1,12.8c0,1.3,1,2.3,2.3,2.3h0.2c1.3,0,2.3-1,2.3-2.3L4.3,0.5c0-1.3-1-2.3-2.3-2.3H1.7
			C0.4-1.8-0.5-0.7-0.5,0.5"/>
	</g>
	<g id="g10108" transform="matrix(7.42297714404812,0,0,-7.42297714404812,964.537562956312,486.8653606837)">
		<path id="path10110" d="M-0.5,0.5l5.2-8.4C5.7-9.7,6-10.1,6-11.5c0-2.1-1.9-3.7-3.6-3.7h-7c-1.3,0-2.3,0.9-2.3,2.1v0.1
			c0,1.3,1,2.3,2.3,2.3h4.3c0.3,0,0.4,0,0.5,0.2c0.1,0.2,0.1,0.3-0.1,0.5l-3,4.9C-3-4.9-3-4.8-3.1-4.8c-0.1,0-0.2-0.1-0.2-0.2L-8-13
			c-0.7-1.3-1.6-2.2-2.8-2.2h-8.9c-1.7,0-3.4,1.7-3.4,3.4v11.5c0,1.3,1,2.3,2.3,2.3h0.3c1.3,0,2.3-1,2.3-2.3l0-9.4
			c0-0.3,0.3-0.6,0.6-0.6h4.4c0.8,0,1.2,0.3,1.7,1l6,9.9C-5,1.5-4.1,2-3,2C-2,2-1.1,1.5-0.5,0.5"/>
	</g>
	<g id="g10112" transform="matrix(7.42297714404812,0,0,-7.42297714404812,661.843400976354,559.32104058675)">
		<path id="path10114" d="M-0.5,0.5c-0.3,0-0.6-0.3-0.6-0.6v-3.2c0-1.3-1-2.3-2.3-2.3h-0.3C-5-5.6-6-4.6-6-3.3l0,5.8
			C-6,4-4.9,5.3-3.3,5.3H6c1.3,0,2.3-1,2.3-2.3V2.8c0-1.3-1-2.3-2.3-2.3H-0.5z"/>
	</g>
	<g id="g10116" transform="matrix(7.42297714404812,0,0,-7.42297714404812,638.216064726849,478.1359395623)">
		<path id="path10118" d="M-0.5,0.5h10.9c1.3,0,2.3-1,2.3-2.3v-0.1c0-1.3-1-2.3-2.3-2.3H-0.5c-1.3,0-2.3,1-2.3,2.3v0.2
			C-2.9-0.4-1.8,0.5-0.5,0.5"/>
	</g>
</g>
</svg>
