<?xml version="1.0" encoding="utf-8"?>
<!-- Generator: Adobe Illustrator 21.1.0, SVG Export Plug-In . SVG Version: 6.00 Build 0)  -->
<svg version="1.1" id="svg10140" xmlns:svg="http://www.w3.org/2000/svg"
	 xmlns="http://www.w3.org/2000/svg" xmlns:xlink="http://www.w3.org/1999/xlink" x="0px" y="0px" viewBox="0 0 708.7 603.4"
	 style="enable-background:new 0 0 708.7 603.4;" xml:space="preserve">
<g id="layer1" transform="translate(-448.87988,-1674.3294)">
	<path id="path96346" d="M479.3,1674.3c-14.2,0.1-29.5,16-30.4,32.7v326.7h110.7v-147h49.9v109.8c0,20.9,13.6,37.2,39.9,37.2h114.3
		c26.3,0,39.9-14.5,39.9-37.2l-0.9-176.9h-71.7c0,0,0,112.5,0,132.5c0,26.3-48.1,26.3-48.1,0c0-17.2,0-132.5,0-132.5H559.6v-32.7
		l483.7,0.9c-44.5-38.1-88-78-132.5-113.4H480.6C480.2,1674.3,479.7,1674.3,479.3,1674.3z M1048.7,1793.2v371.1c0,0,0,8.2-7.3,8.2
		c-7.3,0-432.8,0.9-432.8,0.9l124.3,104.3h402c14.5,0,22.7-13.6,22.7-31.8v-361.2L1048.7,1793.2z M943.1,1819.5v214.2h73.2v-214.2
		H943.1z M910.7,1819.5l-72.6,0.9v176c0,37.2-35.4,68.9-69.8,68.9h-284l84.4,71.7h227.8c59,0,114.3-65.3,114.3-117V1819.5z"/>
</g>
</svg>
