<?xml version="1.0" encoding="utf-8"?>
<!-- Generator: Adobe Illustrator 21.1.0, SVG Export Plug-In . SVG Version: 6.00 Build 0)  -->
<svg version="1.1"
	 id="Layer_1" xmlns:cc="http://creativecommons.org/ns#" xmlns:dc="http://purl.org/dc/elements/1.1/" xmlns:inkscape="http://www.inkscape.org/namespaces/inkscape" xmlns:rdf="http://www.w3.org/1999/02/22-rdf-syntax-ns#" xmlns:sodipodi="http://sodipodi.sourceforge.net/DTD/sodipodi-0.dtd" xmlns:svg="http://www.w3.org/2000/svg"
	 xmlns="http://www.w3.org/2000/svg" xmlns:xlink="http://www.w3.org/1999/xlink" x="0px" y="0px" viewBox="0 0 175.6 156"
	 style="enable-background:new 0 0 175.6 156;" xml:space="preserve">
<path id="path1031" d="M136.3,26.1c2.2,7.5-0.6,17.1,3.2,24.1l5.4,9.6c-0.3,3.4-7.8,3.3-3.9,7.7c0.6,3.9-3.8,4.2-5.9,5.6
	c1.4,0.6,4.1-0.4,4.4,1.9c0.3,3.2-4.2,2.8-4.7,5.9c0.9,3.4-0.1,6.9-3.4,8.4c-8.1,3.3-17.9-3.8-25.1,3.2
	c-17.2,15.9-27.8,35.8-39.8,54.6c-3.2,0.1-5.9-2.9-8.2-5.2c-3.6-3.6-6.6-8.4-4.6-13.5c6.2-13.5,15.3-25.7,26.5-37.1
	c8.1-8.5,21.9-3,31.9-6.6c4.9-3.2-1.9-10.5,5.6-11.5c0.5-1.1,0.4-3.1-1.2-3.2h-3v-1c2.3-0.6,5.5-1.3,6.1-3.9c-0.5-1.6-1.4-3-0.3-5
	c0,0,3.5-2.1,3.9-3.3c0.7-2-7.9-9.7-7.3-20c0.2-4.4-2.7-19-8.6-26.5c-2.1,34.6-28.8,57.2-53,82.5c-8.7,10.5-16,21.5-22.1,33.2
	c-11.1-0.9-20.8-7.4-26.7-17.2c-6.9-12.8-6.4-30.6-4.2-45.4C4,51.9,11.4,38.6,24,36.2c4.4-1,8.8-2,13.6-1.9c1.9-2.7,1.1-6.6,2.7-9.6
	C49.5,3.4,72.7-0.8,94.1,0.1C111.3,1.4,130.2,8.6,136.3,26.1"/>
<path id="path1033" d="M157,39.8c-1.9,9.1,3.8,16.3,7.3,23.8c-0.3,0.9-1.3,1.4-2.1,1.7c-6.4,1.2,1.2,6.5-3.7,8.9
	c-1.2,1.2-4.2,0.3-4.2,2.4c1.3,0.2,3.3-0.6,4.2,0.9c0.3,0.7,0.5,1.9-0.3,2.6c-6.8,1.3-0.8,8.9-6.1,11.7c-7.3,2.5-15.4-1.1-22.3,2.2
	c-17.8,13.6-28.5,32.7-39.6,50.3c-1.6,3.7-3.8,7.4-3.5,11.6c18.5,1,31.8-14.1,41.8-28.2c10.2,0.2,19.9-0.7,28.3-4.9
	c11.3-5.4,16.8-17.1,18.4-28.6C176.1,74.1,177.4,49,157,39.8"/>
</svg>
