<?xml version="1.0" encoding="utf-8"?>
<!-- Generator: Adobe Illustrator 21.1.0, SVG Export Plug-In . SVG Version: 6.00 Build 0)  -->
<svg version="1.1" id="图层_1" xmlns="http://www.w3.org/2000/svg" xmlns:xlink="http://www.w3.org/1999/xlink" x="0px" y="0px"
	 viewBox="0 0 76 76" style="enable-background:new 0 0 76 76;" xml:space="preserve">
<path d="M50,33.1H19.9c-1.4,0-2.6,1.1-2.6,2.6l-0.1,0c-0.1,0.8-0.1,1.6-0.1,2.5C17.1,49.6,26.5,59,38,59c1.1,0,2.1-0.1,3.2-0.2v0
	c0.1,0,0.1,0,0.2,0c0.7,0,1.3,0.6,1.3,1.3h0v15.8l0,0C61.4,73.5,76,57.5,76,38.1C76,18.7,61.4,2.7,42.6,0.4l0-0.3c0,0,0,9.3,0,9.3
	c13.9,2.2,24.4,14.2,24.4,28.7c0,11.3-6.4,21.1-15.8,25.9l0,0v-9.9c0-1.5-1.2-2.8-2.8-2.8H38c-6,0-11.1-4-12.7-9.5l0,0h31
	c1.4,0,2.6-1.1,2.6-2.6l0,0c0-0.4,0-0.8,0-1.2c0-11.5-9.4-20.9-20.9-20.9c-0.8,0-1.7,0.1-2.5,0.1l0,0c-0.1,0-0.1,0-0.2,0
	c-0.7,0-1.3-0.6-1.3-1.3h0V0.3v0C14.9,2.3,0,18.5,0,38.1C0,57.8,15,74,34.1,75.9l-0.1,0v-9C19.8,65,8.9,52.8,8.9,38.1
	c0-11.5,6.8-21.5,16.4-26.2l0,0v10.3c0,1.5,1.2,2.7,2.7,2.7h-0.1H38c5.5,0,10.2,3.3,12.2,8.1"/>
</svg>
