<?xml version="1.0" encoding="utf-8"?>
<!-- Generator: Adobe Illustrator 21.1.0, SVG Export Plug-In . SVG Version: 6.00 Build 0)  -->
<svg version="1.1"
	 id="svg2" inkscape:version="0.47 r22583" sodipodi:docname="New document 1" xmlns:cc="http://creativecommons.org/ns#" xmlns:dc="http://purl.org/dc/elements/1.1/" xmlns:inkscape="http://www.inkscape.org/namespaces/inkscape" xmlns:rdf="http://www.w3.org/1999/02/22-rdf-syntax-ns#" xmlns:sodipodi="http://sodipodi.sourceforge.net/DTD/sodipodi-0.dtd" xmlns:svg="http://www.w3.org/2000/svg"
	 xmlns="http://www.w3.org/2000/svg" xmlns:xlink="http://www.w3.org/1999/xlink" x="0px" y="0px" viewBox="0 0 79 92"
	 style="enable-background:new 0 0 79 92;" xml:space="preserve">
<path id="path2868" d="M41,0L41,0c5,1,9,8,9,15c0,10-10,18-10,26l0,0c3-11,21-18,17-31c5,3,8,13,8,20c2-7,12-12,14-18l0,0v37H0V30
	C0,19,19,20,18,9l0,0c6,9-3,17-2,23l0,0c5-18,22-13,26-25C43,5,42,1,41,0"/>
<path id="path2872" d="M14,53c-5,5-10,7-14,5v34h79V56c-6,8-15,5-14-2l0,0c-12,14-19,6-17,1l0,0c-11,13-18,5-15-2l0,0
	C19,70,10,64,14,53L14,53z"/>
</svg>
