<?xml version="1.0" encoding="utf-8"?>
<!-- Generator: Adobe Illustrator 21.1.0, SVG Export Plug-In . SVG Version: 6.00 Build 0)  -->
<svg version="1.1" id="svg5056" xmlns:svg="http://www.w3.org/2000/svg"
	 xmlns="http://www.w3.org/2000/svg" xmlns:xlink="http://www.w3.org/1999/xlink" x="0px" y="0px" viewBox="0 0 924 368.2"
	 style="enable-background:new 0 0 924 368.2;" xml:space="preserve">
<g>
	<path d="M903.5,167.2c-8.3-2.1-24-5.9-33.8-8.3c-14.5-3.6-13-19.5-10.1-27.9c1.9-5.4,7.5-25.4,10.5-35.1c5-15.5-2.5-20.3-11.7-24
		C846.2,67,699.9,3.2,462.1,0H462C224.1,3.2,77.8,67,65.6,71.9c-9.2,3.6-16.7,8.4-11.7,24c3.1,9.7,8.7,29.7,10.5,35.1
		c2.9,8.4,4.4,24.2-10.1,27.9c-10.4,2.6-25.5,6.3-33.8,8.3c-21.3,5.3-23.8,14.1-17.4,36.3c4.5,15.4,36.8,129.7,42.2,144.4
		c6.1,16.6,14.6,20.3,37.8,20.3c11.5,0,746.2,0,757.7,0l0,0c23.2,0,31.8-3.7,37.8-20.3c5.4-14.8,37.8-129.1,42.2-144.4
		C927.4,181.3,924.8,172.5,903.5,167.2z M507.8,90.2c6.3-11.2,31-16.4,37.7-15.2c3.7,0.7,8.1,1.9,8.8,8.7c0.7,6.1-0.4,10-3.6,19.1
		c-1.5,4.2-5.5,9.1-7.4,10.8c-7.5,6.3-31.1,12.9-37.3,9h0C501.6,120.6,497.1,109.1,507.8,90.2z M319.7,286.7
		c-3.2,5.8-39.8,22.2-57.7,14.1c-9.9-4.5-5.7-23.8-3.1-36.1c3.9-18,11.9-45.3,15.7-61.2c0.8-3.2-0.8-5.1-3.4-5.4
		c-2.6-0.3-23.4-1-27.1-0.2c-2.6,0.6-4.7,0.3-6.4,4.2c-3,6.5-6,19.5-9.5,28.7c-9.1,24-17.6,35.7-35.8,46.5l0,0
		C86.3,339.9,63.9,275.3,56,239.9c-4.5-20.1-0.5-25,4.1-29.1c8.2-7.4,27-15.8,37-15.3c7.4,1,2.2,12.6,3.7,32.2
		c1.3,17.1,5.5,32.6,15.4,42.9c3.6,3.8,10.9,10,16.5,11.3c6.2,1.5,9,1.7,14.6-0.4c16.5-6.1,25.2-33,35.1-59.6
		c8.5-22.9,21.8-72.1,24.8-85.6c2.5-11.1,8.7-34,5.3-40.1c-1.6-2.9-5.1-3.8-9.1-4.5c-5.5-0.9-7.3-1.6-17.8-0.2
		c-5.7,0.8-36.2,4.6-31.9,46.5c1.1,10.8,6.3,24.2,9.6,30.9c2.4,4.8,1.3,9-1.8,10.7c0.5-0.3-24.7,13.6-35.4,2.4
		c-1.2-1.2-6.9-11.2-9-19.1c-8.6-32.4-1.4-45.6,2.1-52.4c7.1-13.9,23.5-22,35.3-26.6c14.5-5,56.4-10.4,97.6-8.3c7.3,0,13.3,1,14.1,8
		c1.2,10.9-20.2,85.8-20,85.8c-0.2,2.7-1.6,7.1,2.6,7.4c6.6,1.1,18.6,0.7,27.1-0.3c4-0.5,5-1.4,7.2-3.8c1.4-1.6,18.1-61.2,18.1-61.2
		c6.1-19.1,11.5-33.7,27.4-33.5c0,0,35.7-1.3,37.3,2.4c0,0,2.9,2.8,0.2,6.7c0,0-7.5,16.6-13.8,32.1c-5.3,13.1-9.5,25.4-9.5,25.5
		c-20.8,62.8-29,101.3-29,101.3c-1.6,10.9-4.9,24.6,2.4,28.5C325.2,279.3,321.8,283,319.7,286.7z M440.1,273.2
		c-8.2,13-15.2,15.4-27.9,21.5c-12.5,6-29,8.3-43,7.4c-30.6-1.2-35.7-24.5-34-50c1.3-18.9,6.8-37,8.3-41.2
		c6.5-17.4,12.8-33.7,26.3-44.7c29.8-24.5,69.4-26.2,73.1-26.3c9.4-0.3,17.3,3.7,20.5,12.3c5.1,18.4-5.4,56.1-74.4,68.8
		c0,0-14.7,37.7,7.1,45.5v0c7.5,2.7,17.4,1.9,25.7-0.6c7.5-2.3,8.5-2.7,13.9-4.2C435.8,261.7,447,262.3,440.1,273.2z M508.3,288.9
		c-7.6,4.8-43.3,17.2-52.6,12c-11.2-3.7-6-23.2-2.6-35.7c3.8-14,21.6-65.7,25.9-81.2c2.5-8.9,1.2-12.8-3.2-16.5
		c-3.6-3-3.4-8.7,2.6-12.4c10.2-6.3,46.4-18.5,55.4-13.2c6.3,3.7,3.6,13.5,1.7,20.5l-26.2,82.1c-2.8,12.4-4.5,20-1.8,25.3
		c0.7,1.3,5,5.1,6.7,7.8C516.2,280.8,516.3,283.8,508.3,288.9z M672.5,290.9c-8,6.1-42.1,14.1-52.8,9.6c-11.2-3.7-7.2-25.3-4-36.6
		c1.7-6.1,6.7-25.3,13.1-43.2c5.6-15.6,9.7-31.3,10.5-35.7c1.4-8.2,0-13.7-8.5-13.5c-9.5,1.9-18.8,10.2-25.9,28.6
		c-8.8,22.8-14.8,48.4-14.9,48.7c-6.7,25.5-5.1,29.7-6.8,36.5c-1.5,6-4,5.9-8.9,8.2c-3.4,1.6-27.4,12.4-39,6.5
		c-7.8-5.2-1.2-26.1,1.9-37.3c2.8-10,21.7-68.5,23.3-80.8c1.3-9.6-0.4-8.9-6.3-14.5c-6.5-6.1,2-11.2,3.7-12.3
		c10-6.3,49.4-17.8,54.8-14c7.2,5-0.7,16.8,5.7,16.8c9.9,0,29.6-15.9,49.1-18.1c34.5-4,29,21.8,26.6,33.6l0,0
		c-1.2,6-23.7,70.3-24.8,74.3c-0.9,3.4-6.3,21.2,0,26c1.2,0.9,3.7,2.1,5,3C678.3,279.9,680.2,285,672.5,290.9z M823.8,282.3
		c-11.8,16-19.9,17.1-41.9,18.2c0,0-56.7,2.3-87.2-1.7c-10.2-1.4-12.6-9.2-8.3-15.8c8.5-13.3,22.3-28.9,35.5-43.6
		c23.5-26.1,46-49.5,39.9-52.4c-7.8-3.7-31.7-1.6-31.7-1.6c-3.7,0-13.1,1.9-16.3,3.2v0c-9.4,3.8-8-2.9-8-2.9
		c1.6-14.1,11-28.8,16.7-35.5c5.4-6.3,11.9-9.1,18.9-9.1c0,0,35.6-1.9,68.9,1.6c9.5,1,8.2,5.5,8.3,8.7c0.2,3.7-42.2,56.3-65,85.2
		c-6.4,8.1-11.2,18.2-6.6,19.2c10.9,2.6,55.6,0.4,62-0.9c6.4-1.3,18.2-0.8,25-13.1c4.1-7.4-0.5-19-20.7-23.3
		c-5.2-1.1,3.8-12.3,6.6-17.4c7.7-14,33.2-3.6,37.3,12.2C863.2,236.9,823.8,282.3,823.8,282.3z"/>
	<path d="M409.5,196.1c8.3-7.5,18.9-34.5,12-37.4c-13.6-5.6-28.9,39.8-26.6,42.2C396.2,203.3,404.1,200.7,409.5,196.1z"/>
</g>
</svg>
