<?xml version="1.0" encoding="utf-8"?>
<!-- Generator: Adobe Illustrator 21.1.0, SVG Export Plug-In . SVG Version: 6.00 Build 0)  -->
<svg version="1.1"
	 id="svg2" inkscape:version="0.47 r22583" sodipodi:docname="ICBC_logo.svg" xmlns:cc="http://creativecommons.org/ns#" xmlns:dc="http://purl.org/dc/elements/1.1/" xmlns:inkscape="http://www.inkscape.org/namespaces/inkscape" xmlns:rdf="http://www.w3.org/1999/02/22-rdf-syntax-ns#" xmlns:sodipodi="http://sodipodi.sourceforge.net/DTD/sodipodi-0.dtd" xmlns:svg="http://www.w3.org/2000/svg"
	 xmlns="http://www.w3.org/2000/svg" xmlns:xlink="http://www.w3.org/1999/xlink" x="0px" y="0px" viewBox="0 0 39.9 39.9"
	 style="enable-background:new 0 0 39.9 39.9;" xml:space="preserve">
<polygon points="20.7,27.6 20.7,30.6 30.7,30.6 30.7,21.5 24.6,21.5 24.6,18.4 30.7,18.4 30.7,9.2 20.7,9.2 20.7,12.3 27.6,12.3 
	27.6,15.3 21.5,15.3 21.5,24.5 27.6,24.5 27.6,27.6 "/>
<path d="M19.9,0C8.9,0,0,8.9,0,19.9c0,11,8.9,19.9,19.9,19.9c11,0,19.9-8.9,19.9-19.9C39.9,8.9,30.9,0,19.9,0z M19.9,36.8
	c-9.3,0-16.8-7.5-16.8-16.8c0-9.3,7.5-16.8,16.8-16.8c9.3,0,16.8,7.5,16.8,16.8C36.8,29.2,29.2,36.8,19.9,36.8z"/>
<polygon points="19.2,12.2 19.2,9.2 9.3,9.2 9.3,18.4 15.3,18.4 15.3,21.4 9.3,21.4 9.3,30.6 19.2,30.6 19.2,27.6 12.3,27.6 
	12.3,24.5 18.4,24.5 18.4,15.3 12.3,15.3 12.3,12.2 "/>
</svg>
