<?xml version="1.0" encoding="utf-8"?>
<!-- Generator: Adobe Illustrator 21.1.0, SVG Export Plug-In . SVG Version: 6.00 Build 0)  -->
<svg version="1.1" id="Layer_1" xmlns="http://www.w3.org/2000/svg" xmlns:xlink="http://www.w3.org/1999/xlink" x="0px" y="0px"
	 viewBox="0 0 88.7 88.7" style="enable-background:new 0 0 88.7 88.7;" xml:space="preserve">
<style type="text/css">
	.st0{fill:none;}
</style>
<rect y="0" class="st0" width="88.7" height="88.7"/>
<path d="M0,0v88.7h88.7V0H0z M21.5,18.8c3.1-3.7,7.6-4.8,8.3-2c0.7,2.8,0,5-1.7,7.2v0c-0.9,1.1-1.9,2.2-2.7,2.9
	c-1.8,1.1-3.3,1.3-4.6,0C19.5,25.3,19.1,22.3,21.5,18.8z M12.7,66.7c-0.3,0.5-0.3,0.7-0.7,0.7H9.6c-2.2-0.2-3.3-2.6-3.5-5
	c-0.2-3.5,0.7-5.7,3.3-14.2c0.9-3.1,2.9-8.1,3.3-9.2c1.1-2.8,3.9-7.8,7.6-7.8c1.1,0,2.6,1.3,2.6,2.4c0.5,1.1-1.1,5.4-1.5,6.5
	c-1.7,5.4-4.3,11.5-6.5,20.7C14.7,61.7,13.4,65.4,12.7,66.7z M27.7,66c-0.4,0.9-0.8,1.1-1.5,1.1c-3.7-0.7-4.4-2.2-4.8-6.1
	c-1.3-7.6,11.1-35,12-37c0.4-1.1,4.8-9.4,7.2-10.7c0.9-0.5,1.3-0.3,2,0.4c1.3,1.5,2.4,3.1,2.8,4.6c0.2,1.3,0,3.1-0.9,4.8h0
	c-0.9,1.5-3.3,6.5-3.9,8.7c-3.3,8-8.5,18.5-10.7,27.2C29.4,60.6,28.6,64.3,27.7,66z M40.7,67.3c-1.7-0.4-3-2.4-3.7-3.7
	c-0.2-0.6-0.2-1.7-0.2-2.6c0.3-3.5,1.6-10.5,4.4-18.3c3.5-9.6,8.7-19.8,13.3-26.8c1.1-1.3,2.2-1.1,3.5-0.2c1.6,1.1,2.7,2.2,3.1,3.3
	c0.8,2.4-0.5,5.6-2,8.7c-4.8,8.7-8.5,18.1-11.6,26.9c-0.7,2.4-3.3,9-4.4,11.6C42.7,67.5,42,67.7,40.7,67.3z M81.4,45.8
	C77.1,57.8,65.7,70,53.3,77c-0.8,0.4-3.9,2.2-5.4,2.6c-0.5,0.2-1.1,0.2-2.2,0.2c-0.6,0-1.1,0-1.3-0.2c-0.5-0.3,0-0.5,0.2-0.7
	c3.7-1.8,18.3-13.3,18.3-15.5c-0.8,0.5-3.2,1.8-5.2,2c-2.1,0.2-3-0.4-4.1-1.5c-1.3-1.7-2.6-3.7-2.6-5.2c0-2.1,1.8-8.2,3.3-11.3
	c2.4-4.3,6.3-11.3,8.3-13.5c0.2-0.2,0.7-0.4,1.1-0.4c1.9,0,4.5,3.1,5.2,4.4c1.7,2.4-5.7,11.5-7.2,15c-1.1,2-2.4,4.1-1.5,4.8
	c0.2,0.2,0.5,0.2,0.9,0c1.3-0.8,2.4-1.7,3.5-2.8c2.9-2.6,6.8-8.3,10.7-15.9c0.5-0.6,1.8-2.8,3.1-2.8c0.5,0,0.7,0.2,0.9,0.4
	c1.3,1.1,3.5,2.8,3.5,3.9C82.8,41.6,82.4,43.6,81.4,45.8z"/>
</svg>
