<?xml version="1.0" encoding="utf-8"?>
<!-- Generator: Adobe Illustrator 21.1.0, SVG Export Plug-In . SVG Version: 6.00 Build 0)  -->
<svg version="1.1"
	 id="svg2" inkscape:version="0.91 r13725" sodipodi:docname="Japan_Airlines_logo2.svg" xmlns:cc="http://creativecommons.org/ns#" xmlns:dc="http://purl.org/dc/elements/1.1/" xmlns:inkscape="http://www.inkscape.org/namespaces/inkscape" xmlns:rdf="http://www.w3.org/1999/02/22-rdf-syntax-ns#" xmlns:sodipodi="http://sodipodi.sourceforge.net/DTD/sodipodi-0.dtd" xmlns:svg="http://www.w3.org/2000/svg"
	 xmlns="http://www.w3.org/2000/svg" xmlns:xlink="http://www.w3.org/1999/xlink" x="0px" y="0px" viewBox="0 0 48.2 48.2"
	 style="enable-background:new 0 0 48.2 48.2;" xml:space="preserve">
<sodipodi:namedview  bordercolor="#666666" borderopacity="1.0" fit-margin-bottom="0" fit-margin-left="0" fit-margin-right="0" fit-margin-top="0" id="base" inkscape:current-layer="layer1" inkscape:cx="258.45594" inkscape:cy="-40.902825" inkscape:document-units="px" inkscape:pageopacity="0.0" inkscape:pageshadow="2" inkscape:window-height="752" inkscape:window-maximized="0" inkscape:window-width="1280" inkscape:window-x="0" inkscape:window-y="0" inkscape:zoom="1.0064818" pagecolor="#ffffff" showgrid="false">
	</sodipodi:namedview>
<path id="path4282" inkscape:connector-curvature="0" d="M24.4,39h1.8l-0.1-2.2"/>
<path id="path4286" inkscape:connector-curvature="0" d="M35,27.1c-4.9,4.8-12.3,1.7-11.5-4.2c0.6-4.5,6.1-9.1,10.4-11.5l0-0.1
	c-0.5-0.5-1.7-1.7-2.4-2.6c-2-2.5-5.6-2.6-7.7,0.1l-12.1,1.1v0.1l13,0.8c2.3,0.1,3.1,2.2,0.8,3.9c-8.2,6.2-9.7,12.9-7.9,18.1l-0.1,0
	c-0.8-1.1-1.3-2.4-1.6-3.8c-4-2.5-7.2-7.2-7.2-13.1c0-8.5,6.9-15.5,15.5-15.5s15.5,7,15.5,15.5C39.6,20.7,37.6,24.6,35,27.1
	 M38,41.7h-7.5l2.6-6.9h3.3l-2.1,5.4h4.2C38.6,40.2,38,41.7,38,41.7z M26.4,41.7l-0.1-1.4h-3l-1.1,1.4h-2.7l5.5-6.4
	c0.3-0.3,0.7-0.5,1-0.5H29l0.7,6.9C29.7,41.7,26.4,41.7,26.4,41.7z M15.1,41.9c-0.9,0-1.7-0.1-2.3-0.2l0.6-1.5
	c1.5,0.2,2.8,0,3.3-1.3l1.6-4.2h3.3l-1.8,4.6C18.9,41.7,16.7,41.9,15.1,41.9 M48.1,26.2c0.2-1.5,0.1-3.7-0.1-5.3h0
	c-0.5,2.3-2,5.5-5.3,8.1l0,0c2.9-3.1,4.6-6.9,4.9-10.8C46.9,16,46.1,14,45,12.1l0,0c0.6,3.9-0.3,9.1-4.2,13.4l0,0
	C44,20.7,44.9,15,43.5,9.8C39.1,3.8,32,0,24.1,0c-7.9,0-15,3.8-19.4,9.8c-1.4,5.2-0.6,11,2.7,15.7l0,0c-3.8-4.2-4.8-9.4-4.2-13.4
	l0,0C2.1,14,1.3,16,0.7,18.2c0.3,3.9,2,7.7,4.9,10.8l0,0c-3.3-2.6-4.8-5.8-5.3-8.1h0c-0.2,1.6-0.3,3.8-0.1,5.3
	c0.8,2.6,2.6,4.8,4.4,6.3l0,0.1c-2-1.3-3.2-2.5-3.9-3.6l0,0c2.2,10.8,11.9,19.1,23.6,19.1c11.7,0,21.4-8.3,23.6-19.1l0,0
	c-0.8,1.1-1.9,2.3-3.9,3.6l0-0.1C45.5,31,47.2,28.8,48.1,26.2"/>
</svg>
