<?xml version="1.0" encoding="utf-8"?>
<!-- Generator: Adobe Illustrator 21.1.0, SVG Export Plug-In . SVG Version: 6.00 Build 0)  -->
<svg version="1.1"
	 id="Layer_1" xmlns:cc="http://creativecommons.org/ns#" xmlns:dc="http://purl.org/dc/elements/1.1/" xmlns:rdf="http://www.w3.org/1999/02/22-rdf-syntax-ns#"
	 xmlns="http://www.w3.org/2000/svg" xmlns:xlink="http://www.w3.org/1999/xlink" x="0px" y="0px" viewBox="0 0 976.8 348.9"
	 style="enable-background:new 0 0 976.8 348.9;" xml:space="preserve">
<path d="M957,115.7c-17.5,0-33.4,14.1-53.2,30.5c-18.1,15.1-55.2,53.2-89.1,74.9c9.4-14.8,32.2-46.9,35.6-61.9
	c3.6-15.8-8-21.9-23.8-12.1c-17.3,10.7-33.8,62-58.3,62c-4.5,0-7.6-2.2-7.5-7.2c0.1-15,23.4-45,65.1-61.5c6.5-2.6,9-6.8,9-10.4
	c0-1.1-0.2-8.7-13-8.7c-41.3,0-96.9,48.1-104.7,85.1c-8,8.1-22.5,20.1-40.8,27.9c20.7-29.3,38.5-52.9,47.8-77.3
	c10.8-28.5-4.6-32.2-20.3-23.9c-15.3,8.1-26.1,30.6-30.7,39.2c-4.5,8.5-8.3,19.4-21.8,30.2s-27.5,9-17.6-12.1
	c8.8-18.9,28.7-38.7,45.8-47.8c4-2.2,7.6-3.5,7.5-8.9c-0.2-8.7-10.2-14.7-24.5-8.5c-19.4,8.4-28.7,14-45.1,14
	c-13,0-19.8-3.5-25.4-5.8c-7.5-3.2-13-2.1-15.9-1.1c-2.6,0.9-6.7,3.4-10.2,7.2c-2.7,3-5,7.9-5.6,11.1c-3.8,23.1-24.1,64.6-38.9,64.6
	c-5.1,0-10.8-1.5-9.3-13.3c2.4-19.3,25.7-45.5,31.1-50.7c5.4-5.2,15.5-8.8,16.3-14.6c0.6-4.9-2.3-10.3-11.9-10.3
	c-31.4,0-73.4,43.6-77.6,82.7c-4.9,4.6-10.7,9-17.4,9c-14.5,0-18.6-13.6-17.6-24.4C473,159,545.5,82.2,547.6,27.5
	c0.5-13.1-5.8-19.6-16.5-19.6c-26.9,0-64.7,39.4-88.2,69.8c-28.9,37.4-46.7,82.6-53,116.8c-21.1,18.3-29.7,19.6-38.9,19.6
	c-12.8,0-17.3-9.3-16.9-16.5c35.7-32.4,97.6-109.6,98.9-147.8c0.4-11.3-6-16.6-17.4-16.6c-24.3,0-58.7,25.7-83.5,59.4
	c-24.7,33.8-40.8,73.5-45.3,109.6c-18.5,16.6-32.3,20-43.7,20c-6.9,0-12-4.9-13.2-6.9c16.4-9.5,53.7-33.2,53.7-68.5
	c0-17.6-11.8-25.4-23.6-25.4c-30,0-77.1,37.4-76.8,88.9c0,0.9,0.1,4.1,0.3,5.2c-13.6,4.7-22.9,9.4-20.8,19.2c2,8.9,13,8.4,27.3,3.3
	c3.3,6.1,17.3,16.2,37.1,16.2c26.8,0,47.3-12.7,63.4-26.5c6.8,15.9,23.5,24.3,41,24.3c21.2,0,42.3-14.4,58.9-27.5
	c1.9,12.2,14.3,31.2,35.8,31.2c19.6,0,34.6-11.4,46.4-23.7c3.1,12.4,14.5,22.3,29.4,22.3c49.6,0,77.4-70.2,83.8-95.4
	c0.8-3.2,3.9-3.9,6-3.2c9.2,3.2,13.7,4.8,25.4,3.5c-18.9,14.8-35.5,40.1-35.5,58.6c0,18.5,16,27,27.7,27c11.7,0,27.2-7.6,37.4-17.1
	c-2.7,5.4-6.3,13.7-12.1,19.6c-10.7,2.9-42,14.2-61.9,26.3c-18.9,11.5-37.1,29.8-37.1,50.8c0,11.3,9.2,24.5,30.9,24.5
	c36.5,0,62-23.8,96.4-86.4c28.5-12,45.6-23.1,56.8-32.6c4.9,8.6,14.4,12.5,23.8,12.5c14,0,22.4-4,33.7-12.2c-1.6,3.8-4,9.6-7.9,14.7
	c-20.4,8.5-44.9,19.7-57.4,27.3c-33.4,20.2-40.8,38.2-40.8,52.4c0,8.7,7.5,23.8,30,23.8c48.7,0,78.9-60.6,98.5-94.8
	c14.4-7.6,35-21.8,56.1-38c-0.7,2.6-1.1,5.3-1.1,8.3c0,15.2,13.8,29.5,36.4,29.5c44.6,0,58.5-32.9,58-68.4
	c-0.2-11.6-1.9-20.9-2.1-25c-0.4-10.8,3.2-16.7,13.1-16.7c10,0,16.7-1.8,16.7-10.3c0-11.8-8.4-17.1-19.8-17.1 M507.2,53
	c1.3,0,1.8,1.1,1.8,2.9c-0.4,14-36.4,70.5-69.7,103.4C459.3,100.4,499.2,53,507.2,53 M222.5,194.9c1.5-25.1,21.4-44.5,29.2-44.5
	c2.9,0,4.2,1.7,4.2,5.1C255.9,164.5,243.9,183.2,222.5,194.9 M391.7,73.8c1.5,0,2.1,1.2,2.1,3.1c-0.3,10.3-26.2,57.8-59.4,90.7
	C351.8,114.2,380.3,73.8,391.7,73.8 M573.7,317c-2.5,0-3.8-1.7-3.8-4.1c0-15.3,33.9-33.3,51.7-39.8C613.8,285.5,585.7,317,573.7,317
	 M709.3,317.8c-2.5,0-3.4-1.5-3.4-3.9c0-13.5,30.7-34.4,48.5-40.9C745.1,289,719.5,317.8,709.3,317.8 M894.5,220.8
	c-2.1,0-5.4-0.5-5.4-7.7c0-5.2-2.5-11-11.6-11c-1.2,0-2.6,0.1-4.1,0.4c19.5-15.4,34.7-32.4,48.9-43.9
	C919.4,193.6,911,220.8,894.5,220.8"/>
<path d="M877.3,109.2c-0.7,6.2-7.5,8.9-8.1,14.4c-0.3,3.2,1.9,5.3,5.9,5.3c10.2-0.1,37.6-15.9,40-40.5c1.2-12.4-6.6-23.2-20.1-23.2
	c-13.7,0-26.1,12.8-27.2,23.6C866.7,99.4,878,103.2,877.3,109.2"/>
<path d="M165,282.7c-8.8-0.5-12.9-10.9-12.9-23.6c0-14,9-44.2,12.6-58.5c3.6-14.4,5.2-37.8-7.9-51.2c49.7-20,123.1-88,132.6-102.9
	c9.4-14.9,11.3-33.8-1.8-43.2c-13-9.5-34.2,2.9-46.7,20.9c-34.5,49.8-55.4,74.1-78.9,94.5c-18.3,16-27.3,16.2-36.1,17.4
	c0,0,33.9-55.5,46.5-72.1c15.2-19.9-3.5-27.4-21.7-14.8c-3.7,2.6-32.4,22.4-67.1,40.3C21.9,121.5,7,136.2,7,155.4
	c0,8.5,5.9,19.2,18.3,19.2c24.3,0,48.2-43.3,60-54.1c4.6-4.2,15.2-13.5,19.3-13.5c1.3,0,2.3,0.8,2.3,3.4c0,8.3-16.1,31.8-41,58.8
	C29.6,208.2,0,224,0,249C0,265.2,12.2,274,25.5,274c27.9,0,46.5-37.2,57.7-55.7c4.5-7.4,29.1-53.2,34.2-63.1c5.4,2.9,8.7,8.9,6.9,21
	c-3.3,21.9-22.8,48.4-22.8,85.3c0,30.2,27.9,39.6,39.1,39.6c10.3,0,24-4,27.4-14.3c0.4-1.6-0.1-4.2-2.9-4.4"/>
</svg>
