<?xml version="1.0" encoding="utf-8"?>
<!-- Generator: Adobe Illustrator 21.1.0, SVG Export Plug-In . SVG Version: 6.00 Build 0)  -->
<svg version="1.1" id="Layer_1" xmlns="http://www.w3.org/2000/svg" xmlns:xlink="http://www.w3.org/1999/xlink" x="0px" y="0px"
	 viewBox="0 0 193.5 69" style="enable-background:new 0 0 193.5 69;" xml:space="preserve">
<path d="M188.3,42.6c-1.1,1.8-12.1,14.9-19.8,1.3c1.1-3.2,10.4-14.7,11.7-16.7c2-3,3.8-3.8,5.8-4.9c1.4-0.8-0.8-6-5.9-6.2
	c-4.3-0.1-13.3,16.8-14.3,17.7c-0.5,0.5-0.8-9.9-0.8-10.9c0-3.5-1.4-4-3.7-4c-1.2,0.1-3.8-1-8.3,13.8c-0.7,2.5-7.4,16.5-11.8,16.5
	c-0.7,0-1.5-0.6-2.4-1.7c0.1-0.1,0.2-0.1,0.2-0.2c8.8-10,8.8-22.2,8.8-23.4c0.1-7.5-7.8-12.7-15-2c-5.3,7.9-4.9,20.2-3.4,25.4
	c-0.6,0.5-1.8,0.8-2.5,0.7c-4.5,0.2-3.8-6.8-3.9-7.6c-0.1-4.4,1.5-9.8,1.5-12.4c0-3.6-2.9-4.1-3.9-4.1c-6-0.1-8.5,15-9.6,15.5
	c-1.2,0.6,1.8-12.6,1.5-14c0-1.5-0.4-3.5-2.9-3.5c-3.6,0-4.2,3.1-7.6,13.9c-2.7,8.5-7,13.1-9.4,12.6c-1.8-0.4-2-1-2-1.7
	c8.1-10.4,7.8-19.8,7.8-20.7c0.1-7-8.8-11.4-15.3-0.3c-5.2,8.9-3.9,18-2.2,23.1c0,0,0,0.1,0,0.2c-5.2,3.9-11.3,2.9-12.2,0
	c8.9-10.3,8.6-20.4,8.6-21.4c-0.4-6.9-9.2-11.2-15.5,0.1c-3.7,6.7-4.2,14.7-2.6,19.8c-3.8,2.7-8.3-1-8.8-2.3
	c5.7-8.1,9.7-20.2,10.1-31.6C61-0.3,48.1-8.2,40.4,13.2c-5.6,15.6-0.8,30.5,0.2,33.2c-0.5,1.4-4,2.8-6.3,2.5
	c-7.9-1-14.5-14.3-8.5-23c2.8-4,6.9-10.6,11.6-15.1c2-1.9,3.4-1,3.4-2.6c0-2.7-5.8-6.2-7.6-5.8C32.3,2.7,29,2.9,22.9,13.9
	c-5.3,9.5-11.2,19.9-11.4,13.3c0-0.9,0.8-14.5,1.4-18C15,3.3,10,3.1,8.2,3C7.6,2.9,0.8,2.7,0,8.1c-0.3,2,1.1,9.7,1.1,12.6
	c0,4,0.3,13.4-0.3,31.1l0,0c-0.3,8.8,6,8.8,7.2,8.7c3.7-0.4,6.1-0.6,4.2-3.9c-0.6-1.4-1.1-7-1-8.8c0.1-6.7,2.6-9.6,7.2-1.6
	c1.3,2.3,10.8,18.7,26,6.6c3.3,3.5,9.1,6.4,17.9,1.6c1.4,2.5,10.8,8.5,22.2-0.5c1.9,2.2,11.6,7,19.7-7.3c0,2.4,0,3.2,0,5.6
	c0.1,4.4,1.5,5.9,3.9,5.9s4.7-2.1,4.7-5s2.7-12.5,3-12.1c0,0-1,19.8,15.7,12.1C132.6,55.6,144,67,157,39.5c0.4,2.2,1.4,5.3,1.6,6
	c-8.6,16-8.6,17.3-8.8,17.9c-3.2,6.4,7.4,7.9,7.6,1.5c0.1-2,4.9-10.1,5.5-11.9c1.5,2.8,6.9,6,11.9,5.8c5.1-0.1,16.1-4.3,18.5-15.7
	C193.8,41.2,190.8,38.5,188.3,42.6z M46.5,29.2c0.9-23.7,7.3-21.5,6.9-15.5c-0.8,12.2-4.5,21.8-6,24C46.4,35.5,46.4,31.6,46.5,29.2z
	 M70.4,30.1c0.3,3.4-2.8,10.5-4.7,12c-0.1-0.4-0.2-1-0.3-1.4C65.7,29.1,70.1,25.9,70.4,30.1z M86.9,38.7C87.1,24.9,92,24,91.7,29
	c-0.4,6.3-3.2,10.5-4.3,12.2C87.2,41.3,86.8,41.4,86.9,38.7z M137.5,26.6c1.9-4.6,3.6-2.3,3.6-0.4c-0.2,7-3.8,13.7-5.4,15.3
	C135.5,40.3,134.3,34.4,137.5,26.6z"/>
</svg>
