<?xml version="1.0" encoding="utf-8"?>
<!-- Generator: Adobe Illustrator 21.1.0, SVG Export Plug-In . SVG Version: 6.00 Build 0)  -->
<svg version="1.1" id="Layer_1" xmlns="http://www.w3.org/2000/svg" xmlns:xlink="http://www.w3.org/1999/xlink" x="0px" y="0px"
	 viewBox="0 0 348.5 88.5" style="enable-background:new 0 0 348.5 88.5;" xml:space="preserve">
<path d="M247.7,22.6c-7,0-16.7,0.8-22.2,3.1v14.6c3.2-2,10.5-3.6,18.7-3.6c9.3,0,14.3,2.3,14.3,9.6h-14.5
	c-17.9,0-28.9,4.1-28.9,19.8c0,13.9,11.1,22.4,30.8,22.4c18.1,0,29.9-10.1,29.9-22.9V47.5C275.9,30.1,265.9,22.6,247.7,22.6z
	 M258.6,65.2c0,4.4-5.1,7.8-12.9,7.8c-8.5,0-13.3-2.7-13.3-7.6c0-5.2,4.5-6.7,12.2-6.7h14V65.2z"/>
<polygon points="0,2.6 20.1,2.6 20.1,36.9 47.4,2.6 72.2,2.6 40.6,42 73.7,86.8 47.4,86.8 20.1,49.3 20.1,86.8 0,86.8 "/>
<polygon points="284.3,0 304.4,0 304.4,49.9 324.2,24.9 346.4,24.9 322.6,54.4 348.5,86.8 324,86.8 304.4,61.9 304.4,86.8 
	284.3,86.8 "/>
<path d="M102.3,22.9c-22.1,0-34,14.7-34,32.8c0,18.1,11.7,32.8,34,32.8s34-14.7,34-32.8C136.3,37.6,124.4,22.9,102.3,22.9z
	 M102.3,73c-10.1,0-15.4-7.7-15.4-17.3c0-9.5,5.4-17.3,15.4-17.3c10,0,15.4,7.7,15.4,17.3C117.8,65.2,112.5,73,102.3,73z"/>
<path d="M190,0v26.7c-3.8-2.4-8.8-3.9-14.3-3.9c-22,0-33.8,14.7-33.8,32.8c0,18.1,11.6,32.8,33.8,32.8s33.6-14.7,33.6-32.8V0H190z
	 M175.7,73c-10.1,0-15.3-7.7-15.3-17.3c0-9.5,5.3-17.3,15.3-17.3c10,0,15.3,7.7,15.3,17.3C191,65.2,185.7,73,175.7,73z"/>
</svg>
