<?xml version="1.0" encoding="utf-8"?>
<!-- Generator: Adobe Illustrator 21.1.0, SVG Export Plug-In . SVG Version: 6.00 Build 0)  -->
<svg version="1.1" id="svg3336" xmlns:svg="http://www.w3.org/2000/svg"
	 xmlns="http://www.w3.org/2000/svg" xmlns:xlink="http://www.w3.org/1999/xlink" x="0px" y="0px" viewBox="0 0 1012.3 189.6"
	 style="enable-background:new 0 0 1012.3 189.6;" xml:space="preserve">
<path id="path3131" d="M531.3,44.5l-45.6,131.1L465.8,44.5h-52.7l-17.7,56l-17.8-56h-52.7l-21.2,139.7h52.4l7.6-53l14.7,53h33.9
	l14.7-53l7.6,53h108.5l17.2-65.9l17.2,65.9h60.4L589.3,44.5L531.3,44.5 M224.4,39.1c-41.6,0-75.2,33.7-75.2,75.2
	c0,41.6,33.7,75.2,75.2,75.2c41.6,0,75.3-33.7,75.3-75.2C299.7,72.8,266,39.1,224.4,39.1z M224.4,135.7c-11.8,0-21.3-9.5-21.3-21.3
	c0-11.8,9.5-21.3,21.3-21.3c11.8,0,21.3,9.5,21.3,21.3C245.7,126.1,236.2,135.7,224.4,135.7 M954.6,44.5v87.7h-0.1
	c-0.1,4.1-3.5,7.4-7.7,7.4c-4.2,0-7.5-3.3-7.7-7.4H939V44.5h-57.7v87.4c0,38.3,25.9,57.7,65.2,57.7s65.8-18.7,65.8-57.7V44.5
	L954.6,44.5 M155.3,44.5H89.2l-30.9,68.1V44.5H0v139.7h58.3v-71l32.6,71h66.7l-35.3-71.3L155.3,44.5 M844.7,101.8
	c-18.7-9.9-36.7-7.5-35.3-16.9c1.6-10.7,24.1-2.5,41.4,7.3l15.8-37.5C845.5,42.8,830.4,40,816,39.3c-18.1-0.8-36.8,6-46.9,14.8
	c-16.3,14.2-20.1,37-10.3,55.1c12.1,22.4,38.6,22.4,47.7,26.7c5.7,2.8,5.1,10-1.1,11.9c-15.2,4.7-45.4-14.4-45.4-14.4l-16.3,37.1
	c20.8,11.8,37.9,18.7,62,18.7C876.5,189.4,880.6,119.2,844.7,101.8 M767.5,0h-54.3v44.5h-91.8v52.2h33.9v87.5h58.1V55.3h54.2V0"/>
</svg>
