<?xml version="1.0" encoding="utf-8"?>
<!-- Generator: Adobe Illustrator 21.1.0, SVG Export Plug-In . SVG Version: 6.00 Build 0)  -->
<svg version="1.1" id="logo_Original" xmlns="http://www.w3.org/2000/svg" xmlns:xlink="http://www.w3.org/1999/xlink" x="0px"
	 y="0px" viewBox="0 0 447.8 71.7" style="enable-background:new 0 0 447.8 71.7;" xml:space="preserve">
<path id="path10503" d="M101.6,4.7c-1.1-2.9-3.1-4.1-6.9-4.1c-0.3,0-17.6,0-17.6,0L51.5,70.3c0,0,12.5,0,12.5,0
	c1.1,0.1,2.1-0.1,3-0.5c2.4-1.1,3.6-3.9,4-4.9c0,0,3.5-9.7,3.7-10.3c1.8,0,24.4,0,25.8,0c0.5,1.6,5.2,15.7,5.2,15.7h16.9l-10.7-33.9
	L101.6,4.7 M96.4,40.3c-2.6,0-16.4,0-17.4,0c1.9-5.1,6.5-18.1,8.5-23.3C89.3,22.2,96.4,40.1,96.4,40.3z"/>
<path id="path10505" d="M223,0.1L223,0.1L223,0.1c-20,0-34.4,15-34.4,35.6c0,20.2,14.8,35.4,34.4,35.4c19.6,0,35-15.5,35-35.4
	C258,15.7,242.6,0.1,223,0.1 M223.5,55.5c-10.2,0-18.1-8.8-18.1-20c0-11.1,7.8-19.5,18.1-19.5c10.3,0,17.7,8.2,17.7,19.5
	C241.2,46.9,233.6,55.5,223.5,55.5z"/>
<path id="path10507" d="M303.2,29.4l-0.7-0.2c0,0-6.5-2-6.5-2l-1-0.3c-5.3-1.9-9.1-3.5-9.1-6.6c0-0.1,0-0.2,0-0.2
	c0.5-5.1,10.1-5.2,10.2-5.2c5.3,0,9.3,0.8,14.4,2.9l0.1,0l0.2,0.1c1.2,0.2,2.2,0.3,3.1,0.1l1.4-0.5c2-1.1,4.1-7,4.8-9.5l0.3-0.8
	l-0.6-0.6c-0.2-0.2-1.7-1.5-7.2-3.5c-5.5-2.1-13.3-2.4-13.3-2.4l-3.9,0c-20.1,0-27.8,12.4-28.1,20.8c-0.2,8.3,4.6,12.6,11.7,16.5
	c3,1.7,8.5,3.2,12.4,4.3c0,0,4.1,1.2,4.1,1.2c7.5,2.4,10.4,5,9.8,9c-0.2,1.3-2.8,3.6-8.5,3.6c-4.4,0-8.3-0.7-12.5-2.1
	c-2-0.8-4-1.8-6.2-3.1l-0.1-0.1l-0.2-0.1c-1.2-0.4-2.3-0.6-3.2-0.6l-1.6,0.3c-2.3,0.9-5.5,6.7-6.8,9.2l-0.5,1l0.9,0.7
	c0.2,0.1,3.7,2.9,6.8,4.7c3.6,2,7.6,3.4,12.3,4.4c1.9,0.4,4.9,0.8,9.7,0.8c15.6,0,26.9-7.9,28.2-19.7
	C324.3,40.7,317.8,33.8,303.2,29.4z"/>
<path id="path10509" d="M336.5,0.7c-0.6,0-4.1,0.1-6,1.9c-0.9,0.8-1.4,1.9-1.4,3.2l0,11c0,0,18.8,0,21.3,0c0,2.6,0,53.6,0,53.6
	l17.4,0c0,0,0-51,0-53.6c2.3,0,13.7,0,13.7,0c0.6,0,4-0.1,6-1.9c0.9-0.8,1.4-1.9,1.4-3.2v-11H336.5L336.5,0.7z"/>
<path id="path10511" d="M37.5,54.6c0,0-14.6,0-19.6,0c0-2.6-0.1-47.5-0.1-47.5c0-2-0.6-3.5-1.8-4.6c-1.9-1.8-4.7-1.8-5.8-1.7L0,0.7
	l0,69.7h43.6l0-11.1C43.7,57.8,43.1,54.6,37.5,54.6z"/>
<path id="path10513" d="M162.2,15.5c4.2-0.3,7.8,0,11.1,0.9c1.8,0.6,3.4,0.7,4.8,0.3c0,0,1.4-0.6,1.4-0.6c2-1.2,3.3-7.3,4-10.9
	l0.2-0.8L183,3.9c-0.2-0.1-0.7-0.5-7.1-2.2C170.2,0.2,165.1,0,162.6,0l-0.3,0c-14.4,0-36.2,9.5-36.8,35.8v0.2
	c0.6,26.3,22.4,35.8,36.8,35.8l0.3,0c2.5,0,7.6-0.2,13.4-1.7c6.3-1.7,6.9-2.1,7.1-2.2l0.7-0.5l-0.2-0.8c-0.7-3.5-2.1-9.7-4-10.9v0
	l0,0l0,0l-1.4-0.6c-1.4-0.4-3-0.3-4.8,0.4c-3.3,0.9-6.9,1.2-11.2,0.9c-10.9-1.1-17.5-8.5-18-20.4C144.7,24,151.2,16.6,162.2,15.5z"
	/>
<path id="path10515" d="M440.6,70.3c2.7-0.1,7.3-1.6,7.3-7l-0.1-8.7l-30.7,0c0,0,0.1-10,0.1-11.7c2.5,0,25.4,0,25.4,0l0-16.1
	c0,0-22.8,0-25.3,0c0-1.9,0-8.1,0-10c2.5,0,23.3,0,23.3,0c0.6,0,4.1,0,6-1.9c1.3-1.3,1.4-3.7,1.4-5V0.7h-48.3l0,69.6L440.6,70.3z"/>
</svg>
