<?xml version="1.0" encoding="utf-8"?>
<!-- Generator: Adobe Illustrator 21.1.0, SVG Export Plug-In . SVG Version: 6.00 Build 0)  -->
<svg version="1.1"
	 id="Calque_1" inkscape:version="0.44.1" sodipodi:docbase="C:\Documents and Settings\Sigurd\Mine dokumenter\Mine bilder" sodipodi:docname="Lacoste logo.svg" sodipodi:version="0.32" xmlns:cc="http://web.resource.org/cc/" xmlns:dc="http://purl.org/dc/elements/1.1/" xmlns:inkscape="http://www.inkscape.org/namespaces/inkscape" xmlns:rdf="http://www.w3.org/1999/02/22-rdf-syntax-ns#" xmlns:sodipodi="http://sodipodi.sourceforge.net/DTD/sodipodi-0.dtd" xmlns:svg="http://www.w3.org/2000/svg"
	 xmlns="http://www.w3.org/2000/svg" xmlns:xlink="http://www.w3.org/1999/xlink" x="0px" y="0px" viewBox="0 0 150 86.2"
	 style="enable-background:new 0 0 150 86.2;" xml:space="preserve">
<sodipodi:namedview  bordercolor="#666666" borderopacity="1.0" gridtolerance="10.0" guidetolerance="10.0" id="base" inkscape:current-layer="g10495" inkscape:cx="149.69901" inkscape:cy="71.963997" inkscape:pageopacity="0.0" inkscape:pageshadow="2" inkscape:window-height="721" inkscape:window-width="1024" inkscape:window-x="-4" inkscape:window-y="-4" inkscape:zoom="2.5684873" objecttolerance="10.0" pagecolor="#ffffff">
	</sodipodi:namedview>
<g id="g10497" transform="matrix(0.986996,0,0,0.986996,1.946671,0.935817)">
	<path id="path10499" d="M149.8,61.7c-0.6-0.8-1.6-1.1-2.2-1.4c-0.7-0.3-0.6-0.9-1.1-1.1c-0.6-0.2-1.5,1-2.3,0.7
		c-0.8-0.2-0.7-1.7-1.3-1.9s-1.8,0.9-2.4,0.7c-0.6-0.2-0.7-1.7-1.3-1.9s-1.8,0.9-2.4,0.7c-0.6-0.2-0.6-1.7-1.3-1.9s-1.8,0.9-2.4,0.7
		c-0.6-0.2-0.6-1.6-1.3-1.8c-0.6-0.2-1.8,0.9-2.4,0.7c-0.6-0.2-0.8-1.7-1.3-1.9c-0.6-0.2-1.7,0.7-2.5,0.7c-6.2-0.6-8.5-4.5-8.9-3.3
		c-0.4,1.1,1.3,3.9,3.4,4.8c1.7,0.7,20.1,5.8,20.6,6.1c0.5,0.2,1.6,0.7,1.2,1.4c-0.6,0.9-2.4,0-2.9-0.4s-0.4-0.5-0.8-0.6
		c-1-0.2-1.5,1.6-2.6,1.3c-0.9-0.2-0.9-2.1-1.8-2.3c-1.1-0.3-1.5,1.5-2.6,1.3c-0.8-0.2-1-2.1-1.9-2.3c-1-0.2-1.5,1.6-2.6,1.3
		c-0.9-0.2-0.9-2.1-1.8-2.3c-1-0.2-1.6,1.5-2.6,1.3c-0.9-0.2-1.1-2.1-1.9-2.3c-0.8-0.2-1.5,0.8-2.6,0.9c0,0-3.2,0.9-8.3-4.4
		s-7.2-6.3-10.1-4.2c-4.7,3.5-7.7,1.2-8.5,0.1c-1-1.2,0-2.3,0-2.3s1.5,2.3,3.4,2.4c3,0.1,5.3-4.1,10.6-4.1c6.6-0.2,8.3,2.1,10.2,2.3
		c1.7,0.2,2.2-0.1,3.4-0.8l0,0c0.9-0.3,1.8,1.5,2.7,1.1c1-0.4,0.3-2.2,1.4-2.6c1-0.4,1.7,1.5,2.7,1.1c1.1-0.4,0.4-2.3,1.4-2.6
		c1-0.4,1.6,1.5,2.7,1.1c1.1-0.4,0.4-2.2,1.4-2.6c1-0.4,1.8,1.5,2.8,1.1c0.9-0.3,0.4-2.3,1.4-2.6c1-0.4,1.7,1.5,2.8,1.1
		c0.9-0.3,0.4-2.3,1.3-2.6c0.9-0.3,1.8,1.5,2.8,1.1c0.9-0.3,0.4-2.3,1.3-2.6c1-0.4,1.8,1.4,2.8,1.1c1-0.3,0.2-1.9,1.5-2.5
		c0,0,1.7-0.6,1.6-1.8c0-0.2-0.4-2.9-3.2-3.5c-2.7-0.5-24.3,5.4-24.6,5.1c-2-3.9-4.5-2.8-4.9-2.8c-0.4,0.1-2.8,1.1-5.5,0.1
		c-5.2-2.4-9.4,3.7-12.3,2.9c-2.6-0.7-4.7-0.3-5.8,0.1c-1,0.4-2.7,1.7-6.2,0.5c-27-9.2-48.1-1.2-48.1-1.2c-11.9,4-13.4,0-13.4,0
		s-3.8-5.8,23.8-12.2C88.5,15.6,89.7,0.5,89.2-0.4c-0.7-1.4-0.9,0.2-2.2,1.7c-1.1,1.2-2.4,0.6-2.4,0.6c-1.2-0.6-2,0.8-2,0.8
		s-1.6,2.5-3,1.1s-3.2,1.7-3.8,1.8c-0.8,0.1-1.2-0.3-2.3-0.8c-1.6-0.7-3.4,2.2-4.3,2.5c-1.4,0.3-2.3-1.6-3.5-0.8
		c-3.5,2.4-4.1,2.8-5,1.8c-0.7-0.7-0.8-1.5-3.2,0.8c-2,1.9-3,2.3-3.8,1.1s-0.6-2.9-4.1,0.4c-1.6,1.6-2.5,1.6-3.4,0.9
		c-0.7-0.5-0.7-3.1-3.2-0.8c-2.2,2.1-3.9,3-4.5,1.1c-0.7-2.1-3.3,0.4-3.9,1s-2,2.1-2.9,0.5s-3.2,0.8-4.6,2.3c-1,1.2-1.9,0.3-3-0.5
		c-1.2-0.9-5,4.4-5.3,4.7c-0.3,0.3-0.6,0-1.5-0.7c-1.3-1.1-4.9,5.1-5.4,5.5c0,0-0.2,0.5-1.2-0.4C9.3,22.9,2,32.5-0.8,43.4
		c-3.5,14,2.1,24.7,2.1,24.7S3,68.2,3.7,67l1.1-2.5c0.9-2.1,2.3-1.4,2.3-1.4L3.7,73.4c-0.5,1.4-0.2,3.3,1,5.1c1.1,1.8,1.9,3,2.8,3.9
		c2.8,2.6,2.5-0.5,2.6-0.9c0.3-1.7,2.2-0.4,3.6,0.4c2.6,1.5,2.3-1.8,2.9-2.9c0.4-0.8,1.7-0.8,3.1,0.4c1.1,0.9,2.2-2.2,2.2-2.2
		c1.4-6.6-1.8-7.4-3.6-7.5l-3.5-0.2c0,0,0.2-1,0.6-1.9l0.2-0.7c3.8-9.5-2.6-11.4-4.5-11.2c-2.1,0.2-2-1.2-2-1.2s11.6-2.3,9.4,10
		c0,0-0.4,2.1-0.7,3.3l3.2,0.4c2.7,0.3,3.2,3.6,3.2,3.6s10.1,2.7,15.8,1.6c0,0,2.6-0.6,3.3-2.2c0,0,3.7-8.7,14.5-9.1
		c0,0,0.4,1.1-1.3,1.7c-2.1,0.7-9,1.2-10.4,9.2l0,0c-0.2,1.3,0.2,4.1,3,5.3c2.4,1.1,3.2,5.5,3.7,6.6c1.4,3.4,3.5,0.1,3.5,0.1
		s1.3-2.7,2.5-1.2c1.9,2.5,2.8,1.3,3.3-0.4c0.5-1.7,1.2-2.5,3.2-0.4c0.9,0.9,2.5,0.2,2.7-1.4c0.4-3.5,2.7-0.7,3-0.6
		c0.4,0.2,2.8-0.4,1.5-4.3c0,0-1.8-3.7-10.2-5.3c-2-0.4-1.6-1.8-1.6-1.8l1.8,0.3c0.5,0.1,5.4,0.6,5.9,0.7c20.3,2,35.8-4.9,36.2-5.4
		c15.8,3,37.3,2,41.3,0.5C150,64.7,150.3,62.3,149.8,61.7z M117.2,36.5c0.3-0.5,0.6-0.8,0.9-1c1.2-0.7,2,1.5,1.9,1.6l0,0l0,0
		c-0.2,0.1-2.6,0.8-2.8,0.6C116.7,37.4,117.2,36.5,117.2,36.5z M108.2,37.1c0,0,0.3-0.4,0.9-0.6c0.6-0.2,1.5-0.2,2.6,0.5
		c1.3,0.9,1.3,1.5,1.3,1.5s-0.1,0-0.2,0.1c-1,0.4-5,0.9-5,0.9C107.2,38.1,108.2,37.1,108.2,37.1z M33.8,17.8c0.7,0.5,0,3.5-0.5,3.1
		l-3.4-1.8C29.9,19.1,33.1,17.3,33.8,17.8z M28.2,19.7c0.7,0.5,0,3.5-0.4,3l-3.4-1.8C24.3,20.9,27.5,19.2,28.2,19.7z M26.2,25.5
		c0.7,0.5,0,3.5-0.4,3.1l-3.4-1.8C22.4,26.8,25.6,25,26.2,25.5z M23,33.4l-3.4-1.8c0,0,3.2-1.7,3.9-1.2C24.1,30.8,23.4,33.8,23,33.4
		z M22.3,39.3l-3.4-1.8c0,0,3.2-1.7,3.9-1.2C23.4,36.7,22.8,39.7,22.3,39.3z M22.2,21.8c0.7,0.5,0,3.5-0.4,3.1l-3.4-1.8
		C18.4,23,21.6,21.3,22.2,21.8z M19.3,26.3c0.7,0.5,0,3.5-0.4,3.1l-3.4-1.8C15.4,27.6,18.6,25.8,19.3,26.3z M13.1,33.5
		c0,0,3.2-1.7,3.9-1.2c0.7,0.5,0,3.5-0.4,3.1L13.1,33.5z M15.7,40.9l-3.4-1.8c0,0,3.2-1.7,3.9-1.2C16.9,38.4,16.2,41.3,15.7,40.9z
		 M13.3,28.4c0.7,0.5,0,3.5-0.4,3l-3.4-1.8C9.4,29.6,12.6,27.9,13.3,28.4z M10.2,34.4c0.7,0.5,0,3.5-0.4,3.1l-3.5-1.9
		C6.3,35.6,9.5,33.9,10.2,34.4z M5.7,41.5c0,0,3.2-1.7,3.9-1.2c0.7,0.5,0,3.5-0.4,3.1L5.7,41.5z M11.8,48.3l-3.4-1.8
		c0,0,3.2-1.7,3.9-1.2C12.9,45.7,12.3,48.7,11.8,48.3z M16.8,52.2l-3.5-1.8c0,0,3.2-1.7,3.9-1.2C17.9,49.7,17.2,52.7,16.8,52.2z
		 M18.3,46l-3.4-1.8c0,0,3.2-1.7,3.9-1.2C19.4,43.5,18.8,46.4,18.3,46z M22.9,54.9l-3.5-1.8c0,0,3.2-1.7,3.9-1.2
		C24,52.4,23.4,55.4,22.9,54.9z M24.5,49.2l-3.4-1.8c0,0,3.2-1.7,3.9-1.2C25.6,46.7,25,49.6,24.5,49.2z M25.7,43.8L22.3,42
		c0,0,3.2-1.7,3.9-1.2C26.8,41.2,26.1,44.2,25.7,43.8z M30.5,54.2l-3.4-1.8c0,0,3.2-1.7,3.9-1.2C31.6,51.7,31,54.7,30.5,54.2z
		 M32,48.5l-3.4-1.8c0,0,3.2-1.7,3.9-1.2C33.1,46,32.5,49,32,48.5z M33.2,42.5l-3.4-1.8c0,0,3.2-1.7,3.9-1.2
		C34.4,39.9,33.7,42.9,33.2,42.5z M38.1,53.2l-3.4-1.8c0,0,3.2-1.7,3.9-1.2C39.2,50.6,38.5,53.6,38.1,53.2z M39.2,47.1l-3.4-1.8
		c0,0,3.2-1.7,3.9-1.2C40.3,44.5,39.7,47.5,39.2,47.1z M40.4,40.8L37,39c0,0,3.2-1.7,3.9-1.2C41.5,38.2,40.9,41.2,40.4,40.8z
		 M45.6,50.8L42.2,49c0,0,3.2-1.7,3.9-1.2C46.7,48.2,46.1,51.2,45.6,50.8z M46.5,44.7l-3.4-1.8c0,0,3.2-1.7,3.9-1.2
		S47,45.2,46.5,44.7z M47.7,38.8L44.3,37c0,0,3.2-1.7,3.9-1.2C48.8,36.3,48.2,39.3,47.7,38.8z M53,49.5l-3.4-1.8
		c0,0,3.2-1.7,3.9-1.2C54.1,46.9,53.5,49.9,53,49.5z M53.9,43.9l-3.4-1.8c0,0,3.2-1.7,3.9-1.2C55.1,41.3,54.4,44.3,53.9,43.9z
		 M55.1,37.8L51.7,36c0,0,3.2-1.7,3.9-1.2C56.2,35.3,55.6,38.3,55.1,37.8z M59.8,49.6l-3.4-1.8c0,0,3.2-1.7,3.9-1.2
		C61,47,60.3,50,59.8,49.6z M61,43.5l-3.4-1.8c0,0,3.2-1.7,3.9-1.2C62.1,41,61.4,44,61,43.5z M62.3,37.5l-3.4-1.8
		c0,0,3.2-1.7,3.9-1.2C63.4,35,62.7,38,62.3,37.5z M67,49.6l-3.4-1.8c0,0,3.2-1.7,3.9-1.2C68.1,47,67.5,50,67,49.6z M68.1,43.9
		l-3.4-1.8c0,0,3.2-1.7,3.9-1.2C69.2,41.3,68.6,44.3,68.1,43.9z M69.4,38L66,36.2c0,0,3.2-1.7,3.9-1.2C70.5,35.5,69.9,38.5,69.4,38z
		 M73.7,50.4l-3.4-1.8c0,0,3.2-1.7,3.9-1.2C74.9,47.9,74.2,50.9,73.7,50.4z M75,44.9l-3.4-1.8c0,0,3.2-1.7,3.9-1.2
		C76.1,42.4,75.4,45.4,75,44.9z M76.3,39.3l-3.4-1.8c0,0,3.2-1.7,3.9-1.2C77.4,36.7,76.7,39.7,76.3,39.3z M81.6,46.1l-3.4-1.8
		c0,0,3.2-1.7,3.9-1.2S82.1,46.5,81.6,46.1z"/>
</g>
</svg>
