<?xml version="1.0" encoding="utf-8"?>
<!-- Generator: Adobe Illustrator 21.1.0, SVG Export Plug-In . SVG Version: 6.00 Build 0)  -->
<svg version="1.1" id="Layer_1" xmlns="http://www.w3.org/2000/svg" xmlns:xlink="http://www.w3.org/1999/xlink" x="0px" y="0px"
	 viewBox="0 0 299.1 373.9" style="enable-background:new 0 0 299.1 373.9;" xml:space="preserve">
<path d="M293.8,373c-96.7,1.3-192.3,1.2-287.4-0.1c-3.5,0-6.4-3-6.4-6.5v-0.1c0.1-26.2,0.3-52.3,0.3-78.5c0-48.1-0.2-96.3-0.2-144.4
	c0-11.7,0.3-23.3,2.6-34.8c2.2-11.2,5.5-22,10.2-32.3c6.2-13.6,14-26.1,24.5-36.8C50.2,26.3,65.7,17,82.9,10.4
	c23.8-9.2,48.3-11.9,73.6-9.6c20.2,1.9,39.2,7.6,56.9,17.5c25.8,14.4,44.6,35.1,54.8,63c3.4,9.4,5.5,19.1,6.2,29.2
	c0.7,10,0.3,20-1.5,29.8c-2.4,13.5-7,26.2-14.3,38.1c-11.5,18.9-27.6,32.4-47.7,41c-16.5,7-33.8,9.3-51.8,7.1
	c-23.6-2.9-43.9-12.3-60.7-28.8c-14-13.8-21.2-31.1-23.4-50.7c-1-8.7-0.5-17.3,0.3-25.9c0.9-8.9,4.3-17.1,8.8-24.8
	c12.3-21.4,30.7-34.8,54.9-39.6c25-5,47.2,1.4,65.7,18.9c11.3,10.7,18,25.4,18.1,41c0.2,18.1-5.6,34-19.8,45.9
	c-6.9,5.8-14.9,9.4-23.9,10.4c-13.7,1.5-26.6-0.3-38-8.6c-16.1-11.7-17.8-38-3.2-51.6c7.7-7.1,15.4-8.3,25.4-7.3
	c0.2,0,4.7-0.2,4.7,4.3v13.5c0,2.5-1.8,4.7-4.3,5c-0.1,0-0.2,0-0.3,0c-3.6,0.2-6.8,1.6-7.8,5.1c-1.1,3.7-1.1,7.6,1.8,10.8
	c5.3,5.7,12,6.1,18.9,4.4c10.4-2.6,18.6-13.4,19.7-25.2c1.6-18.2-7.7-31.9-24.9-38.1c-18.8-6.7-42.1-0.8-55.7,16.4
	c-6.2,7.8-9.9,16.9-11.2,26.9c-4.1,32.9,16.5,58.9,46.1,66.7c32.5,8.7,61-2.6,80-28.1c7.7-10.3,11.7-22.4,13.5-35.1
	c4.4-31-5.5-56.7-29.3-77.1c-12.9-11.1-28.2-16.8-44.8-19.5c-30.6-5-58.1,2.2-82.4,21.6c-21.8,17.7-33.2,40.6-34.1,68.8
	c-0.4,14.2,0.5,28.3,1.6,42.4c0.9,11.3,1.9,22.6,2.5,33.9c0.6,12.8,1.6,25.6,2.4,38.4c0.4,6.8,0.5,13.7-0.8,20.4
	c-1.4,6.9-5.1,12.6-10,17.5c-8.1,8.1-16.2,16.2-24.3,24.4c-1.6,1.6-3.7,5.8-3.7,5.8s4.6,0,6.9,0c44.5,0.2,89-0.1,133.5,0
	c17.9,0.1,107.8,0,131.9,0c3.3,0,5.9,2.6,5.9,5.9c0,11.4,0.1,36.7,0,53.3C299.1,370.6,296.7,373,293.8,373z"/>
</svg>
