<?xml version="1.0" encoding="utf-8"?>
<!-- Generator: Adobe Illustrator 21.1.0, SVG Export Plug-In . SVG Version: 6.00 Build 0)  -->
<svg version="1.1" id="Layer_1" xmlns="http://www.w3.org/2000/svg" xmlns:xlink="http://www.w3.org/1999/xlink" x="0px" y="0px"
	 viewBox="0 0 1430.5 607.9" style="enable-background:new 0 0 1430.5 607.9;" xml:space="preserve">
<g>
	<path d="M465.5,199.4h-9.5c-30.2,0.2-31.4,22.7-33.2,44.3l38.1,0l39.8,0C498.3,222.4,497.1,199.4,465.5,199.4z"/>
	<polygon points="715.2,607.9 715.2,607.9 715.2,607.9 	"/>
	<path d="M0,0l128.2,606.1c0,0,123-71,280.6-71c197.4,0,306.5,72.7,306.5,72.7c0,0,109.1-72.7,306.5-72.7c157.6,0,280.6,71,280.6,71
		L1430.5,0H0z M338.6,370.6L338.6,370.6l-155.7,0V156.3h77.3V316h78.4V370.6z M575.7,268.3c-0.3,5-0.5,11.2-0.9,16.3l-114.2,0v0
		h-38.2c1.4,24.2,3.1,48,34.1,48h11.8c25,0,28-12.1,32.5-28.3l71.1,0c-2.9,46.3-27.8,71.6-116.8,71.8c0.2,0,0.3,0,0.5,0h-1.5
		c0.3,0,0.7,0,1,0c-107.2-0.2-110-60.7-110-107.8v-8.7c1.7-41,1.1-103,109.9-103.8c-0.3,0-0.6,0-0.9,0h1.5c-0.2,0-0.4,0-0.6,0
		c116.9,0.3,119.7,61.8,120.8,103.8V268.3z M760.3,371.6L760.3,371.6l-87.3,0l-95.2-215.3h88.5l51.5,136.5l47-136.5h85.1
		L760.3,371.6z M951.9,371.6h-82.9V155.3h82.9V371.6z M995.9,190.4L995.9,190.4l5.5-9.8c-16.3-1.6-31.3-12.8-31.3-28.3
		c0-16.6,14.5-30,32.5-30s32.5,13.4,32.5,30C1035.1,172.5,1019.4,189.2,995.9,190.4z M1162,373.2l-7.4,0.2
		c-115.5,3.9-124.5-51.9-125.6-73.4l82.8-0.3c1.2,10.1,4.2,33.1,39.8,31.7l2.3-0.1c33.3-1.5,33.3-21.1,33.1-25.6l-0.1-2
		c-3.1-18.2-30.8-20.7-49.7-20.7l-3.3-0.5c-50.6-3.5-97.6-4.6-105.5-56.8v-5.7c0-12.7,2.2-68.9,110.5-69.4h7.4
		c107.7,0,115,50.5,115,69.4l-81.1-0.1h0c-1.4-10.1-6.8-29.9-37.7-29.4l-2.3,0.1c-33.3,2.1-30.9,21.3-30.6,25.7l0.1,2
		c3.5,18.1,26.7,19.6,45.6,19.1l3.5,0.5c39.8,5.1,100.5,4.3,110.5,56.2l0.2,5.7C1270.1,312.7,1270.1,369,1162,373.2z"/>
</g>
</svg>
