<?xml version="1.0" encoding="utf-8"?>
<!-- Generator: Adobe Illustrator 21.1.0, SVG Export Plug-In . SVG Version: 6.00 Build 0)  -->
<svg version="1.1"
	 id="svg2" inkscape:output_extension="org.inkscape.output.svg.inkscape" inkscape:version="0.46" sodipodi:docname="1000px-Louis_Vuitton_Logo.svg" sodipodi:version="0.32" xmlns:cc="http://creativecommons.org/ns#" xmlns:dc="http://purl.org/dc/elements/1.1/" xmlns:inkscape="http://www.inkscape.org/namespaces/inkscape" xmlns:rdf="http://www.w3.org/1999/02/22-rdf-syntax-ns#" xmlns:sodipodi="http://sodipodi.sourceforge.net/DTD/sodipodi-0.dtd" xmlns:svg="http://www.w3.org/2000/svg"
	 xmlns="http://www.w3.org/2000/svg" xmlns:xlink="http://www.w3.org/1999/xlink" x="0px" y="0px" viewBox="0 0 241.1 235.1"
	 style="enable-background:new 0 0 241.1 235.1;" xml:space="preserve">
<defs>
	
	
		<inkscape:perspective  id="perspective34" inkscape:persp3d-origin="509.375 : 408.33333 : 1" inkscape:vp_x="0 : 612.5 : 1" inkscape:vp_y="0 : 1000 : 0" inkscape:vp_z="1018.75 : 612.5 : 1" sodipodi:type="inkscape:persp3d">
		</inkscape:perspective>
</defs>
<sodipodi:namedview  bordercolor="#666666" borderopacity="1.0" gridtolerance="10.0" guidetolerance="10.0" id="base" inkscape:current-layer="svg2" inkscape:cx="509.375" inkscape:cy="612.5" inkscape:pageopacity="0.0" inkscape:pageshadow="2" inkscape:window-height="669" inkscape:window-width="640" inkscape:window-x="92" inkscape:window-y="92" inkscape:zoom="0.37714286" objecttolerance="10.0" pagecolor="#ffffff" showgrid="false">
	</sodipodi:namedview>
<path id="path5" d="M178,0c20.7,0,41.4,0,62.1,0c0,4.7,0,9.3,0,14c-5.3,0.2-10.6,0.8-15.5,3c-4.9,2.2-9,6.2-11.1,11.2
	c-25.2,59.2-50.3,118.3-75.4,177.5c-0.4,1-0.8,2-1.3,2.9c-9-0.1-18,0-27,0c-4-7.9-7.9-15.8-11.9-23.7c-4.6,12.3-9.2,24.6-13.8,36.9
	c29.7,0,59.4,0,89.1,0c5.4,0.1,11-0.2,16.1-2.3c8.5-3.4,15.2-10,20.7-17.1c6.6-8.6,11.6-18.3,16.1-28.2c5,0,10,0,15,0
	c-9.5,20.3-19.1,40.6-28.6,60.8c-68.4,0-136.8,0-205.3,0c1.7-4.3,3.3-8.7,5-13c0.1-0.4,0.7-0.3,1-0.4c8.5-0.1,17.1-0.4,25.5-2.2
	c4.4-1,8.9-2.4,12.2-5.5c1.8-1.7,2.3-4.2,2.9-6.4c8.1-21.6,16.2-43.2,24.3-64.9C61,106.2,43.9,69.8,26.8,33.4
	c-1.4-3.2-3.2-6.3-6.1-8.4C14.8,20.6,7.1,20,0,19.7C0,14.5,0,9.3,0,4.1c24,0,48,0,72.1,0c0,5.2,0,10.4,0,15.7
	c-3.1,0.2-6.5,0.1-9.3,1.7c-1.4,0.7-2.2,2.3-1.9,3.9c0.4,2.5,2.4,4.3,3.4,6.5c10.1,21.9,20.3,43.7,30.5,65.5
	c5.1-14.3,10.2-28.5,15.3-42.8c0.8-2,1-4.3,0.2-6.3c-0.7-1.6-2.2-2.5-3.7-3.2c-2.9-1.2-6.1-1.2-9.2-1.4c1.6-4.4,3.2-8.8,4.8-13.2
	c0.4-0.2,0.9-0.1,1.3-0.1c24.4,0,48.8,0,73.1,0c-1.7,4.4-3.4,8.8-5,13.3c-5.9,0.3-11.9,0.4-17.4,2.7c-2.5,1.1-4.9,2.7-6.4,5
	c-1,1.7-1.7,3.6-2.4,5.5c-10.2,27.8-20.5,55.5-30.5,83.3c5.6,12.6,11.4,25.1,17.1,37.7c20.7-48.8,41.3-97.6,62-146.4
	c1.4-2.9,3.7-5.6,3.8-9c0.2-2.6-1.8-4.9-4.1-6c-4.9-2.3-10.4-2.4-15.7-2.6C178,9.3,178,4.7,178,0z"/>
</svg>
