<?xml version="1.0" encoding="utf-8"?>
<!-- Generator: Adobe Illustrator 21.1.0, SVG Export Plug-In . SVG Version: 6.00 Build 0)  -->
<svg version="1.1"
	 id="svg2033" xmlns:cc="http://creativecommons.org/ns#" xmlns:dc="http://purl.org/dc/elements/1.1/" xmlns:rdf="http://www.w3.org/1999/02/22-rdf-syntax-ns#" xmlns:svg="http://www.w3.org/2000/svg"
	 xmlns="http://www.w3.org/2000/svg" xmlns:xlink="http://www.w3.org/1999/xlink" x="0px" y="0px" viewBox="0 0 91.8 91.8"
	 style="enable-background:new 0 0 91.8 91.8;" xml:space="preserve">
<path id="path2874" d="M91.8,46c0,25.4-20.5,45.8-46,45.8C20.5,91.8,0,71.3,0,46.1C0,20.3,20.5,0,46.6,0C71.4,0,91.8,20.8,91.8,46
	 M4.8,46c0,22.7,18.4,41,41,41c22.8,0,41.2-18.3,41.2-41C87,23,68.8,4.8,45.5,4.8C23.2,4.8,4.8,23.4,4.8,46z M35.8,44.2l-0.6,1.1
	c-2.1-0.5-6-1.9-10-3.8l-0.6,1l1.7,0.9c5.9,3,7.8,3.7,11.2,3.7c6.8,0,11.9-3.9,14.3-10.6c4.2-0.8,9.6-1.2,16.1-1.2
	c5.5,0,10.3,0.3,16.4,1l-1.6,1.9c-2.8-0.4-8.1-0.7-11.9-0.7c-4.5,0-7.3,0.1-8.8,0.2l-0.7,1.7c3.8-0.2,5.1-0.2,8.1-0.2
	c5,0,8.9,0.2,12.1,0.5l-1.6,2c-5.8-0.2-8.4-0.3-12.8-0.3c-2.4,0-4.1,0.1-7,0.2l-0.7,1.7c2.5-0.2,5.9-0.3,9.5-0.3
	c3.4,0,7.4,0.1,9.8,0.2l-1.6,2C75.7,45,72.4,45,69.9,45c-3.9,0-8.9,0.2-11.5,0.6L57.7,47c4.7-0.5,7.6-0.6,12.8-0.6
	c2,0,3.3,0,5.6,0.2l-1.8,2.1c-3.1-0.2-4.1-0.2-5.3-0.2c-8.7,0-14.4,1.3-20.1,4.5c5.2,5.2,14,8.8,21.8,8.8c0.6,0,1,0,2.7-0.1
	l-3.8,3.8c-20.7-5.4-24.4-6.9-43.4-18.2C18.6,43,12.5,40,7.5,38.6l0.6-2.3c1.2,0.2,3.8,0.9,6.2,1.7l1.1-2.5L35.8,44.2L35.8,44.2z"/>
</svg>
