<?xml version="1.0" encoding="utf-8"?>
<!-- Generator: Adobe Illustrator 21.1.0, SVG Export Plug-In . SVG Version: 6.00 Build 0)  -->
<svg version="1.1" id="Layer_1" xmlns="http://www.w3.org/2000/svg" xmlns:xlink="http://www.w3.org/1999/xlink" x="0px" y="0px"
	 viewBox="0 0 453.5 93.6" style="enable-background:new 0 0 453.5 93.6;" xml:space="preserve">
<g>
	<path d="M229.7,5.6c6.4,0,12.9,0,19.3,0c-0.1,1.2,0,2.4-0.4,3.5c-4.8,13.8-9.6,27.5-14.4,41.2c-0.1,0.4-0.2,0.7-0.3,1.1
		c0.1,0.1,0.2,0.1,0.2,0.2c0.3-0.2,0.7-0.3,0.9-0.5c7.2-7.1,14.3-14.3,21.4-21.5c0.5-0.5,1.1-0.8,1.8-0.8c7.3,0,14.5,0,21.8,0
		c0.4,0,0.7,0.1,1.4,0.1c-0.5,0.5-0.7,0.8-0.9,1c-9.5,9.2-18.9,18.4-28.4,27.6c-0.5,0.4-0.6,0.8-0.4,1.4c1.4,4.9,2.7,9.8,4.1,14.6
		c0.5,1.7,0.5,1.7,2.3,1.7c0.3,0,0.7,0,1,0c4.4,0,8.8-0.1,13.2-0.1c2.8,0,2.9,0,3.8-2.6c1.3-3.5,2.5-7,3.7-10.4
		c3.8-10.7,7.6-21.4,11.4-32.1c0.3-0.9,0.8-1.3,1.8-1.3c5.8,0.1,11.6,0,17.5,0c0.4,0,0.8,0,1.3,0c-0.2,0.8-0.4,1.4-0.6,2.1
		C306.1,45.2,301,59.5,296,73.9c-0.4,1.2-0.3,1.4,1,1.4c7.2,0,14.4,0,21.6,0c1,0,1.5-0.3,1.8-1.3c2.4-6.9,4.8-13.8,7.3-20.7
		c1-2.9,2-5.8,3.1-8.8c-4.5-0.8-9-0.2-13.4-0.5c0-0.3,0-0.4,0.1-0.6c1.6-4.6,3.2-9.3,4.9-13.9c0.1-0.3,0.8-0.7,1.2-0.7
		c3.8-0.1,7.6-0.3,11.3-0.3c1.3,0,1.9-0.5,2.3-1.7c1.2-3.4,2.4-6.8,3.6-10.1c1.4-3.8,2.7-7.6,4.1-11.4c6.5,0,13,0,19.6,0
		c-0.1,0.8,0,1.6-0.3,2.3c-2.3,6.4-4.7,12.9-7,19.3c-0.1,0.4-0.2,0.8-0.4,1.5c4.4,0,8.6,0,13.2,0c-0.6,1.6-1,2.8-1.5,4.1
		c-1.2,3.5-2.4,6.9-3.6,10.4c-0.3,0.8-0.6,1.2-1.5,1.1c-3.4-0.1-6.7,0.1-10.1-0.1c-1.4-0.1-2.1,0.6-2.6,1.7
		c-0.2,0.4-0.3,0.8-0.4,1.3c-0.6,1.9-1.2,3.7-1.8,5.6c-2.5,6.9-5,13.8-7.5,20.6c-0.2,0.5-0.3,1-0.4,1.7c1,0.1,1.8,0.2,2.6,0.2
		c6.2,0,12.3,0,18.5,0c2.3,0,2.3,0,3.1-2.1c3.2-8.8,6.4-17.6,9.6-26.4c1.2-3.2,2.1-6.6,4.1-9.4c3-4,6.5-7.3,11.7-8
		c2.9-0.4,5.8-0.3,8.8-0.3c12.2,0,24.4,0,36.6-0.1c0.4,0,0.8,0,1.4,0.1c-5.1,15.5-11,30.6-16.2,46.1c11.2,0.1,22.1,0.3,32.9,0.4
		c0.1,0.2,0.1,0.3,0.1,0.3c0,5.4,0,10.8,0,16.2c0,0.8-0.5,0.8-1.1,0.8c-5.2,0-10.4-0.1-15.7-0.1c-8.6-0.1-17.3-0.2-25.9-0.2
		c-4.8,0-8.1-2.4-10.5-6.3c-0.4-0.6-0.5-1.3-0.7-2c-0.3-1-0.7-2-1-3.1c-0.5,0.4-0.8,0.7-1.1,1c-3.4,3.3-6.7,6.6-10.1,9.8
		c-0.4,0.4-1,0.8-1.5,0.8c-3.4,0.1-6.8,0.2-10.2,0c-5.3-0.3-10.2-2.3-12.1-9.3c-0.2-0.8-0.5-1.5-0.8-2.5c-1.3,1.3-2.5,2.4-3.7,3.5
		c-2.5,2.6-5,5.2-7.5,7.7c-0.3,0.3-0.9,0.6-1.3,0.6c-1.1,0.1-2.2,0.1-3.3,0.1c-5.4-0.1-10.7-0.2-16.1-0.2c-2.7,0-4.9-0.9-6.9-2.5
		c-2.5-1.9-3.9-4.5-4.6-7.5c-0.4-1.8-0.7-1.8-2-0.6c-3.4,3.3-6.8,6.7-10.2,10.1c-0.3,0.3-0.6,0.6-1,0.7c-1,0.2-2,0.5-3,0.4
		c-6.2-0.3-12.4,0.6-18.6-0.6c-4.2-0.8-8.8-4.7-9.5-8.5c-0.2-1-0.5-1.9-0.9-3.1c-0.6,0.6-1,0.9-1.4,1.3c-3.1,3.1-6.2,6-9.2,9.2
		c-1.2,1.3-2.7,1.6-4.2,1.7c-5.7,0.2-11.5,0.1-17.2,0.1c-0.6,0-1-0.3-1.1-0.8c-0.4-1.5-0.9-3-1.3-4.5c-2.4-8.7-4.8-17.4-7.2-26.1
		c-0.3-1-0.7-2-1.1-3.3c-0.3,0.7-0.5,1.1-0.7,1.5c-3.8,10.7-7.7,21.4-11.5,32.1c-0.3,0.8-0.6,1.1-1.4,1.1c-5.8,0-11.6,0-17.5,0
		c-0.4,0-0.7,0-1.3-0.1c0.1-0.8,0.1-1.5,0.4-2.2c0.8-2.5,1.7-5,2.6-7.4c0.1-0.4,0.1-0.8,0.2-1.4c-0.5,0.4-0.7,0.5-0.9,0.7
		c-3.2,3.3-6.4,6.5-9.6,9.8c-0.3,0.3-0.7,0.7-1,0.7c-4.9-0.3-9.7,0.5-14.6-0.5c-5.8-1.2-9.3-5-10.1-10.7c0-0.2-0.1-0.5-0.2-0.9
		c-0.4,0.4-0.8,0.6-1.1,0.9c-3.3,3.5-6.7,6.9-10,10.4c-0.5,0.6-1.1,0.9-1.9,0.8c-3-0.1-6,0-9,0c-1.5,0-2.8-0.1-4.3-0.5
		c-5-1.5-7.6-4.9-9-9.7c-0.1-0.5-0.2-1.1-0.3-1.8c-0.4,0.3-0.7,0.4-0.9,0.6c-3.4,3.5-6.8,7-10.1,10.6c-0.6,0.6-1.1,0.8-1.9,0.8
		c-9.6,0-19.2,0-28.8,0c-0.4,0-0.7,0-1.4,0c5.4-15.6,10.8-31.1,16.2-46.5c-0.3-0.1-0.3-0.1-0.4-0.1c-4.7-0.1-9.5-0.1-14.2-0.1
		c-0.3,0-0.7,0.4-0.9,0.8c-0.6,1.5-1.3,3-1.8,4.5C81,65.5,76.3,78.9,71.6,92.4c-0.3,0.9-0.7,1.2-1.6,1.2c-5.8,0-11.6,0-17.5,0
		c-0.4,0-0.8,0-1.3,0c0.4-1.3,0.6-2.4,1-3.6c1.5-4.3,3.1-8.6,4.6-12.9c4.7-13.4,9.4-26.7,14.1-40.1c0.6-1.6,0.4-1.9-1.3-1.9
		c-3.5,0.1-7,0.1-10.6,0.2c-3.1,0.1-3.1,0.1-4.2,3.1c-6.5,18.1-12.9,36.2-19.4,54.3c-0.2,0.7-0.6,0.9-1.3,0.9c-6.2,0-12.3,0-18.5,0
		c-0.2,0-0.5,0-0.9-0.1c0.3-1,0.5-2,0.8-2.9C22.7,70.8,29.8,51,36.9,31.3c0.7-1.9,1.3-3.9,2.1-6.1c-1.3,0-2.4,0-3.5,0
		c-10.6,0-21.1,0-31.7,0c-1.3,0-2.5,0-3.8,0C0,19,0,13,0,6.9c21.9,0,43.8,0,65.9,0c-0.4,1.4-0.8,2.7-1.3,4.1
		c-0.6,1.7-1.3,3.5-1.9,5.2c-0.4,1.1-0.1,1.5,1.1,1.5c1,0,2.1,0,3.1,0c9.8,0,19.6,0,29.3,0c1.4,0,1.5,0.1,1.1,1.5
		c-0.2,0.8-0.6,1.6-0.8,2.4c-0.8,2.4-1.6,4.9-2.5,7.5c11.9,0,23.5,0,35.3,0c-5.5,15.6-10.9,31.1-16.5,46.7c0.8,0,1.2,0,1.6,0
		c4.8,0,9.6,0,14.3,0c2.1,0,2.1,0,2.8-2c4.1-11.1,8-22.3,12.3-33.3c2.8-7.1,8.4-10.7,16-11.2c4.9-0.3,9.8-0.2,14.8-0.2
		c8.3,0,16.7,0,25-0.1c1.3,0,2.6,0,4,0c-5.4,15.5-10.8,30.8-16.2,46.3c0.6,0,0.9,0.1,1.3,0.1c4.7,0,9.3-0.1,14,0
		c1.5,0,2.3-0.5,2.7-1.8c0.9-2.6,2-5.3,2.9-7.9c6.3-17.8,12.6-35.6,18.9-53.4C228.1,10.1,228.9,7.8,229.7,5.6z M384,76
		c0.5,0,0.7,0.1,0.9,0.1c4.7,0,9.4,0,14.1,0c0.8,0,1-0.3,1.2-1c3.2-8.8,6.4-17.5,9.5-26.3c0.2-0.6,0.2-1.2,0.4-1.9
		c-0.6,0-1-0.1-1.4-0.1c-4.3,0-8.5,0-12.8,0c-1.1,0-1.7,0.3-2.1,1.4c-2.8,7.9-5.7,15.8-8.6,23.7C384.9,73.2,384.5,74.5,384,76z
		 M177,47.1c-0.4-0.2-0.4-0.2-0.5-0.2c-4.8,0-9.6,0-14.4,0c-0.3,0-0.8,0.4-0.9,0.8c-2.9,8-5.7,16.1-8.5,24.1
		c-0.4,1.3-0.7,2.6-1.1,3.9c0.2,0.1,0.3,0.2,0.3,0.2c4.9,0,9.8,0,14.7,0c0.3,0,0.8-0.4,0.9-0.8c2.9-8,5.7-15.9,8.5-23.9
		C176.4,49.8,176.6,48.5,177,47.1z"/>
	<path d="M309.3,0.2c-0.3,1.3-0.6,2.4-1,3.5c-1.7,4.6-3.4,9.2-5.1,13.8c-0.3,0.7-0.6,1.2-1.5,1.2c-6.5,0-13,0-19.5,0
		c-0.3,0-0.6-0.1-1.2-0.1c0.8-2.5,1.5-5,2.3-7.4c1.2-3.4,2.6-6.8,3.9-10.2c0.3-0.7,0.6-1,1.4-1c6.6,0,13.1,0,19.7,0
		C308.6,0,308.9,0.1,309.3,0.2z"/>
</g>
</svg>
