<?xml version="1.0" encoding="utf-8"?>
<!-- Generator: Adobe Illustrator 21.1.0, SVG Export Plug-In . SVG Version: 6.00 Build 0)  -->
<svg version="1.1" id="svg2351" xmlns:svg="http://www.w3.org/2000/svg"
	 xmlns="http://www.w3.org/2000/svg" xmlns:xlink="http://www.w3.org/1999/xlink" x="0px" y="0px" viewBox="0 0 779.5 143.6"
	 style="enable-background:new 0 0 779.5 143.6;" xml:space="preserve">
<path id="path45" d="M563.7,143.6c-3.7-1.6-13.9-6.8-15.2-17.2l-18.9,17.2l-44.1,0c-4.4-1.2-12.3-5.1-14.8-17.7l-18.2,17.7
	l-38.5,0.1l-16.4-53.2l-20.3,53.2h-36.9l6.9-17.9c-14.8,12.3-19.4,16.6-20.7,17.9l-31.3,0c-11.8-5.4-12.6-18-12.6-18
	c-15.3,12.5-20,16.6-21.4,18l-27.4,0c-10.1-4.7-13.3-17.4-13.3-17.4c-15.3,11.2-24.2,17.4-24.2,17.4h-49.7L176,67.8h-26.3
	l-28.5,75.8H84.7L118.3,50h-24l-35.8,93.6H21.8L63.9,32.3H0V0.2h112L105.7,19h60.6l-6.9,19.4h61.2l-28.1,77h28.6L243.5,60
	c0,0,8.6-21.6,28.6-21.6h77.3l-27.4,77.5h28.6l44-115.7h34.8l-26.9,76.4l40.1-38.2h41.8L434,87.7l7.4,28.8l30.9-0.3l30.9-78.3h34.8
	l-28,78.1h40.1l20-52.6h-23.5l9.2-25.5h22.3l15.4-37.6h36l-13.7,36.5h21.2l-8.6,26h-22.9l-18.9,52.6h40.1L645.7,65
	c0,0,8-26,31.5-26.6h75.5l-28,77h54.9v28.2h-73.2c0,0-17.1-2.2-20-17.7l-17.8,17.7h-25.1c0,0-16.1-2.2-18.3-17.7l-18.3,17.7H563.7z
	 M686.6,116.5L706,67.8h-24.6L662,116.5H686.6z M284,116.5l19.4-48.7h-24.6l-19.5,48.7H284"/>
<path id="path47" d="M506.1,28.8L516.4,0h34.9L541,28.8H506.1"/>
</svg>
