<?xml version="1.0" encoding="utf-8"?>
<!-- Generator: Adobe Illustrator 21.1.0, SVG Export Plug-In . SVG Version: 6.00 Build 0)  -->
<svg version="1.1" id="svg2426" xmlns:svg="http://www.w3.org/2000/svg"
	 xmlns="http://www.w3.org/2000/svg" xmlns:xlink="http://www.w3.org/1999/xlink" x="0px" y="0px" viewBox="0 0 312 76.6"
	 style="enable-background:new 0 0 312 76.6;" xml:space="preserve">
<g id="layer1" transform="translate(-358.29806,-730.3637)">
	<g id="g2418" transform="matrix(1.7751278,0,0,1.7751278,343.20253,599.24175)">
		<path id="path10" d="M169.7,78.4C169.7,78.4,169.6,78.4,169.7,78.4l0-4.6h-4.4l0,0c0,0-0.1,0-0.1,0c-2.5,0-4.6,2-4.6,4.6
			c0,0,0,0.1,0,0.1V117h9.1L169.7,78.4C169.6,78.5,169.7,78.5,169.7,78.4z"/>
		<path id="path14" d="M184.3,78.4C184.3,78.4,184.2,78.4,184.3,78.4l0-4.6h-4.4l0,0c0,0-0.1,0-0.1,0c-2.5,0-4.6,2-4.6,4.6
			c0,0,0,0.1,0,0.1V117h9.1L184.3,78.4C184.2,78.5,184.3,78.5,184.3,78.4z"/>
		<path id="path18" d="M156.2,106l-9.2,0v6.2h-12.1v-10.5h21.2v-2h0V86.9c0-2.5-2-4.5-4.5-4.5l0,0h-21.3c-2.5,0-4.5,2-4.5,4.5
			c0,0,0,0.1,0,0.1v25.5c0,2.5,2,4.6,4.6,4.6h21.3c2.5,0,4.5-2,4.6-4.5l0,0V106z M147,86.8v10.5h-12.1V87c0,0,0-0.1,0-0.1
			c0,0,0-0.1,0-0.1v0H147z"/>
		<path id="path22" d="M86.8,87.4c0-0.2,0-0.3,0-0.5c0-2.5-2-4.5-4.5-4.5l0,0H61c-2.5,0-4.6,2-4.6,4.5c0,0,0,0.1,0,0.1l0,6.5l9.1,0
			V87c0,0,0-0.1,0-0.1c0,0,0-0.1,0-0.1v0h12.1v10.5H56.5v15.2c0,2.5,2,4.6,4.6,4.6h25.8v-15.3h0v-4.5h0V87.4z M65.6,101.7h12.1v10.5
			H65.6V101.7z"/>
		<path id="path26" d="M51.9,86.9c0-2.5-2.1-4.5-4.5-4.5h-8.6c-1.9,0-3.5,1.2-4.2,2.8c-0.7-1.6-2.2-2.7-4-2.8l0,0h-8.8
			c-1.9,0-3.6,1.2-4.2,2.9v-2.9H8.5V117h9.1V86.9h8.2v2.2c0,0,0,0,0,0v28h9.1V89.3c0,0,0,0,0,0v-2.4h7.9V117H52L51.9,86.9L51.9,86.9
			z"/>
		<path id="path30" d="M110.5,97.7l12.6-15.3h-5.5L108,94.1l-6.6-9.4l0,0c-0.8-1.4-2.3-2.4-4-2.4c-0.1,0-0.2,0-0.4,0l0,0h-7.8
			l13.1,18.7L89.1,117h5.4l10.2-12.4l7.1,10.1l0.1,0.1c0.8,1.3,2.2,2.2,3.9,2.2h8.2L110.5,97.7z"/>
	</g>
</g>
</svg>
