<?xml version="1.0" encoding="utf-8"?>
<!-- Generator: Adobe Illustrator 21.1.0, SVG Export Plug-In . SVG Version: 6.00 Build 0)  -->
<svg version="1.1" id="svg3544" xmlns:svg="http://www.w3.org/2000/svg"
	 xmlns="http://www.w3.org/2000/svg" xmlns:xlink="http://www.w3.org/1999/xlink" x="0px" y="0px" viewBox="0 0 76 76"
	 style="enable-background:new 0 0 76 76;" xml:space="preserve">
<g id="layer1">
	<path id="path3524" d="M55.6,4.3C67.7,10.7,76,23.4,76,38s-8.3,27.3-20.4,33.7v-4.3c4.6-2.8,8.5-6.6,11.4-11.2l-11.4-4.6v-7
		l12.5,9.8c2.6-4.8,4.1-10.3,4.1-16.2c0-12.4-6.6-23.3-16.6-29.3V4.3L55.6,4.3z M38,0c6.3,0,12.3,1.5,17.6,4.3v4.3
		C50.8,5.7,45.1,4,39.1,3.8l4.3,31.1l12.2,9.5v7L38,44.3l-17.6,7.2v-7l12.3-9.6L37,3.8C30.9,4,25.3,5.7,20.4,8.7V4.3
		C25.7,1.5,31.7,0,38,0L38,0L38,0z M55.6,71.7C50.3,74.4,44.4,76,38,76c-6.4,0-12.4-1.6-17.6-4.3v-4.4c5.1,3.1,11.2,4.9,17.6,4.9
		c6.4,0,12.4-1.8,17.6-4.9V71.7L55.6,71.7z M20.4,71.7C8.3,65.3,0,52.6,0,38S8.3,10.7,20.4,4.3v4.3c-10,6-16.6,16.9-16.6,29.3
		c0,5.9,1.5,11.5,4.1,16.3l12.5-9.8v7L9.1,56.2c2.8,4.5,6.7,8.4,11.3,11.1V71.7L20.4,71.7z"/>
</g>
</svg>
