<?xml version="1.0" encoding="utf-8"?>
<!-- Generator: Adobe Illustrator 21.1.0, SVG Export Plug-In . SVG Version: 6.00 Build 0)  -->
<svg version="1.1" id="svg3544" xmlns:svg="http://www.w3.org/2000/svg"
	 xmlns="http://www.w3.org/2000/svg" xmlns:xlink="http://www.w3.org/1999/xlink" x="0px" y="0px" viewBox="0 0 76 76"
	 style="enable-background:new 0 0 76 76;" xml:space="preserve">
<path d="M55.6,4.3C50.3,1.5,44.4,0,38,0c-6.4,0-12.4,1.5-17.6,4.3v0C8.3,10.7,0,23.4,0,38c0,14.6,8.3,27.3,20.4,33.7
	C25.7,74.4,31.7,76,38,76c6.3,0,12.3-1.6,17.6-4.3C67.7,65.3,76,52.6,76,38C76,23.4,67.7,10.7,55.6,4.3z M3.8,38
	c0-12.4,6.6-23.3,16.6-29.3v0C25.3,5.7,30.9,4,37,3.8l-4.3,31.1l-12.3,9.6v0L7.9,54.3C5.3,49.4,3.8,43.9,3.8,38z M55.6,67.3
	c-5.2,3.1-11.2,4.9-17.6,4.9c-6.4,0-12.5-1.8-17.6-4.9c-4.6-2.8-8.5-6.6-11.3-11.1l11.3-4.7v0L38,44.3l17.7,7.2v0L67,56.1
	C64.2,60.7,60.3,64.5,55.6,67.3z M55.6,44.4L55.6,44.4l-12.2-9.5L39.1,3.8c6,0.2,11.7,1.9,16.6,4.9v0c9.9,6,16.6,16.9,16.6,29.3
	c0,5.9-1.5,11.4-4.1,16.2L55.6,44.4z"/>
</svg>
