<?xml version="1.0" encoding="utf-8"?>
<!-- Generator: Adobe Illustrator 21.1.0, SVG Export Plug-In . SVG Version: 6.00 Build 0)  -->
<svg version="1.1"
	 id="Layer_2" inkscape:version="0.48.0 r9654" sodipodi:docname="Miller_Brewery_Logo.svg" xmlns:cc="http://creativecommons.org/ns#" xmlns:dc="http://purl.org/dc/elements/1.1/" xmlns:inkscape="http://www.inkscape.org/namespaces/inkscape" xmlns:rdf="http://www.w3.org/1999/02/22-rdf-syntax-ns#" xmlns:sodipodi="http://sodipodi.sourceforge.net/DTD/sodipodi-0.dtd" xmlns:svg="http://www.w3.org/2000/svg"
	 xmlns="http://www.w3.org/2000/svg" xmlns:xlink="http://www.w3.org/1999/xlink" x="0px" y="0px" viewBox="0 0 161.5 75.5"
	 style="enable-background:new 0 0 161.5 75.5;" xml:space="preserve">
<sodipodi:namedview  bordercolor="#666666" borderopacity="1" gridtolerance="10" guidetolerance="10" id="namedview3021" inkscape:current-layer="Layer_2" inkscape:cx="112.41117" inkscape:cy="76.398499" inkscape:pageopacity="0" inkscape:pageshadow="2" inkscape:window-height="850" inkscape:window-maximized="1" inkscape:window-width="1440" inkscape:window-x="-8" inkscape:window-y="-8" inkscape:zoom="1.7081488" objecttolerance="10" pagecolor="#ffffff" showgrid="false">
	</sodipodi:namedview>
<path id="path3013" d="M88.9,11.5c-1.3,1.8-1.9,4.2-0.1,5.2c1.8,1,3.7,0,4.8-1.3c1.2-1.3,1.8-3.9,0.6-5.1
	C93.1,9.2,90.4,9.1,88.9,11.5L88.9,11.5L88.9,11.5L88.9,11.5z"/>
<path id="path3015" d="M153.2,0.6l-4.7,5.1l0,0c-0.7,0.7-0.7,0.7-0.4-0.4l0,0l1-3l-7.1,1.8l0,0c0,0-2.9,7.9-4.1,10.4
	c-2.1,4.1-6,8.5-8.7,9.7c-2.7,1.2-3.7-0.8-3.7-2.5c10-4.1,10.1-10.7,9.9-12c-0.3-1.8-2.1-3.5-7.5-0.8c-5.1,2.5-8.8,9.6-9.1,13.2
	c-1.2,3.1-4.1,6.2-4.9,6.2s-1.5,0.3-0.6-2.5l0,0L123.1,0l-7.2,2.2l0,0c0,0-7.9,19.8-9.7,24c-1.8,4.2-4.3,6.3-5.6,6.5
	c-0.9,0.1-1-0.1-0.3-2.4l0,0l10.1-26.4l-7.5,2.4l0,0c0,0-8.5,20.1-10.3,24.9c-1.8,4.8-4.1,5.1-4.9,5.2c-0.7,0.1-1.5-0.3-0.6-2.8l0,0
	l5-12.8L85,22.9l0,0c0,0-3.4,8.3-5.3,12.4c-1.9,4.1-4.7,6.5-7,6.5c-1.3,0-1-1.4-0.3-3.9l0,0l9-21.2l0,0c2.6-6.6-1.9-12.5-3.7-13.9
	l0,0l-12.8,9.8l0,0c-0.1-3-2.6-6.4-3.8-7.5l0,0l-15,11.5l0,0c-1-3.1-2.9-5.9-5.6-8.4c-7.5-5.5-17.4-5.8-29-0.3
	c-12.4,5.9-12.2,16.9-11,19.1c4.3,11.7,17.4,8.4,20.4,7.2c9.7-3.8,9.7-13.1,9.1-16l0,0l-12.2,6.2l0,0c1.5,3.4-1.3,6.3-3.5,7.2
	c-2.2,0.8-8.7,1-10.6-5.3c-1.9-6.3,2.8-12.4,11-15.9c8.2-3.5,16-1.8,20.3,2.7c4.3,4.5,2.9,11.7-0.9,19.8
	c-3.8,8.2-18.1,30.6-19.3,32.5l0,0l13.4-4.2l0,0c2.8-4.4,14-24.9,16.2-30.6c1.3-3.4,1.9-7.6,1.8-10.7l0,0l6.5-5.1l0,0
	c1.9,2,1.3,6,0.5,8c-2.1,9.7-12.8,31.8-14.7,34.9l0,0l11.9-3.9l0,0c1.6-1.4,10.4-22.6,11.8-27.3c1.1-3.9,2.4-7,2.4-10.3l0,0l6.2-4.9
	l0,0c2.4,1.3,0.8,7.2-0.1,9.2c0,0-5.6,12.9-7.7,18c-2.1,5.1-1,10,3.2,10.3c6.5-0.3,11.2-6.7,12.6-8.1c0.6,1.3,2.2,3.3,4.4,2.7
	c2.7-0.8,6-3.7,7.9-5.3c0.9,0.8,1.8,2.4,4.1,1.7c3.5-0.8,7.6-5.1,9-6.3c1,1.7,1.5,2.5,5.3,1.3c3.8-1.3,7.7-6,9.3-8
	c0,1.3,3.3,3.9,6.5,3c3.5-1.1,8.3-6,9.8-7.7l0,0l-1,3.7l6.5-1.8l0,0c0,0,3.4-8.7,5.6-12.7c2-3.6,3.1-1.8,3.7-1.1
	c0.6,0.7,1.2,1.3,2.9,1.1c3.7-0.3,5.7-3.9,6.8-5.8C154.3,5.1,154.1,2.5,153.2,0.6L153.2,0.6L153.2,0.6L153.2,0.6z M130.3,11.6
	c1.6-1,1.8-0.1,1.5,0.8c-0.4,1.2-1.7,3.9-4.4,5.5c-0.7,0.3-0.7-0.1-0.7-0.5C127.1,15.6,128.7,12.6,130.3,11.6L130.3,11.6L130.3,11.6
	L130.3,11.6z"/>
<path id="path3017" d="M151.5,27.1c-24.3,4.6-126,39.8-138.8,46l0.7,2.2c13.6-3.4,27.6-3.7,38.4,0.2c11.7-20.2,86.8-41.4,100.4-45.7
	L151.5,27.1z"/>
</svg>
