<?xml version="1.0" encoding="utf-8"?>
<!-- Generator: Adobe Illustrator 21.1.0, SVG Export Plug-In . SVG Version: 6.00 Build 0)  -->
<svg version="1.1"
	 id="svg3424" xmlns:cc="http://creativecommons.org/ns#" xmlns:dc="http://purl.org/dc/elements/1.1/" xmlns:rdf="http://www.w3.org/1999/02/22-rdf-syntax-ns#" xmlns:svg="http://www.w3.org/2000/svg"
	 xmlns="http://www.w3.org/2000/svg" xmlns:xlink="http://www.w3.org/1999/xlink" x="0px" y="0px" viewBox="0 0 283.6 51.7"
	 style="enable-background:new 0 0 283.6 51.7;" xml:space="preserve">
<path id="path3364" d="M160,25.1c1.1-1.3,1.8-3.1,1.8-5v-6.9h-35.3v7.7H146l-17.1,18.9c-1.1,1.3-1.9,3-1.9,4.9v7h35.2V44h-19.3
	L160,25.1z"/>
<path id="path3368" d="M248.5,13.2c-4.3,0-7.8,3.4-7.8,7.7v23c0,4.2,3.5,7.7,7.8,7.7H276c4.3,0,7.6-3.5,7.6-7.7v-23
	c0-4.3-3.4-7.7-7.6-7.7H248.5z M265.1,20.9c2.1,0,3.8,1.7,3.8,3.9v15.4c0,2.1-1.7,3.9-3.8,3.9h-5.8c-2.1,0-3.9-1.7-3.9-3.9V24.7
	c0-2.1,1.7-3.9,3.9-3.9C259.3,20.9,265.1,20.9,265.1,20.9z"/>
<path id="path3372" d="M107.2,13.2h14.7V44c0,4.2-3.4,7.7-7.7,7.7h-7V13.2z"/>
<path id="path3376" d="M174.6,51.7c-4.2,0-7.7-3.5-7.7-7.7V13.2h14.7v26.9c0,2.1,1.8,3.9,3.9,3.9h4.7c2.1,0,3.8-1.7,3.8-3.9V13.2
	h34.1c4.2,0,7.7,3.4,7.7,7.7v30.7H221V24.7c0-2.1-1.7-3.8-3.9-3.8h-8.6V44c0,4.2-3.4,7.7-7.6,7.7H174.6z"/>
<path id="path3380" d="M85.6,0c-5.5,0-10.4,2.5-13.7,6.4L34.5,51.7h21.3l28.4-34.3c2.1-2.5,5.3-4.2,8.9-4.2h7.5L68.9,51.7h22.8
	c5.3,0,9.6-4.3,9.6-9.6V0H85.6z"/>
<path id="path3384" d="M37.5,6.4L0,51.7h21.3l28.4-34.3c2.1-2.5,5.3-4.2,8.9-4.2h7.7V0H51.2C45.7,0,40.7,2.5,37.5,6.4"/>
</svg>
