<?xml version="1.0" encoding="utf-8"?>
<!-- Generator: Adobe Illustrator 21.1.0, SVG Export Plug-In . SVG Version: 6.00 Build 0)  -->
<svg version="1.1" id="Layer_1" xmlns="http://www.w3.org/2000/svg" xmlns:xlink="http://www.w3.org/1999/xlink" x="0px" y="0px"
	 viewBox="0 0 33.6 33.4" style="enable-background:new 0 0 33.6 33.4;" xml:space="preserve">
<style type="text/css">
	.st0{fill:#FFFFFF;}
</style>
<path d="M0,16.7C0,7.5,7.5,0,16.8,0s16.8,7.5,16.8,16.7s-7.5,16.7-16.8,16.7S0,25.9,0,16.7L0,16.7z"/>
<path class="st0" d="M29.8,9.2c-1.8-3.1-5.6-1.3-7.3-2.3C21,6,20.4,1.7,16.9,1.7C13.3,1.7,13,6,11.3,7C9.6,8,5.8,6.1,4,9.2
	c-1.9,3.2,1.7,5,1.7,7.5S2.2,21,4,24.2s5.7,1.3,7.3,2.3c1.7,1,1.9,5.2,5.6,5.2c3.7,0,4.2-4.5,5.6-5.2c1.5-0.8,5.5,1,7.3-2.2
	c1.9-3.2-1.7-5.5-1.7-7.5C28.1,14.2,31.7,12.5,29.8,9.2L29.8,9.2z"/>
</svg>
