<?xml version="1.0" encoding="utf-8"?>
<!-- Generator: Adobe Illustrator 21.1.0, SVG Export Plug-In . SVG Version: 6.00 Build 0)  -->
<svg version="1.1"
	 id="svg2816" inkscape:version="0.47 r22583" sodipodi:docname="Montreal 1976 Summer Olympics logo.svg" xmlns:cc="http://creativecommons.org/ns#" xmlns:dc="http://purl.org/dc/elements/1.1/" xmlns:inkscape="http://www.inkscape.org/namespaces/inkscape" xmlns:rdf="http://www.w3.org/1999/02/22-rdf-syntax-ns#" xmlns:sodipodi="http://sodipodi.sourceforge.net/DTD/sodipodi-0.dtd" xmlns:svg="http://www.w3.org/2000/svg"
	 xmlns="http://www.w3.org/2000/svg" xmlns:xlink="http://www.w3.org/1999/xlink" x="0px" y="0px" viewBox="0 0 134.2 132.2"
	 style="enable-background:new 0 0 134.2 132.2;" xml:space="preserve">
<defs>
	
	
		<inkscape:perspective  id="perspective2824" inkscape:persp3d-origin="0.5 : 0.33333333 : 1" inkscape:vp_x="0 : 0.5 : 1" inkscape:vp_y="0 : 1000 : 0" inkscape:vp_z="1 : 0.5 : 1" sodipodi:type="inkscape:persp3d">
		</inkscape:perspective>
	
		<inkscape:perspective  id="perspective2844" inkscape:persp3d-origin="0.5 : 0.33333333 : 1" inkscape:vp_x="0 : 0.5 : 1" inkscape:vp_y="0 : 1000 : 0" inkscape:vp_z="1 : 0.5 : 1" sodipodi:type="inkscape:persp3d">
		</inkscape:perspective>
	
		<inkscape:perspective  id="perspective2844-4" inkscape:persp3d-origin="0.5 : 0.33333333 : 1" inkscape:vp_x="0 : 0.5 : 1" inkscape:vp_y="0 : 1000 : 0" inkscape:vp_z="1 : 0.5 : 1" sodipodi:type="inkscape:persp3d">
		</inkscape:perspective>
	
		<inkscape:perspective  id="perspective2844-48" inkscape:persp3d-origin="0.5 : 0.33333333 : 1" inkscape:vp_x="0 : 0.5 : 1" inkscape:vp_y="0 : 1000 : 0" inkscape:vp_z="1 : 0.5 : 1" sodipodi:type="inkscape:persp3d">
		</inkscape:perspective>
	
		<inkscape:perspective  id="perspective2844-45" inkscape:persp3d-origin="0.5 : 0.33333333 : 1" inkscape:vp_x="0 : 0.5 : 1" inkscape:vp_y="0 : 1000 : 0" inkscape:vp_z="1 : 0.5 : 1" sodipodi:type="inkscape:persp3d">
		</inkscape:perspective>
	
		<inkscape:perspective  id="perspective2844-7" inkscape:persp3d-origin="0.5 : 0.33333333 : 1" inkscape:vp_x="0 : 0.5 : 1" inkscape:vp_y="0 : 1000 : 0" inkscape:vp_z="1 : 0.5 : 1" sodipodi:type="inkscape:persp3d">
		</inkscape:perspective>
	
		<inkscape:perspective  id="perspective2844-2" inkscape:persp3d-origin="0.5 : 0.33333333 : 1" inkscape:vp_x="0 : 0.5 : 1" inkscape:vp_y="0 : 1000 : 0" inkscape:vp_z="1 : 0.5 : 1" sodipodi:type="inkscape:persp3d">
		</inkscape:perspective>
	
		<inkscape:perspective  id="perspective2924" inkscape:persp3d-origin="0.5 : 0.33333333 : 1" inkscape:vp_x="0 : 0.5 : 1" inkscape:vp_y="0 : 1000 : 0" inkscape:vp_z="1 : 0.5 : 1" sodipodi:type="inkscape:persp3d">
		</inkscape:perspective>
	
		<inkscape:perspective  id="perspective2924-2" inkscape:persp3d-origin="0.5 : 0.33333333 : 1" inkscape:vp_x="0 : 0.5 : 1" inkscape:vp_y="0 : 1000 : 0" inkscape:vp_z="1 : 0.5 : 1" sodipodi:type="inkscape:persp3d">
		</inkscape:perspective>
	
		<inkscape:perspective  id="perspective3620" inkscape:persp3d-origin="0.5 : 0.33333333 : 1" inkscape:vp_x="0 : 0.5 : 1" inkscape:vp_y="0 : 1000 : 0" inkscape:vp_z="1 : 0.5 : 1" sodipodi:type="inkscape:persp3d">
		</inkscape:perspective>
	
		<inkscape:perspective  id="perspective3642" inkscape:persp3d-origin="0.5 : 0.33333333 : 1" inkscape:vp_x="0 : 0.5 : 1" inkscape:vp_y="0 : 1000 : 0" inkscape:vp_z="1 : 0.5 : 1" sodipodi:type="inkscape:persp3d">
		</inkscape:perspective>
	
		<inkscape:perspective  id="perspective3664" inkscape:persp3d-origin="0.5 : 0.33333333 : 1" inkscape:vp_x="0 : 0.5 : 1" inkscape:vp_y="0 : 1000 : 0" inkscape:vp_z="1 : 0.5 : 1" sodipodi:type="inkscape:persp3d">
		</inkscape:perspective>
	
		<inkscape:perspective  id="perspective3664-0" inkscape:persp3d-origin="0.5 : 0.33333333 : 1" inkscape:vp_x="0 : 0.5 : 1" inkscape:vp_y="0 : 1000 : 0" inkscape:vp_z="1 : 0.5 : 1" sodipodi:type="inkscape:persp3d">
		</inkscape:perspective>
	
		<inkscape:perspective  id="perspective3695" inkscape:persp3d-origin="0.5 : 0.33333333 : 1" inkscape:vp_x="0 : 0.5 : 1" inkscape:vp_y="0 : 1000 : 0" inkscape:vp_z="1 : 0.5 : 1" sodipodi:type="inkscape:persp3d">
		</inkscape:perspective>
	
		<inkscape:perspective  id="perspective3717" inkscape:persp3d-origin="0.5 : 0.33333333 : 1" inkscape:vp_x="0 : 0.5 : 1" inkscape:vp_y="0 : 1000 : 0" inkscape:vp_z="1 : 0.5 : 1" sodipodi:type="inkscape:persp3d">
		</inkscape:perspective>
	
		<inkscape:perspective  id="perspective3739" inkscape:persp3d-origin="0.5 : 0.33333333 : 1" inkscape:vp_x="0 : 0.5 : 1" inkscape:vp_y="0 : 1000 : 0" inkscape:vp_z="1 : 0.5 : 1" sodipodi:type="inkscape:persp3d">
		</inkscape:perspective>
	
		<inkscape:perspective  id="perspective3763" inkscape:persp3d-origin="0.5 : 0.33333333 : 1" inkscape:vp_x="0 : 0.5 : 1" inkscape:vp_y="0 : 1000 : 0" inkscape:vp_z="1 : 0.5 : 1" sodipodi:type="inkscape:persp3d">
		</inkscape:perspective>
	
		<inkscape:perspective  id="perspective3785" inkscape:persp3d-origin="0.5 : 0.33333333 : 1" inkscape:vp_x="0 : 0.5 : 1" inkscape:vp_y="0 : 1000 : 0" inkscape:vp_z="1 : 0.5 : 1" sodipodi:type="inkscape:persp3d">
		</inkscape:perspective>
	
		<inkscape:perspective  id="perspective3809" inkscape:persp3d-origin="0.5 : 0.33333333 : 1" inkscape:vp_x="0 : 0.5 : 1" inkscape:vp_y="0 : 1000 : 0" inkscape:vp_z="1 : 0.5 : 1" sodipodi:type="inkscape:persp3d">
		</inkscape:perspective>
	
		<inkscape:perspective  id="perspective3831" inkscape:persp3d-origin="0.5 : 0.33333333 : 1" inkscape:vp_x="0 : 0.5 : 1" inkscape:vp_y="0 : 1000 : 0" inkscape:vp_z="1 : 0.5 : 1" sodipodi:type="inkscape:persp3d">
		</inkscape:perspective>
	
		<inkscape:perspective  id="perspective3853" inkscape:persp3d-origin="0.5 : 0.33333333 : 1" inkscape:vp_x="0 : 0.5 : 1" inkscape:vp_y="0 : 1000 : 0" inkscape:vp_z="1 : 0.5 : 1" sodipodi:type="inkscape:persp3d">
		</inkscape:perspective>
	
		<inkscape:perspective  id="perspective3881" inkscape:persp3d-origin="0.5 : 0.33333333 : 1" inkscape:vp_x="0 : 0.5 : 1" inkscape:vp_y="0 : 1000 : 0" inkscape:vp_z="1 : 0.5 : 1" sodipodi:type="inkscape:persp3d">
		</inkscape:perspective>
	
		<inkscape:perspective  id="perspective3704" inkscape:persp3d-origin="0.5 : 0.33333333 : 1" inkscape:vp_x="0 : 0.5 : 1" inkscape:vp_y="0 : 1000 : 0" inkscape:vp_z="1 : 0.5 : 1" sodipodi:type="inkscape:persp3d">
		</inkscape:perspective>
</defs>
<sodipodi:namedview  bordercolor="#666666" borderlayer="true" borderopacity="1" gridtolerance="10" guidetolerance="10" id="namedview2818" inkscape:current-layer="svg2816" inkscape:cx="95.5" inkscape:cy="92.074997" inkscape:pageopacity="0" inkscape:pageshadow="2" inkscape:showpageshadow="true" inkscape:window-height="850" inkscape:window-maximized="1" inkscape:window-width="1440" inkscape:window-x="-8" inkscape:window-y="-8" inkscape:zoom="3.2907957" objecttolerance="10" pagecolor="#ffffff" showborder="true" showgrid="false">
	</sodipodi:namedview>
<path d="M134.2,84.9v-37l0,0c0-0.1,0-0.1,0-0.2v-0.5l0,0c-0.3-13.1-11.1-23.7-24.4-23.7c-7.4,0-14,3.3-18.4,8.5v-9.4h-0.1
	C90.4,9.9,79.9,0,67.1,0C54.4,0,43.9,9.7,42.8,22.1h-0.1V23c0,0.5,0,0.9,0,1.4l0,0v7.5c-4.5-5.1-11-8.4-18.4-8.4
	C11.2,23.5,0.5,34,0,47l0,0v38.4l0,0c0,0.3,0,0.5,0,0.8c0,12.5,9.4,22.8,21.5,24.2c1.3,12.2,11.7,21.8,24.2,21.8
	c9.1,0,17.1-5.1,21.3-12.5c4.2,7.5,12.1,12.5,21.3,12.5c12.6,0,22.9-9.6,24.2-21.8c12.2-1.4,21.7-11.7,21.7-24.2
	C134.2,85.8,134.2,85.3,134.2,84.9L134.2,84.9z M91.5,47.8c0-10.1,8.2-18.4,18.4-18.4c10.1,0,18.3,8.2,18.4,18.3v22.5
	c-4.5-5.1-11-8.4-18.4-8.4s-14,3.3-18.4,8.5V47.8L91.5,47.8z M63.8,104.3c-7.4-1.3-13.3-7.1-14.7-14.5
	C56.5,91.2,62.3,96.9,63.8,104.3z M48.9,83.7c1.2-8.9,8.9-15.8,18.2-15.8S84,74.8,85.3,83.7c-7.8,1-14.5,5.7-18.2,12.3
	C63.4,89.4,56.7,84.7,48.9,83.7z M85.1,89.8c-1.5,7.4-7.3,13.1-14.7,14.5C71.8,96.9,77.7,91.2,85.1,89.8z M48.7,23.5
	C49.2,13.8,57.2,6,67.1,6c10.1,0,18.4,8.2,18.4,18.4v45.9c-4.5-5.1-11-8.4-18.4-8.4c-7.3,0-13.9,3.2-18.3,8.3L48.7,23.5L48.7,23.5z
	 M6,48.3L6,48.3c0-0.2,0-0.3,0-0.5c0-10.1,8.2-18.4,18.4-18.4s18.4,8.2,18.4,18.4v22.4c-4.5-5.1-11-8.4-18.4-8.4S10.5,65.1,6,70.3
	V48.3z M6,86.2c0-10.1,8.2-18.4,18.4-18.4c9.3,0,16.9,6.9,18.2,15.9c-10.8,1.4-19.3,9.9-20.9,20.7C12.8,103.1,6,95.4,6,86.2z
	 M42.4,89.8c-1.5,7.3-7.3,13.1-14.6,14.4C29.2,97,35,91.2,42.4,89.8z M45.8,126.2c-9.3,0-16.9-6.9-18.2-15.9
	c7.8-1,14.5-5.8,18.1-12.4c3.7,6.7,10.4,11.4,18.2,12.4C62.7,119.3,55,126.2,45.8,126.2z M88.4,126.2c-9.3,0-16.9-6.9-18.2-15.8
	c7.9-1,14.6-5.8,18.3-12.5c3.6,6.6,10.3,11.4,18.1,12.5C105.3,119.3,97.6,126.2,88.4,126.2z M91.9,89.9c7.3,1.4,13,7.1,14.5,14.4
	C99.1,102.8,93.3,97.1,91.9,89.9z M112.5,104.4c-1.5-10.7-10.1-19.2-20.8-20.7c1.2-8.9,8.9-15.9,18.2-15.9
	c10.1,0,18.4,8.2,18.4,18.4C128.2,95.5,121.4,103.1,112.5,104.4z"/>
</svg>
