<?xml version="1.0" encoding="utf-8"?>
<!-- Generator: Adobe Illustrator 21.1.0, SVG Export Plug-In . SVG Version: 6.00 Build 0)  -->
<svg version="1.1"
	 id="Layer_1" xmlns:cc="http://creativecommons.org/ns#" xmlns:dc="http://purl.org/dc/elements/1.1/" xmlns:rdf="http://www.w3.org/1999/02/22-rdf-syntax-ns#" xmlns:svg="http://www.w3.org/2000/svg"
	 xmlns="http://www.w3.org/2000/svg" xmlns:xlink="http://www.w3.org/1999/xlink" x="0px" y="0px" viewBox="0 0 332.2 180.6"
	 style="enable-background:new 0 0 332.2 180.6;" xml:space="preserve">
<path id="path7" d="M135.8,0.3c8.3-0.9,16.9,0.8,24.1,4.9c9.1,5.1,15.8,14,19.1,23.9c3.5,10.8,2.7,22.9-2.3,33
	c-4.2,8.9-11.7,16.1-21,20.1c-8.1,3.4-17.3,4-25.8,1.5c-8.7-2.5-16.4-8.2-21.4-15.4c-6.2-8.5-8.9-19-8.1-29.4
	c0.8-10.4,5.4-20.5,13.1-27.9C119.4,5.2,127.3,1.4,135.8,0.3 M136.2,21.7c-4.4,0.9-8.3,3.4-11.2,6.8c-3.7,4.4-5.4,10-5,15.5
	c0.4,6.3,3.5,12.3,8.7,16.1c4.2,3.2,9.8,4.7,15.2,3.8c5.6-0.8,10.6-4.2,13.7-8.7c3.3-4.7,4.6-10.6,3.7-16.3c-1-6.1-4.8-11.8-10.2-15
	C146.4,21.5,141.2,20.5,136.2,21.7L136.2,21.7z"/>
<path id="path9" d="M0.4,2.5c2.9,0,6,0,8.9,0c12.1,14.4,24.3,28.8,36.2,43.2c12.1-14,24.3-28.1,36.4-42.1c2.9,0,5.6,0,8.5,0
	c0,26.5,0,53.1,0,79.6c-7.7,0-15.4,0-22.9,0c0-9.1,0-18.2,0-27.3c-7.3,7.8-14.6,15.5-22,23.1c-7.1-8-14.3-15.7-21.2-23.7
	c0,9.3,0,18.4,0,27.7c-7.9,0-16,0-23.9,0C0.4,56.2,0.4,29.3,0.4,2.5L0.4,2.5z"/>
<path id="path11" d="M191.1,3.7c2.7,0,5.4,0,8.3,0C212.6,15.2,225.9,27,239,38.6c0-11.6,0-23.1,0-34.7c7.1,0,14.4,0,21.6,0
	c0,26.5,0,53.1,0,79.6c-2.3,0-4.8,0-7.1,0c-13.9-12.1-27.5-24.3-41.4-36.2c0,12.1,0,24.5,0,36.6c-6.9,0-14.1,0-21,0
	C191.1,57.1,191.1,30.4,191.1,3.7L191.1,3.7z"/>
<path id="path13" d="M269.5,4.4c21,0,41.8,0,62.8,0c0,6.3,0,12.7,0,19c-6.7,0-13.5,0-20.2,0c0,20.1,0,40.2,0,60.3
	c-7.3,0-14.8,0-22.1,0c0-20.1,0-40,0-60.1c-6.7,0-13.7,0-20.4,0C269.5,17.3,269.5,10.9,269.5,4.4L269.5,4.4z"/>
<path id="path15" d="M303.7,98.1c8.9-1.1,17.7-0.4,26.6,0.8c-0.6,5.9-1.3,11.9-1.9,17.8c-4.2-0.9-8.5-1.3-12.9-1.3
	c-5.4,0-10.8,1.9-15.4,4.7c-4.8,3-8.7,7.6-9.8,12.9c-1.5,6.6-0.2,14,4.2,19.3c4,4.9,10.2,8.3,16.6,9.7c6.7,0.9,13.5,0.6,20.2-0.2
	c0,5.9,0.4,11.6,0,17.4c-8.3,1.3-16.8,1.7-25,0.9c-5.2-0.6-10.4-1.7-14.8-4.4c-6.4-3-11.9-7.6-16.2-13.3c-4.4-5.9-7.1-13.1-7.5-20.5
	c-0.2-7.8,0.8-15.7,4.4-22.8c2.3-4.6,6-8.5,10-11.8c3.1-2.3,6.4-4.2,9.6-6.1C295.5,99.6,299.5,98.7,303.7,98.1L303.7,98.1z"/>
<path id="path17" d="M67.8,98.3c7.3,0,14.6,0,22,0c0,20.5,0,41.1,0,61.6c5.8,0,11.7,0,17.5,0c0,6.4,0,12.9,0,19.3
	c-13.3,0-26.4,0-39.7,0C67.8,152.3,67.8,125.4,67.8,98.3L67.8,98.3z"/>
<path id="path19" d="M143.9,98.1c3.5,0,6.9,0,10.4,0c11,27.1,22,54,32.9,81.2c-8.1,0-16,0-24.1,0c-4.6-11.6-9.2-23.1-14.1-34.9
	c-5.2,11.6-10.4,23.3-15.6,34.9c-7.7,0-15.2,0-22.9,0C121.7,152.3,132.7,125.2,143.9,98.1L143.9,98.1z"/>
<path id="path21" d="M0,98.7c13.7,0,27.3,0,41.2,0c6.2,0.4,12.3,3.2,15.6,8.5c3.1,4.9,3.3,11.2,2.3,16.7c-1,5.5-4.4,11-9.8,13.1
	c5.6,1.7,10.2,6.4,11.6,11.9c1.3,4.9,1.2,10.2-0.4,15c-1.7,5.1-5.8,9.5-10.6,11.9c-3.7,1.9-7.7,2.8-11.7,3.2c-12.7,0-25.2,0-37.9,0
	C0,152.3,0,125.4,0,98.7 M22.3,112.9c0,5.5,0,10.8,0,16.3c3.9,0,7.7,0.2,11.4,0.2c2.7,0,5.4-1.3,6.4-3.8c1-2.5,1-5.5,0-8.2
	c-1.2-2.7-3.9-4.2-6.7-4.4C29.7,113.1,26,113.1,22.3,112.9 M21.8,144.7c0,5.5,0,11,0,16.5c3.9,0,7.5,0,11.4,0
	c3.1-0.4,6.4-2.5,7.3-5.7c0.8-2.8,0.4-6.1-1.7-8.3c-1.9-1.9-4.8-2.7-7.7-2.7C27.9,144.5,24.8,144.5,21.8,144.7L21.8,144.7z"/>
<path id="path23" d="M190.7,99.6c2.7,0,5.6,0,8.3,0c13.3,11.6,26.4,23.3,39.7,34.9c0-11.6,0-23.1,0-34.7c7.1,0,14.4,0,21.6,0
	c0,26.5,0,53.1,0,79.6c-2.3,0-4.8,0-7.1,0c-13.9-12.1-27.5-24.3-41.4-36.2c0,12.1,0,24.5,0,36.6c-6.9,0-14.1,0-21,0
	C190.7,152.9,190.7,126.2,190.7,99.6L190.7,99.6z"/>
</svg>
