<?xml version="1.0" encoding="utf-8"?>
<!-- Generator: Adobe Illustrator 21.1.0, SVG Export Plug-In . SVG Version: 6.00 Build 0)  -->
<svg version="1.1" id="Layer_1" xmlns="http://www.w3.org/2000/svg" xmlns:xlink="http://www.w3.org/1999/xlink" x="0px" y="0px"
	 viewBox="0 0 41.4 41.4" style="enable-background:new 0 0 41.4 41.4;" xml:space="preserve">
<path d="M20.7,3.2C19.4,1.2,17.2,0,15,0c-3.8,0-6.8,3-6.8,6.9c0,0.4,0.1,0.9,0.2,1.5c-0.4-0.1-1-0.2-1.5-0.2C3,8.2,0,11.2,0,15
	c0,2.2,1.2,4.4,3.2,5.8c-2,1.4-3.2,3.5-3.2,5.7c0,3.7,3.1,6.8,6.9,6.8c0.5,0,1-0.1,1.5-0.2c-0.1,0.6-0.2,1.1-0.2,1.5
	c0,3.9,3,6.9,6.8,6.9c2.3,0,4.4-1.2,5.7-3.2c1.3,1.9,3.6,3.2,5.7,3.2c3.8,0,6.8-3,6.8-6.9c0-0.5-0.1-1.1-0.2-1.5
	c0.6,0.1,1.2,0.2,1.5,0.2c3.8,0,6.9-3,6.9-6.8c0-2.2-1.2-4.4-3.1-5.7c1.9-1.3,3.1-3.5,3.1-5.7c0-3.7-3.1-6.8-6.9-6.8
	c-0.5,0-1.1,0.1-1.5,0.2c0.1-0.4,0.2-1,0.2-1.6c0-3.9-3-6.9-6.8-6.9C24.2,0,22.1,1.2,20.7,3.2z M11.8,10.1L11.8,10.1
	c-0.3-0.3-1.4-1.5-1.4-3.3c0,0,0,0,0,0c0-2.8,2.4-4.6,4.6-4.6c1.2,0,2.4,0.5,3.3,1.3c0.9,0.9,1.3,2,1.4,3.3v10.7
	c0,1.3-1.2,2.1-2,2.1H6.9c-1.2,0-2.4-0.5-3.3-1.4C3,17.6,2.3,16.5,2.3,15c0-1.2,0.5-2.4,1.4-3.3c0.9-0.9,2-1.3,3.2-1.3
	c1.6,0,2.7,0.8,3.3,1.4c0,0,0.4,0.4,0.5,0.5c-0.1,0.2-0.2,0.6-0.2,1c0,1.5,1.3,2.8,2.8,2.8c0.7,0,1.4-0.3,1.9-0.8
	c0.5-0.5,0.8-1.3,0.8-2c0-0.7-0.3-1.5-0.8-2c-0.5-0.5-1.2-0.8-2-0.8c-0.4,0-0.8,0.1-1,0.2C12.3,10.6,11.8,10.1,11.8,10.1z M21.9,6.8
	c0-1.2,0.5-2.4,1.3-3.3c0.6-0.6,1.6-1.3,3.2-1.3c1.2,0,2.4,0.5,3.3,1.4c0.9,0.9,1.3,2,1.3,3.2c0,0,0,0,0,0c0,1.6-0.8,2.7-1.4,3.3
	c0,0-0.4,0.4-0.5,0.5c-0.2-0.1-0.6-0.2-1-0.2c-1.5,0-2.8,1.3-2.8,2.8c0,0.7,0.3,1.4,0.8,1.9c0.5,0.5,1.3,0.8,2,0.8c0,0,0,0,0,0
	c0.7,0,1.5-0.3,2-0.8c0.5-0.5,0.8-1.2,0.8-1.9c0,0,0,0,0,0c0-0.4-0.1-0.8-0.2-1c0.1-0.1,0.5-0.6,0.5-0.6c0.3-0.3,1.5-1.4,3.3-1.4
	c2.8,0,4.6,2.4,4.6,4.6c0,1.2-0.5,2.4-1.3,3.3c-0.9,0.9-2,1.4-3.3,1.4H23.9c-1.3,0-2-1.2-2-2l0,0L21.9,6.8L21.9,6.8z M3.6,29.7
	c-0.9-0.9-1.4-2.1-1.4-3.3l0,0c0-1.2,0.5-2.4,1.3-3.3c0.9-0.9,2-1.4,3.3-1.4h10.7c1.3,0,2.1,1.2,2.1,2v10.7c0,1.2-0.5,2.4-1.4,3.3
	c-0.6,0.6-1.6,1.3-3.2,1.3c-2.5,0-4.6-2-4.6-4.6c0,0,0,0,0,0c0-1.6,0.8-2.7,1.4-3.3c0,0,0.4-0.4,0.5-0.5c0.2,0.1,0.6,0.2,1,0.2
	c1.5,0,2.8-1.3,2.8-2.8c0-0.7-0.3-1.4-0.8-1.9c-0.5-0.5-1.3-0.8-2-0.8c-0.7,0-1.5,0.3-2,0.8c-0.5,0.5-0.8,1.2-0.8,1.9c0,0,0,0,0,0
	c0,0.4,0.1,0.8,0.2,1c-0.1,0.1-0.5,0.6-0.5,0.6c-0.3,0.3-1.5,1.4-3.3,1.4C5.6,31.1,4.5,30.6,3.6,29.7z M23.3,37.8
	c-0.9-0.9-1.4-2-1.4-3.3V23.9c0-1.3,1.2-2,2-2h10.7c2.2,0,4.6,1.7,4.6,4.6c0,2.5-2,4.6-4.6,4.6c-1.6,0-2.7-0.8-3.3-1.4
	c0,0-0.4-0.4-0.5-0.5c0.1-0.2,0.2-0.5,0.2-1v0c0-1.5-1.3-2.8-2.8-2.8c-0.7,0-1.4,0.3-1.9,0.8c-0.5,0.5-0.8,1.3-0.8,2
	c0,0.7,0.3,1.5,0.8,2c0.5,0.5,1.2,0.8,1.9,0.8c0.4,0,0.8-0.1,0.9-0.2c0.1,0.1,0.6,0.5,0.6,0.5c0.3,0.3,1.4,1.5,1.4,3.3c0,0,0,0,0,0
	c0,2.8-2.4,4.6-4.6,4.6C25.3,39.2,24.1,38.7,23.3,37.8z"/>
</svg>
