<?xml version="1.0" encoding="utf-8"?>
<!-- Generator: Adobe Illustrator 21.1.0, SVG Export Plug-In . SVG Version: 6.00 Build 0)  -->
<svg version="1.1" id="Layer_1" xmlns="http://www.w3.org/2000/svg" xmlns:xlink="http://www.w3.org/1999/xlink" x="0px" y="0px"
	 viewBox="0 0 500.4 500" style="enable-background:new 0 0 500.4 500;" xml:space="preserve">
<path d="M250.4,0c-84.8,0-159.8,42.3-205,106.9l0,0.2l69.8,12.1c0,0,19.9,148.4,20.6,148.4l20.4-141.2l72.6,12.6v230.5l-46.5,8.1
	c0,0,0-75.1,0.8-85c0-9.5,3.8-53.9,2.4-63.3c-0.8,0-2.2,0-3,0l-26.7,153.1l-45.9,8.1L77.1,225.2l-2.6-0.1c-1,9.2,3.7,63.9,3.7,73.4
	c0.8,9.9,0.8,97.3,0.8,97.3l-28,4.9l0,0.1C96.6,461,169,500,250.4,500c138.1,0,250-111.9,250-250S388.5,0,250.4,0z M319.2,353.7
	l-43,7.5l-0.1-157.6l-35.2-3.1v-59.4L347,159.5v50.2l-27.8-2.3V353.7z M399.7,339.6l-2.9-21.4l-22.4,2.9l-3.1,23.5l-33.3,5.9
	l31.6-186.7l31.2,5.4l25.1,165.9L399.7,339.6z"/>
<polygon points="384.4,225.6 379.4,281.2 392.3,280.4 387.5,225.6 "/>
</svg>
