<?xml version="1.0" encoding="utf-8"?>
<!-- Generator: Adobe Illustrator 21.1.0, SVG Export Plug-In . SVG Version: 6.00 Build 0)  -->
<svg version="1.1" id="Layer_1" xmlns="http://www.w3.org/2000/svg" xmlns:xlink="http://www.w3.org/1999/xlink" x="0px" y="0px"
	 viewBox="0 0 214 208" style="enable-background:new 0 0 214 208;" xml:space="preserve">
<path d="M211.7,76.1c-7.9-24.3-34.1-37.7-58.4-29.8C153.3,20.7,132.6,0,107,0l0,0C81.4,0,60.7,20.7,60.7,46.3
	c-24.3-7.9-50.5,5.4-58.4,29.8c-7.9,24.3,5.4,50.5,29.7,58.4c-15,20.7-10.4,49.7,10.3,64.7c20.7,15,49.7,10.4,64.7-10.3
	c15,20.7,44,25.3,64.7,10.3c20.7-15,25.3-44,10.2-64.7C206.3,126.6,219.6,100.4,211.7,76.1z M145.7,171.3l-12.4-16.7
	c10.8-8.1,17.9-20.9,17.9-35.5c0-20.8-14.5-38.3-33.9-43v81.2H96.6V76.2c-19.4,4.7-33.8,22.1-33.8,43c0,14.5,7,27.4,17.8,35.5
	l-12.4,16.7c-15.9-11.8-26.2-30.8-26.2-52.1c0-32.3,23.6-59.2,54.6-64.1V36.7l0,0h20.7v18.3c30.9,5,54.6,31.8,54.6,64.1
	C172,140.6,161.6,159.5,145.7,171.3z"/>
</svg>
