<?xml version="1.0" encoding="utf-8"?>
<!-- Generator: Adobe Illustrator 21.1.0, SVG Export Plug-In . SVG Version: 6.00 Build 0)  -->
<svg version="1.1" id="Layer_1" xmlns="http://www.w3.org/2000/svg" xmlns:xlink="http://www.w3.org/1999/xlink" x="0px" y="0px"
	 viewBox="0 0 142 40" style="enable-background:new 0 0 142 40;" xml:space="preserve">
<g>
	<path d="M38,1h-8v29c0,1.1-0.9,2-2,2c-0.9,0-1.6-0.6-1.8-1.2L19.5,6.9V6.8V6.7c-1.4-4-5.2-6.6-9.4-6.6c-5.5,0-10,4.5-10,10v29h8V10
		c0-1.1,0.9-2,2-2c0.9,0,1.6,0.6,1.8,1.2l6.6,23.9v0.1v0.1c1.4,4,5.2,6.6,9.4,6.6c5.5,0,10-4.5,10-10L38,1L38,1z"/>
	<path d="M93.4,16h-10c-1.9,0-3.5-1.6-3.5-3.5S81.4,9,83.4,9h19.5V1H83.4c-6.3,0-11.5,5.2-11.5,11.5S77,24,83.4,24h10
		c1.9,0,3.5,1.6,3.5,3.5S95.3,31,93.4,31H73.2L65.3,6.8V6.7c-1.4-4-5.2-6.6-9.4-6.6s-8,2.7-9.4,6.6v0.1L36,39h8.4L54,9.3
		C54.2,8.6,55,8,56,8s1.6,0.6,1.9,1.3L67.3,39h8.4l0,0h17.7c6.3,0,11.5-5.2,11.5-11.5S99.8,16,93.4,16z"/>
	<path d="M131.6,6.8L131.6,6.8c-1.4-4.1-5.2-6.7-9.4-6.7c-4.2,0-8,2.7-9.4,6.6v0.1L102.1,39h8.4l9.6-29.7C120.3,8.7,121,8,122,8
		s1.6,0.6,1.9,1.3l9.6,29.7h8.4L131.6,6.8z"/>
</g>
</svg>
