<?xml version="1.0" encoding="utf-8"?>
<!-- Generator: Adobe Illustrator 21.1.0, SVG Export Plug-In . SVG Version: 6.00 Build 0)  -->
<svg version="1.1"
	 id="svg3100" xmlns:cc="http://creativecommons.org/ns#" xmlns:dc="http://purl.org/dc/elements/1.1/" xmlns:inkscape="http://www.inkscape.org/namespaces/inkscape" xmlns:rdf="http://www.w3.org/1999/02/22-rdf-syntax-ns#" xmlns:sodipodi="http://sodipodi.sourceforge.net/DTD/sodipodi-0.dtd" xmlns:svg="http://www.w3.org/2000/svg"
	 xmlns="http://www.w3.org/2000/svg" xmlns:xlink="http://www.w3.org/1999/xlink" x="0px" y="0px" viewBox="0 0 545.6 314.2"
	 style="enable-background:new 0 0 545.6 314.2;" xml:space="preserve">
<path id="path3115" d="M64,88.8c-22.7,20.5-30.9,67,9.9,94.2l163,111.8l-79-181.1C141.4,71,96.1,61.7,64,88.8"/>
<path id="path3117" d="M204.3,0.8C177.8,1.3,138,32.8,155.7,81l81.7,192.8L266.2,71C272.9,20.7,234.7-2.6,204.3,0.8"/>
<path id="path3119" d="M279,63.3h15.5c0,0,8.3,0,9.4,3.9c-6.1,5-22.6,5.6-20.4,32.1l26,174.4l81.2-193.3
	c16.6-43.2-18.2-79.2-49.2-80.3C339.9,0.1,338.5,0,337,0C309.2,0,277.4,20.2,279,63.3"/>
<path id="path3121" d="M387.2,115.4l-76.8,178.9l162.9-112.4c37.6-26.6,31.5-69.2,10.5-90.3c-8.8-9.9-25-17.6-42.1-17.6
	C421.5,74,399.8,84.7,387.2,115.4"/>
<path id="path3123" d="M455.2,207.3l-153,106.9h188.4c38.7,0,63.5-39.9,52.5-76.4c-7.4-23-29.3-41-54.7-41.1
	C477.6,196.7,466.3,199.9,455.2,207.3"/>
<path id="path3125" d="M59.6,314.2h185.6L92.2,207.3c-35.4-22.7-75.1-9.4-89.5,28.3C-9.4,278.7,20.9,314.2,59.6,314.2"/>
</svg>
