<?xml version="1.0" encoding="utf-8"?>
<!-- Generator: Adobe Illustrator 21.1.0, SVG Export Plug-In . SVG Version: 6.00 Build 0)  -->
<svg version="1.1"
	 id="svg2" inkscape:version="0.48.4 r9939" sodipodi:docname="WKMG 2001.svg" xmlns:cc="http://creativecommons.org/ns#" xmlns:dc="http://purl.org/dc/elements/1.1/" xmlns:inkscape="http://www.inkscape.org/namespaces/inkscape" xmlns:rdf="http://www.w3.org/1999/02/22-rdf-syntax-ns#" xmlns:sodipodi="http://sodipodi.sourceforge.net/DTD/sodipodi-0.dtd" xmlns:svg="http://www.w3.org/2000/svg"
	 xmlns="http://www.w3.org/2000/svg" xmlns:xlink="http://www.w3.org/1999/xlink" x="0px" y="0px" viewBox="0 0 336 147"
	 style="enable-background:new 0 0 336 147;" xml:space="preserve">
<sodipodi:namedview  bordercolor="#666666" borderopacity="1.0" fit-margin-bottom="0" fit-margin-left="0" fit-margin-right="0" fit-margin-top="0" id="base" inkscape:current-layer="layer1" inkscape:cx="484.05503" inkscape:cy="-31.385748" inkscape:document-units="px" inkscape:pageopacity="0.0" inkscape:pageshadow="2" inkscape:window-height="706" inkscape:window-maximized="1" inkscape:window-width="1366" inkscape:window-x="-8" inkscape:window-y="-8" inkscape:zoom="0.98994949" pagecolor="#ffffff" showgrid="false">
	</sodipodi:namedview>
<path id="path70062" inkscape:connector-curvature="0" d="M158.5,83.4h24.9c5.7,0.4,15.9,5.3,15.9,17.2c0,12.4-10.5,17.3-16.2,17.9
	h-24.5L158.5,83.4 M158.1,28.4h20.5c7,0.4,15.3,5.5,15.3,15.1c0,9.4-6.3,15.7-14.4,16.8h-21.4L158.1,28.4 M130.1,5.5v135.8h66
	c15.7,0,34.3-15.7,34.3-36.2c0-21.4-14-31.9-22.9-36.2c0,0,16.2-9.4,15.5-29.7c-0.7-27.3-26-33.8-34.7-33.8L130.1,5.5"/>
<path id="polygon70064" inkscape:connector-curvature="0" d="M28.8,63.1l85.6,83.4V5.5H85.6v76.2L0,0v141.3h28.8L28.8,63.1z"/>
<path id="path70066" inkscape:connector-curvature="0" d="M235.1,71.9c0.7,42.9,31.6,75.1,71.4,75.1c9.4,0,19.4-1.8,29.5-5.7v-27.7
	c-8,4.9-17,7.3-25.8,7.3c-24.1,0-46.8-17.8-45.8-50.1c1.6-26.2,23.1-44.3,46.3-44.3c8.5,0,17.2,2.4,25.3,7.8V7.4
	c-9.4-3.8-18.8-5.5-27.8-5.5C268.6,1.9,235.8,35.3,235.1,71.9"/>
</svg>
