<?xml version="1.0" encoding="utf-8"?>
<!-- Generator: Adobe Illustrator 21.1.0, SVG Export Plug-In . SVG Version: 6.00 Build 0)  -->
<svg version="1.1"
	 id="svg4858" xmlns:cc="http://creativecommons.org/ns#" xmlns:dc="http://purl.org/dc/elements/1.1/" xmlns:rdf="http://www.w3.org/1999/02/22-rdf-syntax-ns#" xmlns:svg="http://www.w3.org/2000/svg"
	 xmlns="http://www.w3.org/2000/svg" xmlns:xlink="http://www.w3.org/1999/xlink" x="0px" y="0px" viewBox="0 0 300 80"
	 style="enable-background:new 0 0 300 80;" xml:space="preserve">
<g id="layer1" transform="translate(-502.04782,-672.84143)">
	<g id="g4454" transform="matrix(3.8755084,0,0,-3.8755084,503.04782,676.29963)">
		<path id="path4456" d="M-0.3,0.3H6c1.4,0,3.1-1.3,3.9-2.1l10.9-12.1V0.3h3.7v-19.3H18c-1.2,0-2.3,0.3-3.6,1.6L3.4-5.4v-13.7h-3.7
			L-0.3,0.3z"/>
	</g>
	<g id="g4458" transform="matrix(3.8755084,0,0,-3.8755084,803.04782,751.79799)">
		<path id="path4460" d="M-0.3,0.3C-4.7-0.3-9.2-0.4-13.7,0c-2.6,0.2-5.2,0.8-7.6,2c-3,1.6-3.9,5-3.9,8.2c0,2.9,0.9,6,3.5,7.7
			c1.7,1.1,3.5,1.5,5.5,1.8c5.3,0.9,10.6,0.7,15.7,0.2v-2.8C-6.6,18.3-13,18-15.2,15.2c-1.4-1.7-1.6-3.5-1.6-4.9
			c0-2.6,0.9-6.6,6.2-7.4c3.5-0.5,6.9-0.1,10.3,0.5V0.3z"/>
	</g>
	<g id="g4462" transform="matrix(3.8755084,0,0,-3.8755084,655.56649,740.13545)">
		<path id="path4464" d="M-0.3,0.3c0.5,0,8.9,0,11.8,0v-2.9C5.7-2.9,0.2-3-5.7-2.7c-5,0.2-5.8,2.7-5.9,5.1v14.3h22.8V14H-3.5V9H9.9
			V6.4H-3.5c0-1.5,0-3.1,0.1-3.4C-3.4,1.1-2.5,0.4-0.3,0.3"/>
	</g>
</g>
</svg>
