<?xml version="1.0" encoding="utf-8"?>
<!-- Generator: Adobe Illustrator 21.1.0, SVG Export Plug-In . SVG Version: 6.00 Build 0)  -->
<svg version="1.1" id="Layer_1" xmlns="http://www.w3.org/2000/svg" xmlns:xlink="http://www.w3.org/1999/xlink" x="0px" y="0px"
	 viewBox="0 0 242.6 48.5" style="enable-background:new 0 0 242.6 48.5;" xml:space="preserve">
<style type="text/css">
	.st0{fill:#FFFFFF;}
</style>
<path d="M46.9,0h11.9c1.1,0,1.7,0.6,1.7,1.8v44.9c0,1.2-0.6,1.8-1.7,1.8H46.9c-1.2,0-1.7-0.6-1.7-1.8V1.8C45.2,0.6,45.7,0,46.9,0z
	 M29.4,48.5H11.5C4.7,48.5,0,44.4,0,37.4V23.5c0-7,4.7-11.1,11.5-11.1h17.9c6.8,0,11.5,4.1,11.5,11.1v13.9
	C40.8,44.4,36.2,48.5,29.4,48.5L29.4,48.5z M66,14.5v-0.2c0-1,0.6-1.8,1.7-1.8h12.4c1.2,0,1.6,0.9,1.6,2v32c0,1.3-0.5,2-1.8,2H67.7
	c-0.9,0-1.7-0.3-1.7-1.3V14.5z M80.1,10.4H67.7c-0.9,0-1.7-0.3-1.7-1.3V1.4c0-1,0.7-1.4,1.7-1.4h12.4c1,0,1.6,0.3,1.6,1.4v7.4
	C81.7,9.9,81.1,10.4,80.1,10.4z M101.9,14.8l3.8,20.4c0.1,0.5,0.5,0.9,1,0.9c0.6,0,0.9-0.4,1-0.9l4.1-20.9c0.2-1.1,0.9-1.7,2-1.7
	h13.1c1,0,1.6,0.5,1.6,1.5c0,0.3-0.1,0.5-0.1,0.8l-8.1,31.7c-0.4,1.5-1.9,2-3.3,2H95.3c-1.4,0-2.2-0.5-2.6-2l-7.8-32.3
	c-0.1-0.2-0.1-0.5-0.1-0.7c0-0.8,0.7-1,1.4-1h14C101.5,12.5,101.7,13.8,101.9,14.8L101.9,14.8z M170.2,35.9h0.2
	c0.5,0,1.1,0.5,1.1,1.1v1.2c0,6.4-4.6,10.3-10.9,10.3h-21.1c-5.5,0-9.7-4.5-9.7-9.9V22.7c0-6.1,5.1-10.2,10.9-10.2h19.5
	c6,0,11.3,4.3,11.3,10.5v8.5c0,1-0.8,1.5-1.8,1.5h-19.4c-2.6,0-5.1,0.9-5.1,4c0,3.3,2.6,4.2,5.4,4.2c1.8,0,4.4-0.5,4.7-2.7l0.2-1.6
	c0.1-0.9,0.8-1,1.6-1L170.2,35.9L170.2,35.9L170.2,35.9z M176.1,38.4V2.2c0-1.8,1.3-2.2,2.8-2.2h11.2c1.5,0,1.7,1,1.7,2.3v8.3
	c0,1.1,0.6,1.8,1.7,1.8h2.3c1.3,0,1.8,0.8,1.8,2v7.8c0,1.2-0.6,1.5-1.7,1.5h-3c-1.1,0-1.5,1-1.5,2v7.3c0,2.6,1.1,4.3,3.8,4.3h0.5
	c1.1,0,1.4,0.6,1.4,1.6v7.3c0,1.2-0.6,2.1-2,2.1h-9.8c-3.1,0-6-1.3-7.9-3.8C176.3,42.7,176.1,40.7,176.1,38.4L176.1,38.4z
	 M201.5,38.4V2.2c0-1.8,1.3-2.2,2.8-2.2h11.2c1.5,0,1.7,1.1,1.7,2.3v8.3c0,1.1,0.6,1.8,1.7,1.8h2.3c1.3,0,1.8,0.8,1.8,2v7.8
	c0,1.2-0.6,1.5-1.7,1.5h-3c-1.1,0-1.6,1-1.6,2v7.3c0,2.6,1.1,4.3,3.9,4.3h0.5c1.1,0,1.4,0.6,1.4,1.6v7.3c0,1.2-0.6,2.1-2,2.1H211
	c-3.1,0-6-1.3-7.8-3.8C201.8,42.7,201.5,40.7,201.5,38.4L201.5,38.4z M226.9,14.5v-0.2c0-1,0.6-1.8,1.7-1.8H241c1.2,0,1.6,0.9,1.6,2
	v32c0,1.3-0.5,2-1.8,2h-12.2c-0.9,0-1.7-0.3-1.7-1.3L226.9,14.5L226.9,14.5z M241,10.4h-12.4c-0.9,0-1.7-0.3-1.7-1.3V1.4
	c0-1,0.7-1.4,1.7-1.4H241c1,0,1.6,0.3,1.6,1.4v7.4C242.6,9.9,242.1,10.4,241,10.4z"/>
<path class="st0" d="M16.3,24.3v12.4c0,2.5,1.7,4.6,4.3,4.6c2.6,0,4.2-2.1,4.2-4.6V24.3c0-2.5-1.7-4.6-4.2-4.6
	C18,19.7,16.3,21.8,16.3,24.3z M147.2,26.6h7c1.1,0,1.6-0.6,1.6-1.6c0-3.5-1.6-5-5.1-5c-3.1,0-5.3,1.2-5.3,4.6
	C145.3,25.9,145.8,26.6,147.2,26.6L147.2,26.6z"/>
</svg>
