<svg id="Layer_1" data-name="Layer 1" xmlns="http://www.w3.org/2000/svg" viewBox="0 0 225 225"><title>occ</title><path d="M0,120.5V104.25a10.82,10.82,0,0,0,.28-1c1-5.85,1.67-11.77,3-17.54a105.24,105.24,0,0,1,12.84-31A118.23,118.23,0,0,1,41.65,25,104.32,104.32,0,0,1,69.16,8.54,115,115,0,0,1,98.24.81C100,.58,101.75.27,103.5,0h21a8.2,8.2,0,0,0,1,.3c3.89.61,7.82,1,11.68,1.82C146.62,4,155.42,7.65,164,11.9,177.24,18.5,188.4,27.82,198,39a116.14,116.14,0,0,1,21.74,38.17,94.44,94.44,0,0,1,4.5,20.28c.23,2,.51,4,.76,6v16.75c-.08.4-.18.81-.23,1.21-.48,3.79-.82,7.6-1.46,11.36a112.8,112.8,0,0,1-6.74,23.56,100,100,0,0,1-10.72,20,119.63,119.63,0,0,1-17.12,19.46,112.3,112.3,0,0,1-27.15,18.46,110.07,110.07,0,0,1-33.17,10c-1.72.23-3.43.49-5.14.74H102a3.53,3.53,0,0,0-.67-.26c-5.48-.91-11-1.66-16.45-2.75-11.4-2.29-21.79-7-31.51-13.32a119.7,119.7,0,0,1-28.73-26A113.93,113.93,0,0,1,7.21,153,106.35,106.35,0,0,1,.76,126.54C.52,124.53.25,122.51,0,120.5Zm112.53,78.56c45.61.16,84.3-34.43,86.46-83.36a85.93,85.93,0,0,0-83.24-89.52C63.88,24.52,27.93,66,26.43,109.7,24.71,159.47,65.36,199.91,112.53,199.06Z"/><path d="M189,148.43c-.61,1.37-1.17,2.77-1.85,4.1a71.37,71.37,0,0,1-11.28,16.26c-13.18,14.11-29.48,22.42-48.4,25.62a85.19,85.19,0,0,1-14.4,1.22A79.81,79.81,0,0,1,70,183.1a80.83,80.83,0,0,1-29.82-32.69,79.73,79.73,0,0,1-8-29.59,83,83,0,0,1,6.28-39.67A73,73,0,0,1,53.29,58.81,82.6,82.6,0,0,1,97.49,34.4a73.65,73.65,0,0,1,38.07,2.38c5.27,1.75,10.46,3.63,15.15,6.67s8.91,6.38,11.79,11.14c4.7,7.77,5.77,16,2.15,24.49a17.87,17.87,0,0,1-6.46,8.11c-2.45,1.61-2.78,1.49-4-1.23a3,3,0,0,1-.18-.46c-2.46-9.31-8.71-15.67-16.51-20.63-8.1-5.15-17.13-7.42-26.68-7.7C94.86,56.67,81.3,62.44,69.58,73c-7.78,7-12.68,15.78-15.89,25.59-4.62,14.13-4,28.22.76,42.19A63.45,63.45,0,0,0,71.22,167,64.78,64.78,0,0,0,106,183.92a82.12,82.12,0,0,0,57.41-11.33A78.78,78.78,0,0,0,188,149.2c.22-.32.46-.63.69-.94Z"/><path d="M183.3,151.62c-1.4,1.71-2.75,3.48-4.21,5.13-11.52,13-26.34,19.85-43.07,23.19-15.24,3.05-30,1.34-44.32-4.44a54.4,54.4,0,0,1-21.48-16,61.77,61.77,0,0,1-14.43-35.51c-.85-10.51.66-20.59,5.63-30,5.25-10,12.11-18.42,22.11-24a48.75,48.75,0,0,1,18-5.35,45.37,45.37,0,0,1,26.27,4.16,36.08,36.08,0,0,1,15.87,14.91,24.27,24.27,0,0,1,2.81,11.17c.16,4.64-.8,8.94-3.72,12.64a39.38,39.38,0,0,1-3.53,3.87,6.45,6.45,0,0,1-2.3,1.42c-1.76.61-2.17.29-2.73-1.45A28.68,28.68,0,0,0,120.88,95a30,30,0,0,0-35.93,3.54c-7.14,6.33-10.57,14.36-11.17,23.75a40.1,40.1,0,0,0,11.79,31.41c11.73,12.29,26.36,17.84,43.11,18.1,17.93.27,33.91-5.6,48.35-16,2-1.45,4-3,5.94-4.49Z"/></svg>