<?xml version="1.0" encoding="utf-8"?>
<!-- Generator: Adobe Illustrator 21.1.0, SVG Export Plug-In . SVG Version: 6.00 Build 0)  -->
<svg version="1.1"
	 id="svg11398" xmlns:cc="http://creativecommons.org/ns#" xmlns:dc="http://purl.org/dc/elements/1.1/" xmlns:rdf="http://www.w3.org/1999/02/22-rdf-syntax-ns#" xmlns:svg="http://www.w3.org/2000/svg"
	 xmlns="http://www.w3.org/2000/svg" xmlns:xlink="http://www.w3.org/1999/xlink" x="0px" y="0px" viewBox="0 0 300 123"
	 style="enable-background:new 0 0 300 123;" xml:space="preserve">
<g id="layer1" transform="translate(-603.89875,-683.47964)">
	<g id="g4500" transform="matrix(0,5.7762472,5.7762472,0,754.27013,715.62516)">
		<path id="path4502" d="M0,0c0,1.5-1.2,2.7-2.7,2.7S-5.4,1.5-5.4,0s1.2-2.7,2.7-2.7S0-1.5,0,0"/>
	</g>
	<g id="g4504" transform="matrix(0,5.7762472,5.7762472,0,686.76313,754.96718)">
		<path id="path4506" d="M0,0h8.6v3.8H-2.3c0,0-0.2,1.6,2.1,1.6h1.9l-3.5,3.4c0,0-2.9,0.8-4.5-2.5L0,0"/>
	</g>
	<g id="g4508" transform="matrix(0,5.7762472,5.7762472,0,764.81178,718.83098)">
		<path id="path4510" d="M0,0h14.9v-3.7H3.6L0,0"/>
	</g>
	<g id="g4512" transform="matrix(0,5.7762472,5.7762472,0,803.38556,732.43982)">
		<path id="path4514" d="M0,0c0-0.9,1.7-1.5,5-1.5s5.7,0.4,5.7,1.6S8.8,1.6,5,1.6C1.1,1.6,0,0.9,0,0z M4.9,5.5
			c6.6,0,7.7-2.3,7.7-5.2c0-6.9-7.3-5.5-9.5-5.5l-5.3,5.3C-2.3,2.9-1.5,5.5,4.9,5.5"/>
	</g>
	<g id="g4516" transform="matrix(0,5.7762472,5.7762472,0,644.03623,721.32054)">
		<path id="path4518" d="M0,0c0-1,1.2-1.8,5.2-1.8c4,0,6.1,0.5,6.1,1.8c0,1.3-2.2,1.7-6.1,1.7C1.3,1.8,0,1.3,0,0z M6.5,6.7l7.9-8
			c0-0.7,0-5.5-8-5.5c-9.5-0.3-9,5-9,6.8c0,2.8,0.8,4.4,2.1,5.3C2.3,7.4,6.5,6.7,6.5,6.7"/>
	</g>
	<g id="g4520" transform="matrix(0,5.7762472,5.7762472,0,864.74663,728.23471)">
		<path id="path4522" d="M0,0c0.1,0.4,0.5,2.7,3.8,2.7l9.4,0v3.9l-10.6,0c-1.7,0-5.1-1.5-5.8-4.7l5.7-5.7h10.7V0H0"/>
	</g>
</g>
</svg>
