<?xml version="1.0" encoding="utf-8"?>
<!-- Generator: Adobe Illustrator 21.1.0, SVG Export Plug-In . SVG Version: 6.00 Build 0)  -->
<svg version="1.1" id="Layer_1" xmlns="http://www.w3.org/2000/svg" xmlns:xlink="http://www.w3.org/1999/xlink" x="0px" y="0px"
	 viewBox="0 0 94.4 79.6" style="enable-background:new 0 0 94.4 79.6;" xml:space="preserve">
<path d="M51.3,79.6V59.3h4c4.6-0.4,7.7-3.5,7.8-7.8V39.7h7.8L53.1,0H31.8C14.4,0,0,12.2,0,30.3c0,15.2,9.2,26.1,22.8,28.2v21.2H51.3
	z M47.6,19.8c4.1,0,7.3,3.3,7.3,7.3c0,4.1-3.3,7.3-7.3,7.3s-7.3-3.3-7.3-7.3C40.2,23.1,43.5,19.8,47.6,19.8z"/>
<path d="M86.6,51.4V39.7h0h7.8L77,0H65.6L83,39.7h-8v10.5c0,6.4-2.7,9.1-11.3,9v20.3H75V59.3h3.7C82.1,59.4,86.6,56.7,86.6,51.4z"/>
</svg>
