<?xml version="1.0" encoding="utf-8"?>
<!-- Generator: Adobe Illustrator 21.1.0, SVG Export Plug-In . SVG Version: 6.00 Build 0)  -->
<svg version="1.1"
	 id="Layer_1" inkscape:version="0.47 r22583" sodipodi:docname="New document 1" xmlns:cc="http://creativecommons.org/ns#" xmlns:dc="http://purl.org/dc/elements/1.1/" xmlns:inkscape="http://www.inkscape.org/namespaces/inkscape" xmlns:rdf="http://www.w3.org/1999/02/22-rdf-syntax-ns#" xmlns:sodipodi="http://sodipodi.sourceforge.net/DTD/sodipodi-0.dtd" xmlns:svg="http://www.w3.org/2000/svg"
	 xmlns="http://www.w3.org/2000/svg" xmlns:xlink="http://www.w3.org/1999/xlink" x="0px" y="0px" viewBox="0 0 166.2 234"
	 style="enable-background:new 0 0 166.2 234;" xml:space="preserve">
<path d="M82.9,0C3.3,0.2,0,99.4,0,117.7C0.1,173,22.6,234.1,83.4,234c60.7-0.1,83-61.7,82.9-117C166.2,98.7,162.5-0.1,82.9,0z
	 M83.4,230.7c-57.7,0.1-73.2-61.2-73.3-113.8C10,99.6,7.1,2.9,82.7,2.7c75.6-0.1,73.5,97,73.5,114.4
	C156.3,169.6,141,230.5,83.4,230.7z"/>
<path d="M121.4,90.4c-6.8-10.8-16.3-23.5-17.3-36.6c-0.7-8.2-0.2-17.4-5.7-24.2c-1.6-2-3.9-3.8-6.1-5c-2.4-1.2-5.5-2-8.2-2
	c-2.6,0-5.2,0.4-7.6,1.1c-2.9,0.9-5.8,1.9-8.8,2.4c-3.5,0.5-6.3,0.3-9.8-0.5c-2-0.5-2.6-0.6-4.6-1.1c-1.1-0.2-4.2-1.1-5.1-0.2
	c-2.3,2.3,2.6,5.1,4,6.1c3.2,2.3,4.5,3.1,7.6,5.7c4.1,3.6,7.4,7.8,8.6,13.1c0.4,1.6,0.5,3.1,0.5,4.7c0.3,23-38.1,45.5-37.5,86.3
	c0.2,14.4,7.9,16.8,7.8,8.8c-0.1-9.5,3.3-19.7,6.7-28.5c0.8-2,3.4-2.6,2.8,0.9c-0.9,5.6-3.2,15.2-3,31c0.1,3.8,0.3,7.6,0.8,11.4
	c0.4,3.1,1.1,6,2,9c0.7,2.5,1.7,4.9,2.9,7.1c1,1.8,2.1,3.5,3.4,5c1.3,1.5,2.7,2.6,4.2,3.9c0.9,0.7,1.9,1.4,2.3,2.5
	c0.6,1.7-1.5,2.3-2.6,2.8c-1.2,0.6-2.3,1.2-3.5,1.7c-1.7,0.8-3.3,1.7-4.9,2.6c-1,0.6-2.1,0.9-3,1.5c-1,0.6-1.4,1.6,0,1.9
	c0.7,0.1,1.4-0.1,2.1-0.1c1.2,0,2.4-0.2,3.5,0.2c1.5,0.6,1.4,2,1.5,3.4c0.1,1.5,1.1,2,2.5,1.6c1.6-0.4,2.7-1.6,3.9-2.6
	c0.9-0.7,1.8-1.5,2.9-2c2.1-1,4.5-0.7,6.8-0.6c1.2,0.1,3,0.6,4-0.4c1-1,0.3-2.8-0.2-3.9c-0.4-1.1-1-2.1-1.5-3.2
	c-0.2-0.5-0.6-0.9-0.8-1.4c-0.9-2,6.1-3.5,7.1-3.8c3.4-0.9,6.9-1.7,10.4-2c3.3-0.3,7-0.3,10.1,1c1.3,0.5,2.4,1.5,3.3,2.6
	c0.5,0.6,1.7,2.5,0.6,3.3c-1.6,1.2-3.2,2.2-4.8,3.4c-1,0.8-1.9,1.6-2.8,2.5c-0.6,0.7-0.8,2,0.5,1.9c1.7-0.1,3.4-0.2,5.1-0.2
	c1.2,0,2.5,0.2,3.5,0.9c1.7,1.1,2,3.6,3.9,4.5c0.5,0.3,1.2,0.3,1.7,0.1c1.2-0.4,1.8-1.6,2.5-2.6c0.6-0.9,1.2-1.8,2.2-2.3
	c0.6-0.3,1.3-0.5,2-0.5c1.2,0,2.5,0,3.7,0.2c1,0.1,2.3,0.6,3.2-0.1c1.6-1.3-2.7-4.1-3.5-4.6c-2-1.2-4.8-2.5-5.4-5
	c-0.7-3,0.8-6,2-8.7c1.3-2.8,3.1-5.3,4.1-8.2c0.9-2.7,1.6-5.4,2-8.3c2.2-15.4-1.4-31.8-5.9-46.5c-0.5-1.8-1.2-3.5-1.7-5.3
	c-0.8-2.8,1.9-3.4,3.3-0.7c1.3,2.6,9.9,19.1,12.5,31.5c1.6,7.8,7.5,8.1,7.3-5.8C138.3,119.9,130.7,105.3,121.4,90.4z M79,32.3
	c2.3-3.6,6.7-4.9,9.7-2.9c3.1,2,3.7,6.5,1.4,10.1c-2.3,3.6-6.7,4.9-9.7,2.9C77.3,40.4,76.7,35.9,79,32.3z M76.3,57.2
	c4.4-3.4,15.3-5,17.9-17.7c0.1-0.5,0.6-1.5,1.9,0c2.3,2.7,2.1,13.7-1.6,17.6c-2.2,2.2-5.9,2.5-8.8,2.9c-3.3,0.5-6.4,1.2-9.6,2
	C73.2,62.7,73.4,59.5,76.3,57.2z M104,179.5c-3.3,0.2-7.4-2.1-13.4-1.7c-10.3,0.7-13.4,4.6-21.9,3.1c-4.8-0.9-8.4-3.6-10.4-8.3
	c-2.3-5.3-2.5-11.4-2.9-17.1c-0.4-6.4-0.4-12.8,0-19.2c0.3-4.6,0.8-9.2,1.4-13.8c1-7.6,2.6-15.1,4.4-22.6c1.5-6.6,3.1-13.2,6-19.4
	c2.1-4.5,5.2-8.9,9.8-11.2c5-2.5,12-2.7,17-0.2c11.2,5.7,10.9,19.1,11.2,29.9c0.3,8.3,1.3,16.9,2.8,25.1c1.7,9.1,5.4,17.8,6.3,27
	C115.3,161.4,116.4,178.9,104,179.5z"/>
<path d="M83.2,35.4c1.2-1.7,3.2-2.3,4.5-1.4c1.4,0.9,1.5,3,0.4,4.7c-1.1,1.7-3.2,2.3-4.5,1.4C82.2,39.2,82.1,37.1,83.2,35.4"/>
</svg>
