<?xml version="1.0" encoding="utf-8"?>
<!-- Generator: Adobe Illustrator 21.1.0, SVG Export Plug-In . SVG Version: 6.00 Build 0)  -->
<svg version="1.1"
	 id="svg7802" inkscape:version="0.48.5 r10040" sodipodi:docname="Pepsi_Cola_logo_1940.svg" xmlns:cc="http://creativecommons.org/ns#" xmlns:dc="http://purl.org/dc/elements/1.1/" xmlns:inkscape="http://www.inkscape.org/namespaces/inkscape" xmlns:rdf="http://www.w3.org/1999/02/22-rdf-syntax-ns#" xmlns:sodipodi="http://sodipodi.sourceforge.net/DTD/sodipodi-0.dtd" xmlns:svg="http://www.w3.org/2000/svg"
	 xmlns="http://www.w3.org/2000/svg" xmlns:xlink="http://www.w3.org/1999/xlink" x="0px" y="0px" viewBox="0 0 225.9 124"
	 style="enable-background:new 0 0 225.9 124;" xml:space="preserve">
<sodipodi:namedview  bordercolor="#666666" borderopacity="1.0" fit-margin-bottom="0" fit-margin-left="0" fit-margin-right="0" fit-margin-top="0" id="base" inkscape:current-layer="layer1" inkscape:cx="34.757571" inkscape:cy="100.31786" inkscape:document-units="px" inkscape:pageopacity="0.0" inkscape:pageshadow="2" inkscape:window-height="705" inkscape:window-maximized="1" inkscape:window-width="1366" inkscape:window-x="-8" inkscape:window-y="-8" inkscape:zoom="0.98994949" pagecolor="#ffffff" showgrid="false">
	</sodipodi:namedview>
<path id="path19048" inkscape:connector-curvature="0" sodipodi:nodetypes="ccccccccccccccccc" d="M50.9,62.9l-0.6,34.3
	c-0.2,10.8-7.4,20.9-17,24.4c-13.6,5-29.2,3-32.9-11.9c-3-11.8,15.5-17.6,22.6-10.6c7.3,7.3-3.4,17.9-13.6,12.1
	c1.3,4.6,7.6,6.2,14.9,4.6c11.7-2.5,15-19.2,13.2-41.4c-1.3-14.9-1.6-39.3,18.9-38.7c-2.6,4.4-7.2,14-5,21.4
	c21.6-0.8,21.2-25.8-1.1-24.2c-4.9,0.4-22,7.4-27.4,19c-3.6,7.7-6.7,24.5,6.3,23.6c-1.4,2.5-5.8,4.2-9.8,4.2
	C8.9,79.3,0.2,69,11.2,49.3c13.2-23.7,69.2-36.2,70.6-6.5C82.2,55.4,67.6,64.3,50.9,62.9L50.9,62.9z"/>
<path id="path19107" inkscape:connector-curvature="0" sodipodi:nodetypes="ccccccccccccccccc" d="M75.3,95.6
	c-2.3,1.1-10.5,1.8-18.8,2.8l-0.1-30.8c5.3-0.8,13.2-1.7,17.3-2.6c0.2,2.7,0.1,6,0.3,8.7c0,0-0.6-0.4-1-0.6
	c-2.9,0.2-5.3,0.8-8.1,0.8l0.3,4.3c2-0.5,4.4-0.6,6.2-1c0.7-0.2,1.3-0.6,1.8-1c-0.2,2.7-0.3,6.2-0.3,8.8c-0.4-0.5-1.1-0.7-1.5-0.8
	c-1.9,0.4-4.3,0.7-6.3,0.9c0.2,1.4,0.3,3,0.5,4.3c2.4-0.3,4.4-0.5,6.8-0.7c0.9-0.5,1.9-1.8,1.9-1.8L75.3,95.6z"/>
<path id="path19111" inkscape:connector-curvature="0" sodipodi:nodetypes="cccccccccccc" d="M85.7,69.1l0.5,5.4
	C93.2,74.4,91.9,66.4,85.7,69.1z M77.9,95c0,0,0.7-0.8,0.9-1.1L78,65.6c0,0-0.5-0.8-1.3-1.5C90.6,58.4,97.6,62.5,99,69
	c1.4,6.5-2.2,13-13.2,14.1l1.3,9c0.3,0.6,1.3,1.3,1.3,1.3L77.9,95z"/>
<path id="path19114" inkscape:connector-curvature="0" sodipodi:nodetypes="ccccccccccc" d="M112.4,67.9c-8.7-2.8-2.8-10.2,3.4-5.5
	V50.7c-0.6,0.6-1.3,1.2-2.4,1.3c-4.8,0.1-8.2,1.8-10.2,3.3c-7.5,5.5-3.3,16.3,1.8,18.3c10.2,2.5,2.2,10.9-5.7,4.5v12.2
	c1-1.4,2.6-1.4,2.6-1.4c9.5,1,16.4-3.9,16.4-11.8C118.4,72.3,114.7,68.6,112.4,67.9L112.4,67.9z"/>
<path id="path19116" inkscape:connector-curvature="0" sodipodi:nodetypes="ccccccccc" d="M118.8,82.8c0,0,1.5-2.2,1.8-3.5
	l-0.9-27.7c-0.7-1.3-1.8-1.5-1.8-1.5l10.9-3.9c0,0-0.9,1.1-0.9,2.4l1,28.1c0.4,1.2,1.2,1.4,2.2,1.7L118.8,82.8z"/>
<path id="path19118" inkscape:connector-curvature="0" sodipodi:nodetypes="ccccc" d="M129.9,56.4l0.7,7.4l6-2.2l-0.9-7.7
	L129.9,56.4z"/>
<path id="path19120" inkscape:connector-curvature="0" sodipodi:nodetypes="ccccccccccccccccccccc" d="M183,0.2
	c-7.5,0.1-16,3-23.4,5.7c-20.6,7.6-40.4,26.8-65.7,26.8c5.4,11.8,18.9,9.1,30.2,3c11.1-6,20.8-16.2,28.9-19.6
	c-19.2,18.4-20.1,42.7-7.8,60.6c-15.6,8.8-30.8,15.9-46.2,20.7s-31,7.2-47.2,6.6c7.9,15.1,26.6,13.7,46.3,6.6s40.6-19.8,52.8-27.4
	c25.1,22,71.4,6.2,69.5-13.2c-0.7-7.1-9.9-11-20.8-10.1c-10,0.8-27.9,6.1-41,11c-15.4-23.4-4.8-59.4,22.2-64.6c-9,7-3,14,5.3,13.7
	c6.5-0.2,14.3-3.5,12.9-10.3C197.8,3.3,190.5,0,183,0.2z M195.4,68.4c6.3,0,10.9,1.9,11.8,6.6c1.7,9.5-30.8,17.1-43.8,2.1
	C173.5,72.6,186.1,68.3,195.4,68.4z"/>
<path id="path19123" inkscape:connector-curvature="0" sodipodi:nodetypes="cccccccc" d="M167.6,27.4c-14.6,3.9-16.5,34.2-1.1,34.8
	c19,0.7,19.4-35.6,2.8-34.9 M169,36c2.2,0,3.4,6.3,3.3,9.7c-0.2,4-2.1,7.5-3.7,7.5c-2.3,0-3.9-2.5-3.9-5.9
	C164.6,41.9,166.1,36,169,36z"/>
<path id="path19127" inkscape:connector-curvature="0" sodipodi:nodetypes="cccccccccc" d="M192.4,24.3c0.1-0.9,1.3-1.8,1.3-1.8
	l-11.9,2.4c0.7,0.3,1.3,0.6,1.4,1.5V55c0,0-0.8,1.5-1.5,1.9c4.6-0.9,10.9-2.8,16.2-3c0.1-3,0.4-6.1,0.8-9c-1.3,1.7-4.5,1.3-6.3,2.2
	V24.3z"/>
<path id="path19133" inkscape:connector-curvature="0" d="M205.6,21.4c0.5,0.4,1.1,1.3,0.8,2.2l-6.7,29.7c-0.2,0.1-0.4,0.2-0.6,0.4
	c2.6-0.1,7.1-0.1,8.9,0.5c0,0-0.4-0.7-0.6-0.9l0.7-4.6l7.2,1.6V54c-0.5,0.4-1,0.6-1.6,0.8c4.3,0.6,8.3,1.5,11.9,3.5
	c0,0-0.7-0.8-1-1.5c-0.3-3.3-3.4-22.3-5-32.7c0.2-0.2,0.5-0.4,0.7-0.8C215.3,22.7,210.2,21.4,205.6,21.4z M213,35.4l1.2,6.4
	l-3.8-0.7L213,35.4z"/>
</svg>
