<?xml version="1.0" encoding="utf-8"?>
<!-- Generator: Adobe Illustrator 21.1.0, SVG Export Plug-In . SVG Version: 6.00 Build 0)  -->
<svg version="1.1" id="Layer_1" xmlns="http://www.w3.org/2000/svg" xmlns:xlink="http://www.w3.org/1999/xlink" x="0px" y="0px"
	 viewBox="0 0 553.7 379.5" style="enable-background:new 0 0 553.7 379.5;" xml:space="preserve">
<title>Philadelphia Flyers</title>
<path d="M383.1,0H0.1c0,49.1,37,88.8,82.3,88.8h144.4c2.2,0,4.1,1.8,4.1,4.1c-0.1,2.2-1.9,4-4.1,4.1H0c0,49,37,88.7,82.3,88.7h87
	c2.2,0,4,1.7,4.1,4s-1.7,4-4,4.1h-0.1H0c0,49.1,37,88.7,82.3,88.7h29.8c2.3,0,4.1,1.9,4.1,4.2c0,2.2-1.8,4-4.1,4.1H0
	c0,49,37,88.7,82.3,88.7h79.6L310.6,128c23.6-40.1,75.2-53.4,115.3-29.8s53.4,75.2,29.8,115.3s-75.2,53.4-115.3,29.8
	c-25.1-14.8-40.8-41.6-41.4-70.8l-56.3,95.2c31.8,46.2,84.3,73.7,140.4,73.7c94.2,0,170.6-76.4,170.6-170.6S477.3,0,383.1,0z"/>
<path d="M431.6,170.7c0,26.7-21.7,48.4-48.5,48.4c-26.7,0-48.4-21.7-48.4-48.5c0-26.7,21.7-48.3,48.4-48.4
	C409.9,122.2,431.5,143.9,431.6,170.7z"/>
</svg>
