<?xml version="1.0" encoding="utf-8"?>
<!-- Generator: Adobe Illustrator 21.1.0, SVG Export Plug-In . SVG Version: 6.00 Build 0)  -->
<svg version="1.1" id="Layer_1" xmlns="http://www.w3.org/2000/svg" xmlns:xlink="http://www.w3.org/1999/xlink" x="0px" y="0px"
	 viewBox="0 0 387 57" style="enable-background:new 0 0 387 57;" xml:space="preserve">
<path d="M64.9,20.6c-1.4,4-10.4,8.2-32.4,3.2l2.9,13c22,4,35.1,0.7,42.6-7.1c5.5-5.8,6.6-13.3,2.1-19.1C75.2,4.5,64.5,0.1,51.1,0.1
	c-19.2,0-32.9,5.6-40.5,26.5L0.3,54.7h17.9l10.2-28.4c4.2-11.7,12.9-13.6,22.7-13.6C61.3,12.7,66.2,16.9,64.9,20.6z"/>
<path d="M242,32.9l-0.7-0.3c4-1.6,8.3-2.5,12.7-2.5c2.6,0,8.4,0.4,10.9,1.8c0.6,0.3,1.1,0.9,0.9,1.5C264.7,35.9,248.7,35.8,242,32.9
	z M274.7,26.3c-4.2-2.3-11.2-4.1-18-4.3c-14.1-0.6-30.3,4.2-33.5,15.6c-1.9,6.6,4.5,15.4,21,17.9c8.3,1.3,21.4,0.9,30.9-2.2l3.5-9.7
	c-19.2,6.6-44.3,4.7-43.5-5.2c9.3,6,22.8,5.4,32.9,3.8C285.5,39.4,285.3,32,274.7,26.3z"/>
<path d="M304,32.9l-0.7-0.3c4-1.6,8.3-2.5,12.7-2.5c2.6,0,8.4,0.4,10.9,1.8c0.6,0.3,1.1,0.9,0.8,1.5C326.7,35.9,310.7,35.8,304,32.9
	z M336.7,26.3c-4.2-2.3-11.2-4.1-18-4.3c-14.1-0.6-30.3,4.2-33.5,15.6c-1.8,6.6,4.5,15.4,21.1,17.9c8.3,1.3,21.4,0.9,30.9-2.2
	l3.5-9.7c-19.2,6.6-44.3,4.7-43.5-5.2c9.3,6,22.8,5.4,32.9,3.8C347.5,39.4,347.3,32,336.7,26.3z"/>
<path d="M349.7,34.7l-7.1,20H359l5.5-15.4c1.3-3.9,2.5-6.8,7.3-6.8h11.5l3.2-9.2h-21.2C358.2,23.3,352.5,26.8,349.7,34.7z"/>
<polygon points="75.4,54.7 92.4,54.7 103.8,23.3 86.9,23.3 "/>
<path d="M185.4,37.8c1.6-4.3,6.3-6.3,10.5-6.3c4.1,0,8.1,2.4,6.6,6.6l-6.1,16.6h16.4l6.1-16.9c3.2-8.8-3.7-16-19.2-16
	c-17.2,0-27,5.6-30.7,15.9l-6.2,16.9h16.4L185.4,37.8z"/>
<path d="M134.9,31.8c6.6,0.3,12,3.6,11,7.9c-0.9,4.2-7.4,7-14.1,6.7c-6.6-0.3-11.9-3.6-11-7.9C121.8,34.3,128.2,31.5,134.9,31.8z
	 M137.2,22c-17.1-0.7-32.3,6.6-34.3,15.9c-2,9.2,9.5,17.6,26.6,18.3c17.1,0.7,32.3-6.6,34.3-15.9C165.9,31.1,154.4,22.7,137.2,22z"
	/>
</svg>
