<?xml version="1.0" encoding="utf-8"?>
<!-- Generator: Adobe Illustrator 21.1.0, SVG Export Plug-In . SVG Version: 6.00 Build 0)  -->
<svg version="1.1"
	 id="svg41117" xmlns:cc="http://creativecommons.org/ns#" xmlns:dc="http://purl.org/dc/elements/1.1/" xmlns:rdf="http://www.w3.org/1999/02/22-rdf-syntax-ns#" xmlns:svg="http://www.w3.org/2000/svg"
	 xmlns="http://www.w3.org/2000/svg" xmlns:xlink="http://www.w3.org/1999/xlink" x="0px" y="0px" viewBox="0 0 198 152.8"
	 style="enable-background:new 0 0 198 152.8;" xml:space="preserve">
<path d="M196.2,117c-3.9,4.9-13.3,8.4-13.3,8.4l-70.5,25.3V132l51.9-18.5c5.9-2.1,6.8-5.1,2-6.7c-4.8-1.6-13.4-1.1-19.3,1L112.4,120
	v-19.4l2-0.7c0,0,10-3.5,24-5.1c14-1.5,31.2,0.2,44.7,5.3C198.4,105,200.1,112.1,196.2,117z"/>
<path d="M119.1,85.2V37.4c0-5.6-1-10.8-6.3-12.2c-4-1.3-6.5,2.5-6.5,8.1v119.6L74,142.6V0c13.7,2.5,33.7,8.6,44.4,12.2
	c27.3,9.4,36.6,21,36.6,47.3C155,85.2,139.2,94.9,119.1,85.2z"/>
<path d="M14.9,130c-15.6-4.4-18.2-13.6-11.1-18.8c6.6-4.9,17.8-8.5,17.8-8.5l46.2-16.4v18.7l-33.3,11.9c-5.9,2.1-6.8,5.1-2,6.7
	c4.8,1.6,13.4,1.1,19.3-1l16-5.8v16.8c-1,0.2-2.1,0.4-3.2,0.5C48.6,136.6,31.6,135.5,14.9,130L14.9,130z"/>
</svg>
