<?xml version="1.0" encoding="utf-8"?>
<!-- Generator: Adobe Illustrator 21.1.0, SVG Export Plug-In . SVG Version: 6.00 Build 0)  -->
<svg version="1.1" id="Layer_1" xmlns="http://www.w3.org/2000/svg" xmlns:xlink="http://www.w3.org/1999/xlink" x="0px" y="0px"
	 viewBox="0 0 671.5 336.8" style="enable-background:new 0 0 671.5 336.8;" xml:space="preserve">
<g>
	<path d="M483.4,0c-11,0.5-20.9,4.3-28.8,8.9c-8.1,4.7-14.8,10.6-20.3,17.3c-5.6,6.8-9.9,15.1-14,23.4c-4.4,8.8-7.1,18.2-8.6,28.9
		c-1.6,10.9-2.1,22.7-2.6,34.8c-1.4,30.1-0.4,61.8-2.8,91c-0.2,2.5-0.3,5.5-1,8.4c-0.5,2.2-1.8,6-0.8,7.9c1.7,3.4,8.3,0.3,10.2-0.7
		c7.1-3.6,13.6-8.1,15.7-16.2c1.4-5.5,0.8-13.7,0.8-20.4c0-14.7,0.5-27.9,0.5-42.1c0-6.9,0.2-13.9,0.5-20.8
		c0.6-13.7,0.5-27.1,2.2-40.4c1.6-12.7,3.5-24.4,7.3-35.2c3.5-9.8,8.8-20.6,16.1-26.5c3.9-3.2,9.7-5.8,16.1-3.7
		c5.3,1.7,8.9,5.3,10.9,10.4c4.5,11.2,0.8,26.9-3.1,35.4c-9,19.9-23.4,33.3-36.7,48.4c-3.2,3.6-6.7,8.9-5.8,15.2
		c0.9,6.2,4.5,9.5,7.9,13.4c3,3.5,6.6,7.6,10.1,11.2c3.7,3.7,7.4,6.9,9.6,11.8c2.6,5.6,1.5,12.3-1,17.2c-2.4,4.8-5.4,9.1-8.3,13
		c-6.4,8.5-12.9,16-19.4,23.2c-3.1,3.4-6.7,7.3-10.3,10.9c-1.6,1.6-3.6,3.5-5.3,5.4c-1.9,2.1-3.5,3.8-4.6,6.1
		c-3.9,8.5,1.5,18.9,4.7,24.6c1.1,1.9,2.5,5.1,5,5.6c2,0.4,3.3-0.6,4.1-1.2c1.4-1.1,2.3-2.8,3.4-4.6c3-5,6.5-9.9,9.8-14.2
		c11.6-14.8,24.4-29.2,37.1-42.7c5.2-5.5,10.7-10.6,13.8-18.1c1.6-3.9,2.5-8.6,1.9-13.6c-1.1-9.1-6.1-15.2-12.2-19.7
		c-9.7-7.1-18-13.2-26.8-21.1c-3.1-2.8-9.6-8-6.4-13.7c1.5-2.6,4.5-4.2,7.2-6c2.9-1.9,5.2-3.6,7.8-5.4c15.3-10.8,29.6-22.7,39.4-40
		c3.1-5.5,5.9-11.6,7.3-19.1c3-16.3-3.1-31.6-11.3-39.8C498.1,2.6,492.4-0.4,483.4,0z"/>
	<path d="M200.2,75c-10.5-5-25.3-7.3-40.1-5.5c-2.6,0.3-5,0.7-7.6,1.2c-14.5,2.9-27.9,6.9-41,11.5c-26.2,9.2-50,20.2-72.4,32.9
		c-7.4,4.2-14.8,8.5-21.7,13.3c-6.8,4.8-12.5,10.7-15.2,19.8c-2,6.4-2,15.2-2.2,24.1c0,2.6,0.3,6,2.4,6.2c1.7,0.2,3.5-1.8,4.7-3
		c8.5-9.1,18.7-16.6,28.7-23.8c29.4-21.1,61.8-37.8,96.8-53.2c7.1-3.1,14.5-5.9,22.4-7.6c8.7-1.8,18.7-2.4,27.4-1.1
		c9.1,1.3,15.6,4.1,20.3,9.7c4.8,5.8,7,13,7,23c0,9.6-2.1,18.2-4.7,25.3c-5.4,14.8-15.3,25-24.7,35.3c-6.9,7.5-15.1,14.9-23.8,21.2
		c-2,1.5-6.8,5.3-10,5c-3.6-0.3-3.1-6.2-2.9-10.6c0.2-4.2,0.3-8.5,0.4-12.2c0.2-20.6,1-41,1.4-61.7c0.1-4.2,0.6-8.9-0.1-12.1
		c-1.7-7.8-10.2-2.7-14.6-0.5c-3.3,1.6-5.7,2.7-7.8,5c-2.8,3.1-2,10-2.2,15.6c-0.1,4.5-0.2,9.2-0.2,13.7c0,25.5-0.8,49.6-1.1,75.1
		c0,2.3,0.2,4.7-0.5,6.5c-0.7,1.8-2.1,2.4-4.1,3.5c-8.8,5-17.4,9.8-26.2,14.6c-2.7,1.5-7,3.1-7,7c0,3.6,3.1,4.4,5.8,5.6
		c8.2,4,15.5,7.7,23.6,11.3c3.9,1.7,6.5,2.7,7.3,6.7c0.8,4,0.1,8.6,0.1,12.8c0,14.1-0.6,26-0.7,39.8c9-2.2,16.4-4.3,20.9-10.8
		c3.5-5,3.4-12,3.4-20.4c0-4.7-0.5-10.1,4.1-10.2c1.5,0,3.5,1.2,5.2,2c21.5,10,41.7,20.4,63.1,30.5c3.1,1.5,6.5,4,10.7,3.8
		c3.8-0.1,6-3.2,7.8-5.9c1.9-3,3.8-6,4.4-9.4c1.2-6.9-5.9-8.9-10.7-11.2c-25.4-12.2-50.7-24.6-75.8-37.1c-2-1-4.4-1.8-5.9-2.9
		c-3.3-2.4-2.2-9.8-2.2-16.2c0-2.3,0.1-4.4,0.1-6.7c0-2.3-0.3-4.9,0.2-6.6c0.7-2.4,3.4-3.5,5.8-5c21.6-13.4,39-29.9,54.1-49.6
		c5.6-7.2,10.9-14.7,15.1-22.7c4.4-8.3,8-17.3,9-28.7c1.1-12.1-2.1-22.5-7-30.4C215.8,85.6,208.8,79.1,200.2,75z"/>
	<path d="M325.2,258.9c0.6-22.7,0.7-43.7,1.2-66.2c0.1-2.2,0.6-7.3-0.1-9.4c-0.7-1.8-2.5-2.5-4-2.3c-2.6,0.4-4.1,3-5.4,5.1
		c-3.4,5.5-6.2,11.2-9,17c-1.8,3.8-3.5,7.8-5.9,11.5c-1.6,2.6-5.2,8.3-9.4,8c-2-0.1-3.4-2.2-4.1-3.5c-1.4-2.7-2.1-7-2.5-10.8
		c-0.4-3.7,0.3-9.4-1.3-12.1c-1.9-3.3-6.1-2.2-8.6-0.2c-3.2,2.4-3.7,5.5-4.9,9.6c-2.4,8.5-5.4,17.1-9.8,23.8
		c-1.6,2.4-4.3,6.1-7.7,5.9c-2-0.1-3.8-2.4-4.9-4.6c-2.3-4.4-3.7-9-4.6-14.2c-0.5-3-0.5-5.7-1.6-7.8c-0.6-1.2-2-2.6-3.1-3.1
		c-3.4-1.6-8.7,0.1-10.9,1.4c-2.5,1.5-3.2,4.2-5.5,5.2c-3.1,1.2-5.3-0.1-8.5-0.2c-6.5-0.3-10.9,2.7-14.6,6
		c-6.9,6.1-13.1,15.5-16.2,25.1c-1.6,5-3.1,11.9-1.9,18.1c1.1,5.7,4.8,10.2,10.2,10.4c6.1,0.3,10.9-3.2,14.8-6
		c4.3-3.1,7.1-6.3,10.4-10.2c2.3-2.6,5.1-5.3,7.1-8.4c0.5-0.7,1.6-2.6,2.8-2.5c1.4,0.1,1.8,2.9,2.5,4.6c0.7,1.7,1.6,3.4,2.4,4.7
		c1.6,2.7,4.1,6.1,7.3,7c3.8,1.1,8.2-1.1,10.8-2.9c6.7-4.6,11.1-11.2,15.1-18.5c0.8-1.4,2.1-3.4,3.6-3.2c1.4,0.2,1.8,2.4,2.3,4
		c1.5,4.5,4,9.1,8.3,10.6c2.7,0.9,4.8,0,6.6-1.1c4.7-2.8,8.1-7.8,11-12.5c1-1.6,2.2-3.9,4.1-3.8c3.5,0.1,2.6,6.5,2.6,10.6
		c0,4.6-0.2,9.1-0.2,13.3c0,9.2-0.2,17.1-0.5,26.6c-0.4,13-0.6,26.6-0.8,39.8c-0.1,4.1-0.8,10.4,1.2,12.1c1.5,1.3,5.4,0.8,9,0.8
		c3,0,6.6,0.4,8.5-0.2c3.8-1.3,3-6,3.1-11.3C324.6,302.9,324.6,280.8,325.2,258.9z M222.4,234.9c-2.8,5.7-6.4,11.7-10.6,16.1
		c-1.6,1.6-5.9,5.6-8.6,3.6c-2.1-1.5-0.4-7.3,0.4-9.7c1-3.4,2.2-6.1,3.5-8.4c2.7-4.7,7.2-9.8,11.6-12.1c0.7-0.4,1.6-0.7,2.5-0.8
		C227.8,222.4,223.7,232.1,222.4,234.9z"/>
	<path d="M362.2,204.6c7.8-1.4,13.9-5.7,17.5-11c1.8-2.6,3.6-6.6,3.2-11c-0.6-7.4-7.7-11-15.8-10.3c-6.4,0.5-11.1,3-14.9,6.1
		c-3.5,2.9-7.2,7.2-8.2,12.7C342.3,201.9,351.9,206.5,362.2,204.6z"/>
	<path d="M613.8,127.6c-0.3-3.9-2.9-8.3-7.4-7.7c-3.7,0.5-6.8,5-8.8,8c-4.4,6.9-7,15.7-10.7,23c-1.9,3.8-3.9,7.5-6.8,10.1
		c-1.2,1-3.2,2.3-5,2c-1.8-0.3-3.3-3.1-4-5.4c-0.7-2.4-1.2-5.5-1.4-7.9c-0.8-7.4-0.1-16.6-5.6-18.7c-4.1-1.6-7.6,1.5-9.2,3.4
		c-1,1.2-1.8,2.5-3.4,3c-2.3,0.7-4.5,0-6.6,0.1c-6.3,0.3-11.5,3.7-15.4,6.5c-5.4,3.9-10.1,9.4-13.9,15.1c-3.9,5.8-6.9,12.3-8.9,20.2
		c-2,8.2-2.4,18.7,4,22.3c5.3,3,11.7-1.4,15.1-3.8c7.1-5.2,11.1-10.5,16.8-16.9c1.2-1.4,2.5-2.8,3.8-4.6c1-1.3,2.4-4.5,4.1-4.2
		c1.3,0.2,2,3,2.6,4.4c0.8,1.9,1.5,3.5,2.3,4.8c1.7,2.8,4.7,6.6,8.3,7.1c7.5,1,12.3-4.1,15.6-8.3c1.7-2.2,3.3-4.4,4.9-7.1
		c1.2-1.9,3.1-6.7,5.8-6.4c1.7,0.2,1.7,2.4,2.2,4.7c1.1,5.4,4.1,9.9,10.2,7.3c3.1-1.3,5.8-4.1,8.2-7c5-6.1,7.8-11.6,11.6-18.8
		c1.6-3,3.2-8.5,6.6-8.6c4.4-0.2,5.2,6.6,6,9.8c1.7,6.8,4,14.4,9.8,16.9c3.6,1.6,7.8,0.5,10.7-0.7c3.3-1.4,5.6-3.3,7.6-5.3
		c2.7-2.7,6.9-7.3,8.3-11c0.4-1.2,1-4.1-0.8-4.7c-2.3-0.7-4,2.6-6.2,2.9c-3.6,0.4-6.5-2.1-8-4.3c-2.7-4-3.9-10.3-5.3-16.3
		c-1.4-6-2.2-12.1-5.6-16c-1.4-1.6-3.8-2.9-6.2-2.6c-4.5,0.5-6.1,4.7-8.2,7.9c-3.2,5.2-5.6,9.5-8.9,14.6c-1.3,1.9-3.7,5.8-6.7,5
		C611.5,139.8,614.1,130.7,613.8,127.6z M546.8,161.1c-1.4,2.5-2.9,4.8-4.2,7c-1.5,2.5-3,4.7-4.6,6.6c-1.5,1.9-3.6,4.3-5.9,5.3
		c-1.2,0.5-3.7,0.7-4.6,0.1c-2.1-1.4-0.1-6.8,0.7-8.9c2.4-5.9,5-9.8,9.1-13.9c2.1-2.1,4.9-4.8,8-5.3
		C551.5,151.1,548.3,158.4,546.8,161.1z"/>
</g>
</svg>
