<?xml version="1.0" encoding="utf-8"?>
<!-- Generator: Adobe Illustrator 19.2.0, SVG Export Plug-In . SVG Version: 6.00 Build 0)  -->
<!DOCTYPE svg PUBLIC "-//W3C//DTD SVG 1.1//EN" "http://www.w3.org/Graphics/SVG/1.1/DTD/svg11.dtd">
<svg version="1.1" id="Layer_1" xmlns="http://www.w3.org/2000/svg" xmlns:xlink="http://www.w3.org/1999/xlink" x="0px" y="0px"
	 viewBox="0 0 29.3 8.4" enable-background="new 0 0 29.3 8.4" xml:space="preserve">
<polyline points="22.6,0.1 19.2,8.2 23.1,8.2 24.6,4.6 24.6,1.5 25.6,1.5 25.6,8.2 29.3,8.2 29.3,0.1 "/>
<path d="M8.3,4.7C8.8,4.5,9,3.8,9,2.7c0-1-0.2-1.6-0.6-2C8,0.2,7.4,0.1,6.9,0.1H0v8h3.7V1.4l0.9,0v3.4l1.5,3.4h3.9"/>
<path d="M19.3,4.6h-4V7h-0.9V1.4h0.9v2.3h4v0c0-1.6-0.1-2.4-0.6-3C18.1,0.1,16.9,0,14.8,0c-2.1,0-3.3,0.1-3.9,0.7
	c-0.6,0.6-0.7,1.5-0.7,3.3c0,2,0.1,3,0.7,3.6c0.6,0.7,1.8,0.8,3.8,0.8c1.9,0,3.1-0.1,3.8-0.7C19.2,7.2,19.3,6.3,19.3,4.6"/>
<g>
</g>
<g>
</g>
<g>
</g>
<g>
</g>
<g>
</g>
<g>
</g>
</svg>
