<?xml version="1.0" encoding="utf-8"?>
<!-- Generator: Adobe Illustrator 21.1.0, SVG Export Plug-In . SVG Version: 6.00 Build 0)  -->
<svg version="1.1" id="Capa_1" xmlns="http://www.w3.org/2000/svg" xmlns:xlink="http://www.w3.org/1999/xlink" x="0px" y="0px"
	 viewBox="0 0 94 81.2" style="enable-background:new 0 0 94 81.2;" xml:space="preserve">
<g>
	<g>
		<path d="M51.8,0.1C51.4,30.8,29.2,56.3,0,61.8v19.2c39.7-5.7,70.3-39.7,70.7-80.8L51.8,0.1L51.8,0.1z"/>
		<path d="M32.5,33C40,23.6,43.7,12,43,0H24c0.7,7.7-1.5,15.2-6.3,21.2C13.5,26.5,7.3,30,0.8,31.5l0,19.3
			C13.3,49.2,24.6,42.9,32.5,33z"/>
		<path d="M31.8,36c0.8,1.6,1.7,3.2,2.6,4.8c5-5.6,9-12.2,11.7-19.3c-1.1-3.1-2.1-6.3-2.7-9.6c-1.5,8.1-4.9,15.8-10.2,22.4
			C32.7,34.9,32.3,35.5,31.8,36z"/>
		<path d="M59.7,43.4c-3.3,5.4-7.3,10.5-11.7,15c12.2,12,28.2,20.3,46,22.8V62C80.6,59.6,68.7,52.9,59.7,43.4z"/>
		<path d="M93.6,51.1l0-19.3c-6.5-1.5-12.7-5-16.9-10.3c-2.5-3.1-4.3-6.6-5.3-10.3c-1.2,8.6-3.8,16.8-7.4,24.5
			C71.7,44.2,82.1,49.6,93.6,51.1z"/>
	</g>
</g>
</svg>
