<?xml version="1.0" encoding="utf-8"?>
<!-- Generator: Adobe Illustrator 21.1.0, SVG Export Plug-In . SVG Version: 6.00 Build 0)  -->
<svg version="1.1"
	 id="Logo" xmlns:cc="http://creativecommons.org/ns#" xmlns:dc="http://purl.org/dc/elements/1.1/" xmlns:rdf="http://www.w3.org/1999/02/22-rdf-syntax-ns#" xmlns:svg="http://www.w3.org/2000/svg"
	 xmlns="http://www.w3.org/2000/svg" xmlns:xlink="http://www.w3.org/1999/xlink" x="0px" y="0px" viewBox="0 0 544.2 143.6"
	 style="enable-background:new 0 0 544.2 143.6;" xml:space="preserve">
<g id="g3" transform="translate(-26.106063,-349.2)">
	<path id="path5" d="M232.3,403.3c11.6,0,21-9.5,21-21.1s-9.4-21-21-21s-21,9.4-21,21S220.7,403.3,232.3,403.3z"/>
	<path id="path7" d="M570.2,478.4c0-0.4-0.2-2.2-0.3-3.3c-0.5-5.6-2.1-20.4-2.1-21.6c-0.3-4-3.2-1.9-3.6-1.7c-2.1,1.5-4.3,2.7-7.7,5
		c-0.5,0.3-2.3,1.4-2.7,1.5c-3.2,0.8-5.4-1.6-4.5-4.6c0.1-0.4,0.9-2.8,1.6-5.3c2.6-8.9,9-29.5,9.8-32.1c1-3.6-1-3.6-2.7-3.6
		c0,0-22.4,0-25.1,0c-1.2,0-1.5,0.7-1.8,1.3c-0.1,0.2-0.8,1.5-1.1,2.2c-0.4,0.9-1,2.1-1.6,3c-0.8,1.2-1.5,0.7-2,0
		c-1.9-2.4-12.2-10.1-24.8-10.1c-25.3,0-37.5,21.1-39.8,36.2c-0.1,0.4-0.3,1.7-0.4,1.8c-0.2,0.8-0.3,0.9-0.7,1.1
		c-0.2,0.1-0.8,0.5-1.5,0.9c-3,1.6-10.9,6.1-14.4,8.1c-3.7,1.9-5.9-1.1-4.6-5c0-0.3,24.1-77.4,25.4-81.1c0.8-2.6-0.3-3-1.2-2.9
		c-0.3,0-26.2,0.1-27.9,0.1c-2.5,0-2.9,0.5-3.4,1.2c-0.1,0.1-0.3,0.6-0.4,0.9c-1.3,4.6-11.6,39.1-14.6,47.6
		c-0.6,1.8-1.2,3.1-3.7,4.4c-4.2,2.2-12.3,1.8-16.1,1.7c-1.9,0-4.7-0.2-6.7-0.6c-3-0.6-5.3-1.9-7.6-3.3c-9.2-5.7-16.5-11.2-29.5-11
		c-21.1,0-36.1,14.2-39.4,33.7c-0.1,0.6-0.4,2.4-0.6,4c-0.3,1.6-0.4,1.9-1.5,2.6c-0.9,0.5-4.2,2.4-9.6,5.5c-1.5,0.8-6,3.3-10.7,4.9
		c-1.1,0.4-3.9,1.2-5.1,1.2c-7.6,0-10.5-6.3-10.5-10.9c0-8.3,7.4-10.5,10.3-10.5c1.5,0,3.4,0.4,5,1.6c0.2,0.1,1,0.6,1.3,0.7
		c1,0.4,1.6,0.1,2-0.3c0.2-0.2,0.6-0.8,0.9-1.2c2.7-3.3,15.2-17.6,16.4-19c1.3-2.4,0-3.4-0.6-4c-4-4-12.5-8.6-23.4-8.6
		c-30.5,0.7-39.9,24.1-41.2,34.7c-0.1,0.4-0.2,1.5-0.2,1.6c-0.2,1-0.7,1.4-1.1,1.7c-0.3,0.2-1.5,0.8-2.2,1.2c-1.5,0.9-9.9,6-11,6.7
		c-0.4,0.2-1.5,0.9-1.6,0.9c-4.5,1.8-5.6-1.9-5.2-3.5c0-0.1,9.9-32,9.9-32s1.7-5.2,1.9-5.8c0.5-1.9,0-1.9-1.6-1.9h-6
		c-6.2,0-18,0-20.5,0c-3.8,0-3.5-0.3-4.3,1.6c-0.4,1-5.6,17.9-7,21.7c-0.3,0.8-0.9,2.7-1.1,3.1c-0.7,2.2-1.4,2.4-3.6,3.8l-6.6,4.3
		c-19.7,13-21.3,11.3-28.8-3.6c-0.3-0.5-1.1-2-1.2-2.2c-0.7-1.1-0.7-1.9,1.1-2.8c5.2-3.3,25.7-14.2,25.7-43.1
		c0-28.3-24.4-46.1-62.3-46.1c-54.4,0-98.3,50.1-95.9,98.5c3.2,57.1,46.8,54.5,71.8,22.4c3-3.6,9-14.8,9-14.8
		c1.6-3.4,2.3-4.6,3.6-7.7c0,0,2.6-6.5,2.9-7.6c1.6-4.9,3-5,5.3-0.6c2.3,5.3,14.3,29.8,20.2,38.3c5.2,8,16.1,13.7,24.4,13.7
		c10.6,0,18.8-5.7,23.4-9c0,0,6.6-4.3,7.3-4.3c0.3-0.6,2.7-1,3.6,0.6c1.3,1,7.9,12.8,24.6,12.8c6,0,11-2,14.3-3.6
		c1.7-0.9,5.2-2.9,6.8-3.8c3.2-1.7,8-4.2,10-5.4c2.2-1.3,2.3-1.3,4.2,0.4c0.8,0.7,12.9,12.3,29,12.3c13.6,0,34.3-12.4,35.8-13.2
		c1.3-0.7,1.8-1,2.9-0.2c0.2,0.1,1.3,1.4,1.5,1.7c1.8,2.4,12.1,11.8,27.7,11.8c10.2,0,19.6-3.4,26.9-9.1l0,0
		c7.6-6.2,13.1-14.4,14.9-24.5c0.2-1.2,0.6-3.8,0.6-5.2c-0.1-1.3-0.2-1.9,2.5-2h5.9c1,0,2.7,0,2.3,2c-0.3,1.6-1.4,4-1.9,7.2
		c-0.5,3.4-0.1,6.3,0,6.7c1.8,9.2,8.3,22.3,26.7,24.6c1.2,0.2,3.4,0.3,4.9,0.1c4.2-0.3,8.8-1.8,12.7-3.8c4.3-2.3,17.5-9.3,18.2-9.6
		c1.4-0.8,2.1-0.9,3.2,0c0.2,0.2,0.4,0.4,0.7,0.7c4.9,4.7,9.3,7.5,13.6,9.6c4.2,2.1,9.9,3.2,15.8,3.2c13.2-0.3,19.9-6.1,21.1-6.9
		c1.1-0.7,1.7-1.3,3,0c0.7,0.7,6.2,6.9,17.5,6.9c8.6,0,19.7-7.1,24.4-9.8c1-0.5,2.2-1.2,2.3-1.3
		C570.4,480.1,570.3,479.7,570.2,478.4L570.2,478.4z M148.6,399.2c-0.6,18.7-25.8,27.7-28.7,28.6c-2.3,0.7-1.6-0.1-1.3-1.3
		c0.3-1.3,1.5-5.8,2.5-9.8c1-3.9,0-3.9-2.3-3.9h-29c-2.3,0-2.6,0.5-3.6,3.4c-3.1,9.1-6.8,23.6-9.5,29.4c-2,4.3-2.9,5.3-4.3,6.6
		c-6.6,6.6-12.6,3.3-12.6-6.9c0-28,26.2-63.8,63.7-63.6C141.1,382.4,149.4,392.5,148.6,399.2L148.6,399.2z M355.4,461.1
		c-5.8,0-10.6-4.7-10.6-10.6c0-5.8,4.8-10.6,10.6-10.6c5.9,0,10.6,4.8,10.6,10.6C366.1,456.4,361.3,461.1,355.4,461.1z M501.8,461.3
		c-5.9,0-10.7-4.8-10.7-10.7c0-5.9,4.8-10.7,10.7-10.7c5.9,0,10.7,4.8,10.7,10.7C512.4,456.5,507.7,461.3,501.8,461.3L501.8,461.3z"
		/>
</g>
</svg>
