<?xml version="1.0" encoding="utf-8"?>
<!-- Generator: Adobe Illustrator 21.1.0, SVG Export Plug-In . SVG Version: 6.00 Build 0)  -->
<svg version="1.1" id="VARG" xmlns="http://www.w3.org/2000/svg" xmlns:xlink="http://www.w3.org/1999/xlink" x="0px" y="0px"
	 viewBox="0 0 40 45.8" style="enable-background:new 0 0 40 45.8;" xml:space="preserve">
<path d="M16.3,40.6V28.9c1.1,0,2.2-0.1,3.3-0.2c-0.4-0.9-0.8-1.8-1.3-2.7c-0.7,0.1-1.3,0.1-2,0.1v-2.4c-1.5,0.3-3.2,0.6-4.9,0.8
	v16.1c0,3.6-1.7,4.5-2.7,5.2H19C18,45.1,16.3,44.2,16.3,40.6"/>
<path d="M40,45.8c-0.8-0.8-1.9-2-2.4-4.4c-1-4.4-3-10.7-7.2-15.4c4.1-2.3,6.6-5.8,6.6-10.2c0-3.1-1.6-6.4-4.4-8.4
	C31.4,6.6,30,6,28.3,5.7c0.6,1.3,1,2.7,1.1,4.1c1.8,1.4,2.7,3.5,2.7,6.1c0,3.3-1.7,7.1-7.4,9c0.5,0.9,1,1.9,1.3,2.8
	c0.3-0.1,0.6-0.2,0.9-0.3c2.7,3.1,4.9,8,5.5,12.6c0.5,3.3-0.7,5-1.5,5.7H40"/>
<path d="M29.9,40.5c-0.9-0.8-1.9-2-2.4-4.4c-1-4.4-2.9-10.6-6.7-14.9c0.2-0.1,0.3-0.1,0.5-0.2c4.3-2.2,7-5.9,7-10.4
	c0-3.2-1.6-6.4-4.4-8.4C21.6,0.6,18.5,0,14.6,0H0c1,0.7,2.7,1.6,2.7,5.2v30.2c0,3.6-1.7,4.5-2.6,5.2h10.2c-1-0.7-2.6-1.6-2.6-5.2
	V23.6c3.6,0,6.9-0.4,9.7-1.2c2.6,3.1,4.5,7.9,5.1,12.3c0.4,3.3-0.7,5-1.5,5.8C20.9,40.5,29.9,40.5,29.9,40.5z M7.5,20.9V2.7h6.9
	c2.5,0,4.4,0.6,5.9,1.6c2,1.4,3,3.6,3,6.3C23.3,15,20.2,20.7,7.5,20.9"/>
<path d="M16.3,18.3V8h5.5c-0.4-1.1-1.1-2-2-2.7h-11c1,0.7,2.7,1.6,2.7,5.2v9.1C13.3,19.3,14.9,18.9,16.3,18.3"/>
</svg>
