<?xml version="1.0" encoding="utf-8"?>
<!-- Generator: Adobe Illustrator 21.1.0, SVG Export Plug-In . SVG Version: 6.00 Build 0)  -->
<svg version="1.1"
	 id="svg1383" inkscape:version="0.92.0 r15299" sodipodi:docname="royal bank of scotland.svg" xmlns:cc="http://creativecommons.org/ns#" xmlns:dc="http://purl.org/dc/elements/1.1/" xmlns:inkscape="http://www.inkscape.org/namespaces/inkscape" xmlns:rdf="http://www.w3.org/1999/02/22-rdf-syntax-ns#" xmlns:sodipodi="http://sodipodi.sourceforge.net/DTD/sodipodi-0.dtd" xmlns:svg="http://www.w3.org/2000/svg"
	 xmlns="http://www.w3.org/2000/svg" xmlns:xlink="http://www.w3.org/1999/xlink" x="0px" y="0px" viewBox="0 0 61.9 61.7"
	 style="enable-background:new 0 0 61.9 61.7;" xml:space="preserve">
<sodipodi:namedview  bordercolor="#666666" borderopacity="1.0" fit-margin-bottom="0" fit-margin-left="0" fit-margin-right="0" fit-margin-top="0" id="base" inkscape:current-layer="layer1" inkscape:cx="115.77433" inkscape:cy="31.199884" inkscape:document-units="mm" inkscape:pageopacity="0.0" inkscape:pageshadow="2" inkscape:window-height="744" inkscape:window-maximized="1" inkscape:window-width="1280" inkscape:window-x="-4" inkscape:window-y="-4" inkscape:zoom="3.8739157" pagecolor="#ffffff" showgrid="false" units="px">
	</sodipodi:namedview>
<path id="path126" inkscape:connector-curvature="0" d="M26.7,19.6c-5.2,1.9-7,6.9-7,6.9c-0.7,1.9-2.6,3.3-4.7,3.3H5
	c-2.7,0-5-2.3-5-5C0,22.1,1.9,20,5,20l7.9,0L1.5,8.6c-2-2-2-5.1,0-7c2-1.9,5.1-1.9,7,0l11.3,11.3V5c0-2.7,2.2-5,5-5
	c2.7,0,4.9,2.3,4.9,5V15C29.8,17.1,28.6,19,26.7,19.6 M24.9,61.6c-2.7,0-4.9-1.8-4.8-4.9l0-7.9L8.6,60.2c-2,2-5.2,2-7,0
	c-2-1.9-2-5.1,0-7l11.3-11.3H5.1c-2.8,0-5-2.3-5-5c0-2.7,2.2-5,5-5H15c2.1,0,4,1.2,4.7,3.1c1.8,5.3,6.9,7.1,6.9,7.1
	c2,0.7,3.3,2.5,3.3,4.7v9.9C29.9,59.4,27.7,61.6,24.9,61.6 M56.9,41.8l-7.9,0l11.4,11.4c2,1.9,2,5.1,0,7c-2,2-5.1,2-7,0L42,48.9v7.8
	c0,3-2.3,5-5,5c-2.7,0-5-2.3-5-5v-9.9c0-2.1,1.3-4.1,3.2-4.7c5.2-1.8,7-6.9,7-6.9c0.7-1.9,2.6-3.3,4.7-3.3h9.9c2.7,0,5,2.3,5,5
	C61.9,39.6,59.8,41.8,56.9,41.8 M56.9,29.8H47c-2.1,0-4.1-1.2-4.7-3.1c-1.8-5.2-7-7.1-7-7.1c-1.9-0.7-3.3-2.5-3.3-4.7V5
	c0-2.7,2.3-4.9,5-4.9c2.7,0,4.9,2,4.9,4.9l0,7.9L53.4,1.5c2-1.9,5.1-1.9,7,0c2,1.9,2,5.1,0,7.1L49.2,19.8h7.7c2.7,0,5,2.3,5,5
	S59.7,29.8,56.9,29.8"/>
</svg>
