<?xml version="1.0" encoding="utf-8"?>
<!-- Generator: Adobe Illustrator 21.1.0, SVG Export Plug-In . SVG Version: 6.00 Build 0)  -->
<svg version="1.1" id="Layer_1" xmlns="http://www.w3.org/2000/svg" xmlns:xlink="http://www.w3.org/1999/xlink" x="0px" y="0px"
	 viewBox="0 0 297.3 198" style="enable-background:new 0 0 297.3 198;" xml:space="preserve">
<path d="M135.4,38c4.9,0.2,9.2,2.2,12.2,5.5c2.6,2.9,3.9,6.6,3.7,10.3v35.3h82.2c16.7,0,27.4-7.2,33.5-13.3
	c8.1-8.1,12.9-19.1,12.9-29.5c0-6.3-1.3-22.2-13-34C258.6,4.2,247.3,0,233,0H0v198h117.2V38C120.3,38,135.5,38,135.4,38L135.4,38z"
	/>
<path d="M297.3,198l-0.6-0.9c-7.3-11-16.8-41.2-20.8-58.8c-2.3-10.2-8.1-21-15.5-28.7c-9.7-10.2-22.2-15.5-36-15.5h-72.6l-0.1,0.5
	c-1.9,9-11.7,8.6-16.4,8.5c-0.5,0-0.9,0-1.3,0c-3.8,0-12.5,1.3-12.5,13l-0.1,29.8l1.2-2.7c3.2-7.4,13.3-8.1,21-6.4
	c1.7,0.4,6.2,1.4,7.8,12.2V198L297.3,198L297.3,198z M187.4,107.9L173,118.4l-5-10.5H187.4L187.4,107.9z"/>
</svg>
