<?xml version="1.0" encoding="utf-8"?>
<!-- Generator: Adobe Illustrator 21.1.0, SVG Export Plug-In . SVG Version: 6.00 Build 0)  -->
<svg version="1.1" id="Layer_1" xmlns="http://www.w3.org/2000/svg" xmlns:xlink="http://www.w3.org/1999/xlink" x="0px" y="0px"
	 viewBox="0 0 168.4 32.9" style="enable-background:new 0 0 168.4 32.9;" xml:space="preserve">
<path d="M71.1,17.3c-0.9-0.7-2.4-0.5-4.5,0c-1.1,0.2-2-0.1-2.4-0.7c1.9-1,3.1-1.9,3.1-3.1c-0.1-2.8-1.9-3.3-3.8-2.6
	s-2.8,2.8-2.8,5.3C60,17,59.3,17,58.9,15.9c-0.4-1.1-0.5-2.2-0.5-3.3c0-1.5-1-1.2-2.2-1.8c-0.6-0.3-0.7-0.7-1.7-0.3
	c-1,0.3-2.1,0.6-3.3,0.7c-1.2,0.1-2.3-0.1-3.4-0.6c1-2.5,1.5-5.2,1.9-8.2c0.1-0.9-0.2-1.2-0.8-1.5c-0.8-0.4-1.4-0.1-1.6,0.9
	c-0.5,2.8-1,5.5-1.7,8.3c-1.2-0.3-2.4-0.7-3.7-1c-1.5-0.4-2.2,0.5-1.8,2.2c0.5,2.4,1,4.9,2.2,7.3c0.6,1.2,1.6,1.2,2.3,0.2
	c1.1-1.5,1.8-3.6,2.6-6c0.7,0.2,1.6,0.2,2.3,0.1c-1.2,1.6-2.2,3.5-1.6,5c0.9,2.1,3.3,2.1,5,0.7c2.3-1.9,2.6-4,1.5-6
	c1-0.3,1.4,0.5,1.6,1.3c0.4,1.6,0.5,3.1,1.2,4.8c0.4,1,1.2,1,2.2,0.6c0.8-0.4,1.5-0.8,2-1.3c0.3,0.7,0.8,1.1,1.6,1.4
	c1.3,0.5,2.6,0.1,3.8-0.4c1.2-0.6,2.2-0.7,3.2-0.1c0.9,0.5,1.2,0.2,1.5-0.3C72.1,17.6,71.6,17.7,71.1,17.3z M44,15.4
	c-0.4,0.9-0.6,0.9-0.9-0.1c-0.2-0.8-0.4-1.8-0.6-2.6c-0.2-1-0.1-1.1,0.5-0.9c0.7,0.2,1.4,0.4,2,0.7C44.8,13.5,44.4,14.5,44,15.4z
	 M52.6,15.9c-1.1,2.3-3.3,1.3-2.2-1.2C51.4,12.6,53.8,13.3,52.6,15.9z M64,12.6c1-1,1.9,0.2,1.2,1c-0.4,0.5-1,0.8-1.7,1
	C63.3,13.8,63.5,13.1,64,12.6z"/>
<path d="M40.3,17.4c-0.8,0-1.2-0.6-1.3-1.6s0.1-2,0.1-3c0-1.3-0.7-1.9-1.7-1.9c-0.7,0-1,0.2-1.9,0.3c-0.4,0-0.9-0.5-1.4-0.5
	c-1.2-0.1-2.2,0.2-3,1.1c-0.9,1.2-2,2.5-3.1,3.5c-0.3-1-0.6-2.2-0.8-3.2c-0.2-1.1-0.7-1.3-1.8-0.5c-0.8,0.6-1.1,1.2-0.9,1.9
	c0.4,1.8,0.7,3.5,1.5,5.1c0.3,1.1,0.8,1.1,1.5,0.2c1.6-1.8,3-3.7,4.8-5.5c1-1,1.9-1,0.8,0.3c-0.9,1.1-1.6,3.7-1.4,4.6
	c0.4,1.7,2.4,1.6,4.1,0.4c0.8-0.6,0.9-0.2,1.9,0.6c0.4,0.4,1,0.3,1.5,0.1c0.6-0.2,1.2-0.5,1.6-1.1C41.3,17.6,41.1,17.4,40.3,17.4z
	 M36.7,14.3c-0.3,0.8-0.7,1.5-1.2,2c-1,0.7-1.7,0.4-1.4-0.8c0.2-0.8,0.8-1.5,1.4-2C36.3,12.8,37.1,13.1,36.7,14.3z"/>
<path d="M23.8,1.6c-2.9,3-4.5,7.8-4.4,12.7c-0.4,0.7-1,1.1-1.6,1.5c-1.2,0.8-1.7,0.4-1.5-0.9c0.4-3.4-1.2-4.8-3.4-3.5
	c-2.3,1.4-4,3.3-4.4,6.1c-0.2,1.2,1.2,2.2,2.5,2c1.2-0.2,2.1-1,3-1.6c0.8,1.9,1.4,2.2,3.1,0.9c0.9-0.6,1.7-1.5,2.5-2.3
	c0.3,1.2,0.7,2.6,1.2,3.7c0.5,1,0.8,1.3,1.9,0.7c0.7-0.3,1.1-0.7,0.7-1.8c-0.6-1.7-1.2-3-1.2-5.1c2.1-2.5,4.1-5.3,4.6-8.9
	C27.4,1.3,25.9-0.6,23.8,1.6z M13.6,15.8c-0.8,1.1-1.6,1.5-2.1,1c-0.4-0.5-0.2-1.4,0.6-2.4c0.7-0.8,1.5-1.5,1.9-1.2
	C14.2,13.4,14.6,14.4,13.6,15.8z M24.7,5.9c-0.5,1.9-1.5,3.7-2.6,4.6c-0.1-1.1,0.2-3,0.9-5.1C24,2.5,25.4,3.3,24.7,5.9z"/>
<path d="M14.7,2.2c1.6-1.3,0-2.7-1.7-1.6c-1.9,1.2-3.1,2.2-5.6,4.1c-3.2,2.4-1.6,6-2,9.5c-0.2,2-1.1,2.6-2.3,1.5
	C2.2,14.9,1.4,15,0.6,16c-1,1.3-0.8,1.6-0.1,2.2c2.8,2.7,6.5,1.7,7.6-2c0.7-2.2,0.3-4.7,0.1-7c0-1.9,0.7-2.4,1.8-3.4
	C11.5,4.6,13.1,3.4,14.7,2.2L14.7,2.2z"/>
<path d="M167.1,11.4c-2.9,0-5.8-0.1-8.7-0.1c-1.4,0-2.5,0.4-3.6,1c-1.9,1.1-3.3,3.3-5,4.2c-0.9,0.5-1.1,0.5-0.8-0.4
	c0.4-1.2,0.8-2.4,1-3.6c0.1-1.2-0.8-1.7-1.8-0.8c-1.6,1.4-2.7,3.2-4.2,4.7c-0.7,0.8-1,0.6-0.7-0.3c0.4-1.3,0.7-2.6,0.6-3.9
	c-0.1-1.5-1.1-1.7-2-0.5c-1.1,1.5-2.2,3.1-3.9,4.5c-0.8,0.7-1.3,1.3-1-0.1c0.2-1.5,0.7-2.8,0.5-4.1c-0.1-0.8-0.8-1.4-1.8-0.3
	c-1.1,1.3-1.8,2.9-2.9,4.3c-0.6,0.8-1.5,1-1.8-0.5c-0.2-0.9-0.4-1.9-0.6-2.8c-0.4-1.7-1.3-2.1-2.9-1.2c-2.1,1.2-4.1,3-6,4.9
	c-0.1-2.7-0.3-4-0.9-4.5c-1.2-0.9-2.5-1.3-3.7-0.3c-1,0.8-1.5,1.9-2,3c-0.2,0.4-0.3,0.7-0.5,1.1c-0.1,0.1-0.2,0.3-0.3,0.4
	c-0.7,0.9-1.1,0.8-1.4-0.4c-0.3-1.4-0.4-2.3-0.7-3.7c-0.2-1.2-1.5-1.9-3-0.9c-1.9,1.3-3.2,3.4-4.6,5.6c-0.7,1.1-1.1,1-1.1-0.4
	c0-1.2,0-2.5,0.4-3.7c0.2-0.8,1-2.1-0.1-2.3c-0.8-0.2-1.5,0.8-2.2,0.8c-1.3,0-2.3-1.6-3.4-0.3c-0.5,0.6-0.5,1.4,0.5,2.8
	c0.2,0.3,0,1.4-0.4,2.1c-0.8,1.2-1.4,1.1-1.7-0.2c-0.2-1.1,0-2.2,0.3-3.3c0.1-0.5,0.4-1.2-0.1-1.6c-0.5-0.3-1.1,0.2-1.6,0.2
	c-0.8-0.1-1.3-0.8-2-0.7c-1.1,0.2-2.2,1.1-1.1,2.6c0.2,0.3,0.5,0.6,0.7,0.7c-0.1,2.1-1,3.8-3.3,4.2c-1.5,0.2-2.6-0.8-2.9-1.9
	c2.3,0.2,3.8-0.6,4.1-2.5c0.3-1.8-0.9-2.9-2.5-2.9c-2-0.1-3.2,0.9-4,2.3c-1.1-0.4-2-0.6-2.9-1c-0.8-0.3-0.6-0.7-0.5-1.4
	c0.4-1.7,0.9-3,1.4-4.6c0.4-1.5-0.9-2.2-1.9-1c-0.4,0.5-0.7,1.2-1,1.8c-0.4,0.7-0.8,0.6-1-0.2c-0.3-1-0.7-2.1-1-3.1
	c-0.3-1,0.1-1.1,1.5-0.9c6.9,1,14.5,1.4,22.4,1.8c1.2,0.1,1.9-0.3,2.3-1.3c0.4-0.9,0.1-1.3-1.1-1.3C93.6,1.2,85,0.6,76.6,0
	c-1.5-0.1-2.2,0.3-1.9,1.9c0.5,2.8,1.2,5.6,2.2,8.4C76.4,10.2,76,10,75.5,10c-1,0-1.7,0.5-1,2.3c0.4,1.1,1.3,2.7,0.9,3.8
	c-0.6,1.4-0.7,2.4-1.3,3.8c-0.4,1-0.3,1.5,0.8,1.8c1,0.3,1.7,0.1,2-0.8c0.9-2.3,1.7-4.7,2.5-7c1.3,0.3,2.8,0.6,4,1.1
	c0.2,1.5,0.5,3,2.4,4.1c1.9,1.1,3.7,0.9,5.5-0.6c0.9-0.8,2.1-1.9,2.7-4.6c0.1,0,0.2,0.1,0.4,0.1c-0.2,0.6-0.6,3.1-0.1,4.6
	s1.7,1.4,2.8,0.6c1.6-1.2,2.7-3,3.1-5.2c0.2-1.2,0.7-1.2,0.6,0.1c-0.2,2.1-0.3,4.3,0.8,5.8c0.6,0.8,1.4,0.8,2,0.1
	c0.6-0.7,1.1-1.5,1.8-1.9c0.9,2.4,2.8,1.7,4.8-0.1c0.9,2.1,2.1,2.2,4.1,0.4c0,0,0,0,0.1-0.1c0.2,0.3,0.4,0.6,0.8,0.9
	c0.9,0.8,2.3,0.3,3.7-0.3c-2.7,3.6-5.6,6.6-6.8,10.3c-0.9,2.8,0.9,4.7,3.4,3c3-2.1,5-6.2,5.8-13c0.9-0.9,1.7-1.7,2.6-2.6
	c-0.2,1.5-0.1,3.1,1.7,3.1c1.2,0,2.2-0.9,3.3-1.9c1.6,3.9,3.8,0,5.4-1.4c0,0.6-0.1,1.9,0,2.4c0.3,1.5,1.5,1,2.4,0.4
	c1.2-0.8,2.2-1.7,3.2-2.6c0.8-0.6,0.9-0.6,0.7,0.3c-0.1,0.5-0.1,1.1,0,1.6c0.2,1.5,1.2,1.5,2.3,0.7c0.8-0.7,1.6-1.4,2.3-2.2
	c0.9-0.9,1-0.9,0.8,0.2c-0.1,0.4-0.2,0.9-0.2,1.4c-0.1,1.4,0.8,1.4,2.1,0.6c1.2-0.8,2.3-1.7,3.5-2.5c0.2,1.7,1,2.7,2.5,3
	c2.2,0.4,3.9-0.4,4.8-2.5c0.9-1.9,0.6-3.6-0.2-4.1c2.9,0.2,5.8,0.3,8.7,0.6c1,0.1,1.6-0.2,1.6-1.2C168.8,11.8,168.3,11.4,167.1,11.4
	z M87.3,12.1c1.3-0.6,1.7,0.9,0.8,1.4c-0.6,0.3-1.3,0.4-2,0.3C86.2,12.9,86.6,12.4,87.3,12.1z M109.9,14.3c-0.1,0.8-0.3,1.1-0.8,1.6
	c-0.8,0.9-1.6,0.6-1.5-0.6c0-0.6,0.5-1.3,1-1.9C109.3,12.7,110,13.1,109.9,14.3z M115.8,28.4c-1.1,1.4-2.4,1.6-1.3-0.8
	c0.8-1.6,2-3.1,3.5-4.7C117.7,24.8,117.1,26.8,115.8,28.4z M118.7,16.9c-0.7,1.3-1.8,1-2-0.4c-0.1-0.7,0.2-1.8,0.7-2.6
	c0.7-1.1,1.6-0.8,1.7,0.6C119.2,15.5,119.2,16.2,118.7,16.9z M127.7,16.1c-0.7,1-1.6,0.7-1.6-0.5c0-0.6,0.4-1.4,0.9-2
	c0.7-0.8,1.5-0.4,1.4,0.8C128.3,15.2,128.2,15.6,127.7,16.1z M155.6,17c-1,0.6-2,0.3-2-0.9c0-0.6,0.5-1.1,1.1-1.7
	c0.7-0.8,1.5-0.4,1.5,0.8C156.1,16,156.1,16.7,155.6,17z"/>
</svg>
