<?xml version="1.0" encoding="utf-8"?>
<!-- Generator: Adobe Illustrator 21.1.0, SVG Export Plug-In . SVG Version: 6.00 Build 0)  -->
<svg version="1.1" id="svg82724" xmlns:svg="http://www.w3.org/2000/svg"
	 xmlns="http://www.w3.org/2000/svg" xmlns:xlink="http://www.w3.org/1999/xlink" x="0px" y="0px" viewBox="0 0 250 120.5"
	 style="enable-background:new 0 0 250 120.5;" xml:space="preserve">
<path id="Logo" d="M154.2,92.5c0-18,0-36.1,0-54.1c0-5.8,2.6-9.7,5.2-12.3c2.6-2.6,6.1-3.7,11.1-3.7c5,0,8.5,1.1,11.1,3.7
	c2.6,2.6,5.4,6.6,5.4,12.3c0,13.8,0,27.6,0,41.3c0,3-0.5,6.9,3.2,10.7c3.7,3.7,6.7,3.9,9,3.9c2.2,0,5.2-0.2,8.9-3.9
	c3.7-3.8,3.4-7.7,3.4-10.7c0-25.9,0-53.4,0-79.2c-3.4,0-6.9,0-10.2,0c0,23.3,0,48.3,0,71.6c0,1.2-0.7,2.2-2.1,2.2
	c-1.5,0-1.8-1-1.8-2.2c0-12.1,0-32.6,0-44.2c0-7.3-1.2-14.9-7.5-20.9c-6.3-6-9.1-7-19.6-7c-10.5,0-13.2,1-19.6,7
	c-6.3,6-7.1,13.5-7.1,20.9c0,15,0,51.1,0,54.1c0,5.8-2.6,9.8-5.2,12.4c-2.6,2.6-6.1,3.7-11.1,3.7c-5,0-8.6-1.1-11.1-3.7
	c-2.6-2.6-5.5-6.6-5.5-12.4c0-18.1,0-36.1,0-54.1c0-7.4-1.2-14.9-7.5-20.9c-6.3-6-8.8-7-19.3-7C73.7,0,70.6,1,64.3,7
	c-6.3,6-6.9,13.5-6.9,20.9c0,14.7,0,29.5,0,44.2c0,1.2-0.5,2.2-2,2.2c-1.5,0-2-1-2-2.2c0-14.7,0-29.5,0-44.2
	c0-7.3-1.1-14.9-7.4-20.9C39.7,1,37,0,26.4,0C16,0,13.2,1,6.9,7C0.6,12.9,0,20.5,0,27.8v92.5c3.4,0,6.7,0,10.1,0
	c0-26.6,0-55.3,0-81.9c0-5.8,2.6-9.8,5.2-12.4c2.6-2.6,6.1-3.7,11.1-3.7c5,0,8.6,1.1,11.1,3.7c2.5,2.6,5.2,6.6,5.2,12.4
	c0,13.7,0,27.6,0,41.3c0,3-0.2,6.9,3.5,10.7c3.7,3.7,6.7,3.9,8.9,3.9c2.3,0,5.2-0.2,9-3.9c3.7-3.8,3.4-7.7,3.4-10.7
	c0-3.1,0-30.6,0-41.3c0-5.8,2.7-9.8,5.2-12.4c2.6-2.6,6.4-3.7,11.4-3.7c5,0,8.8,1.1,11.3,3.7c2.6,2.6,5.3,6.6,5.3,12.4
	c0,18,0,36,0,54c0,7.5,0.6,15.1,6.9,21c6.3,5.9,9.1,7,19.6,7c10.5,0,13.3-1,19.6-7C153.1,107.5,154.2,99.9,154.2,92.5 M218.6,113.5
	c6.3-5.9,7.4-13.6,7.4-21c-0.1-30.1-0.1-61.9-0.1-92c-3.3,0-6.7,0-10,0c0,26.5,0,54.9,0,81.5c0,5.8-2.9,9.8-5.5,12.5
	c-2.6,2.6-6.1,3.7-11.1,3.7c-5,0-8.6-1.1-11.1-3.7c-2.6-2.6-5.1-6.7-5.1-12.5c0-14.5,0-26.8,0-41.3c0-3,0.4-6.8-3.3-10.6
	c-3.7-3.7-6.7-3.9-8.9-3.9c-2.2,0-5.2,0.2-9,3.9c-3.7,3.7-3.2,7.6-3.2,10.6c0,26.6,0,53.1,0,79.7c3.7,0,6.2,0,9.9,0
	c0-23.3,0-48.7,0-72c0-1.2,0.5-2.1,2-2.1c1.5,0,2,0.9,2,2.1c0.1,1.6,0,34.9,0,44.2c0,7.4,0.7,15,7,21c6.3,5.9,9.1,7,19.6,7
	C209.5,120.4,212.3,119.4,218.6,113.5 M96.2,40.6c0-3.1,0.8-6.8-3-10.6c-3.7-3.7-6.9-3.9-9.1-3.9c-2.2,0-5.1,0.2-8.8,3.9
	c-3.7,3.7-3.5,7.5-3.5,10.6c0,13.7,0,27.6,0,41.3c0,5.8-2.8,9.8-5.4,12.4c-2.5,2.6-6.1,3.7-11.1,3.7c-5,0-8.6-1.1-11.1-3.7
	c-2.6-2.6-5.3-6.7-5.3-12.4c0-14.5,0-26.8,0-41.3c0-3,0.2-6.8-3.5-10.6c-3.7-3.7-6.7-3.9-8.9-3.9c-2.2,0-5.2,0.2-8.9,3.9
	c-3.7,3.7-3.5,7.6-3.5,10.6c0,18.5,0,76.6,0,79.7c3.5,0,7.1,0,10.6,0c0-23.3,0-48.7,0-72c0-1.3,0.5-2.2,2-2.2c1.5,0,2,0.9,2,2.1
	c0,14.7,0,29.5,0,44.2c0,7.4,0.6,15,6.9,21c6.3,6,9.1,7,19.6,7c10.5,0,13.3-1,19.6-7c6.3-5.9,7.3-13.6,7.3-21c0-14.7,0-29.5,0-44.2
	c0-1.2,0.8-2.1,2.2-2.1c1.5,0,2.2,0.9,2.2,2.1c0,23.3,0,48.7,0,72c3.3,0,6.6,0,9.9,0C96.2,94.4,96.2,66.5,96.2,40.6 M115.2,79.7
	c0,3-0.4,6.9,3.3,10.7c3.7,3.7,6.7,3.9,8.9,3.9c2.2,0,5.2-0.2,9-3.9c3.7-3.8,3.3-7.7,3.3-10.7c0-17.5,0-76.2,0-79.2
	c-3.3,0-6.9,0-10.2,0c0,23.3,0,48.3,0,71.6c0,1.2-0.6,2.2-2.1,2.2c-1.5,0-2.2-1-2.2-2.2c0-23.3,0-48.3,0-71.6c-3.3,0-6.8,0-10.1,0
	C115.2,26.3,115.2,53.9,115.2,79.7 M230.4,120.5l19.6,0l-0.1-120h-19.5V120.5"/>
</svg>
