<?xml version="1.0" encoding="utf-8"?>
<!-- Generator: Adobe Illustrator 21.1.0, SVG Export Plug-In . SVG Version: 6.00 Build 0)  -->
<svg version="1.1" id="svg2" xmlns:svg="http://www.w3.org/2000/svg"
	 xmlns="http://www.w3.org/2000/svg" xmlns:xlink="http://www.w3.org/1999/xlink" x="0px" y="0px" viewBox="0 0 130 120.5"
	 style="enable-background:new 0 0 130 120.5;" xml:space="preserve">
<path d="M65.1,0C24.6,0-7.3,38.2,1.5,78.3C3,79.8,21.4,92.8,21.4,92.8l2.9,24.6c0,0,29.9-0.1,33.7,0.1c0,0,2.4,3,7,3c4.7,0,7-3,7-3
	c3.8-0.2,33.7-0.1,33.7-0.1l2.9-24.6c0,0,18.4-13,19.9-14.5C137.5,38.2,105.5,0,65.1,0z M118,72.3L98.4,86.5l-2.5,19.4H71.8
	c0,0-3.9,3.7-6.7,3.7c-2.8,0-6.7-3.7-6.7-3.7H34.3l-2.5-19.5L12.2,72.3c-2.9-11.7,1.6-18.6,1.6-18.6L48.5,89L14.8,47.7
	c-1-1.4,5.5-13.4,8.5-14.5l30.3,52.5l-27-57.5c0.7-2.2,9.6-9.7,14-9.7l18.5,64.8L45.5,15.8c4.7-3.5,13.3-4.3,16.7-3.6L65,83.1
	l2.9-70.9c3.4-0.7,12.1,0.1,16.7,3.6L71.1,83.3l18.5-64.8c4.4-0.1,13.4,7.4,14,9.7l-27,57.5l30.3-52.5c3,1.1,9.5,13.1,8.5,14.5
	L81.6,89l34.7-35.3C116.4,53.7,120.9,60.6,118,72.3z"/>
</svg>
