<?xml version="1.0" encoding="utf-8"?>
<!-- Generator: Adobe Illustrator 21.1.0, SVG Export Plug-In . SVG Version: 6.00 Build 0)  -->
<svg version="1.1" id="Layer_1" xmlns="http://www.w3.org/2000/svg" xmlns:xlink="http://www.w3.org/1999/xlink" x="0px" y="0px"
	 viewBox="0 0 245 120.4" style="enable-background:new 0 0 245 120.4;" xml:space="preserve">
<g>
	<g>
		<g id="圖層_x0020_1">
			<path d="M0,77.8l25.3-36.9L49.9,41c3.3,0,4.8-1,6.3-3.2L76.4,8.6C82.8-0.9,84.6,0,90,0h63.3l9.4,12.9h-52.9
				c-5.2-0.1-6.4,1.4-8,3.9L84.7,41.7h12.7c2.7,0.1,3.3-1.7,4.2-2.8L114.1,21c2.4-3.6,7.3-3.1,8.8-3.2l51.9-0.1l13.7,19.8h-65.7
				c-2.5,0-5.5,0.8-8.1,4L92.6,73.4c-2.3,2.6-3.9,3.6-8.4,4.4L0,77.8L0,77.8L0,77.8z M244.9,42.6l-25.3,36.8h-24.6
				c-3.4,0-4.8,1-6.3,3.2l-20.1,29.2c-6.5,9.4-8.2,8.6-13.6,8.6H91.7l-9.4-12.9h52.9c5.3,0.4,6.8-1.6,8-3.9l17.1-24.9l-12.7-0.1
				c-2.4-0.3-3.3,1.8-4.2,2.9l-12.5,17.9c-2.3,3.5-9.2,3.1-8.8,3.1l-51.9,0.1L56.5,82.8h65.7c2.5,0,5.5-0.8,8.1-4l22.2-31.7
				c2.3-2.6,3.9-3.6,8.4-4.4L244.9,42.6L244.9,42.6z"/>
		</g>
	</g>
</g>
</svg>
