<?xml version="1.0" encoding="utf-8"?>
<!-- Generator: Adobe Illustrator 21.1.0, SVG Export Plug-In . SVG Version: 6.00 Build 0)  -->
<svg version="1.1" id="Layer_1" xmlns="http://www.w3.org/2000/svg" xmlns:xlink="http://www.w3.org/1999/xlink" x="0px" y="0px"
	 viewBox="0 0 328.7 341" style="enable-background:new 0 0 328.7 341;" xml:space="preserve">
<title>fubon</title>
<path d="M211,341c0-0.6-0.1-1.2-0.1-1.8c0-15.1,0-46.5,0-47.3c1.9-0.1,3.8-0.3,5.5-0.4c15.3-1.3,28.9-6.7,40.5-16.9
	c9.7-8.5,16.1-18.9,19.2-31.5c1.7-6.8,1.8-13.7,1.4-20.7c-0.4-6.4-1.4-12.7-3.4-18.8c-2.9-8.8-7.7-16.3-14.3-22.8
	c-3.4-3.3-7.1-6.4-10.7-9.5c-0.7-0.6-1.5-1.1-2.5-1.9c1.1-0.8,1.6-1.3,2.2-1.6c8.8-5.9,15.2-13.6,18.2-23.8c1-3.3,1.6-6.7,1.5-10.2
	c0-26.3,0-80.7,0-80.7l-57-0.1v91.6l-101.6,0l-0.1-51.1h50L160,0l158.3,0c0,0,0.1,78.4,0,116.6c0,9.4,0.1,18.8-0.7,28.1
	c-0.5,6.7-2.2,12.9-6.3,18.3c-1.1,1.5-2.3,3-3.4,4.5c-0.2,0.3-0.4,0.6-0.6,1c0.3,0.4,0.5,0.8,0.8,1.2c4.6,6.6,8.5,13.5,11.7,20.9
	c4.5,10.5,7.3,21.4,8.3,32.8c0.2,2,0.4,4,0.6,5.9c0,3.4,0,6.9,0,10.3c-0.1,0.5-0.3,1.1-0.3,1.6c-0.3,6.3-1.3,12.5-2.9,18.5
	c-5.2,20-15.9,36.6-31.2,50.4c-10.1,9.1-21.5,16.1-34,21.3c-11,4.6-22.3,7.6-34.4,9.2c-1.4,0.2-2.8,0.3-4.5,0.3
	C217.9,341,214.6,341,211,341z"/>
<path d="M211.6,197.1H109.7v92.8H51.2c0,0,0-193.7,0-194.4c0-3.9,0-7.6,0.8-11.3c2.3-11.2,8-20,18-25.8c7.2-4.2,15.1-6.1,23.3-6.7
	c5.1-0.4,11.4-0.8,16.7-0.8L110,0c0,0-8.5,0-14.4,0C71,0,45.8,8.9,29.8,22.7C14.7,35.6,4.9,51.7,2,71.7c-1,6.4-2,18.6-2,22V341
	h160.7l0.1-92.2l51,0L211.6,197.1z"/>
</svg>
