<?xml version="1.0" encoding="utf-8"?>
<!-- Generator: Adobe Illustrator 21.1.0, SVG Export Plug-In . SVG Version: 6.00 Build 0)  -->
<svg version="1.1" id="圖層_1" xmlns="http://www.w3.org/2000/svg" xmlns:xlink="http://www.w3.org/1999/xlink" x="0px" y="0px"
	 viewBox="0 0 461.5 461.5" style="enable-background:new 0 0 461.5 461.5;" xml:space="preserve">
<g>
	<g>
		<path d="M251.6,200.9h207.9l-1.1-7.3C441.9,92.5,360.7,14.3,259,1.8L251.6,1v42.1l6.7,0.8c64,9.4,118.7,51,145,110.1l2.6,6.2
			H251.6V146l0.1-2c0.6-6,4.5-11.6,9.8-14.4l1.9-0.8l36.2-14.2V73.1l-0.1-1.5c-0.4-3-2.6-5.8-5.3-7l-1.4-0.5l-7.1-1.9
			c-36-8.7-73.6-8.8-109.6,0l-7.1,1.9l-1.4,0.5c-2.8,1.2-4.9,4-5.3,7l-0.1,1.5v41.5l36.2,14.2l1.8,0.8c6,3.1,10,9.7,9.9,16.4v14.2
			H55.5l2.6-6.2C84.4,94.8,139,53.4,203.1,43.9l6.7-0.8V1l-7.3,0.8C100.9,14.3,19.5,92.5,3.1,193.6L2,200.9h207.8v29.9H0l0.1,7.4
			l0.4,7.4c7.9,118.8,103.9,211.8,222.9,215.8l7.4,0.1l7.4-0.1c118.9-4,215.1-97,222.8-215.8l0.4-7.4l0.1-7.4H251.6V200.9z
			 M415,272.4l-1.6,6.5l-1.8,6.4c-23.3,77.3-93.5,131.4-174.2,134.2l-6.7,0.1l-6.7-0.1c-80.7-2.8-150.8-56.8-174.1-134.2l-1.9-6.4
			l-1.6-6.5h163.3v22.1l-0.1,2c-1,7.8-6.4,14-14.1,16L105.7,334l-1.3,0.4c-3.1,1.2-5.3,4-5.8,7.3l-0.1,1.4v20.2h264.1v-20.2
			l-0.1-1.4c-0.4-3.2-2.7-6.2-5.8-7.3l-1.3-0.4l-89.8-21.5l-2-0.6c-6.6-2.3-11.4-8.4-12.1-15.4l-0.1-2v-22.1H415z"/>
	</g>
</g>
</svg>
