<?xml version="1.0" encoding="utf-8"?>
<!-- Generator: Adobe Illustrator 21.1.0, SVG Export Plug-In . SVG Version: 6.00 Build 0)  -->
<svg version="1.1" id="Layer_1" xmlns="http://www.w3.org/2000/svg" xmlns:xlink="http://www.w3.org/1999/xlink" x="0px" y="0px"
	 viewBox="0 0 300 300" style="enable-background:new 0 0 300 300;" xml:space="preserve">
<path d="M150,300C67.8,300,0.7,233.5,0,151.2C-0.7,68.5,66.1,0.7,148.8,0l2.3,0l0.1,0c39.6,0.3,76.9,15.9,104.9,43.9
	c28,28,43.6,65.3,43.9,104.9c0.7,82.7-66.1,150.5-148.8,151.2C150.8,300,150.4,300,150,300z M149.1,50C94,50.5,49.6,95.7,50,150.8
	c0.4,54.9,45.2,99.2,100,99.2c0.3,0,0.5,0,0.8,0c55.1-0.4,99.6-45.7,99.2-100.8c-0.2-26.4-10.6-51.2-29.3-69.9
	c-18.7-18.7-43.4-29.1-69.8-29.3H149.1z M150,200c-0.7,0-1.4,0-2.1,0c-27.5-1.1-49.1-24.4-48-52c1-25.9,22.1-46.9,48-48l1,0l3,0
	c27.5,1.1,49.1,24.4,48,52c-0.5,13.3-6.2,25.7-16,34.7C174.6,195.3,162.6,200,150,200z"/>
</svg>
