<?xml version="1.0" encoding="utf-8"?>
<!-- Generator: Adobe Illustrator 21.1.0, SVG Export Plug-In . SVG Version: 6.00 Build 0)  -->
<svg version="1.1" id="Layer_1" xmlns="http://www.w3.org/2000/svg" xmlns:xlink="http://www.w3.org/1999/xlink" x="0px" y="0px"
	 viewBox="0 0 234.7 39.1" style="enable-background:new 0 0 234.7 39.1;" xml:space="preserve">
<path id="path158" d="M107.2,1.1c0-0.4-0.4-0.9-1-0.9H69.6c-0.5,0-1,0.3-1,0.9v7.6c0.1,0.5,0.5,0.8,1,0.9h12l0,28.6
	c0.1,0.5,0.4,0.8,0.9,0.8h10.7c0.5,0,0.9-0.4,1-1l0-28.5h12c0.6,0,1-0.4,1-1"/>
<path id="path162" d="M38.6,1.1c0-0.4-0.4-0.9-1-0.9H1c-0.5,0-1,0.3-1,0.9v7.6c0.1,0.5,0.5,0.8,1,0.9h12l0,28.6
	c0.1,0.5,0.4,0.8,0.9,0.8h10.7c0.5,0,0.9-0.4,1-1l0-28.5h12c0.6,0,1-0.4,1-1"/>
<path id="path166" d="M136.4,30h-13.5V0.3h-11.2c-0.4,0-0.9,0.3-1,1l0,30.2c0,3.7,3.2,7.3,7.2,7.4h23.5c4-0.1,7.2-3.4,7.1-7.4V1.1
	c-0.1-0.4-0.5-0.9-1-0.8h-11.1L136.4,30"/>
<path id="path170" d="M192.7,1.1c0-0.4-0.3-0.9-1-0.9h-10.2v23.4L168.4,0.1h-13.2c-0.6,0-1,0.6-1,1v36.8c0,0.6,0.4,0.9,1,1l10.2,0
	V13.4l14.3,25.5l12,0c0.6-0.1,1-0.4,1-1"/>
<path id="path174" d="M234.7,15.7c0-0.7-0.5-1-1-1H216v8.6h6.7c0.9-0.1,1.3,0.6,1.2,1.2V30l-14,0l0-20.7l24.3,0l0-7.3
	c-0.2-1.7-1.5-1.9-2-1.9l-27.3,0c-3.9,0-7.2,3.3-7.2,7.2v24.4c0,3.9,3.2,7.2,7.2,7.2h22.7c3.9,0,7.2-3.2,7.2-7.2"/>
<path id="path178" d="M49,25.2l4.6-14.3l4.6,14.3C58.2,25.2,49,25.2,49,25.2z M74.8,37.8L60.3,0.6C60.1,0.2,59.9,0,59.4,0L47.7,0
	c-0.4,0-0.8,0.2-1,0.7L32.3,37.8c-0.2,0.9,0.4,1.3,0.9,1.3h11.3l1.8-5.5h14.6l1.8,5.5h11.2C74.3,39.1,75.1,38.7,74.8,37.8"/>
</svg>
