<?xml version="1.0" encoding="utf-8"?>
<!-- Generator: Adobe Illustrator 21.1.0, SVG Export Plug-In . SVG Version: 6.00 Build 0)  -->
<svg version="1.1" id="Layer_1" xmlns="http://www.w3.org/2000/svg" xmlns:xlink="http://www.w3.org/1999/xlink" x="0px" y="0px"
	 viewBox="0 0 59.3 60" style="enable-background:new 0 0 59.3 60;" xml:space="preserve">
<path id="path78" d="M29.6,54.4c-6.4,0-12.1-2.7-16.2-7l-4.9,2.9c5.1,5.9,12.7,9.7,21.1,9.7s15.9-3.7,21-9.6l-4.9-2.9
	C41.6,51.8,35.9,54.4,29.6,54.4"/>
<path id="path82" d="M29.6,50.4c4.8,0,9.2-1.9,12.5-4.9L37,42.6c-2.1,1.5-4.6,2.4-7.4,2.4s-5.4-0.9-7.5-2.4L17,45.5
	C20.3,48.5,24.7,50.4,29.6,50.4"/>
<path id="path86" d="M33.2,4.5V0h-7.3v4.5C12.3,6.2,1.7,17.9,1.7,32.1c0,3.1,0.5,6.1,1.5,9l4.9-2.9c-0.6-1.9-0.9-4-0.9-6.1
	c0-11.1,8.1-20.3,18.7-22v4.1c-8.4,1.7-14.6,9.1-14.6,17.9c0,1.4,0.2,2.7,0.4,4l5.1-2.9c0-0.4-0.1-0.7-0.1-1.1
	c0-7.1,5.7-12.8,12.8-12.8S42.3,25,42.3,32.1c0,0.4,0,0.8-0.1,1.2l5.1,2.9c0.3-1.3,0.5-2.7,0.5-4.2c0-8.9-6.3-16.2-14.7-17.9V10
	c10.6,1.7,18.7,10.9,18.7,22c0,2.2-0.3,4.3-0.9,6.3l4.9,2.9c1-2.9,1.5-5.9,1.5-9.1C57.5,17.9,46.9,6.2,33.2,4.5"/>
<path id="path90" d="M17.1,34.9L0,44.9l3.6,6.3l17.1-9.9C19,39.6,17.7,37.4,17.1,34.9"/>
<path id="path94" d="M42.1,34.9l17.2,9.9l-3.6,6.3l-17.1-9.9C40.3,39.6,41.5,37.4,42.1,34.9"/>
</svg>
