<?xml version="1.0" encoding="utf-8"?>
<!-- Generator: Adobe Illustrator 21.1.0, SVG Export Plug-In . SVG Version: 6.00 Build 0)  -->
<svg version="1.1" id="Layer_1" xmlns="http://www.w3.org/2000/svg" xmlns:xlink="http://www.w3.org/1999/xlink" x="0px" y="0px"
	 viewBox="0 0 311.5 106.9" style="enable-background:new 0 0 311.5 106.9;" xml:space="preserve">
<g>
	<path d="M309.9,18.3L311.5,0H78.4L49.7,72.7L23.9,0H0l0,0c0.2,0.7,37.8,106,37.8,106h22.5l34.6-87.7H309.9z"/>
	<path d="M289.8,62l-16.4-4.4c-7.7-1.7-10.2-4.4-10.2-7.5c0-2.9,3-5.8,10-5.8c10.1,0,12.1,3.5,13.8,7.9h18c0-5.8-5.3-13.2-9.7-16.2
		c-5-3.4-11.3-6.6-22.4-6.6c-9.4,0-15.4,2.2-21.2,6.5c-10.5,7.7-11.2,22.4-1.5,30.5c3.7,3.1,8.9,4.6,15.1,6.5l12.9,3.5
		c5.1,1.4,9.1,3.2,9.1,7.8c0,4.9-5.5,7.2-11.9,7.2c-9.3,0-13.9-2.6-15.8-9.4h-19c0,9.3,8,24.8,32.5,24.8c17.8,0,23.1-4.9,26.7-8.6
		c4.7-5,5.8-11,5.8-16C305.6,73.4,300.5,64.9,289.8,62z"/>
	<path d="M305.1,52.2L305.1,52.2C305,52.2,305,52.3,305.1,52.2L305.1,52.2z"/>
	<polygon points="211.3,71.8 185.9,31.1 166.5,31.1 166.5,106 185.9,106 185.9,68.1 213.9,106 231.5,106 231.5,31.1 211.3,31.1 	"/>
	<path d="M108.3,31.1L78.9,106h21.5l4-11.7H133l4.1,11.7h21.2l-27.2-74.9H108.3z M110.5,80.7l8.4-24.9l8.2,24.9H110.5z"/>
</g>
</svg>
