<?xml version="1.0" encoding="utf-8"?>
<!-- Generator: Adobe Illustrator 21.1.0, SVG Export Plug-In . SVG Version: 6.00 Build 0)  -->
<svg version="1.1" id="Layer_1" xmlns="http://www.w3.org/2000/svg" xmlns:xlink="http://www.w3.org/1999/xlink" x="0px" y="0px"
	 viewBox="0 0 202.8 202.8" style="enable-background:new 0 0 202.8 202.8;" xml:space="preserve">
<path d="M101.4,202.8C45.4,202.8,0,157.4,0,101.4C0,45.4,45.4,0,101.4,0s101.4,45.4,101.4,101.4c0,0,0,0,0,0
	C202.8,157.4,157.4,202.8,101.4,202.8 M17.4,101.4c0,33,19.3,63,49.4,76.6L21.4,75.8C18.8,84.1,17.4,92.7,17.4,101.4 M33.2,52.4
	l39.5,88.7l16.5-37h24.6l16.5,37l39.4-88.6c-6.7-9.3-15.2-17.1-25-23.1l-30.9,69.4H89.2L58.3,29.4C48.4,35.3,39.9,43.1,33.2,52.4
	 M181.4,75.8L135.9,178C174.8,160.4,194.4,116.5,181.4,75.8 M126.1,181.7l-24.7-55.4l-24.6,55.4C92.8,186.6,110,186.6,126.1,181.7
	 M76.8,21.1l24.6,55.4l24.6-55.4C110,16.2,92.8,16.2,76.8,21.1"/>
</svg>
