<?xml version="1.0" encoding="utf-8"?>
<!-- Generator: Adobe Illustrator 21.1.0, SVG Export Plug-In . SVG Version: 6.00 Build 0)  -->
<svg version="1.1"
	 id="svg2" inkscape:output_extension="org.inkscape.output.svg.inkscape" inkscape:version="0.46" sodipodi:docname="Yokohama_Municipal_Subway.svg" sodipodi:version="0.32" xmlns:cc="http://creativecommons.org/ns#" xmlns:dc="http://purl.org/dc/elements/1.1/" xmlns:inkscape="http://www.inkscape.org/namespaces/inkscape" xmlns:rdf="http://www.w3.org/1999/02/22-rdf-syntax-ns#" xmlns:sodipodi="http://sodipodi.sourceforge.net/DTD/sodipodi-0.dtd" xmlns:svg="http://www.w3.org/2000/svg"
	 xmlns="http://www.w3.org/2000/svg" xmlns:xlink="http://www.w3.org/1999/xlink" x="0px" y="0px" viewBox="0 0 100 100"
	 style="enable-background:new 0 0 100 100;" xml:space="preserve">
<defs>
	
	
		<inkscape:perspective  id="perspective23" inkscape:persp3d-origin="75 : 50 : 1" inkscape:vp_x="0 : 75 : 1" inkscape:vp_y="0 : 1000 : 0" inkscape:vp_z="150 : 75 : 1" sodipodi:type="inkscape:persp3d">
		</inkscape:perspective>
</defs>
<sodipodi:namedview  bordercolor="#666666" borderopacity="1.0" gridtolerance="10.0" guidetolerance="10.0" id="base" inkscape:current-layer="svg2" inkscape:cx="75" inkscape:cy="75" inkscape:pageopacity="0.0" inkscape:pageshadow="2" inkscape:window-height="1018" inkscape:window-width="1920" inkscape:window-x="-8" inkscape:window-y="-8" inkscape:zoom="3.08" objecttolerance="10.0" pagecolor="#ffffff" showgrid="false">
	</sodipodi:namedview>
<g id="_x23_ffffffff">
</g>
<path id="path6" d="M20.5,9.8c16.8-13.1,42.1-12.9,59-0.1c-12.2,2.5-22.2,10.9-29.8,20.5C42.4,20.6,32.5,12.4,20.5,9.8z"/>
<path id="path8" d="M14.4,14.8c13.2,1.6,24,11.2,31.3,21.7c-1.4,2.7-2.7,5.6-3.8,8.5c-6-13-19.4-21.7-33.6-22.7
	C10.2,19.6,12.3,17.1,14.4,14.8z"/>
<path id="path10" d="M53.7,36.3c7.7-10.4,18.4-20.3,31.9-21.6c2.1,2.4,4.1,4.9,6,7.4c-14.1,1-28.3,9.3-33.7,22.8
	C56.4,42.1,55.1,39.2,53.7,36.3z"/>
<path id="path12" d="M4.8,28.3c17.7,0,34.5,15.8,33.6,33.9c-0.1,12.2,0,24.4-0.1,36.7C26.6,95.7,15.7,88.7,8.9,78.5
	C-1.4,64.1-2.8,44.2,4.8,28.3z"/>
<path id="path14" d="M61,62.1C60.1,43.9,77.2,28,95.1,28.3c6.6,14,6.6,30.9-0.6,44.6C87.9,86,75.2,95.5,61,98.9
	C60.9,86.6,61,74.4,61,62.1z"/>
<path id="path16" d="M49.7,43.9c2.4,5.4,4.3,11.1,4.3,17c0,13,0,26,0,39c-2.8,0.1-5.7,0-8.5-0.1c0.3-13.3-0.2-26.7,0.1-40
	C45.6,54.3,47.5,49,49.7,43.9z"/>
</svg>
