<?xml version="1.0" encoding="utf-8"?>
<!-- Generator: Adobe Illustrator 21.1.0, SVG Export Plug-In . SVG Version: 6.00 Build 0)  -->
<svg version="1.1" id="Layer_1" xmlns="http://www.w3.org/2000/svg" xmlns:xlink="http://www.w3.org/1999/xlink" x="0px" y="0px"
	 viewBox="0 0 232.8 456.2" style="enable-background:new 0 0 232.8 456.2;" xml:space="preserve">
<title>yves-saint-laurent</title>
<path d="M119.6,447.1c-8.8,0-17.8-0.1-26.4-0.6c-5.9-0.3-7.1-2.3-6.5-8.2c0-0.5,6.2-26.2,14.6-61.8c33.9-8.1,59.6-38.5,59.6-66
	c0-21.6-3.1-37.3-28.3-63.3c-0.1-0.1-0.2-0.2-0.3-0.3c9.7-40.4,17.6-73.8,19.9-83.2c-11.2,0-21.6,0-32.9,0
	c5.4,4.8,4.4,10.3,3.4,15.7c-0.8,4.3-1.9,8.4-2.8,12.7c-0.6,2.6-3.4,15.6-7.5,34.1c-3.9-4.2-7.7-8.2-11.4-12.3
	c2.9-13.4,6.3-29.8,10.5-49.8c1.6-7.8,2.7-14.2,6.7-20.7c3.7-6,20.9-29.3,37.2-51.1c16.7,9.8,27.8,25,32.6,34.4
	c1.8-8.2,3.2-14.9,5-23.1c-5.7-3.5-16.7-12.3-31.7-19.2C173,69,183.2,55.5,186.5,51.3c14-17.8,26.3-37.6,46.3-51.3
	C223,0,214,0,204.3,0c-9.8,14.9-32.7,49.5-53,80.3c-8.8-3.1-18.6-5.1-29.2-5.1c-9.1,0-17.4,1-25,2.9C87.5,47.8,76.9,14.5,72.5,0.5
	c-9.4,0-18.6,0-29.1,0c8.3,4.9,11.2,12.1,13.6,19.5c3.1,9.8,6.3,19.7,9.3,29.5c1.6,5.4,6.1,20.2,10.8,36.2
	c-27.8,14.9-40.7,42.4-40.7,63.3c0,24.2,6.8,42.6,22.9,57.6c7,6.6,13.2,12.4,18.7,17.6c-3.5,19.2-6.5,35.9-7.5,41.3
	c-1.6,8.7-4.3,19.2-12.8,23.9c5.6,0,30.4,0,36.9,0c-4-2.4-6.2-5-6.5-8.4c-0.4-5.1,0.7-10.3,7.2-40.1c4,4,7.8,7.8,11.5,11.6
	c-8.1,37.1-18.3,83.8-25.8,118.2c-29.6-1.1-59.5-21.7-74.8-50c-2.3,9.8-4,18.6-6,27.3c23.1,17.8,46.9,29.4,79.1,30.4
	c-4.6,21-7.9,36.1-8.7,39.3c-2,8.3-4.1,16.5-6.3,25c-1.1,4.4-3.9,9.3-6.4,13.3c52.8,0,109.6,0,163.6,0c3.7-8.9,7.3-19.2,10.5-26.9
	c-10.3,4.8-20.3,9.1-31,10.7C173.7,444,146.9,447,119.6,447.1z M122.1,83c8.9,0,17,1.8,24.3,4.8c-14.4,21.9-26.8,40.6-31.1,47.1
	c-2.2-6.8-8.4-26.1-15.5-48.3C106.9,84.3,114.4,83,122.1,83z M75.1,185.3c-12.3-13.7-17.7-23.8-17.7-45.9c0-16.6,8.9-32,22.9-42.5
	c4.9,16.8,9.5,32.8,10.8,38.4c1.1,4.9,0.4,10.3-0.3,15.3c-0.9,5.8-4,23.6-7.6,43.6C80.6,191.3,77.9,188.4,75.1,185.3z M143.5,314.2
	c0,24.9-16.3,45.9-40,53.6c6.8-28.6,14.9-62.3,22.5-94.2C139.6,289.3,143.5,300.4,143.5,314.2z"/>
</svg>
