<?xml version="1.0" encoding="utf-8"?>
<!-- Generator: Adobe Illustrator 21.1.0, SVG Export Plug-In . SVG Version: 6.00 Build 0)  -->
<svg version="1.1" id="svg3449" xmlns:svg="http://www.w3.org/2000/svg"
	 xmlns="http://www.w3.org/2000/svg" xmlns:xlink="http://www.w3.org/1999/xlink" x="0px" y="0px" viewBox="0 0 1000.7 384"
	 style="enable-background:new 0 0 1000.7 384;" xml:space="preserve">
<path id="path3132" d="M313.3,187.5L247.9,0h-51.8v187.5L313.3,187.5L313.3,187.5z M196.1,302.7h63.1l27,81.3h96.9l-65.4-185.2
	H196.1L196.1,302.7L196.1,302.7z M184.8,0h-49.6L69.9,187.5h114.9C184.8,187.5,184.8,0,184.8,0z M65.4,198.8L0,384h96.9l27-81.3
	h60.9V198.8H65.4L65.4,198.8z M730.2,187.5h117.2V0H730.2V187.5z M978.1,187.5c-13.5-15.8-29.3-29.4-47.3-38.4
	c22.5-15.8,36.1-38.4,36.1-67.8c0-42.9-36.1-81.3-81.1-81.3h-27v187.5L978.1,187.5L978.1,187.5z M730.2,384h117.2V198.8H730.2V384z
	 M858.7,384h27c65.4-4.5,114.9-56.5,114.9-124.2c0-22.6-4.5-42.9-15.8-61H858.7L858.7,384L858.7,384z M416.9,187.5h117.2V0H416.9
	V187.5z M664.9,187.5c-13.5-15.8-29.3-29.4-47.3-38.4c22.5-15.8,36.1-38.4,36.1-67.8c0-42.9-36.1-81.3-81.1-81.3h-27v187.5
	L664.9,187.5L664.9,187.5z M416.9,384h117.2V198.8H416.9V384z M545.4,384h27c65.4-4.5,114.9-56.5,114.9-124.2
	c0-22.6-4.5-42.9-15.8-61H545.4V384z"/>
</svg>
