<?xml version="1.0" encoding="utf-8"?>
<!-- Generator: Adobe Illustrator 21.1.0, SVG Export Plug-In . SVG Version: 6.00 Build 0)  -->
<svg version="1.1" id="Layer_1" xmlns="http://www.w3.org/2000/svg" xmlns:xlink="http://www.w3.org/1999/xlink" x="0px" y="0px"
	 viewBox="0 0 139.1 132.8" style="enable-background:new 0 0 139.1 132.8;" xml:space="preserve">
<path d="M88.7,131.4c32.2-5.1,50.3-24.8,50.3-65c0-40.2-18.2-59.8-50.3-65C82.8,0.5,76.4,0,69.5,0c-6.9,0-13.3,0.5-19.2,1.4
	C18.2,6.6,0,26.2,0,66.4c0,40.2,18.2,59.8,50.3,65c5.9,1,12.3,1.4,19.2,1.4C76.4,132.8,82.8,132.3,88.7,131.4L88.7,131.4L88.7,131.4
	L88.7,131.4z M88.7,6.5c22.7,4.9,41.3,20.4,41.3,59.9c0,30-10.8,46.2-25.9,54.4l0,0l-8.6-57.5l-6.9-19.4L74.8,4.7l0,0
	C79.5,4.9,84.2,5.5,88.7,6.5L88.7,6.5L88.7,6.5L88.7,6.5z M66.9,4.6c0.9,0,1.7,0,2.6,0c0.9,0,1.7,0,2.6,0l0,0l0.8,47.9h-3.4h-3.4
	L66.9,4.6L66.9,4.6L66.9,4.6z M9,66.4c0-39.5,18.6-55,41.3-59.9c4.5-1,9.2-1.5,13.9-1.8l0,0L50.3,43.9l-6.9,19.4l-8.6,57.5l0,0
	C19.8,112.6,9,96.4,9,66.4L9,66.4L9,66.4L9,66.4z M50.3,126.3c-4.9-1.1-9.6-2.6-13.9-4.8l0,0l13.9-28.9l15.1-31.4h4.1h4.1l15.1,31.4
	l13.9,28.9l0,0c-4.4,2.2-9.1,3.7-13.9,4.8c-6.2,1.3-12.7,1.9-19.2,1.9C63,128.2,56.5,127.6,50.3,126.3L50.3,126.3L50.3,126.3
	L50.3,126.3z"/>
</svg>
