<?xml version="1.0" encoding="utf-8"?>
<!-- Generator: Adobe Illustrator 21.1.0, SVG Export Plug-In . SVG Version: 6.00 Build 0)  -->
<svg version="1.1"
	 id="svg1978" inkscape:version="0.48.1 " sodipodi:docname="AJAX.svg" xmlns:cc="http://creativecommons.org/ns#" xmlns:dc="http://purl.org/dc/elements/1.1/" xmlns:inkscape="http://www.inkscape.org/namespaces/inkscape" xmlns:rdf="http://www.w3.org/1999/02/22-rdf-syntax-ns#" xmlns:sodipodi="http://sodipodi.sourceforge.net/DTD/sodipodi-0.dtd" xmlns:svg="http://www.w3.org/2000/svg"
	 xmlns="http://www.w3.org/2000/svg" xmlns:xlink="http://www.w3.org/1999/xlink" x="0px" y="0px" viewBox="0 0 62.9 49.8"
	 style="enable-background:new 0 0 62.9 49.8;" xml:space="preserve">
<sodipodi:namedview  bordercolor="#666666" borderopacity="1" fit-margin-bottom="0" fit-margin-left="0" fit-margin-right="0" fit-margin-top="0" gridtolerance="10" guidetolerance="10" id="namedview31" inkscape:current-layer="g6623" inkscape:cx="320.91727" inkscape:cy="110.36175" inkscape:pageopacity="0" inkscape:pageshadow="2" inkscape:window-height="1004" inkscape:window-maximized="1" inkscape:window-width="1280" inkscape:window-x="-8" inkscape:window-y="-8" inkscape:zoom="0.99838806" objecttolerance="10" pagecolor="#ffffff" showgrid="false">
	</sodipodi:namedview>
<defs>
	
	
		<inkscape:perspective  id="perspective35" inkscape:persp3d-origin="425.19711 : 102.80544 : 1" inkscape:vp_x="0 : 154.20816 : 1" inkscape:vp_y="0 : 1000 : 0" inkscape:vp_z="850.39423 : 154.20816 : 1" sodipodi:type="inkscape:persp3d">
		</inkscape:perspective>
</defs>
<path id="path5880" inkscape:connector-curvature="0" d="M7.3,49.8H0l11.8-33.1h8l11.7,33.1h-7.5L21.8,43H9.6L7.3,49.8L7.3,49.8z
	 M11.4,37.3h8.4l-4.1-13.1h-0.1L11.4,37.3z"/>
<path id="path5882" inkscape:connector-curvature="0" d="M38.7,49.8h-7.3l11.8-33.1h8l11.7,33.1h-7.5L53.2,43H41L38.7,49.8z
	 M42.9,37.3h8.4l-4.1-13.1h-0.1L42.9,37.3z"/>
<path id="path5900" inkscape:connector-curvature="0" d="M40.3,8.7c0.3,1,0.3,1.6-0.1,2.8l-3.4,10.2l-3.7-10.3c0,0,0.4-1.2,0.7-1.8
	c0.2,0,0.5,0.4,0.5,0.4s-0.4-1.2-0.3-1.4l0.6-1.4l0.6,0.4c-0.1-0.3-0.3-1.1-0.3-1.1l0.5-1.6L36.1,5c0,0-0.4-1.2-0.3-1.3L37.2,0
	C38.3,2.8,39.3,5.8,40.3,8.7L40.3,8.7z"/>
<path id="path5902" inkscape:connector-curvature="0" d="M37.6,27.4c0.1,0.3,0,0.6-0.2,1.1c0,0.6,0,0.8-0.2,1
	c-0.2,0.2-0.3,0.2-0.6,0.2c0-0.2,0-0.4,0-0.5c-0.8-1-2.5-2.9-2.5-2.9h-0.9l-0.8,2.1l0.3,0.6c0,0,0.8,0,1.1,0c0.1,0,0.1,0.1,0.2,0.2
	v0.3c0-0.1-0.2-0.1-0.2-0.1c-0.8,0-1.4,0-2.1,0l-0.3,0.1c-0.1-0.3,0.1-0.5,0.3-0.5c0.1,0,0.3,0,0.3-0.1c-0.1-0.2-0.2-0.2-0.3-0.4h-1
	c-0.9-2.7-1.9-5.5-2.7-8.2c0.3,0,0.8-0.2,0.8-0.2s-1-0.4-1.2-0.9c-0.2-0.5-0.9-2.4-0.9-2.4s0.6,0,0.8-0.2c-0.3-0.2-1.1-0.5-1.2-0.8
	c-0.4-1-0.6-2-0.6-2s1-0.1,0.8-0.1c-0.5-0.2-1.2-0.9-1.2-0.9s-0.7-1.8-0.6-1.9c0.1,0,0.9,0,0.9,0c-0.2-0.5-0.9-0.7-0.7-1.3
	c0.2-0.8,0.5-1.6,0.7-2l0.5,0.3c-0.1-0.3-0.2-1.4-0.2-1.4l0.7-2.1l0.5,0.4L27,3.4l1.1-3L31.2,9L37.6,27.4L37.6,27.4z"/>
<path id="path5904" inkscape:connector-curvature="0" d="M26.7,26.8l-0.3-0.4l-0.3,0.4h-1.3l2.9-4.3l1.6,4.3h-0.8l-0.3-0.5l-0.3,0.5
	H26.7L26.7,26.8z"/>
</svg>
