<?xml version="1.0" encoding="utf-8"?>
<!-- Generator: Adobe Illustrator 21.1.0, SVG Export Plug-In . SVG Version: 6.00 Build 0)  -->
<svg version="1.1" id="VARG" xmlns="http://www.w3.org/2000/svg" xmlns:xlink="http://www.w3.org/1999/xlink" x="0px" y="0px"
	 viewBox="0 0 197.4 211.7" style="enable-background:new 0 0 197.4 211.7;" xml:space="preserve">
<polygon points="33.5,114.6 163.7,114.6 98.8,0 "/>
<path d="M174.5,144.4c-0.3-4.5-3-8.3-4-12.6c-1.1-3.6,2-6.1,3.2-9.1c0.6-1.5-0.2-3-1.7-3.6c-1.5-0.3-2.9-0.1-4.2,0.8
	c-7.3,8-11.5,17.1-17.7,26c-0.6,0.9-1.4,1.2-2,1.4c-2.7,0.4-4.8,2.7-4.9,5.5c0,0.2,0,0.5,0,0.7c0,0,0.1,0.8-0.6,2.7
	c-0.3,1.2-2.1,1.2-2.1,0c-0.3-4.7-3.2-8.6-4.4-13c-1.2-3.5,1.8-6.2,3-9.2c0.6-1.5-0.3-3-1.8-3.5c-1.5-0.3-3,0-4.1,0.9
	c-7.1,8.3-10.9,17.4-16.8,26.6c-0.6,0.9-1.2,1.1-2,1.5c-2.7,0.5-4.7,2.8-4.7,5.7c0,0.2,0,0.5,0,0.7c-0.2,3-1.8,5.3-1.8,5.3
	c-0.9,1.2-1.8,2.4-3,3.4c-1.2,0.9-2.7,0.8-3.2-0.6c-0.3-1.2-0.4-1.7,0-3.5c3.2-9.7,5.6-19.2,8.3-29.5c0-0.3-0.9-0.3-0.9-0.3
	c-2.7,0-5.3,0.9-8,1.8c-1.5,0.9-1.2,3-2.4,3.5c-1.5,0.9-3.2-0.8-4.7-0.9c-2.8-0.2-8.1-0.1-12.7,3.8c-6.8,5.9-10.6,13.3-13,22.1
	c-0.3,1.8-2.6,2.3-3.8,0.9c-2.3-2.6-4.7-5.6-8.3-6.5c-1-0.3-1.2-0.9-0.9-1.5c1.2-2.1,3.2-3.3,4.7-5c8.4-9.8,5.3-18,4.1-19.8
	c-1.8-2.4-3.8-3.8-6.5-4.4c-12.4-3-24.2,3-33.4,10.9c-6.5,5.9-11.8,12.7-15.6,20.4c-4.7,10-8.7,20.7-8.6,31.9
	c0.1,9.8,6.5,13,10.6,13.6c12.7,1.8,18-12.1,21.3-21.8c4.1-13.3,6.5-26.9,12.1-39.6c0.6-1.5,1.2-3.5,2.7-5c0.6-1.2-0.6-2.1-1.8-1.8
	c-5.9,2.4-14.5,13.6-14.8,14.2c-3,4.4-4.4,9.4-5.9,14.2c-3,9.4-3.5,18.9-7.1,28c-0.6,2.1-1.5,4.4-3.8,5.3c-2.4,0.6-4.1-1.2-4.7-3.2
	c-0.9-2.4-1.2-4.7-0.9-7.4c0.9-7.7,2.7-15.1,5.6-22.4c1.8-4.1,4.1-8,6.8-12.1c5.3-8.6,12.7-15.1,22.1-18.6c3.8-1.5,8.3-0.9,10.9,2.7
	c1.2,1.8,0.9,3.8,0.6,5.9c-0.3,1.2-1.4,6.9-5.6,12.4c-1.7,2.2-4.1,2.7-5.6,5c-0.3,0.6,0,1.2,0.3,1.2c3.2,0.9,8.3,1.4,8,4.7
	c0,1.5-4.3,1.7-8.3,5c-2.4,2.1-4.5,4.4-5.9,7.1c-3,5.6-2.7,13.3,3,15.9c3.8,2.1,8.3,1.5,12.1-0.6c7.7-4.4,11.8-12.7,13-21.6
	c0-0.9,1.2-1.5,2.1-1.2c2.4,1.8,2,4.1,3.8,7.1c2.5,4.1,9,6.5,13,3.5c3-2.1,5-4.7,7.4-7.4c0,0,0.7-0.5,1.2,0c5,5.1,11.7,3.2,15.4-1.5
	c2.1-2.2,3-4.7,5-5.3c2.4-0.9,6.6,1.9,11.1,1.7c8.2-0.4,15.2-6.3,21.6-15c2.4,0,4.1,1.8,6.8,2.4c3.5,0.7,6.8,0.6,10-0.6
	C176.6,157.5,174.5,144.4,174.5,144.4z M53.9,180.4c0,5.9-1.6,12.8-7.4,15.6c-1.8,0.9-4.1,0-5-1.5c-1.2-2.7-0.3-5.3,1.2-7.7
	c2.4-3.5,5.3-5.9,8.9-7.7C52.7,178.9,54.2,179.2,53.9,180.4z M96.1,156.8c-2.1,7.7-3.2,16.5-9.2,22.4c-1.6,1.6-2.4,1.7-3.6,1.9
	c-4.1,0.6-4.7-4.3-4.7-6.9c0.3-4.7,1.8-9.2,4.1-13.3c2.4-4.4,5.6-10.3,10.9-10C96.4,151.2,96.8,154.4,96.1,156.8z M129.2,156.5
	c-0.1,12.1-5.6,13.6-8.3,13.6c-0.9,0-2.1-0.3-1.8-0.6c0,0,3-1.8,1.9-6c-0.7-2.6-0.1-3.7-0.1-3.7c2.7-3.8,4.8-7.7,7.1-11.2
	C129.8,150.9,129.2,153.8,129.2,156.5z M163,144.8c-0.5,12-6,13.4-8.7,13.3c-0.9,0-2.1-0.4-1.8-0.6c0,0,3.1-1.7,2.1-5.9
	c-0.6-2.6,0-3.7,0-3.7c2.8-3.8,5-7.6,7.4-11C163.8,139.2,163.1,142.2,163,144.8z"/>
<path d="M90.8,197.2c0,0,28.6-17.9,59.4-21.3c0,0,8.7-1.3,4,2.1c0,0-4.5,2.2-9.6,8.1c0,0,0.2,1.1-4,0.7c0,0-22.8-0.1-47.4,15.4
	c0,0-1.6,1.8-5-0.5C88.1,201.8,85.6,200.4,90.8,197.2z"/>
</svg>
