<?xml version="1.0" encoding="utf-8"?>
<!-- Generator: Adobe Illustrator 21.1.0, SVG Export Plug-In . SVG Version: 6.00 Build 0)  -->
<svg version="1.1"
	 id="svg2" inkscape:version="0.47 r22583" sodipodi:docname="Braun_Logo.svg" xmlns:cc="http://creativecommons.org/ns#" xmlns:dc="http://purl.org/dc/elements/1.1/" xmlns:inkscape="http://www.inkscape.org/namespaces/inkscape" xmlns:rdf="http://www.w3.org/1999/02/22-rdf-syntax-ns#" xmlns:sodipodi="http://sodipodi.sourceforge.net/DTD/sodipodi-0.dtd" xmlns:svg="http://www.w3.org/2000/svg"
	 xmlns="http://www.w3.org/2000/svg" xmlns:xlink="http://www.w3.org/1999/xlink" x="0px" y="0px" viewBox="0 0 399.5 169.2"
	 style="enable-background:new 0 0 399.5 169.2;" xml:space="preserve">
<sodipodi:namedview  bordercolor="#666666" borderopacity="1" gridtolerance="10" guidetolerance="10" id="namedview11" inkscape:current-layer="svg2" inkscape:cx="442.91339" inkscape:cy="187.62988" inkscape:pageopacity="0" inkscape:pageshadow="2" inkscape:window-height="722" inkscape:window-maximized="1" inkscape:window-width="1280" inkscape:window-x="-8" inkscape:window-y="20" inkscape:zoom="0.52902657" objecttolerance="10" pagecolor="#ffffff" showgrid="false">
	</sodipodi:namedview>
<defs>
	
	
		<inkscape:perspective  id="perspective15" inkscape:persp3d-origin="478.34644 : 148.70079 : 1" inkscape:vp_x="0 : 223.05118 : 1" inkscape:vp_y="0 : 1000 : 0" inkscape:vp_z="956.69287 : 223.05118 : 1" sodipodi:type="inkscape:persp3d">
		</inkscape:perspective>
</defs>
<g id="layer1" transform="matrix(0.45094353,0,0,0.45094353,357.14835,54.396579)">
	<g id="g2414" transform="translate(35.43305,35.421298)">
		<path id="path7" d="M-755.8,173.5c-12,0-25.6,0-25.6,0V94.6c0,0,13.2,0,25.6,0c17.5,0,25.7,13.1,25.7,36.5
			C-730.1,163.3-739.8,173.5-755.8,173.5 M-781.4-19.8c0,0,12.9,0,25,0c12.9,0,23.3,9.5,23.3,35.6c0,26.4-12.1,35.6-23.3,35.6
			c-12.5,0-25,0-25,0V-19.8z M-713,70v-0.2c10.2-7.1,26.4-19.4,26.4-58.8c0-50.9-26.6-74-62.4-74c-12.2,0-78.3,0-78.3,0v279.5
			c0,0,43.7,0,77.9,0c44.2,0,65.7-32.7,65.7-81.5C-683.8,89.5-701.7,77-713,70L-713,70z"/>
		<path id="path9" d="M-599.1-19.8c0,0,12.9,0,25,0c12.9,0,23.3,9.5,23.3,35.6c0,26.4-12,35.6-23.3,35.6c-12.5,0-25,0-25,0V-19.8
			 M-505.2,123c0-34.8-10.8-44.6-25.5-53v-0.2c10.2-7.1,26.2-19.4,26.2-58.8c0-50.9-26.4-74-62.3-74c-12.2,0-78.3,0-78.3,0v279.5h46
			l0-122c0,0,12.5,0,25,0c13.1,0,22.5,10.9,22.5,35.6v86.4h46.4L-505.2,123L-505.2,123z"/>
		<path id="path11" d="M-415.5-88.2c0-21,19.3-23.7,30-23.7c10.7,0,29.9,2.7,29.9,23.7l0,139.6h-59.9L-415.5-88.2 M-385.5-156
			c-19.5,0-75.9,4.4-75.9,60.9v311.7h46v-122h59.8l0,121.9h46.1V-95.1C-309.6-151.7-366.1-156-385.5-156L-385.5-156z"/>
		<path id="path13" d="M-171.6-63v220c0,11.2-9.3,18.7-23,18.7c-13.8,0-22.9-7.5-22.9-18.7l0-220l-46,0.1l0,227.3
			c0,43.3,44.5,54.8,69,54.8c24.3,0,69-11.6,69-54.9V-63L-171.6-63"/>
		<path id="path15" d="M12.4,216.5l0-219.9c0-11.2-9.3-18.7-23-18.7c-13.8,0-22.9,7.5-22.9,18.7l0,219.9l-46,0V-10.7
			c0-43.3,44.5-54.8,69-54.8c24.3,0,69,11.6,69,54.9v227.2L12.4,216.5"/>
	</g>
</g>
</svg>
