<?xml version="1.0" encoding="utf-8"?>
<!-- Generator: Adobe Illustrator 21.1.0, SVG Export Plug-In . SVG Version: 6.00 Build 0)  -->
<svg version="1.1" id="Capa_1" xmlns="http://www.w3.org/2000/svg" xmlns:xlink="http://www.w3.org/1999/xlink" x="0px" y="0px"
	 viewBox="0 0 128 84.9" style="enable-background:new 0 0 128 84.9;" xml:space="preserve">
<title>Sin título-1</title>
<path d="M37.9,2.9c0.2-0.2,0.4-0.3,0.6-0.3c0.3,0,0.6,0.3,0.6,0.6c0,0,0,0,0,0c0,0.3-0.1,0.5-0.3,0.7C30.5,14.1,24.5,26,24.5,42.6
	s6,28.2,14.2,38.5c0.2,0.2,0.3,0.4,0.3,0.7c0,0.3-0.2,0.6-0.5,0.6c0,0,0,0,0,0c-0.2,0-0.5-0.1-0.6-0.3l-35-33.9
	c-3.2-2.4-3.8-6.9-1.4-10c0.4-0.5,0.9-1,1.4-1.4L37.9,2.9"/>
<path d="M64.8,0c-13.7,0-19,19.4-19,42.6s5.4,42.3,19,42.3c8.2,0,15.2-4.8,15.3-8.8c0-0.9-0.4-1.8-1.1-2.4
	c-3.9-3.8-5.4-7.5-5.4-10.9c0-6.3,5.5-11.1,10.5-11.1c7,0,11.1,5.5,11.1,12.6c0,6.7-2.9,12.3-6,16.8C89,81.3,89,81.5,89,81.7
	c0,0.3,0.2,0.6,0.5,0.6c0,0,0,0,0,0c0.3,0,0.5-0.1,0.6-0.3l35-33.9c3.2-2.4,3.8-6.9,1.4-10c-0.4-0.5-0.9-1-1.4-1.4l-35-33.9
	c-0.2-0.2-0.4-0.3-0.6-0.3c-0.3,0-0.5,0.3-0.5,0.6c0,0.2,0.1,0.4,0.2,0.6c3.1,4.5,6,10.1,6,16.8c0,7.1-4.1,12.6-11.1,12.6
	c-5.1,0-10.6-4.7-10.5-11.1c0-3.3,1.5-7.1,5.4-10.9c0.7-0.6,1.1-1.5,1.1-2.4C80,4.8,73,0,64.8,0"/>
</svg>
