<?xml version="1.0" encoding="utf-8"?>
<!-- Generator: Adobe Illustrator 21.1.0, SVG Export Plug-In . SVG Version: 6.00 Build 0)  -->
<svg version="1.1" id="Layer_1" xmlns="http://www.w3.org/2000/svg" xmlns:xlink="http://www.w3.org/1999/xlink" x="0px" y="0px"
	 viewBox="0 0 52.3 51.8" style="enable-background:new 0 0 52.3 51.8;" xml:space="preserve">
<path d="M51,31.9C46.4,25.8,39.5,19.6,37.6,18c-1.3-1.1-2.7-1.6-4-1.6S31,17,29.9,17.9c-0.2,0.2-0.5,0.5-0.9,0.8
	C26.3,21,17.8,28.8,17.6,29c-0.6,0.6-1.5,1-2.4,1c-0.8,0-1.7-0.4-2.6-1.2c-0.6-0.6-3.5-2.9-6.9-6.7c-2.1-2.3-3.8-4.4-3.8-4.4
	S1.5,18.5,1.3,19c-0.2,0.5,0,0.7,0.1,0.9c1.1,1.6,6.3,7.8,13.4,13.9c1.3,1.1,2.7,1.6,4,1.6s2.6-0.6,3.7-1.5c0.2-0.2,0.6-0.5,0.9-0.8
	c2.7-2.3,7.9-7,10.3-9.3c0.5-0.5,0.9-0.8,1.1-1c0.6-0.6,1.5-1,2.4-1c0.8,0,1.7,0.4,2.6,1.2c1.5,1.3,4,3.6,6.9,6.6
	c2.1,2.3,3.8,4.4,3.8,4.4s0.4-0.8,0.6-1.4C51.2,32.3,51.1,32,51,31.9"/>
<path d="M23.6,9.5c-2.4,1.7-12.2,10.8-14.1,13c0,0,1.4,1.5,3.4,3.2c0.5,0.5,1.2,0.4,1.7-0.2c3.8-3.8,11.5-10.6,12.5-11.4
	c2.9-2.5,6.3-2.7,9.4-0.4c7.5,5.6,14.2,14.5,15.3,16.2c0,0,0.2-0.8,0.3-1.5c0,0,0.1-0.7-0.2-1.3C44.8,16.9,37.3,10.6,34.4,9
	C31.2,7.3,27.4,6.7,23.6,9.5"/>
<path d="M15.6,4.1C10.8,8,4.5,13.8,2.9,15.5c0,0,1.2,1.5,3,3.3C6.3,19.1,6.6,19,7,18.7C11.8,14.1,17,9.3,20,7
	c5.1-3.9,11-4.3,16.9,0.3c2.2,1.7,4.1,3.4,6.9,6.3c3.6,3.9,5.9,7.2,8.5,10.9c0,0,0-1-0.3-2.3c0-0.2-0.1-0.6-0.3-0.9
	c-0.5-1-2.8-4.9-6.1-8.7C39.1,5,35,2.7,32.3,1.3C28.9-0.5,22.1-1,15.6,4.1"/>
<path d="M28.7,42.4c2.4-1.7,12.2-10.8,14.1-13c0,0-1.4-1.5-3.4-3.2c-0.5-0.5-1.2-0.4-1.7,0.2c-3.9,3.7-11.6,10.5-12.6,11.3
	c-2.9,2.5-6.3,2.7-9.4,0.4C8.2,32.5,1.5,23.6,0.4,21.9c0,0-0.2,0.8-0.3,1.5c0,0-0.1,0.7,0.2,1.3c7.1,10.2,14.6,16.5,17.5,18.1
	C21.1,44.6,24.9,45.1,28.7,42.4"/>
<path d="M36.6,47.7c4.8-3.9,11.1-9.7,12.7-11.4c0,0-1.2-1.5-3-3.3c-0.4-0.3-0.7-0.2-1,0.1c-4.8,4.6-10,9.4-13,11.7
	c-5.1,3.9-11,4.3-16.9-0.3c-2.2-1.7-4.1-3.4-6.9-6.3C4.9,34.3,2.6,31,0,27.3c0,0,0,0.9,0.3,2.3c0.1,0.2,0.1,0.6,0.3,0.9
	c0.5,1,2.8,4.9,6.1,8.8c6.5,7.6,10.6,9.9,13.3,11.3C23.4,52.3,30.2,52.9,36.6,47.7"/>
</svg>
