<?xml version="1.0" encoding="utf-8"?>
<!-- Generator: Adobe Illustrator 21.1.0, SVG Export Plug-In . SVG Version: 6.00 Build 0)  -->
<svg version="1.1"
	 id="svg2" inkscape:output_extension="org.inkscape.output.svg.inkscape" inkscape:version="0.46" sodipodi:docname="chry.svg" sodipodi:version="0.32" xmlns:cc="http://creativecommons.org/ns#" xmlns:dc="http://purl.org/dc/elements/1.1/" xmlns:inkscape="http://www.inkscape.org/namespaces/inkscape" xmlns:rdf="http://www.w3.org/1999/02/22-rdf-syntax-ns#" xmlns:sodipodi="http://sodipodi.sourceforge.net/DTD/sodipodi-0.dtd" xmlns:svg="http://www.w3.org/2000/svg"
	 xmlns="http://www.w3.org/2000/svg" xmlns:xlink="http://www.w3.org/1999/xlink" x="0px" y="0px" viewBox="0 0 480 470"
	 style="enable-background:new 0 0 480 470;" xml:space="preserve">
<defs>
	
	
		<inkscape:perspective  id="perspective10" inkscape:persp3d-origin="372.04724 : 350.78739 : 1" inkscape:vp_x="0 : 526.18109 : 1" inkscape:vp_y="0 : 1000 : 0" inkscape:vp_z="744.09448 : 526.18109 : 1" sodipodi:type="inkscape:persp3d">
		</inkscape:perspective>
	
		<inkscape:perspective  id="perspective2501" inkscape:persp3d-origin="372.04724 : 350.78739 : 1" inkscape:vp_x="0 : 526.18109 : 1" inkscape:vp_y="0 : 1000 : 0" inkscape:vp_z="744.09448 : 526.18109 : 1" sodipodi:type="inkscape:persp3d">
		</inkscape:perspective>
</defs>
<sodipodi:namedview  bordercolor="#666666" borderopacity="1.0" gridtolerance="10000" guidetolerance="10" id="base" inkscape:current-layer="layer1" inkscape:cx="370.44523" inkscape:cy="287.95576" inkscape:document-units="px" inkscape:pageopacity="0.0" inkscape:pageshadow="2" inkscape:window-height="853" inkscape:window-width="1440" inkscape:window-x="-4" inkscape:window-y="-4" inkscape:zoom="0.98994949" objecttolerance="10" pagecolor="#ffffff" showgrid="true">
	<inkscape:grid  enabled="true" id="grid2383" type="xygrid" visible="true"></inkscape:grid>
</sodipodi:namedview>
<g id="layer1" inkscape:groupmode="layer" inkscape:label="Layer 1">
	<path id="path2513" d="M103.4,455.6c-0.3-0.8,3.1-5.8,8.3-12.1c4.9-5.9,9.9-12.1,11.3-13.8c4.6-5.8,27.1-33.1,31.3-38.1
		c2.3-2.7,7.3-8.8,11.1-13.5c5.9-7.3,11.8-14.4,19.4-23.6c1.8-2.2,24.5-30,30.1-36.9c1.9-2.4,7.7-9.6,12.9-16
		c5.2-6.4,10-11.6,10.7-11.6c1.4,0,17.7,19.5,54.9,65.5c8.8,10.9,24.1,29.8,34,42c9.9,12.2,24.3,29.9,32,39.4
		c7.7,9.5,14.3,17.9,14.8,18.7c0.7,1.3-14.3,1.5-134.7,1.5C123.7,457,103.9,456.8,103.4,455.6z M379.6,442.2
		c-2.4-3.7-6.5-10.4-9-14.8s-7.6-12.5-11.1-18c-5.7-9-22-35.4-26.9-43.7c-1.1-1.8-7.9-12.9-15.1-24.8c-7.2-11.8-16.6-27.1-20.7-34
		c-4.1-6.9-11.4-18.8-16.2-26.4c-4.8-7.7-8.5-14.4-8.2-15.1c0.4-1.2,9.2-4.9,39.6-16.9c9.1-3.6,21-8.4,26.5-10.7s12-5,14.5-5.9
		c2.5-1,13.7-5.4,25-10c11.3-4.5,28.4-11.4,38-15.2s18.4-7.4,19.5-7.9c5.6-2.6,32.2-13,33.2-13c1.8,0,1.6,1.7-1.3,10.6
		c-1.4,4.3-4.5,14-6.9,21.4s-6.9,21.6-10.1,31.5c-15,47.4-29.5,92.4-43.4,134.5c-2.6,8-8.5,25.9-13.1,39.8s-8.7,25.2-9.2,25.2
		S382,446,379.6,442.2z M91.5,447.1c-0.3-0.5-2.2-6-4.1-12.2c-2-6.2-6.9-21.7-10.9-34.3s-9-28.4-11-35s-5.8-18.8-8.5-27
		s-8-24.9-11.8-37s-10.2-31.9-14-44s-10-31.4-13.6-43s-7-22-7.6-23.3c-1.1-2.8-1.2-7.2-0.2-7.2c0.4,0,4.6,1.6,9.2,3.6
		c4.7,2,10,4.2,12,4.9c3.8,1.4,17.2,7,20.5,8.5c2.8,1.3,23.4,9.8,45.5,18.7c10.2,4.1,19.8,8.1,21.5,8.9c3.8,1.7,65.9,27.3,78,32.2
		c4.9,2,9.4,3.9,9.9,4.4c0.5,0.4-7.8,14.9-18.4,32.1c-35.5,57.6-64.4,104.1-76.4,122.8c-5.8,9-9.4,14.8-13.8,21.9
		C94.1,447.8,92.7,449,91.5,447.1z M191.5,219.3c-13.8-3.6-26.6-6.9-28.5-7.3c-1.9-0.4-8-2-13.5-3.5c-12.4-3.3-22.1-5.8-49.5-12.9
		c-11.8-3.1-29.2-7.5-38.5-10c-9.3-2.4-23.3-6.1-31-8.1c-18-4.7-17.5-4.5-17.4-5.9c0-0.7,2.6-3,5.8-5.3c5.6-4,18.9-13.7,32.7-23.9
		c3.8-2.8,14.9-10.9,24.5-18c16.3-12,44.6-32.9,58.5-43.2c34.9-25.9,49.2-36.6,50.5-37.6c3.3-2.7,42.7-31.5,45.2-33.1
		c1.5-0.9,2.9-1.3,3.2-0.8c0.3,0.5,0.1,6.9-0.4,14.3s-2.6,37.7-4.5,67.4S224.5,152,224,160c-0.5,8-1.4,22.8-2.1,33
		c-1.7,28.2-2.2,32.4-3.9,32.6C217.2,225.7,205.2,222.9,191.5,219.3z M258.5,224.8c-0.2-0.7-0.9-9.1-1.5-18.8s-1.5-23.4-2-30.5
		c-2.2-30.6-3.3-46.5-6-90c-4.1-65.1-4.6-75.5-3.1-75.5c0.7,0,2.9,1.3,4.9,2.8s6.2,4.6,9.2,6.8c6.6,4.8,47.9,35.9,64,48.1
		c6.3,4.8,16.9,12.7,23.5,17.5c6.6,4.8,12.4,9.1,13,9.5c1.5,1.1,36.2,26.9,42,31.2c2.8,2,10.2,7.5,16.5,12.1
		c6.3,4.7,13.1,9.5,15,10.9c7.8,5.4,29.7,22,30.9,23.4c1.6,1.9,2.2,1.6-12.9,5.6c-48.7,12.7-98.4,25.4-125.5,32.1
		c-8.8,2.2-26.8,6.6-40.1,9.9C260.7,226.4,259.1,226.7,258.5,224.8z"/>
</g>
</svg>
