<?xml version="1.0" encoding="utf-8"?>
<!-- Generator: Adobe Illustrator 21.1.0, SVG Export Plug-In . SVG Version: 6.00 Build 0)  -->
<svg version="1.1" id="VARG" xmlns="http://www.w3.org/2000/svg" xmlns:xlink="http://www.w3.org/1999/xlink" x="0px" y="0px"
	 viewBox="0 0 211.6 211.6" style="enable-background:new 0 0 211.6 211.6;" xml:space="preserve">
<path d="M200.3,105.9c10.7-11,14.5-27.7,8.3-42.7c-6.2-15-20.7-24.1-36.1-24.2c-0.1-15.3-9.2-29.8-24.2-36
	c-15-6.2-31.7-2.4-42.6,8.4C94.9,0.6,78.2-3.2,63.2,3C48.2,9.2,39.1,23.7,39,39C23.7,39.1,9.2,48.2,3,63.2s-2.4,31.7,8.4,42.6
	C0.6,116.7-3.2,133.4,3,148.4s20.7,24.1,36,24.2c0.1,15.3,9.2,29.8,24.2,36.1c15,6.2,31.7,2.4,42.6-8.4
	c10.9,10.8,27.6,14.6,42.6,8.4s24.1-20.7,24.2-36c15.3-0.1,29.8-9.2,36.1-24.2C214.9,133.5,211.1,116.8,200.3,105.9z M199.2,144.5
	c-5.7,13.9-19.8,21.9-34,20.7c1.2,14.2-6.8,28.2-20.7,34c-13.9,5.7-29.5,1.4-38.7-9.5c-9.2,11-24.8,15.3-38.7,9.5
	c-13.9-5.7-21.9-19.8-20.7-34c-14.2,1.2-28.2-6.8-34-20.7c-5.7-13.9-1.4-29.5,9.5-38.7c-11-9.2-15.2-24.8-9.5-38.7
	c5.7-13.9,19.8-21.9,34-20.7c-1.2-14.2,6.8-28.2,20.7-34c13.9-5.8,29.5-1.5,38.8,9.5c9.2-11,24.8-15.2,38.7-9.5
	c13.9,5.7,21.9,19.8,20.7,34c14.2-1.2,28.3,6.8,34,20.7c5.7,13.9,1.4,29.5-9.5,38.7C200.7,115,205,130.6,199.2,144.5z"/>
<path d="M174.1,90.3c3.3-8,10.3-24,10.3-24h-9.2l-1.1,2.7c-0.6-1.3-1.9-2.5-3.3-2.8c-11-2.1-14.9,10.5-21,14.4
	c1.1-3.9,3.4-10.2-0.4-13.4c-2.8-2.3-6.6-0.4-9.5,0.7l0.6-1.7h-8.7l-9.6,21.9c-0.7,1.6-2.4,2.5-3.9,2.7c-0.7,0.1-1.4-0.2-1.8-0.9
	c-0.5-0.7-0.5-1.7-0.2-2.5l9.4-21.2h-9.4l-8.3,19c-0.1,0.1-1.6,4.4-3.3,5c-0.8,0.3-1.9,0.1-2.3-0.8c-0.4-0.7-0.2-1.6,0.1-2.2l9.3-21
	h-9.2L92.9,88c-0.8,1.7-4.6,3.7-5.8,1.1c-0.4-0.9-0.2-2,0.2-2.8l4.2-9.7c1.3-3,4.5-7.8,0.6-10.1c-4.1-2.4-8.1,0.6-10.7,2.3L88,53.3
	h-9.1L65.2,83.6c-1.8,4-6.6,5.9-10.7,6.6c-3.3,0.6-6.6-0.1-8.3-2.8C42,80.8,45.6,72.8,48.8,67c2.4-4.3,6.6-10,12.1-9.6
	c1,0.1,2.1,0.5,2.4,1.6c1.3,3.6-2.9,6.2-5.5,7.7c0.5,3.1,6,3.4,8.3,2.2c2.9-1.5,4.8-4.6,5-7.7c0.2-2.6-1.1-5.1-3.4-6.6
	c-6.2-4.1-14.3-1.8-19.8,2.2C39.2,63,34.2,72.4,34.6,82.7c0.2,5.5,3.3,11.2,8.8,13.3c6.8,2.6,12.3,0,18-3.9l-1.6,3.8h9.4L78.5,75
	c0.9-2,5.2-1.6,4.2,0.8L77,89.3c-0.9,2.2-0.1,4.8,1.9,6.1c4.3,2.8,9.3,0,13-2.2c0.5,1.1,1,2.4,2.2,3c3.4,1.7,8.3,0.1,11.1-1.8
	c0.2-0.1,1.2,1.1,2.4,1.8c3.8,2.2,8.8,0.3,11.9-1.9c-1.9,4.4-3.8,11.4-8.3,13.4c-0.8,0.3-2.5-0.4-2.3,0.8c1.7,2,4.6,2.3,7.3,1.8
	c8.1-1.4,9.4-10.4,12.8-16.1c1,1,1.9,2.2,3.4,2.5c8.6,1.5,13.5-7.3,19.4-12c-0.9,3-2.5,7.8,0.9,11c3.4,3.1,9.4,1.1,12.7-1.3l1.3,2
	c1,1.6,3.5,1.4,5.3,1c2.1-0.5,5.4-1.8,5.3-3.6C174.8,94.2,173.1,92.9,174.1,90.3z M133.7,90.7c-0.9,0.5-2.2,0-2.4-0.9
	s0.3-1.8,0.6-2.7l5.7-12.9c0.8-1.9,4-2.1,4.3-0.4C142.5,77.8,137.2,88.8,133.7,90.7z M171.2,75.7l-6.2,14c-0.5,1.2-2.2,1.8-3.6,1.2
	c-0.4-0.2-0.9-0.7-0.9-1.2c0-4.3,2.2-8.1,4-11.8c1-2,2.3-4.9,4.8-5.2C171.4,72.5,171.9,74.2,171.2,75.7z"/>
<path d="M177.5,114.6c-0.9-1.1-2.2-1.5-3-1.6c-9.7-1.2-16.1,11.3-21.9,14.8c0.3-1.2,3-11.3-1.8-14.2c-3.4-2-7.4,0-10.2,1.9
	c0.1-0.5,0.3-1.8,0.3-1.8h-9.1L120,140.2c-0.6,1.4-2.4,1.8-3.8,1.8c-0.7,0-1.4-0.2-1.7-0.9c-0.3-0.7-0.4-1.3-0.1-2l11.3-25.5h-10
	l-11.2,25.5c-0.5,1-1.5,1.6-2.6,1.7c-0.7,0.1-1.4-0.4-1.8-1.1c-0.4-0.6-0.3-1.6-0.1-2.2l10.3-23.9h-9.8l-11,25.1
	c-0.6,1.4-2.1,2.5-3.6,2.9c-0.9,0.2-1.9,0-2.4-0.7c-0.5-0.8-0.4-1.8,0-2.7c2.6-6.4,6-12.5,8.2-19.1c0.6-1.7,0.3-3.9-1.2-5
	c-3.9-2.8-8.5-0.6-11.9,1.7l6.4-15h-9.9l-15,33.7c-4.7,5-11.4,9.9-18.1,7.2c-3.3-1.3-4.8-4.8-4.9-8.2c-0.2-5.9,1.3-11.4,4.4-15.9
	c3-4.4,7-9.9,12.8-10.5c1.5-0.2,2.9,0.7,3.5,2c0.7,1.7-0.1,3.4-1.2,4.6c-1.3,1.3-3,2.2-4.5,2.5c0.8,3.9,6.5,3.7,9.3,2.4
	c2.2-1,4.2-3.1,4.8-5.3c0.7-2.7,0.3-5.9-1.4-8.1c-3.3-4.1-9.1-4.6-14-3.4c-10.7,2.5-20.5,12.2-23.3,22.7c-2.1,8-1.6,18.4,6,23.1
	c8.8,5.4,16.8-0.1,23-4.5l-2.3,5.1h10.1l10.9-24.7c1.1-2.5,6.1-2.1,4.7,1.1l-6,13.6c-0.8,1.7-1.3,3.4-1.3,5.3c0,2,0.7,4.2,2.8,5
	c4.9,2.1,9.8-1,13.5-4.1c0.5,2.4,1.8,4,4.4,4.6c4,0.8,7.2-1.4,10.3-3.2c0.6,1.1,1,2.5,2.3,3.1c3.8,2,8.5-0.2,11.8-2.1l-3.5,7.6
	c-8.7-1.8-18.5-2.3-27,0.7c-4.7,1.6-9.6,6.1-10,11.5c-0.3,4,1.7,7.6,5,9.7c6.7,4.1,16.2,4.1,23.3,0.8c4.2-1.9,7.8-5.1,10.9-8.9
	c13.9,2.9,30.8,5.2,40.6-7.2c0.2-0.2,1.5-2.2,1.8-3.9c-1.8,1.2-3.9,1.9-6,2.3c-5.3,1-10.8,0.8-16.3,0.4c-3.6-0.3-10-1.6-13.1-3.1
	l5.3-11.5c0.8,1.8,2.4,3.2,4.3,3.6c5.8,1.2,10.5-2.6,14.2-6.7l17.3-18.9c0.6-0.6,1.5-1.8,2.6-1.6c0.3,0.1,0.5,0.4,0.4,0.8
	c-1,2.6-2,5.2-2.8,7.9c-1.2,4.1-0.7,9-3.2,12.6c-0.6,0.8-1.6,1.3-2.6,1.3c-1,0.1-2-0.5-2.4-1.4c-0.8-1.7,0.3-3.7,1.6-4.9
	c-0.6-0.5-1.5-0.6-2.1-0.6c-1.5,0.1-2.8,0.9-3.7,2.2c-0.9,1.2-1.2,2.7-1,4.3c0.3,2.4,2.6,4.3,4.8,4.9c4.8,1.2,9.7-0.2,13.4-3.3
	c6.5-5.5,4.4-14.7,3.7-22C172.3,119.6,174.2,116.1,177.5,114.6z M86.4,172.3c-2.9-1.7-3.2-5.5,0.1-7.1c3.4-1.6,7.4-1.3,11-1
	c3.1,0.2,6,0.9,8.9,1.8C102.5,172.8,93.7,176.6,86.4,172.3z M142.3,125c-1.6,5.1-4.1,10.5-6.9,14.8c-0.9,1.4-4.7,2.1-4.7,0v-1.2
	l7.1-15.9c0.4-1,1.5-1.4,2.5-1.5c0.8-0.1,1.6,0.4,1.9,1.1C142.7,123,142.6,124.2,142.3,125z"/>
</svg>
