<?xml version="1.0" encoding="utf-8"?>
<!-- Generator: Adobe Illustrator 21.1.0, SVG Export Plug-In . SVG Version: 6.00 Build 0)  -->
<svg version="1.1" id="VARG" xmlns="http://www.w3.org/2000/svg" xmlns:xlink="http://www.w3.org/1999/xlink" x="0px" y="0px"
	 viewBox="0 0 211.6 211.6" style="enable-background:new 0 0 211.6 211.6;" xml:space="preserve">
<style type="text/css">
	.st0{fill:#FFFFFF;}
</style>
<path d="M196.2,105.8c11.6-10,16.1-26.7,9.9-41.5c-6.2-14.9-21.1-23.5-36.4-22.4c1.1-15.3-7.5-30.2-22.4-36.4
	c-14.9-6.2-31.5-1.7-41.5,9.9C95.8,3.8,79.1-0.6,64.3,5.5c-14.9,6.2-23.5,21.1-22.4,36.4c-15.2-1.1-30.2,7.5-36.4,22.4
	c-6.2,14.9-1.7,31.5,9.9,41.5c-11.6,10-16.1,26.7-9.9,41.5c6.2,14.9,21.1,23.5,36.4,22.4c-1.1,15.3,7.5,30.2,22.4,36.4
	c14.9,6.2,31.6,1.7,41.6-9.9c10,11.6,26.7,16,41.5,9.9c14.9-6.2,23.5-21.1,22.4-36.4c15.2,1.1,30.2-7.5,36.4-22.4
	C212.3,132.5,207.8,115.8,196.2,105.8z"/>
<path class="st0" d="M189.8,105.8c10.9-9.2,15.2-24.8,9.5-38.7s-19.8-21.9-34-20.7c1.2-14.2-6.8-28.3-20.7-34
	c-13.9-5.7-29.5-1.5-38.7,9.5C96.6,10.9,81,6.6,67.1,12.4c-13.9,5.8-21.9,19.8-20.7,34c-14.2-1.2-28.3,6.8-34,20.7
	c-5.7,13.9-1.5,29.5,9.5,38.7c-10.9,9.2-15.2,24.8-9.5,38.7c5.8,13.9,19.8,21.9,34,20.7c-1.2,14.2,6.8,28.3,20.7,34
	c13.9,5.8,29.5,1.5,38.7-9.5c9.2,10.9,24.8,15.2,38.7,9.5c13.9-5.8,21.9-19.8,20.7-34c14.2,1.2,28.3-6.8,34-20.7
	C205,130.6,200.7,115,189.8,105.8z"/>
<path class="st0" d="M187,105.8c9.2-9.4,12.5-23.7,7.2-36.6c-5.3-12.9-17.8-20.7-30.9-20.8c-0.1-13.1-7.9-25.6-20.8-30.9
	c-12.9-5.3-27.2-2-36.6,7.2c-9.4-9.2-23.7-12.5-36.6-7.2c-12.9,5.3-20.7,17.8-20.8,30.9c-13.1,0.1-25.6,7.9-30.9,20.8
	c-5.3,12.9-2,27.2,7.2,36.6c-9.2,9.4-12.5,23.7-7.2,36.6c5.3,12.9,17.8,20.7,31,20.8c0.1,13.1,7.9,25.6,20.8,30.9
	c12.9,5.3,27.2,2,36.6-7.2c9.4,9.2,23.7,12.5,36.6,7.2c12.9-5.3,20.7-17.8,20.8-31c13.1-0.1,25.6-7.9,30.9-20.8
	C199.5,129.5,196.2,115.2,187,105.8z"/>
<path d="M174.1,90.3c3.3-8,10.3-24,10.3-24h-9.2l-1.1,2.7c-0.6-1.3-1.9-2.5-3.3-2.8c-11-2.1-14.9,10.5-21,14.4
	c1.1-3.9,3.4-10.2-0.4-13.4c-2.8-2.3-6.6-0.4-9.5,0.7l0.6-1.7h-8.7l-9.6,21.9c-0.7,1.6-2.4,2.5-3.9,2.7c-0.7,0.1-1.4-0.2-1.8-0.9
	c-0.5-0.7-0.5-1.7-0.2-2.5l9.4-21.2h-9.4l-8.3,19c-0.1,0.1-1.6,4.4-3.3,5c-0.8,0.3-1.9,0.1-2.3-0.8c-0.4-0.7-0.2-1.6,0.1-2.2l9.3-21
	h-9.2L92.9,88c-0.8,1.7-4.6,3.7-5.8,1.1c-0.4-0.9-0.2-2,0.2-2.8l4.2-9.7c1.3-3,4.5-7.8,0.6-10.1c-4.1-2.4-8.1,0.6-10.7,2.3L88,53.3
	h-9.1L65.2,83.6c-1.8,4-6.6,5.9-10.7,6.6c-3.3,0.6-6.6-0.1-8.3-2.8C42,80.8,45.6,72.8,48.8,67c2.4-4.3,6.6-10,12.1-9.6
	c1,0.1,2.1,0.5,2.4,1.6c1.3,3.6-2.9,6.2-5.5,7.7c0.5,3.1,6,3.4,8.3,2.2c2.9-1.5,4.8-4.6,5-7.7c0.2-2.6-1.1-5.1-3.4-6.6
	c-6.2-4.1-14.3-1.8-19.8,2.2c-8.7,6.2-13.7,15.6-13.3,25.9c0.2,5.5,3.3,11.2,8.8,13.3c6.8,2.6,12.3,0,18-3.9l-1.6,3.8l9.4,0L78.5,75
	c0.9-2,5.2-1.6,4.2,0.8L77,89.3c-0.9,2.2-0.1,4.8,1.9,6.1c4.3,2.8,9.3,0,13-2.2c0.5,1.1,1,2.4,2.2,3c3.4,1.7,8.3,0.1,11.1-1.8
	c0.2-0.1,1.2,1.1,2.4,1.8c3.8,2.2,8.8,0.3,11.9-1.9c-1.9,4.4-3.8,11.4-8.3,13.4c-0.8,0.3-2.5-0.4-2.3,0.8c1.7,2,4.6,2.3,7.3,1.8
	c8.1-1.4,9.4-10.4,12.8-16.1c1,1,1.9,2.2,3.4,2.5c8.6,1.5,13.5-7.3,19.4-12c-0.9,3-2.5,7.8,0.9,11c3.4,3.1,9.4,1.1,12.7-1.3l1.3,2
	c1,1.6,3.5,1.4,5.3,1c2.1-0.5,5.4-1.8,5.3-3.6C174.8,94.2,173.1,92.9,174.1,90.3z M133.7,90.7c-0.9,0.5-2.2,0-2.4-0.9
	c-0.2-0.9,0.3-1.8,0.6-2.7l5.7-12.9c0.8-1.9,4-2.1,4.3-0.4C142.5,77.8,137.2,88.8,133.7,90.7z M171.2,75.7l-6.2,14
	c-0.5,1.2-2.2,1.8-3.6,1.2c-0.4-0.2-0.9-0.7-0.9-1.2c0-4.3,2.2-8.1,4-11.8c1-2,2.3-4.9,4.8-5.2C171.4,72.5,171.9,74.2,171.2,75.7z"
	/>
<path d="M177.5,114.6c-0.9-1.1-2.2-1.5-3-1.6c-9.7-1.2-16.1,11.3-21.9,14.8c0.3-1.2,3-11.3-1.8-14.2c-3.4-2-7.4,0-10.2,1.9
	c0.1-0.5,0.3-1.8,0.3-1.8h-9.1L120,140.2c-0.6,1.4-2.4,1.8-3.8,1.8c-0.7,0-1.4-0.2-1.7-0.9c-0.3-0.7-0.4-1.3-0.1-2l11.3-25.5h-10
	l-11.2,25.5c-0.5,1-1.5,1.6-2.6,1.7c-0.7,0.1-1.4-0.4-1.8-1.1c-0.4-0.6-0.3-1.6-0.1-2.2l10.3-23.9h-9.8l-11,25.1
	c-0.6,1.4-2.1,2.5-3.6,2.9c-0.9,0.2-1.9,0-2.4-0.7c-0.5-0.8-0.4-1.8,0-2.7c2.6-6.4,6-12.5,8.2-19.1c0.6-1.7,0.3-3.9-1.2-5
	c-3.9-2.8-8.5-0.6-11.9,1.7l6.4-15l-9.9,0l-15,33.7c-4.7,5-11.4,9.9-18.1,7.2c-3.3-1.3-4.8-4.8-4.9-8.2c-0.2-5.9,1.3-11.4,4.4-15.9
	c3-4.4,7-9.9,12.8-10.5c1.5-0.2,2.9,0.7,3.5,2c0.7,1.7-0.1,3.4-1.2,4.6c-1.3,1.3-3,2.2-4.5,2.5c0.8,3.9,6.5,3.7,9.3,2.4
	c2.2-1,4.2-3.1,4.8-5.3c0.7-2.7,0.3-5.9-1.4-8.1c-3.3-4.1-9.1-4.6-14-3.4c-10.7,2.5-20.5,12.2-23.3,22.7c-2.1,8-1.6,18.4,6,23.1
	c8.8,5.4,16.8-0.1,23-4.5l-2.3,5.1l10.1,0l10.9-24.7c1.1-2.5,6.1-2.1,4.7,1.1l-6,13.6c-0.8,1.7-1.3,3.4-1.3,5.3c0,2,0.7,4.2,2.8,5
	c4.9,2.1,9.8-1,13.5-4.1c0.5,2.4,1.8,4,4.4,4.6c4,0.8,7.2-1.4,10.3-3.2c0.6,1.1,1,2.5,2.3,3.1c3.8,2,8.5-0.2,11.8-2.1l-3.5,7.6
	c-8.7-1.8-18.5-2.3-27,0.7c-4.7,1.6-9.6,6.1-10,11.5c-0.3,4,1.7,7.6,5,9.7c6.7,4.1,16.2,4.1,23.3,0.8c4.2-1.9,7.8-5.1,10.9-8.9
	c13.9,2.9,30.8,5.2,40.6-7.2c0.2-0.2,1.5-2.2,1.8-3.9c-1.8,1.2-3.9,1.9-6,2.3c-5.3,1-10.8,0.8-16.3,0.4c-3.6-0.3-10-1.6-13.1-3.1
	l5.3-11.5c0.8,1.8,2.4,3.2,4.3,3.6c5.8,1.2,10.5-2.6,14.2-6.7l17.3-18.9c0.6-0.6,1.5-1.8,2.6-1.6c0.3,0.1,0.5,0.4,0.4,0.8
	c-1,2.6-2,5.2-2.8,7.9c-1.2,4.1-0.7,9-3.2,12.6c-0.6,0.8-1.6,1.3-2.6,1.3c-1,0.1-2-0.5-2.4-1.4c-0.8-1.7,0.3-3.7,1.6-4.9
	c-0.6-0.5-1.5-0.6-2.1-0.6c-1.5,0.1-2.8,0.9-3.7,2.2c-0.9,1.2-1.2,2.7-1,4.3c0.3,2.4,2.6,4.3,4.8,4.9c4.8,1.2,9.7-0.2,13.4-3.3
	c6.5-5.5,4.4-14.7,3.7-22C172.3,119.6,174.2,116.1,177.5,114.6z M86.4,172.3c-2.9-1.7-3.2-5.5,0.1-7.1c3.4-1.6,7.4-1.3,11-1
	c3.1,0.2,6,0.9,8.9,1.8C102.5,172.8,93.7,176.6,86.4,172.3z M142.3,125c-1.6,5.1-4.1,10.5-6.9,14.8c-0.9,1.4-4.7,2.1-4.7,0v-1.2
	l7.1-15.9c0.4-1,1.5-1.4,2.5-1.5c0.8-0.1,1.6,0.4,1.9,1.1C142.7,123,142.6,124.2,142.3,125z"/>
<path d="M208.6,63.2c-6.2-15-20.7-24.1-36.1-24.2c-0.1-15.3-9.2-29.8-24.2-36c-15-6.2-31.7-2.4-42.6,8.4C94.9,0.6,78.2-3.2,63.2,3
	C48.2,9.2,39.1,23.7,39,39C23.7,39.1,9.2,48.2,3,63.2c-6.2,15-2.4,31.7,8.4,42.6C0.6,116.7-3.2,133.4,3,148.4
	c6.2,15,20.7,24.1,36,24.2c0.1,15.3,9.2,29.8,24.2,36.1c15,6.2,31.7,2.4,42.6-8.4c10.9,10.8,27.6,14.6,42.6,8.4
	c15-6.2,24.1-20.7,24.2-36c15.3-0.1,29.8-9.2,36.1-24.2c6.2-15,2.4-31.7-8.4-42.6C211,94.9,214.8,78.2,208.6,63.2z M203.6,146.3
	c-6.1,14.8-21.8,22.9-37,20.3c2.7,15.2-5.4,30.8-20.3,37c-14.8,6.1-31.6,0.8-40.5-11.8c-8.9,12.6-25.7,18-40.5,11.8
	c-14.8-6.1-22.9-21.8-20.3-37c-15.2,2.7-30.8-5.4-37-20.3c-6.1-14.8-0.8-31.6,11.8-40.5C7.2,96.9,1.9,80.2,8,65.3
	C14.2,50.5,29.8,42.4,45,45c-2.7-15.2,5.4-30.8,20.3-37c14.8-6.1,31.6-0.8,40.5,11.8c8.9-12.6,25.7-18,40.5-11.8
	c14.8,6.1,22.9,21.8,20.3,37c15.2-2.7,30.8,5.4,37,20.3c6.1,14.8,0.8,31.6-11.8,40.5C204.4,114.7,209.7,131.5,203.6,146.3z"/>
</svg>
