<?xml version="1.0" encoding="utf-8"?>
<!-- Generator: Adobe Illustrator 21.1.0, SVG Export Plug-In . SVG Version: 6.00 Build 0)  -->
<svg version="1.1" id="svg2728" xmlns:svg="http://www.w3.org/2000/svg"
	 xmlns="http://www.w3.org/2000/svg" xmlns:xlink="http://www.w3.org/1999/xlink" x="0px" y="0px" viewBox="0 0 550.8 550.8"
	 style="enable-background:new 0 0 550.8 550.8;" xml:space="preserve">
<path id="path2575" d="M275.4,528.6C135.8,528.6,22.3,415,22.3,275.4S135.8,22.2,275.4,22.2c139.6,0,253.2,113.6,253.2,253.2
	S415,528.6,275.4,528.6 M275.4,0C123.3,0,0,123.3,0,275.4c0,152.1,123.3,275.4,275.4,275.4c152.1,0,275.4-123.3,275.4-275.4
	C550.8,123.3,427.5,0,275.4,0 M335.3,171.1v330.1c15.1-4,29.6-9.5,43.4-16.3V107.5C353.4,117.5,335.3,142.3,335.3,171.1
	 M470.2,322.2c-2,5.1-9.8,6.1-12.4,0.2c-6.5-14.6-10.2-30.8-10.2-47.9c0-17.2,3.7-33.5,10.4-48.2c0,0,0,0,0,0
	c1.1-1.9,3.2-3.1,5.6-3.1c2.6,0,4.8,1.5,5.9,3.6c0,0,0,0,0.1-0.1c5.9,16.5,20.8,28.6,38.8,30.4c-5.7-73.9-46-138.2-104.6-176.9
	v390.3c58.8-38.8,99.2-103.5,104.7-177.8C490.9,294.7,476.3,306.3,470.2,322.2 M369.6,84.2c-0.1,0-0.1-0.1,0-0.1
	c4.4-1.8,7.6-6.2,7.6-11.3c0-4.6-2.6-8.6-6.4-10.7c-29.1-13.1-61.4-20.4-95.3-20.4c-33.1,0-64.6,6.9-93.1,19.4c0.1,0,0.1,0,0,0
	c-4,1.8-6.8,5.8-7.1,10.4v1.3c0.3,4.8,3.3,8.9,7.5,10.6c0,0,0,0,0,0.1c35.5,13.2,60.9,47.4,60.9,87.6v335.8
	c10.4,1.4,21,2.2,31.7,2.2c11.9,0,23.5-0.9,34.9-2.6V171.1C310.3,131.6,334.9,97.8,369.6,84.2 M41.7,275.4
	c0,82.8,43.4,155.7,108.5,197.2V292.8c-17.7,1.8-32.4,13.5-38.6,29.4c-2,5.1-9.8,6.1-12.4,0.2c-6.5-14.6-10.2-30.8-10.2-47.9
	c0-17.2,3.7-33.5,10.4-48.2c0,0,0,0,0,0c1.1-1.9,3.2-3.1,5.6-3.1c2.6,0,4.8,1.5,5.9,3.6c0,0,0,0,0.1-0.1c6,16.6,21.1,28.8,39.3,30.5
	v-179C85.1,119.7,41.7,192.6,41.7,275.4 M175.3,107.5v379c13.8,6.6,28.3,11.8,43.4,15.6v-331C218.6,142.3,200.6,117.5,175.3,107.5"
	/>
</svg>
