<?xml version="1.0" encoding="utf-8"?>
<!-- Generator: Adobe Illustrator 21.1.0, SVG Export Plug-In . SVG Version: 6.00 Build 0)  -->
<svg version="1.1" id="Layer_1" xmlns="http://www.w3.org/2000/svg" xmlns:xlink="http://www.w3.org/1999/xlink" x="0px" y="0px"
	 viewBox="0 0 2426.5 648.3" style="enable-background:new 0 0 2426.5 648.3;" xml:space="preserve">
<path d="M385.9,0H58.6C26.2,0,0,26.3,0,58.7v530.9c0,32.4,26.2,58.6,58.6,58.6c0,0,0,0,0,0h327.3c32.4,0,58.6-26.2,58.6-58.6
	c0,0,0,0,0,0V407.3H285v59.3c0,21.6-17.5,39.1-39.1,39.1h-47.4c-21.6,0-39.1-17.5-39.1-39.1V188.5c0-21.6,17.5-39.1,39.1-39.1
	c0,0,0,0,0,0H246c21.6,0,39.1,17.5,39.1,39.1V258h159.5V58.7C444.6,26.3,418.3,0,385.9,0z M2338.5,305.5H2250L2419.7,0h-171.4
	l-147.6,258V0h-159.5v648.3h159.5V431.1h117.4c27,0,48.9,21.9,48.9,48.9v168.3h159.5V393.5C2426.5,344.9,2387.1,305.5,2338.5,305.5
	L2338.5,305.5z M692.3,0H532.8v648.3h437.8V522.7H692.3V0z M1772.9,428.4c39.1-9.9,66.4-45,66.4-85.3V88c0-48.6-39.4-88-87.9-88
	h-373.6v648.3h159.5V431.1h79.7l110.3,217.2h157.8L1772.9,428.4z M1679.8,256.6c0,27-21.9,48.9-48.8,48.9c0,0,0,0,0,0h-93.7V149.4
	h93.7c27,0,48.9,21.9,48.9,48.8c0,0,0,0,0,0V256.6z"/>
<path d="M1012.2,0C900.8,0,810.6,89.8,810.6,201.2l0.5,289.3h159.5v-59.4h162.9v217.2H1293V0H1012.2z M1133.5,305.5H970.6V208
	c0-32.4,26.2-58.6,58.6-58.6c0,0,0,0,0,0h104.3L1133.5,305.5L1133.5,305.5L1133.5,305.5z"/>
</svg>
