<?xml version="1.0" encoding="utf-8"?>
<!-- Generator: Adobe Illustrator 21.1.0, SVG Export Plug-In . SVG Version: 6.00 Build 0)  -->
<svg version="1.1"
	 id="svg2" inkscape:output_extension="org.inkscape.output.svg.inkscape" inkscape:version="0.45.1" sodipodi:version="0.32" xmlns:cc="http://web.resource.org/cc/" xmlns:dc="http://purl.org/dc/elements/1.1/" xmlns:inkscape="http://www.inkscape.org/namespaces/inkscape" xmlns:rdf="http://www.w3.org/1999/02/22-rdf-syntax-ns#" xmlns:sodipodi="http://sodipodi.sourceforge.net/DTD/sodipodi-0.dtd" xmlns:svg="http://www.w3.org/2000/svg"
	 xmlns="http://www.w3.org/2000/svg" xmlns:xlink="http://www.w3.org/1999/xlink" x="0px" y="0px" viewBox="0 0 401 312"
	 style="enable-background:new 0 0 401 312;" xml:space="preserve">
<style type="text/css">
	.st0{fill:#FFFFFF;}
</style>
<path id="path2194" class="st0" d="M-107.5-487.1L-107.5-487.1"/>
<path d="M331.6,31.5c-17.5-7.4-49.9-18.3-92.2-4.2c-8-4.5-15-4.7-22.6-3.4c0.4-9.4-12.1-20.4-16.3-23.9
	c-4.3,3.5-16.8,14.5-16.3,23.9c-7.6-1.3-14.5-1.1-22.6,3.4c-42.3-14.1-74.7-3.1-92.2,4.2c-50.5,21.2-91.7,97.6-55.9,175.8
	c21.9,47.9,70.7,53.7,96.6,43.4c4.9,30.4,26.4,34.9,47.4,39.8c24.7,5.8,35.2,12,42.8,21.5h0.2c7.6-9.5,18.2-15.7,42.8-21.5
	c21-4.9,42.5-9.4,47.4-39.8c26,10.3,74.7,4.5,96.6-43.4C423.3,129.1,382.1,52.7,331.6,31.5z M210.4,35.6c1.4-1.2,2.5-2.9,7.8-3.4
	c3.8-0.3,9.4,0,14.5,1c-11.4,4.5-19.1,8.4-30.4,15.3C202.4,48.4,206.1,39.5,210.4,35.6z M195.6,18.3c3.3-4.2,4.6-6,4.8-6.2
	c0,0,0,0,0,0h0c0,0,0,0,0,0c0.2,0.2,1.5,1.9,4.8,6.2c4.5,5.8,2.8,10.6,0.2,14.9c-2.7,4.5-4.2,6.6-5,7.6c0,0,0,0,0,0h0c0,0,0,0,0,0
	c-0.8-1-2.3-3.1-5-7.6C192.8,28.9,191.1,24.1,195.6,18.3z M182.6,32.2c5.3,0.5,6.5,2.2,7.8,3.4c4.4,3.9,8,12.9,8,12.9
	c-11.2-6.9-19-10.8-30.4-15.3C173.2,32.1,178.7,31.8,182.6,32.2z M379.7,204.5c-26.3,50.1-73.8,45.7-92.4,38.6
	c-4.7,29-24.7,35.3-48.1,40c-23.6,4.7-31.5,7.3-38.8,16.3c-7.3-9-15.1-11.6-38.8-16.3c-23.4-4.7-43.4-11-48.1-40
	c-18.6,7-66.1,11.5-92.4-38.6c-31.6-60.4-3-142.2,55.4-166.4C99.2,28.7,150,20.4,200.4,56c50.4-35.6,101.2-27.2,123.9-17.8
	C382.7,62.3,411.3,144.2,379.7,204.5z"/>
<g>
	<path d="M101.1,129.8c0,1.1,0,4.7,0,7.1c0,0.1,0,0.3,0,0.4c0,3,0,9.1,0,9.1c2.9-2.5,3.9-3.4,5.4-5.1c3.8-4.2-0.9-11.1-2.4-12.6
		C102.4,127,101.1,127.7,101.1,129.8z"/>
	<path d="M164.4,205.9c2.7-11.6-0.1-18.9-7.8-20.4c-10-1.9-16,3.8-18.5,13.6c-0.4,1.6-0.8,3.4-1,5.5c-0.7,7.6,1.7,13.5,9,15
		C153.9,221.2,161.9,216.8,164.4,205.9z"/>
	<path d="M203.1,202.8c-2.7,0-3.5,1.5-4.5,4c-1,2.6-2.3,7.1-2.3,9.9c0,1.4,0.2,2,0.8,2c1.5,0,4.1-3,5.6-5c1.5-2,2.9-4.4,4-10.1
		C205.3,203.1,204.2,202.8,203.1,202.8z"/>
	<path d="M239.9,158.4c0.8,0.8,0.9,0.8,2.3,1.8c2,1.4,2.8-0.1,2.8-1.6c0,0,0-23.9,0-26.2c0-1.5-0.5-2.2-1.5-3.1
		c-1.4-1.3-1.8-1.9-3.5-0.9c-0.6,0.4-1.3,0.9-1.3,2.1c0,0.8,0,8,0,14.6c0,5.6,0,10.7,0,10.7C238.6,157.4,239.1,157.6,239.9,158.4z"
		/>
	<path d="M348,129.4c0,1.1,0,4.7,0,7.1c0,0.1,0,0.3,0,0.4c0,3,0,9.1,0,9.1c2.9-2.5,3.9-3.4,5.4-5.1c3.8-4.2-0.9-11.1-2.4-12.6
		C349.4,126.6,348,127.2,348,129.4z"/>
	<path d="M372,100.8c-29.6-65.1-110.6-67.3-171.5-22.4c-60.9-45-142-42.8-171.5,22.4C12.3,137.2,16.6,188.4,48.4,211
		c20.1,14.2,34,18.2,68,10.4c1.7,28,14.9,35,46.8,39.8c13.8,2.1,25.9,2.7,37.2,14.1h0c11.3-11.4,23.3-12.1,37.2-14.1
		c31.9-4.7,45.1-11.7,46.8-39.8c34,7.7,47.9,3.8,68-10.4C384.2,188.4,388.5,137.2,372,100.8z M82.1,150.9
		c0,17.1-10.3,19.6-20.3,19.6c-7.3,0-21.9,0-21.9,0c2-2.2,5.7-6.1,5.7-10.8c0-3.4,0-34.6,0-34.6l13.4-6.1v0l0,39.6
		c3.4,0,9.6,1,9.6-7.7c0-3.3,0-23.5,0-23.5c0-11.8-11.1-9.6-12.1-9.6c-5.3,0.1-17.8,3.6-18.5,3.9l4.6-14c2.8-0.8,10.3-1.8,18-1.9
		c12.3-0.2,21.4,6.6,21.4,21.1C82.1,134.6,82.1,150.9,82.1,150.9z M225,145.1L225,145.1c0-6.8,0-12.9,0-14.5c0-3.5,1.7-5.5,5.9-7.7
		c3.5-1.8,6.4-3.1,8.9-4.2c5.1-2.3,7.2-2.1,10.3-0.2c2.3,1.5,4.1,2.7,5.8,4.2c2.7,2.3,2.7,4,2.7,8.4c0,6.8,0,25.5,0,25.5
		c0,4.8-2,6.4-4,8c-2,1.6-5.1,3.7-7.7,5c-3.8,2-6.3,3.3-10.3,1.1c-4.3-2.3-4.9-2.9-7-4.3c-3.8-2.8-4.5-5.4-4.5-8.1
		C225,158.3,225,152.5,225,145.1z M107.4,159c3,1.2,4,1.5,10.1,2.9l-7.2,10.8c-12-3.6-13.8-5.1-16.3-6.6c-3.1-1.8-5-4.4-5.5-9.3
		c-0.2-2-0.6-12.3-0.4-20c0-2.6,0.2-4.9,0.4-6.4c0.3-2.1,0.7-3.9,5.1-6.4c1.5-0.8,6.4-3.5,10.9-5.5c1.6-0.7,6.7-3.3,10.8,2.6
		c1.6,2.3,1.9,2.6,3.7,6c3.2,5.7-0.3,10-2.1,12c-3.9,4.1-10.2,9.8-15.4,13.4C101.5,157.1,105.4,158.3,107.4,159z M124.6,155.9
		c0-4.5,0-44.5,0-44.5l13.6-6.2c0,0,0,44.6,0,48.1c0,5.9,3.3,7,6.9,9l-7.1,10.7c0,0-5-2.3-8.2-4.7
		C126,165.4,124.6,162.1,124.6,155.9z M184.9,225.8c0,0-0.6,1.6-1.7,3.4c-2.1,3.8-9.5,2.5-15.2,0.5c-1.6-0.6-12.3-4.5-15.7-5.6
		c-4.7-1.4-7.6,0.4-9.3,4.1c-0.2,0.5-1.2-0.3-0.8-1.1c0.7-1.3,2-4.2,4.9-5.3c-2.1-0.1-4.2-0.4-6.2-1.1c-7.4-2.8-9.2-9.6-8.5-16.3
		c0.4-3.5,1.5-6.9,2.8-9.7c4.9-9.9,16-14.2,26.1-10.6c8.7,3.1,12.2,13.1,5.6,26.4c-3.1,6.2-9.3,10-15.7,11.1c2.6,0.4,7,1.6,9.9,2.6
		c0.6,0.2,2.7,0.7,5.4,1.8c4,1.6,6.8,2.3,9.7,2.3c6.5,0.1,7.9-1.8,7.6-5c0.1-0.4,0.6-0.9,1.2-0.1C185,223,185.6,225,184.9,225.8z
		 M186.7,220.8c-0.6,0.4-1.5,0.8-2.1,0.8c-0.9,0-1.3-0.6-1.3-1.7c0-1,0.3-2.3,0.6-3.2l1.4-5.1l-0.2,0c-1.2,2.1-2.8,3.9-4.4,5.7
		c-1.5,1.6-4.5,4.5-6.7,4.5c-0.5,0-1.4-0.6-1.4-1.6c0-0.7,0-1.5,0.2-2.2l2.4-11.5c0.1-0.3,0.3-1.4,0.3-1.9c0-0.4-0.2-0.9-0.8-0.9
		c-0.5,0-1.1,0.5-2.2,1.1l-1.2,0.8l-0.3-0.9l1.2-0.8c4.1-2.9,5.1-3.1,5.6-3.1c1.1,0,1.2,1.1,0.8,3.1l-2.4,11.5
		c-0.2,0.8-0.3,1.5-0.3,2.3c0,0.4,0.1,1.1,0.6,1.1c0.5,0,1.2-0.3,1.8-0.7c2.5-1.8,6-5.9,7.2-9c0.8-2,1.2-4,1.5-5.4l0.4-2.2l2.9-0.7
		l0.3,0.4c-1.3,5-2.9,11.8-3.6,15.2c-0.1,0.6-0.3,1.2-0.3,1.7c0,0.5,0.3,0.7,0.6,0.7c0.5,0,1.6-0.5,2.6-1.1l1.1-0.7l0.4,0.8
		C189.7,218.8,188.2,219.9,186.7,220.8z M204.3,221.6c-0.8,0-1.1-0.6-1.1-1.4s0.1-1.5,0.3-2.3l1.1-5.1l-0.1,0
		c-2.3,3.4-4.9,6.1-6.4,7.2c-1.9,1.4-2.7,1.7-3.3,1.7c-1.3,0-1.4-2.8-1.4-3.6c0-4.1,2.7-12.8,5.2-14.6c3.2-2.3,4.3-2.8,6.5-2.8
		c1.2,0,2.3,0.4,3.4,0.8l1.4-0.8l0.4,0.4l-3.9,16.1c-0.1,0.4-0.1,1.4,0.6,1.4c1,0,2-1,3.2-2l0.3,0.9
		C207.1,220.3,205.1,221.6,204.3,221.6z M217.5,218.8c0.5,0,1.6-0.6,2.6-1.3l1.1-0.7l0.4,0.8c-1.7,1.2-3.1,2.3-4.6,3.2
		c-0.6,0.4-1.5,0.8-2.1,0.8c-0.9,0-1.3-0.6-1.3-1.7c0-1,0.3-2.3,1.4-6.5c1.1-4,3.4-16.2,3.6-18.6c0-0.4,0.1-0.8,0.1-1.1
		c0-0.8-0.7-1-1.4-1h-2l0.2-0.9c1.1-0.1,2.3-0.3,3.4-0.5c1.2-0.3,2.2-0.7,3.4-1.3l0.5,0.5l-5.4,25.7c-0.1,0.6-0.3,1.2-0.3,1.7
		C216.9,218.4,217.2,218.8,217.5,218.8z M214.2,172.9c-2.2-1-4-2.6-5-3.3c-0.2-0.2-2.1-1.6-2.7-2.3c-1.6-1.6-3.6-3.6-3.6-9
		c0-3.7,0-37.3,0-37.3c0-3.2-2.8-3.9-4.5-2.9c-1.1,0.6-2.5,1.6-2.5,1.6v50.8h-13.9h0v-49.5c0-3.2-2.9-3.7-4.3-2.9
		c-0.8,0.4-2.2,1.4-2.6,1.6l0,50.8H161c0,0,0-43.1,0-46.6c0-4.7,0-4.3-3.6-6.2c-2.1-1.1-4.2-2.1-4.2-2.1l11-9
		c1.8,0.6,4.5,1.8,8.4,4.7c2.2-1.3,3.6-2.1,6.5-3.7c4.7-2.7,7.6-1.5,9.2-0.5c1.9,1.2,3.5,2.1,5.1,3.4c1.7-0.9,4.2-2.2,6.2-3.1
		c3.8-1.9,6.6-2.2,9.9-0.2c1.9,1.1,3.8,2.4,5.2,4c2.2,2.4,2.2,2.6,2.2,6c0,3.8,0,37.1,0,37.1c0,5.9,3.6,7,6.2,8.5L214.2,172.9z
		 M228.5,220.8c-0.6,0.4-1.5,0.8-2.1,0.8c-0.9,0-1.3-0.6-1.3-1.7c0-1,0.3-2.3,0.6-3.2l2.8-10.2c0.2-0.7,0.3-1.5,0.3-1.9
		c0-0.4-0.2-1-0.8-1c-0.5,0-1.1,0.6-2.2,1.2l-1.2,0.8l-0.3-0.9l1.2-0.8c4.1-2.9,5.1-3.1,5.6-3.1c1.2,0,1.4,0.8,0.9,2.6l-3.3,12.9
		c-0.2,0.6-0.3,1.2-0.3,1.7c0,0.5,0.3,0.8,0.6,0.8c0.5,0,1.6-0.6,2.6-1.3l1.1-0.7l0.4,0.8C231.5,218.8,230,219.9,228.5,220.8z
		 M231.8,195.5c-1.1,0-1.7-0.7-1.7-1.8c0-1.3,1.1-2.8,2.5-2.8c0.8,0,1.5,0.7,1.5,1.6C234.1,194.3,233.2,195.5,231.8,195.5z
		 M241,218.8c0.6,0,1.6-0.6,2.5-1.3l1.9-1.3l0.4,0.8c-2.3,1.8-3.8,3.2-5.4,4c-0.7,0.3-1.6,0.6-2.2,0.6c-0.9,0-1.3-0.6-1.3-1.7
		c0-1,0.4-2.3,0.6-3.2l2.4-12h-3.6l0.1-0.6c1-0.3,2.7-1.1,3.7-1.6l1.1-7.2c0.9-0.3,2.3-0.9,3.3-1.5l0.5,0.6
		c-0.9,2.7-1.4,5.4-1.9,8.4c1.6,0,3.1-0.1,4.7-0.3l-0.5,2.1h-4.5c-0.8,4.2-2,9.7-2.2,11.6c-0.1,0.6-0.2,1.2-0.2,1.7
		C240.4,218.4,240.6,218.8,241,218.8z M262.7,219.8c-1,3.1-2.3,5.9-4.3,8.5c-1.8,2.2-4.2,4.6-7.3,4.6c-2.1,0-3.9-1.7-3.5-4.1l2-1.4
		l0.4,0.2c-0.4,2.2,0.8,3.6,2.6,3.6c2.2,0,3.8-1.9,4.9-4.2c1.1-2.3,1.9-4.9,2.3-6.4l2-6.9l-0.1-0.1c-1.1,1.6-2.3,3.2-3.6,4.6
		c-1.1,1.3-3.2,3.5-4.5,3.5c-1.3,0-1.9-1.5-1.9-2.6c0-0.7,0-1.4,0-2.1l0.7-10.3c0.1-1.5-0.1-2.8-0.9-2.8c-0.3,0-0.7,0.3-1.1,0.6
		l-2,1.2l-0.5-0.8l3.5-2.4c2.2-1.5,2.6-1.7,3.2-1.7c0.8,0,1.3,0.8,0.8,6.8l-0.6,8.2c-0.1,1.3,0.1,2.6,0.8,2.6c0.8,0,2.8-1.6,4.5-4
		c1.3-1.9,2.8-4.9,3.4-7.2l0.8-2.8l0.7-2.8c1-0.1,2.2-0.4,3.1-0.8l0.5,0.4L262.7,219.8z M295.8,173.3c-2-1.2-3.3-2.3-4.6-3.3
		c-1-0.7-1.3-1-3-2.6c-2.4-2.3-2.3-5.2-2.3-8.8c0-3.7,0-27.8,0-27.8c0-2.4-2.4-2.7-3.9-1.8c-1.2,0.7-2,1.3-2,1.3v40.2h-13.3
		c0,0,0-33.1,0-36.6c0-4.6-0.7-4.3-3.2-6.3c-0.4-0.3-1.7-1.2-1.7-1.2l10.5-8.6c1.8,0.8,4.3,2.7,6,4.4c2.2-1.3,3.3-1.9,6.9-3.6
		c4.5-2.1,5.7-1.1,7.6,0.3c1.8,1.3,3.1,2.4,4.6,4c1.9,2.1,2,3.3,2,6.2c0,3.8,0,26.2,0,26.2c0,5.2,0.9,5.4,5.3,7.9L295.8,173.3z
		 M324.5,173.1l-7.1-3.7c-4.4-2.6-7.8-5.5-7.8-11.2v-29h-7.2v-9.9h7.2v-6.4l13.6-6.5v12.9h8v9.9h-8v24.6c0,4.8,2.7,6,8.3,8.6
		L324.5,173.1z M354.3,158.6c3,1.2,4,1.5,10.1,2.9l-7.2,10.8c-12-3.6-13.8-5.1-16.3-6.6c-3.1-1.8-5-4.4-5.5-9.3
		c-0.2-2-0.6-12.3-0.4-20c0-2.6,0.2-4.9,0.4-6.4c0.3-2.1,0.7-3.9,5.1-6.4c1.5-0.8,6.4-3.5,10.9-5.5c1.6-0.7,6.7-3.3,10.8,2.6
		c1.6,2.3,1.9,2.6,3.7,6c3.2,5.7-0.3,10-2.1,12c-3.9,4.1-10.2,9.8-15.4,13.4C348.4,156.7,352.3,157.8,354.3,158.6z"/>
</g>
</svg>
