<?xml version="1.0" encoding="utf-8"?>
<!-- Generator: Adobe Illustrator 21.1.0, SVG Export Plug-In . SVG Version: 6.00 Build 0)  -->
<svg version="1.1" id="Layer_1" xmlns="http://www.w3.org/2000/svg" xmlns:xlink="http://www.w3.org/1999/xlink" x="0px" y="0px"
	 viewBox="0 0 341.8 127.7" style="enable-background:new 0 0 341.8 127.7;" xml:space="preserve">
<path d="M100.8,0.1c-2.9,0-5.7,1.4-7.5,3.7c-1.8,2.1-2.1,3.4-2.1,7.8v23.5c0,4.1-1.9,6.5-5.3,6.5c-3.3,0-5.3-2.6-5.3-6.8V11.6
	c0-4.2-0.7-6.4-2.6-8.4c-1.8-1.8-4.5-3.1-7.2-3.1c-2.8,0-5.8,1.5-7.7,3.8c-1.7,2.2-2,3.6-2,9.2v20.7c0,7.8,1.1,11.9,4.8,16.9
	c4.7,6.4,12.2,10.2,20,10.2c7,0,13.9-3.2,18.6-8.6c4.2-4.8,6.2-10.5,6.2-18.5V12.9c0-5.3-0.4-7.1-2.3-9.3
	C106.6,1.5,103.6,0.1,100.8,0.1 M52.2,19.5c-1.6-4.4-4.3-8.3-7.8-11.5C38.7,2.9,31.9,0.5,23,0.5H11.1c-5.6,0-9.3,2.2-10.7,6.4
	C0,8.2,0,8.8,0,13.7v32.4c0,4.1,0,5,0.3,6.4c0.6,2.3,1.9,3.9,4.1,5.3c1.8,1.2,3.6,1.6,8.2,1.6h8.2c4.1,0,7.6-0.3,10-0.7
	c5.1-1.1,10.1-3.6,13.9-7.1c6-5.6,9.5-13.5,9.5-21.6C54.1,26.3,53.4,22.8,52.2,19.5z M27.5,19.5l0.9,0.4c3.8,1.9,6.3,5.8,6.3,10.2
	c0,3.6-1.9,7.2-4.8,9.4c-2.3,1.6-3.9,1.9-10.6,1.9V18.6h1.6C24,18.6,25.9,18.9,27.5,19.5L27.5,19.5z M161.7,0.1
	c-3.2,0-6.3,1.7-7.9,4.2c-1.4,2-1.8,3.8-1.8,7.7v10.9l-2.8-3.5L136.6,3.9c-2.2-2.7-4.4-3.9-7.2-3.9c-6.2,0.1-10.2,4.2-10.2,10.5
	v37.3c0,4.3,0.4,6.1,2,8.3c1.9,2.4,4.8,3.8,7.8,3.8c2.9,0,5.7-1.3,7.5-3.5c1.7-2.1,2.2-3.9,2.2-7.8V36.2l15.4,19.7
	c2,2.6,4.6,4,7.7,4c3,0,5.8-1.3,7.6-3.6c1.7-2.2,2.1-4.1,2.1-8.8v-36c0-3.6-0.6-5.7-2.3-7.8C167.3,1.4,164.6,0.1,161.7,0.1z
	 M217.4,29.3l6.8-9.8l3.1-4.6c1-1.4,1.5-3.3,1.5-5.1c0-5.2-4.5-9.7-9.8-9.7c-3.3,0-6.1,1.6-8,4.5l-10.1,14.9l-0.7,1v-9.4
	c0-3.5-0.7-5.7-2.6-7.7c-1.8-2-4.5-3.3-7.3-3.3c-5.8,0-9.7,4.4-9.7,10.9v37.8c0,6.8,3.8,11.1,9.9,11.1c5.8,0,9.7-4.4,9.7-11.2V38.5
	L214.8,57c1.4,1.8,4.1,2.9,6.8,2.9c5.3,0,9.7-4.5,9.7-9.9c0-2-0.6-3.8-1.9-5.3L217.4,29.3z M308.4,0.1c-3.2,0-6.3,1.7-7.9,4.2
	c-1.4,2-1.8,3.8-1.8,7.7v10.9l-2.8-3.5L283.3,3.9c-2.2-2.7-4.4-3.9-7.2-3.9c-6.1,0-10.2,4.1-10.2,10.4v37.3c0,4.3,0.4,6.1,2,8.3
	c1.9,2.4,4.8,3.8,7.8,3.8c2.9,0,5.7-1.3,7.5-3.5c1.7-2.1,2.2-3.9,2.2-7.8V36.2l15.4,19.7c2,2.6,4.6,4,7.7,4c3,0,5.8-1.3,7.6-3.6
	c1.7-2.2,2.1-4.1,2.1-8.8v-36c0-3.6-0.6-5.7-2.3-7.8C314,1.4,311.4,0.1,308.4,0.1z M333.2,0.1c-5.1,0-8.6,6.2-8.6,11.3
	c0,2.3,0,5.3,0.5,8.1c0.7,3.5,2.4,6.6,6.3,7.3c4.1,0.8,6.9-3,8.6-7.3l0,0c1.2-3.2,1.8-6.8,1.8-9C341.9,5.4,338.4,0.1,333.2,0.1z
	 M247,0.1c-2.8,0-5.4,1.2-7.2,3.2c-2,2.2-2.5,4-2.5,8.9v36.5c0,4.1,0.6,6.1,2.5,8.1c1.7,1.8,4.6,3.1,7.2,3.1s5.4-1.2,7.2-3.3
	c1.8-1.9,2.5-4.2,2.5-7.9V12.2c0-4.8-0.6-6.8-2.6-9C252.4,1.2,249.8,0.1,247,0.1z"/>
<path d="M229.4,75.8c-0.2-2.5-0.8-3.8-2.1-5.4c-1.7-2.1-4.7-3.5-7.5-3.5c-2.9,0-5.6,1.4-7.4,3.7c-1.3,1.6-1.9,2.7-2,5.2
	c0,0.7-0.1,1.5-0.1,2.5v23.5c0,4.1-2,6.7-5.5,6.7s-5.5-2.7-5.5-7V78.2c0-0.9,0-1.8-0.1-2.5c-0.3-2.6-1-4.2-2.5-5.8
	c-1.7-1.8-4.4-3-7.1-3c-2.8,0-5.7,1.5-7.6,3.7c-1.2,1.5-1.7,2.6-1.9,5.1c-0.1,1-0.1,2.3-0.1,4v20.8c0,7.7,1.1,11.8,4.6,16.6l0.1,0.2
	c4.7,6.3,12.1,10.2,19.9,10.2c6.9,0,13.8-3.2,18.6-8.6c0.5-0.6,1-1.2,1.4-1.7c3.2-4.4,4.7-9.7,4.7-16.6v-21
	C229.5,78.1,229.5,76.9,229.4,75.8"/>
<path d="M46,117.3c5.3-5.5,8.4-12.9,8.4-20.5c0-3.6-0.7-7.2-1.9-10.6l0,0c-1.5-3.9-3.8-7.4-6.8-10.4l0,0l-1-0.9
	c-5.7-5.1-12.5-7.5-21.3-7.5h-12c-5.6,0-9.2,2.2-10.5,6.3c-0.2,0.7-0.3,1.1-0.4,2l0,0c-0.1,0.9-0.1,2.3-0.1,4.7v32.5
	c0,2.1,0,3.3,0,4.2s0.1,1.4,0.3,2.1c0.6,2.3,1.8,3.8,4,5.2c1.7,1.2,3.5,1.6,8.1,1.6H21c4.1,0,7.6-0.3,10-0.7c5.1-1,10-3.6,13.8-7.1
	L46,117.3L46,117.3 M19.6,86.2v-0.9h1.8c3.2,0,5.2,0.3,6.9,0.9l0,0l0.7,0.3c3.9,1.9,6.4,5.9,6.4,10.3c0,3.7-1.9,7.4-4.8,9.5
	c-2.3,1.6-4,1.9-10.7,2h-0.2L19.6,86.2L19.6,86.2z"/>
<path d="M116.3,86.2c-1.4-3.9-3.6-7.4-6.4-10.4c-5.7-6-13.7-9.8-22.7-9.8s-17.1,3.8-22.8,9.8l0,0c-2.8,3-4.9,6.5-6.3,10.3l0,0
	c-1.2,3.2-1.8,6.7-1.8,10.3c0,8,2.9,15.3,7.8,20.8l0,0c5.6,6.4,13.9,10.4,23.2,10.4c9.1,0,17.4-4,23-10.4c4.9-5.5,7.9-12.7,7.9-20.5
	C118.2,93,117.5,89.5,116.3,86.2 M87.3,108.7c-6.5,0-11.8-5.4-11.8-11.9c0-4.7,2.9-8.8,7.1-10.6c1.4-0.6,3-0.9,4.7-0.9
	s3.2,0.3,4.7,0.9c4.2,1.8,7.1,5.9,7.1,10.6C99.1,103.3,93.8,108.7,87.3,108.7z"/>
<path d="M173.7,75.8c-0.2-2.2-0.9-3.8-2.2-5.4c-1.8-2.2-4.4-3.5-7.3-3.5c-3.1,0-6.2,1.7-7.8,4.2c-1,1.4-1.4,2.7-1.6,4.7l0,0
	c-0.1,0.8-0.1,1.8-0.1,2.9v11.5l-3.3-4.1L143,75.7l-4.1-5c-2.2-2.7-4.3-3.8-7.1-3.8c-5.5,0-9.4,3.5-9.9,8.8c0,0.5-0.1,1-0.1,1.4
	v37.3c0,1,0,1.9,0.1,2.7c0.2,2.5,0.7,3.9,1.9,5.6c1.8,2.3,4.7,3.7,7.7,3.7c2.9,0,5.6-1.3,7.4-3.5c1.4-1.7,2-3.2,2.1-5.8
	c0-0.6,0-1.2,0-1.9v-12.9l11.5,14.7l4.2,5.4c2,2.6,4.5,3.9,7.6,3.9c3,0,5.7-1.3,7.5-3.6c1.2-1.6,1.8-3.1,2-5.7
	c0.1-0.9,0.1-1.9,0.1-3V77.9C173.8,77.3,173.8,76.5,173.7,75.8"/>
<path d="M281.4,75.8c-0.2-4.3-3.4-7.6-7.8-8.2c-0.6-0.1-0.9-0.1-1.7-0.2c-0.8,0-2.2,0-4.9,0h-19.6c-7.7,0-8.5,0.1-10.5,1
	c-2.6,1.1-4.7,4.3-4.9,7.4l0,0v0.5c0,2.3,1,4.5,2.7,6.3c1.7,1.7,3.9,2.5,7.2,2.5h5.4v29.7c0,0.9,0,1.6,0.1,2.3
	c0.1,2.4,0.6,3.7,1.6,5.3c1.8,2.5,4.7,4,7.9,4c3.3,0,6.2-1.6,7.9-4.3c0.9-1.5,1.4-2.9,1.6-5c0.1-0.7,0.1-1.5,0.1-2.5V85h4.5
	c3.5,0,5.9-0.7,7.4-2.1c1.9-1.7,3.1-4.3,3.1-6.9L281.4,75.8"/>
<path d="M318.6,94c-2.7-2.3-7.5-4.7-12.5-6.2c-2-0.6-3.3-1.2-4.3-1.7l0,0c-1.2-0.7-1.7-1.4-1.7-2.5c0-1.3,1.1-2.5,2.5-2.5
	c1.1,0,2.1,0.5,4.2,2.2c2,1.5,3.5,2.4,5,2.9l0,0c1,0.3,1.9,0.5,3,0.5c1,0,1.9-0.2,2.7-0.5l0,0c2.9-1.1,4.7-3.8,4.7-7.4
	c0-1-0.2-2-0.5-2.9c-1.9-5.7-9.2-9.8-18.3-9.8c-8.8,0-15.7,3.7-19.1,9.8l0,0c-1.5,2.7-2.4,5.9-2.4,9.4v1l0,0
	c0.3,7.6,4.5,12.8,12.7,15.7c1.6,0.6,3.2,1.1,4.8,1.7c3.1,1.1,3.4,1.3,3.9,1.7c1.1,0.7,1.6,1.5,1.6,2.6c0,1.6-1,2.7-2.6,2.7
	c-1.5,0-2.1-0.4-6.3-3.7c-2.5-2-4.5-2.8-6.8-2.8c-4.9,0-8.7,3.8-8.7,8.7c0,1.6,0.3,3,1,4.4l0,0c2.7,6,10.9,10.4,21.1,10.4
	c7.2,0,12.5-2,16.4-5.9c1.3-1.3,2.4-2.8,3.2-4.5c1.5-2.9,2.3-6.1,2.3-9.5C324.5,102.3,322.2,97,318.6,94"/>
</svg>
