<?xml version="1.0" encoding="utf-8"?>
<!-- Generator: Adobe Illustrator 21.1.0, SVG Export Plug-In . SVG Version: 6.00 Build 0)  -->
<svg version="1.1"
	 id="Layer_1" inkscape:version="0.48.2 r9819" sodipodi:docname="AJAX1.svg" xmlns:cc="http://creativecommons.org/ns#" xmlns:dc="http://purl.org/dc/elements/1.1/" xmlns:inkscape="http://www.inkscape.org/namespaces/inkscape" xmlns:rdf="http://www.w3.org/1999/02/22-rdf-syntax-ns#" xmlns:sodipodi="http://sodipodi.sourceforge.net/DTD/sodipodi-0.dtd" xmlns:svg="http://www.w3.org/2000/svg"
	 xmlns="http://www.w3.org/2000/svg" xmlns:xlink="http://www.w3.org/1999/xlink" x="0px" y="0px" viewBox="0 0 354 127"
	 style="enable-background:new 0 0 354 127;" xml:space="preserve">
<path id="path33" inkscape:connector-curvature="0" d="M0,0h354v127H0V0z M177,121.8c95.4,0,172.8-25.9,172.8-57.9
	c0-32-77.4-57.9-172.8-57.9C81.6,5.9,4.2,31.9,4.2,63.9C4.2,95.8,81.6,121.8,177,121.8"/>
<path id="path43" inkscape:connector-curvature="0" d="M136,83.4c0,0,0.6-0.5,0.7-0.9c0.2-1.1-0.2-2.1-0.2-2.1l-9.5-15v-0.1l0,15.8
	l0.3,1.3l0.5,0.7H97.7l0.5-0.7l0.3-1.3l0-41.2l-0.3-1.2L97.7,38h30.2l-0.5,0.7l-0.3,1.3l0,14.8L138,40.4c0,0,0.2-0.6,0.2-1.4
	c0-0.5-0.5-1.3-0.5-1.3l30,0l-13.1,18.6l15.7,25.2l1.2,0.9l1.3,0.6H136C136,83,136,83.4,136,83.4z"/>
<path id="polygon53" d="M80.9,81.2l0.3,1.4l0.5,0.8l-30.1-0.1l0.4-0.9l0.1-1.4V39.9l-0.1-1.2L51.5,38h30.2l-0.5,0.7L80.9,40
	L80.9,81.2z"/>
<path id="polygon63" d="M224.7,54.6l1.4-0.2l0.8-0.5l0,12.7l-0.9-0.5l-1.3-0.3l-16.7,0V70h21.8l1.5-0.3l0.8-0.6l0.1,14.4l-52.9-0.1
	l0.5-0.9l0.2-1.4V39.9l-0.2-1.4l-0.5-0.9l52.7,0.1l0,13.8l-0.9-0.4l-1.4-0.1H208v3.7L224.7,54.6z"/>
<path id="path73" inkscape:connector-curvature="0" d="M274.9,57l-3.5,8h7.1L274.9,57z M256.8,39.9c0,0,0.2-0.8,0.1-1.4
	c-0.1-0.6-0.5-0.9-0.5-0.9l40.9,0c0,0-0.4,0.2-0.5,0.9c-0.1,0.6,0.1,1.4,0.1,1.4l17.9,41.8l0.6,0.9l0.8,0.7l-32.3,0.1
	c0,0,0.5-1,0.4-1.5c-0.1-0.5-0.2-1.1-0.2-1.1L282,75h-14.1l-2.3,5.9c0,0-0.2,0.1-0.2,0.5c0,0.9,0.5,1.6,0.5,1.6h-26
	c0,0,0.9-0.4,1.4-1.4c0.4-0.9,0.3-0.8,0.3-0.8L256.8,39.9L256.8,39.9z"/>
</svg>
