<?xml version="1.0" encoding="utf-8"?>
<!-- Generator: Adobe Illustrator 21.1.0, SVG Export Plug-In . SVG Version: 6.00 Build 0)  -->
<svg version="1.1" id="Layer_1" xmlns="http://www.w3.org/2000/svg" xmlns:xlink="http://www.w3.org/1999/xlink" x="0px" y="0px"
	 viewBox="0 0 395 180.4" style="enable-background:new 0 0 395 180.4;" xml:space="preserve">
<g>
	<path d="M139.2,61.2c-6.3,0-8.5,5.9-8.5,11.7h16.9C147.6,66.3,145.5,61.2,139.2,61.2z"/>
	<path d="M0,0l37.9,179l2.9-1.5c40.3-21.1,80.5-19.9,107.1-15.1c28.9,5.2,48.6,15.5,48.8,15.6l1,0.6l1.1-0.5
		c47.5-21.1,86.8-19.9,111.3-15.2c26.6,5.2,42.2,15.4,42.4,15.6l3,2l0.8-3.5L395,0H0z M104.4,109.1H48.7V50.4h22.2v43.7h33.5V109.1z
		 M140.3,111.2c-22.7,0-34.8-11.7-34.8-31.4c0-19.6,12.5-31.3,33.5-31.3c22.4,0,33.5,14.3,33.5,31.3c0,1.3-0.1,2.6-0.3,3.6h-42.4
		c0,8.3,4.7,13.5,12.1,13.5c6.3,0,11.2-1.8,12.2-7h18.5C170.4,103.3,160.9,111.2,140.3,111.2z M213.8,109.2h-18.3l-29.1-59.3H192
		l15.6,34.2h0.4l15.6-34.2H242L213.8,109.2z M267.5,109.1h-22.2V49.8h22.2V109.1z M288,54.6L288,54.6l-7.7,9.3h-3.2l3.5-10.1h-7
		V40.2H288V54.6z M316.9,110.4c-20.3,0-27.9-8.9-27.9-19.8v-0.3h18.6c0,5.1,4,7.7,9.7,7.7c5,0,7.6-1.7,7.6-4.9
		c0-8.5-35.4-0.4-35.4-24.3c0-12.8,11.9-20.3,30.6-20.3c16.6,0,26.7,8.2,26.7,18.1h-17c0-2.8-3.5-5.7-9.6-5.7
		c-6.2,0-8.5,2.2-8.5,4.1c0,9.3,37.1,0.2,37.1,24.5C348.7,101.3,339.9,110.4,316.9,110.4z"/>
</g>
</svg>
