<?xml version="1.0" encoding="utf-8"?>
<!-- Generator: Adobe Illustrator 21.1.0, SVG Export Plug-In . SVG Version: 6.00 Build 0)  -->
<svg version="1.1" id="artwork" xmlns="http://www.w3.org/2000/svg" xmlns:xlink="http://www.w3.org/1999/xlink" x="0px" y="0px"
	 viewBox="0 0 283.5 116.2" style="enable-background:new 0 0 283.5 116.2;" xml:space="preserve">
<g>
	<path d="M250.1,7.1c0.7-0.1,1.3-0.2,1.9-0.4c0.6-0.2,1-0.6,1.3-1.1c0.3-0.5,0.5-1.2,0.5-2.1c0-0.8-0.2-1.4-0.4-1.8
		c-0.3-0.4-0.7-0.8-1.1-1c-0.5-0.2-1-0.4-1.6-0.5c-0.3,0-0.5-0.1-0.8-0.1h-5.7v7.2h3.7C248.6,7.2,249.4,7.1,250.1,7.1z M236.7,20.3
		c1.4,1.5,3.1,2.7,5.1,3.5c2,0.8,4.1,1.3,6.4,1.3c2.3,0,4.3-0.4,6.3-1.3c1.9-0.9,3.6-2,5.1-3.5c1.4-1.5,2.6-3.2,3.4-5.3
		c0.8-2,1.2-4.2,1.2-6.6c0-2.3-0.4-4.5-1.2-6.5c-0.3-0.7-0.6-1.3-0.9-1.9h-5.5c0.6,1,0.9,2.2,0.9,3.6c0,2-0.6,3.5-1.7,4.5
		c-1.1,1-2.6,1.5-4.3,1.7l6.5,10h-3.8l-6.2-9.8h-3.7v9.8h-3.5V0h-6.3c-0.3,0.6-0.6,1.2-0.9,1.9c-0.8,2-1.2,4.2-1.2,6.5
		c0,2.4,0.4,4.6,1.2,6.6C234.2,17,235.3,18.8,236.7,20.3z M99.9,38.8c-4.9,0-7.5,3.8-7.6,7.8h15.8C108.1,42,105.2,38.8,99.9,38.8z
		 M265.8,0c0.1,0.2,0.3,0.5,0.4,0.7c1,2.4,1.6,4.9,1.6,7.6c0,2.8-0.5,5.4-1.6,7.8c-1,2.4-2.4,4.4-4.2,6.2c-1.8,1.7-3.8,3.1-6.2,4.1
		c-2.4,1-4.9,1.5-7.5,1.5c-2.7,0-5.2-0.5-7.6-1.5c-2.4-1-4.4-2.3-6.2-4.1c-1.8-1.7-3.2-3.8-4.2-6.2c-1-2.4-1.6-5-1.6-7.8
		c0-2.7,0.5-5.3,1.6-7.6c0.1-0.3,0.2-0.5,0.4-0.7H0l27.3,116.2c57.2-36.8,112.2-1.4,114.4-0.1h0c0,0,0,0,0,0h0c0,0,0,0,0,0h0
		c2.2-1.3,57.2-36.7,114.4,0.1L283.5,0H265.8z M74.9,70.5H37.6V31.7h16.8V60h20.5V70.5z M125,54.4H92.3c0,5.1,4.3,8.9,10,8.9
		c3.4,0,6.5-1.1,8.7-4.2h13c-4.3,9.8-12.5,12.6-23.8,12.6c-14.7,0-25-7.9-25-20.5c0-13.4,10.2-20.5,25-20.5
		c16.6,0,24.9,10.7,24.9,21.1C125.1,52.6,125.1,53.5,125,54.4z M155.3,70.6h-14.1l-21.1-38.9h19l12.1,23.6l0.3,0.7l0.3-0.7
		l11.3-23.6h11.4L155.3,70.6z M192.6,70.5h-16.2V31.6h16.2V70.5z M204.7,36.5l-4.9,5.3h-2L200,36h-4.5v-7.7h9.1V36.5z M225.9,71.6
		c-17.3,0-20.4-10-20.4-12.4H218c0,1.5,2,3.2,3.6,3.9c1.4,0.6,2.9,0.7,4.3,0.7c3.5,0,6.4-0.9,6.4-2.9c0-2.5-3-3-6.2-3.5
		c-8.9-1.3-21.3-2.8-21.3-12.7c0-9.3,10.1-14,20.8-14c17.2,0,21.7,9.5,21.7,12.3h-12.7c0-0.8-0.6-2.4-2.4-3.3
		c-1.3-0.7-3.2-1.2-5-1.2c-4.7,0-7.4,1-7.4,3.2c0,1.8,2.4,2.7,5.9,3.3c9,1.5,22.9,2.1,22.9,13.1C248.7,63.5,243.8,71.6,225.9,71.6z"
		/>
</g>
</svg>
