<?xml version="1.0" encoding="utf-8"?>
<!-- Generator: Adobe Illustrator 21.1.0, SVG Export Plug-In . SVG Version: 6.00 Build 0)  -->
<svg version="1.1" id="Layer_1" xmlns="http://www.w3.org/2000/svg" xmlns:xlink="http://www.w3.org/1999/xlink" x="0px" y="0px"
	 viewBox="0 0 109.4 45.9" style="enable-background:new 0 0 109.4 45.9;" xml:space="preserve">
<path d="M14.6,11.3C18.9,8,22.4,4.2,25.4,0l-5,11.2l0.5,1.2l4.8-4.1v11.9l-5.3,4.9l1.4-10l-2,2.4l-1-2.5l-8.3,17.9
	c-0.3,0.7,0.4,1.2,1,0.7l3.8-3.2L0,45.9l16.1-31l2.8-5.4c0.1-0.1,0-0.5-0.4-0.3L14.6,11.3L14.6,11.3z M52.3,8.3h3.6v8.5h4.5v3.3
	h-8.2V8.3H52.3z M61.1,8.3h3.6v8.5h4.2v3.3H61L61.1,8.3L61.1,8.3z M69.7,8.3h3.7v11.8h-3.7V8.3z M41.5,11.5v8.6h-3.9v-8.6h-2V8.3
	h10.3l-1.4,3.2H41.5z M26.6,8.3h8.3v3.2h-4.6v1.2h4.6v3.2h-4.6v1h4.6v3.2h-8.3C26.6,20.1,26.6,8.3,26.6,8.3z M51.3,8.3v11.8h-3.5
	v-3.3h-0.3l-1.6,3.3h-3.8l5.2-11.8H51.3L51.3,8.3z M47.4,14.4h0.9v-1.7L47.4,14.4z M80.3,7.6c1.6,0,3.1,0.6,4.2,1.6L81.8,12
	c-0.4-0.4-1-0.5-1.5-0.5c-1.3,0-2.4,1.1-2.4,2.4s1.1,2.4,2.4,2.4c1,0,1.8-0.6,2.2-1.4l3.3,2.1c-1.1,2-3.2,3.2-5.5,3.2
	c-3.5,0-6.3-2.8-6.3-6.2C74,10.4,76.8,7.6,80.3,7.6L80.3,7.6z M82.8,0.2c3.6,3.2,7.4,6.4,11.2,9.5l-3.9-2.3c-0.4-0.2-1.1,0-0.6,0.9
	c6.6,12.5,13.4,24.9,19.9,37.4c-5.5-5.1-11-10.3-16.4-15.6l5.5,3.4c0.7,0.3,1.1-0.3,0.4-1.4l-6.7-13.8L91,16h-1.6l1.5,9.3l-4.5-5.2
	L85.8,5.7L82.8,0.2L82.8,0.2z M89,12.8h0.9l-1.3-2.1L89,12.8z"/>
</svg>
