<?xml version="1.0" encoding="utf-8"?>
<!-- Generator: Adobe Illustrator 21.1.0, SVG Export Plug-In . SVG Version: 6.00 Build 0)  -->
<svg version="1.1" id="Layer_1" xmlns="http://www.w3.org/2000/svg" xmlns:xlink="http://www.w3.org/1999/xlink" x="0px" y="0px"
	 viewBox="0 0 198.6 88.8" style="enable-background:new 0 0 198.6 88.8;" xml:space="preserve">
<title>milwaukee_logo</title>
<path d="M198.6,27.7l-52.3,19.9l3-6.6L78.4,65.3l3.9-8.1L0,88.8l61.8-15.5L56.8,83l76.7-28.5l-4.4,8.5L198.6,27.7z"/>
<path d="M46.2,12.1l-9.1,7.7l-3.9-4.3L25.5,22l1-10.5L0,33.9l18.1-8.7l-4.7,39.1c0,0,5.6,4.1,6,4.4c0.5-3.7,5-39.5,5.2-41.5v-0.1
	l5.2-4.4l1.1,1.1l-4.2,35.7c0,0,5.6,4.2,6,4.5c0-0.3,3.8-32.7,4.7-40.4l5.2-4.4l1.1,1.1l-4,34.8l6,4.4l4.9-42.3L46.2,12.1z"/>
<path d="M180.8,21.6l-1.8-1.5l0.4-3l8.4-4.7L180.9,4l-6.2,5.4l-1.5,11.7l-8.3,4.5l-2-1.6l0.4-3.1l9.2-5.1l-7.4-8.9l-6.7,5.7
	L157,23.8l-3,2.9l-4.7-9.3l10.6-9.6l-4.8,0.7l-8,6.8L149,0.1l-5.8,0.8l-3.2,26l-3.5,3.8l-0.8-0.7l2.2-16.6l-6.2,1.4l-1.9,14.9
	l-2.8,3.3l-1.2-1l2.1-16.3l-6.2,1.2l-1.9,15.3l-2.9,3.6l-1.3-1.1l2.2-17.1l-6.2,1.3l-0.1,1.4l-4.3-2.1l-6.1,7.8L99.2,40l5.9,5l5.4-7
	l4.7,4l5.1-6.5l4.4,3.8l4.8-6.3l4.6,4l6.2-6.7l4.7,3.7l1.4-11.4l5,10.2l6.6-6.4l4.3,3.6l12.7-7l3.2,2.8l11.7-6.8l0.3-2.5L180.8,21.6
	z M180.4,8.9l2.7,3.2l-3.4,1.9L180.4,8.9z M164.6,12.1l3,3.5l-3.7,2L164.6,12.1z M109.5,35.3l-2.5,3.1l-1.3-1.2l2.1-16.2l3.4,1.8
	L109.5,35.3z M94.6,22.5L92.1,42l-1.4,1.5l-2.4-2l2.3-18.3l-6.3,1.5L82,43.8l-1.8,2.5l-2-1.8l2.3-19.2l-6.3,1.3l-2.1,17.5l-2.6,3.5
	l-1.8-1.5l4.1-32.8l-6.1,1l-3.8,31.6l-3.1,4.3l-1.6-1.3l2.6-19.2l-6.3,1.3l-2.9,22.3l5.5,4.3l5.4-7.3l5.7,4.5l5.5-7.4l5.8,5.1
	l5.8-7.7l4.7,4.1l8.1-8.8l2.5-18.6L94.6,22.5z M60.9,19.9L54.7,21l-0.8,6.2l6.3-1.2L60.9,19.9z"/>
</svg>
