<?xml version="1.0" encoding="utf-8"?>
<!-- Generator: Adobe Illustrator 21.1.0, SVG Export Plug-In . SVG Version: 6.00 Build 0)  -->
<svg version="1.1" id="Layer_1" xmlns="http://www.w3.org/2000/svg" xmlns:xlink="http://www.w3.org/1999/xlink" x="0px" y="0px"
	 viewBox="0 0 256 164" style="enable-background:new 0 0 256 164;" xml:space="preserve">
<path d="M21.6,0.4C9.7,0.4,0,10,0,21.9s9.7,21.6,21.6,21.6s21.5-9.7,21.5-21.6S33.4,0.4,21.6,0.4 M25.7,29.3c0,2.3-1.9,4.2-4.2,4.2
	s-4.2-1.9-4.2-4.2V14.4c0-2.3,1.8-4.1,4.2-4.1c2.3,0,4.2,1.8,4.2,4.1V29.3z M77.9,31.8c0,1.3,1.1,2.4,2.4,2.4v6.4H66.6V24
	c0-1.3-1.1-2.4-2.5-2.4c-1.3,0-2.4,1.1-2.4,2.4v7.7c0,1.3,1.1,2.5,2.4,2.5v6.4H47v-6.4c1.3,0,2.4-1.1,2.4-2.4v-9.1
	c0-1.3-1.1-2.4-2.4-2.4V13h14.7v2.6c1.5-1.8,4.3-3.1,7.5-3.1c4.8,0,8.7,2.9,8.7,6.5L77.9,31.8 M180.6,31c0,1.4,1.1,2.5,2.4,2.5v7.2
	h-14.7V38c-1.5,1.9-4.3,3.1-7.5,3.1c-4.8,0-8.8-2.9-8.8-6.5V21.9c0-1.3-1.1-2.4-2.4-2.4V13h13.8v16.6c0,1.3,1.1,2.3,2.4,2.3
	c1.3,0,2.4-1,2.4-2.3v-7.7c0-1.3-1.1-2.4-2.4-2.4V13h14.7v18 M218.1,32.3c1,1,1.5,1.5,2.9,1.5v6.8h-11.6l-8.3-9.4v0.6
	c0,1.3,1.1,2.4,2.4,2.4v6.4h-17v-6.4c1.3,0,2.4-1.1,2.4-2.4V9.2c0-1.3-1.1-2.4-2.4-2.4V0H201v23.9l3.3-3.2c0,0-1.5,0-1.5-1.8v-6.4
	h16.5v6.2c0,1.8-1.3,2-2.5,2.4l-4.2,4L218.1,32.3 M117.3,9.9c0,1.7,1.4,3.1,3.2,3.1v7.1c-1.7,0-3.2,1.4-3.2,3.2v7.2
	c0,1.7,1.4,3.1,3.2,3.1v7h-15.2V23.3c0-1.8-1.4-3.2-3.2-3.2V13c1.8,0,3.2-1.4,3.2-3.1V4.3h12.1L117.3,9.9 M138.8,22.9
	c6.1,1.1,9.2,4,9.2,9.1s-4.3,9.1-9.6,9.1c-2.5,0-5.1-0.2-7.1-0.9c-1.5-0.5-2,0.5-2,0.5H124v-8.8h4.7c2.3,3.6,7.8,3.8,8.3,2.2
	c0.5-1.6-3.9-2.4-3.9-2.4c-5.8-1-9.6-4.4-9.6-9.6s4.3-9.4,9.8-9.4c2.5,0,4.7,0.5,6.6,1.1c0,0,0.4-0.7,1.2-0.7h5.4v8h-5.8
	c-1.7-2-5.2-3.4-6.4-1.6C133.1,21.7,138.8,22.9,138.8,22.9 M252.7,30.2c0,0,0.1-3.3,0.1-9.3s-7.5-10.2-15.9-10
	c-9.7,0.2-12.9,2.5-12.9,2.5l2.3,6.7c0,0,10.8-2.9,12.6,0.1c0,0,0.3,0.3-0.6,0.4c-1.3,0.2-1.8-0.1-4.7-0.1c-6.5,0-12,4.7-12,10.3
	c0,5.6,5.4,10.1,11.8,10.1c2.4,0,4.6-0.6,6.5-1.7c2,0.7,2.7,1.4,2.7,1.4H256v-6.1C252.4,33.5,252.7,30.2,252.7,30.2 M238.3,33.6
	c-1.5,0-2.7-1.5-2.7-3.2c0-1.8,1.2-3.2,2.7-3.2c1.4,0,2.6,1.4,2.6,3.2C240.9,32.2,239.8,33.6,238.3,33.6 M98,31.8
	c0,1.3,1.1,2.4,2.4,2.4v6.4h-17v-6.4c1.3,0,2.4-1.1,2.4-2.4v-9.5c0-1.3-1.1-2.4-2.4-2.4V13H98V31.8 M98,10.6H85.8V1.4H98V10.6z
	 M57,88.2c0,0-0.8,19.5-8.7,23.4c0,0-9-4.8,0.1-22.1L57,88.2z M161.2,83c1.7-4.4,4.9-5.7,6-2c0.9,3.4-0.6,6.6-0.6,6.6
	c-2.3,0.9-5.9,1.1-5.9,1.1S159.6,87.2,161.2,83 M127.9,106.4c0,0,4.6,5.1,0.8,7.9c-3,2.2-7.5-0.4-8-1.8L127.9,106.4z M1.3,45.1v83.3
	c0,11.5,9.3,20.7,20.7,20.7h76.8c0,0,9.9-0.8,29.7,14.9c19.8-15.7,29.6-14.9,29.6-14.9H235c11.4,0,20.7-9.2,20.7-20.7V45.1H1.3z
	 M82.6,115.1c-11.1,14.6-24.6,15.5-33.4,12.4c-10.7-3.9-19.4-15.9-14.6-29.2c4.5-12.4,17.3-16,17.3-16c-0.9,1.3-2,3.7-2,3.7l23-4.2
	c0,0-2.2,11.9-4.3,19.4c-2.1,7.5-15.8,14.4-15.8,14.4c7.2,5.2,16.3,2.9,16.3,2.9l9.2-42c-4.5,0.7-14.3,1.1-23.6,1.6
	c-9,0.4-17.2,4.3-17.2,4.3c2.9-14.7,15.3-16.6,30.6-17.1c16.3-0.6,29.7-4.2,29.7-4.2c-4,12.7-15.3,15-15.3,15L74,117.5
	C79,116.5,82.6,115.1,82.6,115.1 M97.5,120.3c-7.2,2.6-7.8-2.7-7.4-4.7c0.4-1.9,1.6-9.1,2.4-13.6c0.9-4-0.6-5.3-0.6-5.3
	c-0.7-0.8,1.6-1.6,2.4-2.9c1.8-2.4,2.5-3.8,5.6-3.3c3,0.6,4.5,2.8,4,6.3c-0.5,3.6-2.2,11.1-2.8,14.5c-0.6,3.4,5,1.2,5,1.2
	S103.7,118.1,97.5,120.3 M101,86.2c0,0-5.3-3.2-7-4c0,0,3.3-3.5,7.3-5.6c0,0,4.6,2.1,7.8,3.9L101,86.2z M142.4,88.5
	c-1.8,3.4-4.4,15.4-4.8,17.8c-0.4,2.4,0.7,14.2-10.5,17.9s-16-2.7-16-2.7l8-7.3c-4.6-3.9-6.8-12.1-3.4-19.1
	c3.5-7,12.5-10.7,13.9-11.3c1.4-0.6,2.7,0,2.7,0c6.9,2.1,7.4,0.5,9.5,0.7C143.7,84.7,144.3,85,142.4,88.5 M177.5,88.6l-17.7,4
	c0,0-1.8,4.3,0.5,6.1c2.3,1.9,5.7,1.6,12.6-1.6c0,0-2.6,6.2-10.5,8.6c-8,2.4-12-1.7-12.5-7.1c-0.4-5.4,0-15,7.7-20.4
	c7.6-5.4,14.9-3.3,16.5-2.3C175.6,76.7,179.8,79,177.5,88.6 M217.7,75c-2.8,2-8.2-0.3-11.2-1.3s-4.1,0.4-6.1,1.8s-1.9,2.7-1.9,2.7
	s-1.2,5.9-1.6,8.3c-0.4,2.5,1.5,2.9,3,2.9c1.6,0,6.7-1.8,6.7-1.8c-8.4,11.2-14.6,13-18.8,11.7s-4.2-5-3.8-7.6
	c0.4-2.7,1.7-8.9,2.4-12c0.8-3.1-0.9-4.2-0.9-4.2c0-0.6,0.8-1.7,1.8-2.3c1-0.7,3.5-3.2,3.5-3.2c4.2-0.4,7.6,3.1,7.6,3.1
	c1.5-0.2,9-5.6,10.3-6.4c1.2-0.8,1.7-0.4,3.7,0.4s4.4,0.9,7.4,1c2.9,0,5.9,0.4,5.9,0.4C225,70,220.5,72.9,217.7,75 M131.9,92.2
	c1.1,0,1.8,1.2,0.5,2.2c-1.5,1.2-2.9,3.2-3.8,5.5c-0.7,2.1,0.1,6-2.5,5c-3.7-1.5-3.6-6.3-2.8-8.5c0.5-1.4,1.9-3.6,3.3-4.7
	C128.1,90.7,130.9,92.2,131.9,92.2"/>
</svg>
