<?xml version="1.0" encoding="utf-8"?>
<!-- Generator: Adobe Illustrator 21.1.0, SVG Export Plug-In . SVG Version: 6.00 Build 0)  -->
<svg version="1.1" id="Layer_1" xmlns="http://www.w3.org/2000/svg" xmlns:xlink="http://www.w3.org/1999/xlink" x="0px" y="0px"
	 viewBox="0 0 320.8 68.2" style="enable-background:new 0 0 320.8 68.2;" xml:space="preserve">
<g>
	<path id="XMLID_7_" d="M275.1,0.8h15.3v24.5h6c6-0.5,9.1-6.3,8.9-12.5h15.1c0.1,10.9-2.8,15.9-11,18.8c3.3,1.1,11.4,4.4,11.4,16.5
		v8.4h-15.2v-8.8c0-4-3.9-10-10.8-9.8h-4.5v18.6H275V0.8H275.1z"/>
	<path d="M219.1,35c0-12.6,9.5-22.9,26-22.9c16.7,0,26.1,10.3,26.1,22.9c0,12.7-9.9,22.9-26.1,22.9C229.6,57.9,219.1,47.6,219.1,35z
		 M245.1,45.8c6,0,10.9-4.9,10.9-10.9s-4.9-10.8-10.9-10.8c-6.1,0-11,4.8-11,10.8C234.1,40.9,239,45.8,245.1,45.8z"/>
	<path id="XMLID_4_" d="M194.5,12.7h-10.3v12.7h7.3c4.6,0,8.6,4,8.6,9.1c0,6.1-4.9,9.1-8.3,9.2H181v-43h-15.2v55.7h25.9
		c10.9,0,23.8-8.1,23.8-21.5C215.5,21.6,205.3,12.7,194.5,12.7z"/>
	<path id="XMLID_3_" d="M57.1,19.5C57.1,7.1,45.3,0,35,0H0v56.5h14.8V13h17.1c5.1,0,9.5,2.8,9.5,9.2c0,5.2-3.6,8.8-8.4,9h-0.4H19.1
		v12.5c2.5,0,8.9,0,8.9,0c7.3,0.3,11.2,3.4,11.2,11.5v13h15.5V51.3c0-7.4-6.3-11.9-10.1-13.7l-0.1-0.1l0.1-0.1
		C52.7,34.7,57.1,27.7,57.1,19.5z"/>
	<path id="XMLID_2_" d="M134.8,43.8c-5.1,0-9.2-4.1-9.2-9.2s4.1-9.2,9.2-9.2h10.1l-9.2,15.2h14.8l9.5-14.8v-13h-27.4
		c-12,0-21.8,9.8-21.8,21.8c0,12.1,9.8,21.8,21.8,21.8h27.5V43.8C160.1,43.8,134.8,43.8,134.8,43.8z"/>
	<path id="XMLID_1_" d="M73.2,34.6c0-5.1,4.1-9.2,9.3-9.2h10.1l-9.2,15.2h14.8l9.5-14.8v-13H80.3c-12.1,0-21.8,9.8-21.8,21.8
		c0,12.1,9.8,21.8,21.8,21.8h27.5V43.8H82.5C77.4,43.8,73.2,39.7,73.2,34.6z"/>
</g>
</svg>
