<?xml version="1.0" encoding="utf-8"?>
<!-- Generator: Adobe Illustrator 21.1.0, SVG Export Plug-In . SVG Version: 6.00 Build 0)  -->
<svg version="1.1" id="Layer_1" xmlns="http://www.w3.org/2000/svg" xmlns:xlink="http://www.w3.org/1999/xlink" x="0px" y="0px"
	 viewBox="0 0 48.5 31.6" style="enable-background:new 0 0 48.5 31.6;" xml:space="preserve">
<path d="M22.7,30c-2.5-1.6-4.4-7.1-4.4-13.6c0-0.2,0-0.5,0-0.7l0,0C11.2,14.5,6.1,11.5,6,7.9l0,0c-1.7,2.1-2.7,4.6-2.7,7.3
	C3.3,23,11.8,29.4,22.7,30L22.7,30z M0,15.8C0,7.1,10.8,0,24.2,0s24.2,7.1,24.2,15.8S37.6,31.6,24.2,31.6S0,24.5,0,15.8z M24.2,2.3
	c2.6,0,4.8,3.9,5.6,9.4l0,0c5-0.8,8.5-2.6,8.5-4.7c0-2.8-6.3-5.1-14.1-5.1S10.1,4.2,10.1,7c0,2.1,3.5,3.9,8.5,4.7l0,0
	C19.5,6.2,21.6,2.3,24.2,2.3z M25.8,30c10.8-0.6,19.4-6.9,19.4-14.7c0-2.6-1-5.1-2.7-7.3l0,0c-0.1,3.6-5.2,6.6-12.3,7.8l0,0
	c0,0.2,0,0.5,0,0.7C30.2,22.9,28.3,28.4,25.8,30L25.8,30z M24.2,12.1c1.2,0,2.3,0,3.4-0.1l0,0c-0.5-3.5-1.8-6-3.4-6
	c-1.5,0-2.8,2.5-3.4,6l0,0C21.9,12,23.1,12.1,24.2,12.1z M24.2,25.1c1.9,0,3.5-4,3.6-9.1l0,0c-1.2,0.1-2.4,0.2-3.6,0.2
	s-2.5-0.1-3.6-0.2l0,0C20.7,21,22.3,25.1,24.2,25.1z"/>
</svg>
