<svg id="Layer_1" data-name="Layer 1" xmlns="http://www.w3.org/2000/svg" viewBox="0 0 367.81 772.32"><title>yves-saint-laurent</title><path d="M367.81.09C357.54.09,331.31,0,331.31,0L236.45,147.71a216.92,216.92,0,0,0-47.8-5.07,138.93,138.93,0,0,0-39.59,5.91C128.57,80.25,104.51.1,104.51.1H66.25C74.37,8.36,77.52,17.81,80,27.52c6.33,24.62,21.84,85.18,34.86,136.34-35,21.63-61.7,59.62-61.7,113.18,0,46.32,35,73,60.07,102.62l2.38,2.65C110,414.21,104.83,443.42,103,452.5c-3.25,15.83-2.3,33.12-14.75,46.41h49.56a33.36,33.36,0,0,1-2.85-21.82c1.83-10,3.92-19.92,6-29.86.54-2.62,3-14.09,6.37-29.74,5.4,6,10.85,12.07,16.12,17.95-14.52,67.09-31.71,146.41-44.93,207.35-55.59-6.72-94.23-48.39-105.92-83L0,609.36c23.28,21.32,57.06,47,114.67,51-9.15,42.18-15.76,72.64-17.13,78.93-2.45,11.23-4.36,22.64-13,33h13c76.66,0,159.31-.09,236,.09l23.62-39.94c-2.14.34-3.76.53-5.36.88-69.57,14.87-143.55,22.28-214.92,22.28-4.67,0-6.08-2.24-5-6.63,1-4.09,9.68-40.16,21.78-90.28C206,648.71,262.93,605.7,262.93,526.25c0-34.89-21.94-63.94-53.11-100.56,15-61.92,27-111.71,30.16-124.8,1.9-7.85,3.67-15.73,5.58-24H190c4.39,7.5,4.18,15.15,2.64,22.74-1,4.73-8.12,38-18.13,84.28l-15.92-19c6.82-31.55,13.51-62.39,15.76-72.56,4.85-21.91,11.59-43.06,25-61.55,10.06-13.89,19.81-28,29.7-42,1.13-1.61,6-8.52,12.66-18.1a127.36,127.36,0,0,1,54.54,54.12c3.27-13.21,6.91-30.27,10.1-42.14a148,148,0,0,0-52-30c17-24.18,37.62-53.45,46.11-64.75C322.71,58.4,340.38,25.24,367.81.09ZM198.88,475.54c18,21.16,29.57,43.68,29.57,79.19,0,44.24-34,75.83-70.5,85.72L198,474.54ZM91.59,251.08A94.36,94.36,0,0,1,120,183.87c7.84,30.88,14,55.3,15.3,61,2.75,12,0,23.86-2,35.68-.78,4.55-3.87,22.5-7.81,45.28C106.22,303.32,91.59,281.13,91.59,251.08Zm85.13-10.34c-2.72-9.08-12.12-40.44-23.29-77.66a102,102,0,0,1,34.28-5.73A115.64,115.64,0,0,1,226,164C202.31,200.88,182.42,231.85,176.72,240.74Z"/></svg>